<?xml version="1.0" standalone="no"?>
<!DOCTYPE svg PUBLIC "-//W3C//DTD SVG 1.1//EN" "http://www.w3.org/Graphics/SVG/1.1/DTD/svg11.dtd">
<svg width="100%" height="100%" viewBox="0 0 30 30" version="1.1" xmlns="http://www.w3.org/2000/svg" xmlns:xlink="http://www.w3.org/1999/xlink" xml:space="preserve" style="fill-rule:evenodd;clip-rule:evenodd;stroke-linejoin:round;stroke-miterlimit:1.41421;">
    <g transform="matrix(8.94247,0,0,7.79914,-11.2536,-17.1469)">
        <path d="M4.613,2.583C4.613,2.371 4.463,2.199 4.278,2.199L1.594,2.199C1.409,2.199 1.258,2.371 1.258,2.583L1.258,5.66C1.258,5.873 1.409,6.045 1.594,6.045L4.278,6.045C4.463,6.045 4.613,5.873 4.613,5.66L4.613,2.583Z" style="fill:black;fill-opacity:0.509804;"/>
    </g>
    <g transform="matrix(3,0,0,3,-1.58563,0.509919)">
        <path d="M9.049,2.172L4.642,7.93L4.593,7.935L1.746,5.507L2.611,4.493L4.416,6.031L7.99,1.362L9.049,2.172Z" style="fill:white;"/>
    </g>
</svg>
