<?xml version="1.0" encoding="UTF-8" standalone="no"?>
<!DOCTYPE svg PUBLIC "-//W3C//DTD SVG 1.1//EN" "http://www.w3.org/Graphics/SVG/1.1/DTD/svg11.dtd">
<svg width="100%" height="100%" viewBox="0 0 180 180" version="1.1" xmlns="http://www.w3.org/2000/svg" xmlns:xlink="http://www.w3.org/1999/xlink" xml:space="preserve" style="fill-rule:evenodd;clip-rule:evenodd;stroke-linecap:round;stroke-linejoin:round;stroke-miterlimit:1.41421;">
    <g transform="matrix(1,0,0,1.13456,0,-12.9791)">
        <path d="M69.135,80.787L69.344,80.827L69.545,80.893L69.732,80.983L69.904,81.096L70.055,81.23L70.183,81.381L70.286,81.546L70.361,81.723L70.406,81.907L70.421,82.096L70.421,157.257L70.405,157.454L70.355,157.647L70.273,157.831L70.161,158.002L70.021,158.157L69.857,158.291L69.671,158.402L69.469,158.488L69.255,158.546L69.034,158.576L68.809,158.576L68.588,158.546L68.373,158.488L68.171,158.402L67.986,158.291L67.822,158.157L67.682,158.002L67.57,157.831L67.488,157.647L67.438,157.454L67.421,157.257L67.421,83.418L20.5,83.418L20.5,157.257L20.483,157.454L20.433,157.647L20.351,157.831L20.239,158.002L20.099,158.157L19.935,158.291L19.75,158.402L19.548,158.488L19.333,158.546L19.112,158.576L18.887,158.576L18.666,158.546L18.452,158.488L18.25,158.402L18.064,158.291L17.9,158.157L17.76,158.002L17.648,157.831L17.566,157.647L17.516,157.454L17.5,157.257L17.5,82.096L17.515,81.907L17.56,81.723L17.635,81.546L17.738,81.381L17.866,81.23L18.017,81.096L18.189,80.983L18.376,80.893L18.577,80.827L18.786,80.787L19,80.773L68.921,80.773L69.135,80.787Z" style="fill:black;"/>
    </g>
    <g transform="matrix(1.17975,0,0,0.894834,75.9453,24.7201)">
        <path d="M69.087,80.434L69.25,80.476L69.408,80.547L69.557,80.644L69.695,80.766L69.82,80.91L69.93,81.075L70.023,81.257L70.096,81.454L70.15,81.662L70.182,81.877L70.193,82.096L70.193,157.257L70.182,157.476L70.15,157.691L70.096,157.899L70.023,158.095L69.93,158.278L69.82,158.443L69.695,158.587L69.557,158.709L69.408,158.806L69.25,158.876L69.087,158.919L68.921,158.934L68.755,158.919L68.592,158.876L68.435,158.806L68.286,158.709L68.147,158.587L68.022,158.443L67.913,158.278L67.82,158.095L67.747,157.899L67.693,157.691L67.661,157.476L67.65,157.257L67.65,83.772L20.271,83.772L20.271,157.257L20.26,157.476L20.228,157.691L20.174,157.899L20.101,158.095L20.008,158.278L19.899,158.443L19.774,158.587L19.635,158.709L19.486,158.806L19.329,158.876L19.166,158.919L19,158.934L18.834,158.919L18.67,158.876L18.513,158.806L18.364,158.709L18.226,158.587L18.1,158.443L17.991,158.278L17.898,158.095L17.825,157.899L17.771,157.691L17.739,157.476L17.728,157.257L17.728,82.096L17.739,81.877L17.771,81.662L17.825,81.454L17.898,81.257L17.991,81.075L18.1,80.91L18.226,80.766L18.364,80.644L18.513,80.547L18.67,80.476L18.834,80.434L19,80.419L68.921,80.419L69.087,80.434Z" style="fill:black;"/>
    </g>
    <g transform="matrix(1,0,0,1,0,8.18192)">
        <path d="M105.237,90C104.852,56.442 150.826,55.781 151.815,90" style="fill:none;stroke-width:3px;stroke:black;"/>
    </g>
    <g transform="matrix(0.151869,0,0,0.151869,109.006,59.0969)">
        <path d="M105.237,90C104.852,56.442 150.826,55.781 151.815,90" style="fill:none;stroke-width:19.75px;stroke:black;"/>
    </g>
    <g transform="matrix(0.817509,0,0,0.817509,6.88714,25.9563)">
        <rect x="24.528" y="77.292" width="8.369" height="8.369" style="fill:none;stroke-width:2.45px;stroke:black;"/>
    </g>
    <g transform="matrix(0.817509,0,0,0.817509,20.3636,25.9563)">
        <rect x="24.528" y="77.292" width="8.369" height="8.369" style="fill:none;stroke-width:2.45px;stroke:black;"/>
    </g>
    <g transform="matrix(0.817509,0,0,0.817509,34.0874,25.9563)">
        <rect x="24.528" y="77.292" width="8.369" height="8.369" style="fill:none;stroke-width:2.45px;stroke:black;"/>
    </g>
    <g transform="matrix(0.817509,0,0,0.817509,6.88714,39.6758)">
        <rect x="24.528" y="77.292" width="8.369" height="8.369" style="fill:none;stroke-width:2.45px;stroke:black;"/>
    </g>
    <g transform="matrix(0.817509,0,0,0.817509,20.3636,39.6758)">
        <rect x="24.528" y="77.292" width="8.369" height="8.369" style="fill:none;stroke-width:2.45px;stroke:black;"/>
    </g>
    <g transform="matrix(0.817509,0,0,0.817509,34.0874,39.6758)">
        <rect x="24.528" y="77.292" width="8.369" height="8.369" style="fill:none;stroke-width:2.45px;stroke:black;"/>
    </g>
    <g transform="matrix(0.817509,0,0,0.817509,6.88714,39.6758)">
        <rect x="24.528" y="77.292" width="8.369" height="8.369" style="fill:none;stroke-width:2.45px;stroke:black;"/>
    </g>
    <g transform="matrix(0.817509,0,0,0.817509,20.3636,39.6758)">
        <rect x="24.528" y="77.292" width="8.369" height="8.369" style="fill:none;stroke-width:2.45px;stroke:black;"/>
    </g>
    <g transform="matrix(0.817509,0,0,0.817509,34.0874,39.6758)">
        <rect x="24.528" y="77.292" width="8.369" height="8.369" style="fill:none;stroke-width:2.45px;stroke:black;"/>
    </g>
    <g transform="matrix(0.817509,0,0,0.817509,6.88714,53.8199)">
        <rect x="24.528" y="77.292" width="8.369" height="8.369" style="fill:none;stroke-width:2.45px;stroke:black;"/>
    </g>
    <g transform="matrix(0.817509,0,0,0.817509,20.3636,53.8199)">
        <rect x="24.528" y="77.292" width="8.369" height="8.369" style="fill:none;stroke-width:2.45px;stroke:black;"/>
    </g>
    <g transform="matrix(0.817509,0,0,0.817509,34.0874,53.8199)">
        <rect x="24.528" y="77.292" width="8.369" height="8.369" style="fill:none;stroke-width:2.45px;stroke:black;"/>
    </g>
    <g transform="matrix(0.817509,0,0,0.817509,6.88714,67.5394)">
        <rect x="24.528" y="77.292" width="8.369" height="8.369" style="fill:none;stroke-width:2.45px;stroke:black;"/>
    </g>
    <g transform="matrix(0.817509,0,0,0.817509,20.3636,67.5394)">
        <rect x="24.528" y="77.292" width="8.369" height="8.369" style="fill:none;stroke-width:2.45px;stroke:black;"/>
    </g>
    <g transform="matrix(0.817509,0,0,0.817509,34.0874,67.5394)">
        <rect x="24.528" y="77.292" width="8.369" height="8.369" style="fill:none;stroke-width:2.45px;stroke:black;"/>
    </g>
    <g transform="matrix(0.817509,0,0,0.817509,6.88714,81.3648)">
        <rect x="24.528" y="77.292" width="8.369" height="8.369" style="fill:none;stroke-width:2.45px;stroke:black;"/>
    </g>
    <g transform="matrix(0.817509,0,0,0.817509,20.3636,81.3648)">
        <rect x="24.528" y="77.292" width="8.369" height="8.369" style="fill:none;stroke-width:2.45px;stroke:black;"/>
    </g>
    <g transform="matrix(0.817509,0,0,0.817509,34.0874,81.3648)">
        <rect x="24.528" y="77.292" width="8.369" height="8.369" style="fill:none;stroke-width:2.45px;stroke:black;"/>
    </g>
    <g transform="matrix(0.677346,0,0,0.677346,51.7898,7.1274)">
        <rect x="24.528" y="77.292" width="8.369" height="8.369" style="fill:none;stroke-width:2.95px;stroke:black;"/>
    </g>
    <g transform="matrix(0.677346,0,0,0.677346,62.9556,7.1274)">
        <rect x="24.528" y="77.292" width="8.369" height="8.369" style="fill:none;stroke-width:2.95px;stroke:black;"/>
    </g>
    <g transform="matrix(0.677346,0,0,0.677346,74.3265,7.1274)">
        <rect x="24.528" y="77.292" width="8.369" height="8.369" style="fill:none;stroke-width:2.95px;stroke:black;"/>
    </g>
    <g transform="matrix(0.677346,0,0,0.677346,57.3119,-10.3559)">
        <rect x="24.528" y="77.292" width="8.369" height="8.369" style="fill:none;stroke-width:2.95px;stroke:black;"/>
    </g>
    <g transform="matrix(0.677346,0,0,0.677346,68.4778,-10.3559)">
        <rect x="24.528" y="77.292" width="8.369" height="8.369" style="fill:none;stroke-width:2.95px;stroke:black;"/>
    </g>
    <g transform="matrix(1.64593,0,0,0.677346,40.7691,-25.3078)">
        <rect x="24.528" y="77.292" width="8.369" height="8.369" style="fill:none;stroke-width:1.59px;stroke:black;"/>
    </g>
    <g transform="matrix(0.677346,0,0,0.677346,79.8486,-10.3559)">
        <rect x="24.528" y="77.292" width="8.369" height="8.369" style="fill:none;stroke-width:2.95px;stroke:black;"/>
    </g>
    <g transform="matrix(0.677346,0,0,0.677346,51.7898,18.4947)">
        <rect x="24.528" y="77.292" width="8.369" height="8.369" style="fill:none;stroke-width:2.95px;stroke:black;"/>
    </g>
    <g transform="matrix(0.677346,0,0,0.677346,62.9556,18.4947)">
        <rect x="24.528" y="77.292" width="8.369" height="8.369" style="fill:none;stroke-width:2.95px;stroke:black;"/>
    </g>
    <g transform="matrix(0.677346,0,0,0.677346,74.3265,18.4947)">
        <rect x="24.528" y="77.292" width="8.369" height="8.369" style="fill:none;stroke-width:2.95px;stroke:black;"/>
    </g>
    <g transform="matrix(0.677346,0,0,0.677346,51.7898,18.4947)">
        <rect x="24.528" y="77.292" width="8.369" height="8.369" style="fill:none;stroke-width:2.95px;stroke:black;"/>
    </g>
    <g transform="matrix(0.677346,0,0,0.677346,62.9556,18.4947)">
        <rect x="24.528" y="77.292" width="8.369" height="8.369" style="fill:none;stroke-width:2.95px;stroke:black;"/>
    </g>
    <g transform="matrix(0.677346,0,0,0.677346,74.3265,18.4947)">
        <rect x="24.528" y="77.292" width="8.369" height="8.369" style="fill:none;stroke-width:2.95px;stroke:black;"/>
    </g>
    <g transform="matrix(0.677346,0,0,0.677346,51.7898,30.2137)">
        <rect x="24.528" y="77.292" width="8.369" height="8.369" style="fill:none;stroke-width:2.95px;stroke:black;"/>
    </g>
    <g transform="matrix(0.677346,0,0,0.677346,62.9556,30.2137)">
        <rect x="24.528" y="77.292" width="8.369" height="8.369" style="fill:none;stroke-width:2.95px;stroke:black;"/>
    </g>
    <g transform="matrix(0.677346,0,0,0.677346,74.3265,30.2137)">
        <rect x="24.528" y="77.292" width="8.369" height="8.369" style="fill:none;stroke-width:2.95px;stroke:black;"/>
    </g>
    <g transform="matrix(0.677346,0,0,0.677346,51.7898,41.581)">
        <rect x="24.528" y="77.292" width="8.369" height="8.369" style="fill:none;stroke-width:2.95px;stroke:black;"/>
    </g>
    <g transform="matrix(0.677346,0,0,0.677346,62.9556,41.581)">
        <rect x="24.528" y="77.292" width="8.369" height="8.369" style="fill:none;stroke-width:2.95px;stroke:black;"/>
    </g>
    <g transform="matrix(0.677346,0,0,0.677346,74.3265,41.581)">
        <rect x="24.528" y="77.292" width="8.369" height="8.369" style="fill:none;stroke-width:2.95px;stroke:black;"/>
    </g>
    <g transform="matrix(0.677346,0,0,0.677346,51.7898,53.036)">
        <rect x="24.528" y="77.292" width="8.369" height="8.369" style="fill:none;stroke-width:2.95px;stroke:black;"/>
    </g>
    <g transform="matrix(0.677346,0,0,0.677346,62.9556,53.036)">
        <rect x="24.528" y="77.292" width="8.369" height="8.369" style="fill:none;stroke-width:2.95px;stroke:black;"/>
    </g>
    <g transform="matrix(0.677346,0,0,0.677346,74.3265,53.036)">
        <rect x="24.528" y="77.292" width="8.369" height="8.369" style="fill:none;stroke-width:2.95px;stroke:black;"/>
    </g>
    <g transform="matrix(0.677346,0,0,0.677346,85.4353,7.1274)">
        <rect x="24.528" y="77.292" width="8.369" height="8.369" style="fill:none;stroke-width:2.95px;stroke:black;"/>
    </g>
    <g transform="matrix(0.677346,0,0,0.677346,85.4353,18.4947)">
        <rect x="24.528" y="77.292" width="8.369" height="8.369" style="fill:none;stroke-width:2.95px;stroke:black;"/>
    </g>
    <g transform="matrix(0.677346,0,0,0.677346,85.4353,18.4947)">
        <rect x="24.528" y="77.292" width="8.369" height="8.369" style="fill:none;stroke-width:2.95px;stroke:black;"/>
    </g>
    <g transform="matrix(0.677346,0,0,0.677346,85.4353,30.2137)">
        <rect x="24.528" y="77.292" width="8.369" height="8.369" style="fill:none;stroke-width:2.95px;stroke:black;"/>
    </g>
    <g transform="matrix(0.677346,0,0,0.677346,51.7898,64.2991)">
        <rect x="24.528" y="77.292" width="8.369" height="8.369" style="fill:none;stroke-width:2.95px;stroke:black;"/>
    </g>
    <g transform="matrix(0.677346,0,0,0.677346,62.9556,64.2991)">
        <rect x="24.528" y="77.292" width="8.369" height="8.369" style="fill:none;stroke-width:2.95px;stroke:black;"/>
    </g>
    <g transform="matrix(0.677346,0,0,0.677346,74.3265,64.2991)">
        <rect x="24.528" y="77.292" width="8.369" height="8.369" style="fill:none;stroke-width:2.95px;stroke:black;"/>
    </g>
    <g transform="matrix(0.677346,0,0,0.677346,51.7898,75.6663)">
        <rect x="24.528" y="77.292" width="8.369" height="8.369" style="fill:none;stroke-width:2.95px;stroke:black;"/>
    </g>
    <g transform="matrix(0.677346,0,0,0.677346,62.9556,75.6663)">
        <rect x="24.528" y="77.292" width="8.369" height="8.369" style="fill:none;stroke-width:2.95px;stroke:black;"/>
    </g>
    <g transform="matrix(0.677346,0,0,0.677346,74.3265,75.6663)">
        <rect x="24.528" y="77.292" width="8.369" height="8.369" style="fill:none;stroke-width:2.95px;stroke:black;"/>
    </g>
    <g transform="matrix(0.677346,0,0,0.677346,51.7898,75.6663)">
        <rect x="24.528" y="77.292" width="8.369" height="8.369" style="fill:none;stroke-width:2.95px;stroke:black;"/>
    </g>
    <g transform="matrix(0.677346,0,0,0.677346,62.9556,75.6663)">
        <rect x="24.528" y="77.292" width="8.369" height="8.369" style="fill:none;stroke-width:2.95px;stroke:black;"/>
    </g>
    <g transform="matrix(0.677346,0,0,0.677346,74.3265,75.6663)">
        <rect x="24.528" y="77.292" width="8.369" height="8.369" style="fill:none;stroke-width:2.95px;stroke:black;"/>
    </g>
    <g transform="matrix(0.677346,0,0,0.677346,51.7898,87.3854)">
        <rect x="24.528" y="77.292" width="8.369" height="8.369" style="fill:none;stroke-width:2.95px;stroke:black;"/>
    </g>
    <g transform="matrix(0.677346,0,0,0.677346,62.9556,87.3854)">
        <rect x="24.528" y="77.292" width="8.369" height="8.369" style="fill:none;stroke-width:2.95px;stroke:black;"/>
    </g>
    <g transform="matrix(0.677346,0,0,0.677346,74.3265,87.3854)">
        <rect x="24.528" y="77.292" width="8.369" height="8.369" style="fill:none;stroke-width:2.95px;stroke:black;"/>
    </g>
    <g transform="matrix(0.677346,0,0,0.677346,51.7898,98.7526)">
        <rect x="24.528" y="77.292" width="8.369" height="8.369" style="fill:none;stroke-width:2.95px;stroke:black;"/>
    </g>
    <g transform="matrix(0.677346,0,0,0.677346,62.9556,98.7526)">
        <rect x="24.528" y="77.292" width="8.369" height="8.369" style="fill:none;stroke-width:2.95px;stroke:black;"/>
    </g>
    <g transform="matrix(0.677346,0,0,0.677346,74.3265,98.7526)">
        <rect x="24.528" y="77.292" width="8.369" height="8.369" style="fill:none;stroke-width:2.95px;stroke:black;"/>
    </g>
    <g transform="matrix(0.677346,0,0,0.677346,51.7898,110.208)">
        <rect x="24.528" y="77.292" width="8.369" height="8.369" style="fill:none;stroke-width:2.95px;stroke:black;"/>
    </g>
    <g transform="matrix(0.677346,0,0,0.677346,62.9556,110.208)">
        <rect x="24.528" y="77.292" width="8.369" height="8.369" style="fill:none;stroke-width:2.95px;stroke:black;"/>
    </g>
    <g transform="matrix(0.677346,0,0,0.677346,74.3265,110.208)">
        <rect x="24.528" y="77.292" width="8.369" height="8.369" style="fill:none;stroke-width:2.95px;stroke:black;"/>
    </g>
    <g transform="matrix(1,0,0,0.666309,0,32.2015)">
        <path d="M60.982,30.744L60.982,71.982" style="fill:none;stroke-width:3.53px;stroke:black;"/>
    </g>
    <g transform="matrix(0.86842,0,0,0.666309,8.02396,32.2015)">
        <path d="M60.982,30.744L123.273,30.744L123.273,65.801" style="fill:none;stroke-width:3.88px;stroke:black;"/>
    </g>
    <g transform="matrix(0.770067,0,0,0.380949,20.2408,25.2651)">
        <path d="M60.982,30.744L60.982,71.982" style="fill:none;stroke-width:4.94px;stroke:black;"/>
    </g>
    <g transform="matrix(0.668741,0,0,0.380949,26.4198,25.2651)">
        <path d="M60.982,30.744L123.273,30.744L123.273,71.982" style="fill:none;stroke-width:5.51px;stroke:black;"/>
    </g>
    <g transform="matrix(0.457131,0,0,0.299448,47.7882,13.7359)">
        <path d="M60.982,30.744L60.982,71.982" style="fill:none;stroke-width:7.76px;stroke:black;"/>
    </g>
    <g transform="matrix(0.396982,0,0,0.299448,51.4562,13.7359)">
        <path d="M60.982,30.744L123.273,30.744L123.273,71.982" style="fill:none;stroke-width:8.53px;stroke:black;"/>
    </g>
    <g transform="matrix(1,0,0,0.845528,0,28.0665)">
        <path d="M110.691,90L110.691,157.257" style="fill:none;stroke-width:2.16px;stroke:black;"/>
    </g>
    <g transform="matrix(1,0,0,0.845528,0,28.0665)">
        <path d="M122.557,90L122.557,157.257" style="fill:none;stroke-width:2.16px;stroke:black;"/>
    </g>
    <g transform="matrix(1,0,0,0.845528,0,28.0665)">
        <path d="M134.24,90L134.24,157.257" style="fill:none;stroke-width:2.16px;stroke:black;"/>
    </g>
    <g transform="matrix(1,0,0,0.845528,0,28.0665)">
        <path d="M145.194,90L145.194,157.257" style="fill:none;stroke-width:2.16px;stroke:black;"/>
    </g>
    <g transform="matrix(2.83277e-16,1,-0.728464,2.06357e-16,218.298,0.915099)">
        <path d="M110.691,90L110.691,157.257" style="fill:none;stroke-width:2.29px;stroke:black;"/>
    </g>
    <g transform="matrix(2.83277e-16,1,-0.728464,2.06357e-16,218.298,0.915099)">
        <path d="M122.557,90L122.557,157.257" style="fill:none;stroke-width:2.29px;stroke:black;"/>
    </g>
    <g transform="matrix(2.83277e-16,1,-0.728464,2.06357e-16,218.298,0.915099)">
        <path d="M134.24,90L134.24,157.257" style="fill:none;stroke-width:2.29px;stroke:black;"/>
    </g>
    <g transform="matrix(2.83277e-16,1,-0.728464,2.06357e-16,218.298,0.915099)">
        <path d="M145.194,90L145.194,157.257" style="fill:none;stroke-width:2.29px;stroke:black;"/>
    </g>
    <g transform="matrix(1,0,0,1,0,8.18192)">
        <path d="M88.029,14.76L88.029,3.588" style="fill:none;stroke-width:2px;stroke:black;"/>
    </g>
</svg>
