<?xml version="1.0" encoding="UTF-8" standalone="no"?>
<svg
   xmlns:dc="http://purl.org/dc/elements/1.1/"
   xmlns:cc="http://creativecommons.org/ns#"
   xmlns:rdf="http://www.w3.org/1999/02/22-rdf-syntax-ns#"
   xmlns:svg="http://www.w3.org/2000/svg"
   xmlns="http://www.w3.org/2000/svg"
   id="svg2"
   style="fill-rule:evenodd;clip-rule:evenodd;stroke-linejoin:round;stroke-miterlimit:1.41421;"
   xml:space="preserve"
   version="1.1"
   viewBox="0 0 180 180"
   height="100%"
   width="100%"><metadata
     id="metadata32"><rdf:RDF><cc:Work
         rdf:about=""><dc:format>image/svg+xml</dc:format><dc:type
           rdf:resource="http://purl.org/dc/dcmitype/StillImage" /><dc:title></dc:title></cc:Work></rdf:RDF></metadata><defs
     id="defs30" /><path
     d="m 92.288139,92.288139 c -0.688343,-3.021051 3.732712,-2.418353 5.021186,-1.144072 3.491685,3.453223 0.875106,9.061723 -2.733041,11.186443 -6.454129,3.80063 -14.431699,-0.29546 -17.351701,-6.610154 -4.285221,-9.267069 1.456491,-19.890506 10.487268,-23.516959 12.036605,-4.833492 25.382939,2.610807 29.682219,14.364382 5.4102,14.790671 -3.76111,30.891911 -18.241498,35.847471 C 81.614885,128.4171 62.742268,117.50626 57.13984,100.29664 50.537572,80.015702 63.19517,58.362062 83.135562,52.118654 106.15753,44.910393 130.59835,59.319301 137.47881,81.99149 145.29682,107.75307 129.13356,134.98524 103.72886,142.5 75.228628,150.93041 45.202139,133.01065 37.055098,104.87293 28.010338,73.634729 47.688148,40.811736 78.559274,32.033912"
     id="path3360"
     style="fill:none;fill-rule:evenodd;stroke:#000000;stroke-width:1px;stroke-linecap:butt;stroke-linejoin:miter;stroke-opacity:1" /></svg>