<?xml version="1.0" encoding="UTF-8" standalone="no"?>
<!DOCTYPE svg PUBLIC "-//W3C//DTD SVG 1.1//EN" "http://www.w3.org/Graphics/SVG/1.1/DTD/svg11.dtd">
<svg width="100%" height="100%" viewBox="0 0 180 180" version="1.1" xmlns="http://www.w3.org/2000/svg" xmlns:xlink="http://www.w3.org/1999/xlink" xml:space="preserve" style="fill-rule:evenodd;clip-rule:evenodd;stroke-linecap:round;stroke-linejoin:round;stroke-miterlimit:1.41421;">
    <g transform="matrix(1,0,0,1,9.77377,-16.9457)">
        <path d="M107.945,59.239L52.507,59.239L52.507,52.936C52.507,49.418 55.363,46.563 58.88,46.563L70.452,46.563L70.452,39.502C70.453,34.108 74.832,29.729 80.226,29.729C85.621,29.729 90,34.108 90,39.502L90,46.563L101.572,46.563C105.09,46.563 107.945,49.418 107.945,52.936L107.945,59.239ZM80.226,36.026C82.064,36.026 83.555,37.518 83.555,39.355C83.555,41.193 82.064,42.685 80.226,42.685C78.389,42.685 76.897,41.193 76.897,39.355C76.897,37.518 78.389,36.026 80.226,36.026Z" style="fill:black;"/>
    </g>
    <g transform="matrix(0.780878,0,0,0.902265,20.2342,-0.0824762)">
        <path d="M145.644,54.255C145.644,47.474 139.283,41.968 131.447,41.968L47.238,41.968C39.403,41.968 33.041,47.474 33.041,54.255L33.041,154.337C33.041,161.118 39.403,166.624 47.238,166.624L131.447,166.624C139.283,166.624 145.644,161.118 145.644,154.337L145.644,54.255Z" style="fill:none;stroke-width:3.56px;stroke:black;"/>
    </g>
    <g transform="matrix(1.64823,0,0,1.64823,16.3212,-68.0573)">
        <rect x="24.528" y="77.292" width="8.369" height="8.369" style="fill:none;stroke-width:1.21px;stroke:black;"/>
    </g>
    <g transform="matrix(1.26038,0,0,1.26038,-14.7971,-14.3666)">
        <path d="M71.407,55.523L72.035,56.108L71.402,56.823L69.628,58.828L66.82,61.986L64.189,64.947L62.797,66.491L62.082,67.26L61.501,67.883L61.501,67.883L61.355,68.015L61.354,68.016L61.184,68.121L61,68.195L60.806,68.238L60.609,68.247L60.414,68.224L60.295,68.189L60.226,68.168L60.051,68.08L59.894,67.965L59.758,67.826L59.382,67.369L57.67,65.257L55.061,61.985L54.51,61.294L55.151,60.739L55.151,60.739L55.792,60.184L59.261,63.88L60.614,65.345L61.059,64.87L62.503,63.374L65.276,60.545L68.232,57.526L70.11,55.617L70.779,54.937L71.407,55.523Z" style="fill:black;"/>
    </g>
    <g transform="matrix(1,0,0,1,0.134046,-4.38724)">
        <path d="M79.224,66.234L124.289,66.234" style="fill:none;stroke-width:3px;stroke-linecap:square;stroke:black;"/>
    </g>
    <g transform="matrix(1,0,0,1,0.134046,1.48587)">
        <path d="M79.224,66.234L124.289,66.234" style="fill:none;stroke-width:3px;stroke-linecap:square;stroke:black;"/>
    </g>
    <g transform="matrix(1,0,0,1,0.134046,1.48587)">
        <path d="M79.224,66.234L124.289,66.234" style="fill:none;stroke-width:3px;stroke-linecap:square;stroke:black;"/>
    </g>
    <g transform="matrix(1.64823,0,0,1.64823,16.4553,-42.8692)">
        <rect x="24.528" y="77.292" width="8.369" height="8.369" style="fill:none;stroke-width:1.21px;stroke:black;"/>
    </g>
    <g transform="matrix(1.26038,0,0,1.26038,-14.6631,10.8215)">
        <path d="M71.407,55.523L72.035,56.108L71.402,56.823L69.628,58.828L66.82,61.986L64.189,64.947L62.797,66.491L62.082,67.26L61.501,67.883L61.355,68.015L61.354,68.016L61.184,68.121L61,68.195L60.806,68.238L60.609,68.247L60.414,68.224L60.295,68.189L60.226,68.168L60.051,68.08L59.894,67.965L59.758,67.826L59.382,67.369L57.67,65.257L55.061,61.985L54.51,61.294L55.151,60.739L55.792,60.184L56.397,60.829L59.261,63.88L60.614,65.345L61.059,64.87L62.503,63.374L65.276,60.545L68.232,57.526L70.11,55.617L70.779,54.937L71.407,55.523Z" style="fill:black;"/>
    </g>
    <g transform="matrix(1,0,0,1,0.134046,20.0754)">
        <path d="M79.224,66.234L124.289,66.234" style="fill:none;stroke-width:3px;stroke-linecap:square;stroke:black;"/>
    </g>
    <g transform="matrix(1,0,0,1,0.134046,25.978)">
        <path d="M79.224,66.234L124.289,66.234" style="fill:none;stroke-width:3px;stroke-linecap:square;stroke:black;"/>
    </g>
    <g transform="matrix(1.64823,0,0,1.64823,16.4553,-18.3817)">
        <rect x="24.528" y="77.292" width="8.369" height="8.369" style="fill:none;stroke-width:1.21px;stroke:black;"/>
    </g>
    <g transform="matrix(1.26038,0,0,1.26038,-14.6631,35.309)">
        <path d="M71.407,55.523L72.035,56.108L71.402,56.823L69.628,58.828L66.82,61.986L64.189,64.947L62.797,66.491L62.082,67.26L61.501,67.883L61.355,68.015L61.354,68.016L61.184,68.121L61,68.195L60.806,68.238L60.609,68.247L60.414,68.224L60.295,68.189L60.226,68.168L60.051,68.08L59.894,67.965L59.758,67.826L59.382,67.369L57.67,65.257L55.061,61.985L54.51,61.294L55.151,60.739L55.792,60.184L56.397,60.829L59.261,63.88L60.614,65.345L61.059,64.87L62.503,63.374L65.276,60.545L68.232,57.526L70.11,55.617L70.779,54.937L71.407,55.523Z" style="fill:black;"/>
    </g>
    <g transform="matrix(1,0,0,1,0.134046,44.5338)">
        <path d="M79.224,66.234L124.289,66.234" style="fill:none;stroke-width:3px;stroke-linecap:square;stroke:black;"/>
    </g>
    <g transform="matrix(1,0,0,1,0.134046,50.5681)">
        <path d="M79.224,66.234L124.289,66.234" style="fill:none;stroke-width:3px;stroke-linecap:square;stroke:black;"/>
    </g>
</svg>
