<?xml version="1.0" standalone="no"?>
<!DOCTYPE svg PUBLIC "-//W3C//DTD SVG 1.1//EN" "http://www.w3.org/Graphics/SVG/1.1/DTD/svg11.dtd">
<svg width="100%" height="100%" viewBox="0 0 180 180" version="1.1" xmlns="http://www.w3.org/2000/svg" xmlns:xlink="http://www.w3.org/1999/xlink" xml:space="preserve" style="fill-rule:evenodd;clip-rule:evenodd;stroke-linecap:round;stroke-linejoin:round;stroke-miterlimit:1.41421;">
    <g id="Layer1" transform="matrix(2.3745,0,0,2.3745,6.64244,-10.9674)">
        <path d="M45.795,47.229C48.059,37.664 53.349,29.871 61.427,23.711" style="fill:none;stroke-width:1.26px;stroke:rgb(33,33,33);"/>
        <path d="M61.427,23.711C61.292,30.324 57.419,39.658 53.611,42.221" style="fill:none;stroke-width:1.26px;stroke:rgb(33,33,33);"/>
        <path d="M57.519,31.396L60.077,31.396" style="fill:none;stroke-width:0.84px;stroke:rgb(33,33,33);"/>
        <path d="M56.086,33.719C57.066,33.71 58.487,33.709 59.364,33.719" style="fill:none;stroke-width:0.84px;stroke:rgb(33,33,33);"/>
        <path d="M54.83,36.021C55.86,36.008 57.18,36.021 58.182,36.021" style="fill:none;stroke-width:0.84px;stroke:rgb(33,33,33);"/>
        <path d="M53.611,42.221C51.767,43.643 49.357,43.798 48.986,47.229" style="fill:none;stroke-width:1.26px;stroke:rgb(33,33,33);"/>
        <g transform="matrix(0.490049,0,0,1,11.3599,2.73856)">
            <path d="M29.714,51.463L55.548,51.463" style="fill:none;stroke-width:1.6px;stroke:rgb(33,33,33);"/>
        </g>
        <g transform="matrix(0.674888,0,0,1,4.59519,2.73856)">
            <path d="M25.8,57.421L51.347,57.421" style="fill:none;stroke-width:1.48px;stroke:rgb(33,33,33);"/>
        </g>
        <g transform="matrix(1,0,0,1,-3.79281,2.73856)">
            <path d="M15.823,13.238L43.673,13.238" style="fill:none;stroke-width:1.26px;stroke:rgb(33,33,33);"/>
        </g>
        <g transform="matrix(1,0,0,1,-3.79281,2.73856)">
            <path d="M11.461,19.018C11.506,11.241 20.308,11.382 20.308,19.018L20.308,51.565C20.308,59.012 30.038,59.727 29.706,51.565" style="fill:none;stroke-width:1.26px;stroke:rgb(33,33,33);"/>
        </g>
        <g transform="matrix(1,0,0,1,24.5547,2.73856)">
            <path d="M15.325,13.238C15.418,13.346 20.308,13.857 20.308,19.018L20.308,44.179" style="fill:none;stroke-width:1.26px;stroke:rgb(33,33,33);"/>
        </g>
        <g transform="matrix(0.936168,0,0,1,-2.50232,2.73856)">
            <path d="M11.353,18.952L20.217,18.952" style="fill:none;stroke-width:1.3px;stroke:rgb(33,33,33);"/>
        </g>
        <g transform="matrix(1.81935,0,0,1,2.05636,4.26219)">
            <path d="M11.353,18.952L20.217,18.952" style="fill:none;stroke-width:0.57px;stroke:rgb(33,33,33);"/>
        </g>
        <g transform="matrix(1.81935,0,0,1,2.05636,9.41681)">
            <path d="M11.353,18.952L20.217,18.952" style="fill:none;stroke-width:0.57px;stroke:rgb(33,33,33);stroke-opacity:0.98;"/>
        </g>
        <g transform="matrix(1.81935,0,0,1,2.05636,20.7863)">
            <path d="M11.353,18.952L20.217,18.952" style="fill:none;stroke-width:0.57px;stroke:rgb(33,33,33);"/>
        </g>
        <g transform="matrix(1.81935,0,0,1,2.05636,14.9369)">
            <path d="M11.353,18.952L20.217,18.952" style="fill:none;stroke-width:0.57px;stroke:rgb(33,33,33);"/>
        </g>
        <g transform="matrix(1.81935,0,0,1,2.05636,26.3064)">
            <path d="M11.353,18.952L20.217,18.952" style="fill:none;stroke-width:0.57px;stroke:rgb(33,33,33);"/>
        </g>
        <g transform="matrix(0.816244,0,0,0.816244,33.9817,21.6292)">
            <path d="M10.714,31.363C6.554,31.338 11.275,32.62 10.958,34.715C10.537,37.489 6.896,36.828 5.8,41.616C4.555,47.055 10.729,52.14 12.028,52.14C12.091,52.14 21.3,52.14 21.3,52.14" style="fill:none;stroke-width:1.55px;stroke:rgb(33,33,33);"/>
        </g>
        <g transform="matrix(-0.816244,0,0,0.816244,61.2939,21.6292)">
            <path d="M10.714,31.363C6.554,31.338 11.275,32.62 10.958,34.715C10.537,37.489 6.896,36.828 5.8,41.616C4.555,47.055 10.729,52.14 12.028,52.14C12.091,52.14 21.3,52.14 21.3,52.14" style="fill:none;stroke-width:1.55px;stroke:rgb(33,33,33);"/>
        </g>
        <g transform="matrix(1.12775,0,0,0.816244,32.7689,21.6292)">
            <path d="M17.354,31.363L8.83,31.363" style="fill:none;stroke-width:1.28px;stroke:rgb(33,33,33);"/>
        </g>
    </g>
</svg>
