<?xml version="1.0" standalone="no"?><!DOCTYPE svg PUBLIC "-//W3C//DTD SVG 1.1//EN" "http://www.w3.org/Graphics/SVG/1.1/DTD/svg11.dtd"><svg width="100%" height="100%" viewBox="0 0 728 269" version="1.1" xmlns="http://www.w3.org/2000/svg" xmlns:xlink="http://www.w3.org/1999/xlink" xml:space="preserve" style="fill-rule:evenodd;clip-rule:evenodd;stroke-linejoin:round;stroke-miterlimit:1.41421;"><g><path d="M306.587,81.983c-0.358,0 -0.806,-0.054 -1.343,-0.161c-0.538,-0.108 -1.039,-0.287 -1.505,-0.537c-0.466,-0.251 -0.878,-0.574 -1.236,-0.968c-0.358,-0.394 -0.537,-0.806 -0.537,-1.235c0,-0.574 0.34,-1.272 1.021,-2.096c0.68,-0.824 1.809,-1.451 3.385,-1.881c2.149,-0.501 4.406,-0.806 6.77,-0.913c2.365,-0.108 4.729,-0.108 7.093,0c2.364,0.107 4.693,0.251 6.985,0.43c2.293,0.179 4.442,0.304 6.448,0.376c1.147,0 1.899,0.215 2.257,0.645c0.358,0.429 0.538,0.931 0.538,1.504c0,1.29 -0.574,2.293 -1.72,3.009c-1.146,0.717 -2.293,1.039 -3.439,0.967c-1.218,-0.071 -2.489,-0.107 -3.815,-0.107c-1.325,0 -2.704,0 -4.137,0c0,2.006 0.089,4.245 0.268,6.717c0.179,2.471 0.376,4.961 0.591,7.469c0.215,2.507 0.448,4.907 0.699,7.2c0.251,2.292 0.484,4.227 0.698,5.803c0.144,0.573 0.018,1.093 -0.376,1.558c-0.394,0.466 -0.985,0.699 -1.773,0.699c-1.504,0 -2.615,-0.932 -3.331,-2.794c-1.362,-3.511 -2.329,-7.523 -2.902,-12.037c-3.869,2.365 -7.666,3.833 -11.391,4.407c-3.726,0.573 -7.075,0.447 -10.048,-0.377c-2.974,-0.824 -5.374,-2.256 -7.201,-4.298c-1.827,-2.042 -2.74,-4.532 -2.74,-7.469c0,-2.794 0.501,-5.803 1.504,-9.027c1.003,-3.224 2.436,-6.341 4.299,-9.35c1.863,-3.009 4.066,-5.749 6.609,-8.221c2.544,-2.472 5.391,-4.353 8.544,-5.642c1.075,-0.287 2.095,-0.34 3.063,-0.161c0.967,0.179 1.862,0.537 2.686,1.074c0.824,0.538 1.576,1.182 2.257,1.935c0.681,0.752 1.272,1.486 1.773,2.203c0.359,0.501 0.573,1.039 0.645,1.612c0.072,0.573 -0.143,1.11 -0.645,1.612c-1.074,0.788 -2.006,0.716 -2.794,-0.215c-1.218,-1.505 -2.239,-2.418 -3.063,-2.741c-0.824,-0.322 -1.952,-0.017 -3.385,0.914c-1.433,1.003 -3.009,2.525 -4.728,4.567c-1.72,2.042 -3.314,4.299 -4.783,6.771c-1.468,2.471 -2.633,5.015 -3.492,7.63c-0.86,2.615 -1.147,5.033 -0.86,7.254c0.215,1.934 1.29,3.313 3.224,4.137c1.934,0.824 4.137,1.2 6.609,1.129c2.472,-0.072 4.944,-0.538 7.415,-1.397c2.472,-0.86 4.389,-2.007 5.75,-3.439c-0.072,-1.218 -0.143,-2.454 -0.215,-3.708c-0.072,-1.254 -0.108,-2.49 -0.108,-3.708c-1.576,0.144 -3.152,0.269 -4.728,0.377c-1.576,0.107 -3.188,0.268 -4.836,0.483Z" style="fill:#fff;fill-rule:nonzero;"/><path d="M337.439,109.17c-0.358,1.218 -0.824,2.311 -1.397,3.278c-0.573,0.967 -1.182,1.522 -1.827,1.665c-1.361,0.359 -2.4,0.144 -3.116,-0.644c-0.717,-0.788 -1.003,-1.791 -0.86,-3.009c0.573,-4.299 1.504,-8.831 2.794,-13.595c1.29,-4.764 2.794,-9.529 4.514,-14.293c1.719,-4.764 3.6,-9.385 5.642,-13.863c2.042,-4.478 4.137,-8.544 6.286,-12.198c0.359,-0.573 0.771,-0.913 1.236,-1.02c0.466,-0.108 0.878,-0.09 1.236,0.053c0.358,-0.286 0.788,-0.537 1.29,-0.752c0.501,-0.215 1.003,-0.322 1.504,-0.322c0.215,0 0.448,0.035 0.699,0.107c0.251,0.072 0.519,0.287 0.806,0.645c0.286,0.358 0.627,0.877 1.021,1.558c0.394,0.681 0.877,1.666 1.451,2.955c1.003,3.654 2.167,7.416 3.492,11.284c1.326,3.869 2.705,7.738 4.138,11.607c0.215,-0.072 0.412,-0.126 0.591,-0.161c0.179,-0.036 0.376,-0.09 0.591,-0.162c0.788,-0.071 1.683,-0.035 2.686,0.108c1.003,0.143 1.684,0.645 2.042,1.504c0.43,1.075 0.359,2.006 -0.215,2.795c-0.573,0.788 -1.612,1.576 -3.116,2.364c0.931,2.292 1.863,4.531 2.794,6.716c0.931,2.186 1.899,4.317 2.902,6.395c0.071,0.358 0.179,0.913 0.322,1.665c0.143,0.753 0.233,1.505 0.269,2.257c0.035,0.752 -0.018,1.451 -0.162,2.096c-0.143,0.645 -0.429,1.074 -0.859,1.289c-0.502,0.215 -1.021,0.18 -1.559,-0.107c-0.537,-0.287 -1.056,-0.663 -1.558,-1.128c-0.501,-0.466 -0.949,-0.968 -1.343,-1.505c-0.394,-0.537 -0.699,-1.021 -0.914,-1.451c-1.218,-2.364 -2.382,-4.746 -3.492,-7.146c-1.111,-2.4 -2.167,-4.818 -3.171,-7.254c-3.009,0.573 -6.286,1.074 -9.833,1.504c-3.546,0.43 -7.039,0.717 -10.478,0.86c-0.788,2.722 -1.558,5.391 -2.31,8.006c-0.752,2.615 -1.451,5.248 -2.096,7.899ZM352.699,64.034c-3.295,7.379 -6.161,14.759 -8.597,22.138c4.8,-0.143 9.923,-0.752 15.368,-1.827c-2.579,-6.519 -4.836,-13.29 -6.771,-20.311Z" style="fill:#fff;fill-rule:nonzero;"/><path d="M428.859,109.261c-0.788,0 -1.594,-0.609 -2.418,-1.827c-0.824,-1.218 -1.272,-2.4 -1.343,-3.546c-0.574,-4.155 -1.272,-9.009 -2.096,-14.562c-0.824,-5.552 -1.917,-12.126 -3.278,-19.72c-2.149,4.084 -4.263,8.132 -6.34,12.144c-2.078,4.012 -4.156,8.024 -6.233,12.036c-1.29,2.508 -2.615,3.761 -3.977,3.761c-2.006,0 -3.582,-1.038 -4.728,-3.116c-2.508,-3.654 -5.105,-7.075 -7.791,-10.263c-2.687,-3.188 -5.463,-6.359 -8.329,-9.511c-0.143,4.8 -0.09,9.511 0.161,14.132c0.251,4.621 0.699,9.117 1.343,13.487c0.144,0.788 0.054,1.487 -0.268,2.096c-0.323,0.609 -0.663,0.985 -1.021,1.128c-1.003,0.358 -2.006,0.143 -3.009,-0.645c-1.003,-0.788 -1.612,-1.648 -1.827,-2.579c-0.645,-2.579 -1.111,-5.445 -1.397,-8.597c-0.287,-3.153 -0.484,-6.341 -0.591,-9.565c-0.108,-3.224 -0.162,-6.412 -0.162,-9.564c0,-3.153 0.036,-6.018 0.108,-8.598c0,-2.865 0.931,-4.298 2.794,-4.298c1.146,0 2.114,0.412 2.902,1.236c0.788,0.823 1.218,1.988 1.289,3.492c3.582,3.582 6.968,7.254 10.156,11.015c3.188,3.762 6.287,7.577 9.296,11.446c2.507,-4.514 5.051,-9.153 7.63,-13.917c2.579,-4.765 5.481,-9.404 8.705,-13.917c0.143,-0.788 0.537,-1.594 1.182,-2.418c0.645,-0.824 1.361,-1.379 2.149,-1.666c0.788,-0.286 1.612,0.036 2.472,0.967c0.86,0.932 1.433,2.006 1.719,3.224c1.218,7.236 2.275,14.472 3.171,21.709c0.895,7.236 1.773,14.472 2.632,21.708c0.144,1.361 -0.107,2.489 -0.752,3.385c-0.645,0.896 -1.361,1.343 -2.149,1.343Z" style="fill:#fff;fill-rule:nonzero;"/><path d="M466.732,82.439c0.287,0.716 0,1.415 -0.859,2.096c-0.86,0.68 -2.221,1.128 -4.084,1.343c-3.224,0.43 -6.52,0.878 -9.887,1.343c-3.367,0.466 -6.806,0.95 -10.317,1.451c-0.143,3.654 -0.143,7.308 0,10.962c1.648,0 3.636,-0.162 5.965,-0.484c2.328,-0.322 4.71,-0.734 7.146,-1.236c2.436,-0.501 4.782,-1.021 7.039,-1.558c2.257,-0.537 4.173,-0.985 5.75,-1.343c0.788,-0.215 1.612,-0.377 2.471,-0.484c0.86,-0.108 1.63,-0.108 2.311,0c0.681,0.107 1.236,0.376 1.666,0.806c0.43,0.43 0.644,1.039 0.644,1.827c0,0.215 -0.25,0.537 -0.752,0.967c-0.501,0.43 -1.128,0.878 -1.88,1.343c-0.753,0.466 -1.541,0.896 -2.365,1.29c-0.824,0.394 -1.558,0.699 -2.203,0.913c-4.442,1.433 -8.812,2.669 -13.111,3.708c-4.298,1.039 -8.49,1.594 -12.573,1.666c-2.365,0.071 -4.156,-0.555 -5.374,-1.881c-1.218,-1.325 -1.862,-3.242 -1.934,-5.749c-0.143,-3.511 -0.143,-7.057 0,-10.64c-1.218,-0.716 -1.827,-1.719 -1.827,-3.009c0.143,-1.361 0.788,-2.292 1.934,-2.794c0.144,-2.077 0.251,-4.173 0.323,-6.286c0.072,-2.114 0.179,-4.21 0.322,-6.287c-0.788,-0.144 -1.486,-0.538 -2.095,-1.182c-0.609,-0.645 -0.914,-1.362 -0.914,-2.15c0,-0.645 0.143,-1.236 0.43,-1.773c0.287,-0.537 0.824,-0.949 1.612,-1.236c1.29,-0.286 2.866,-0.609 4.729,-0.967c1.862,-0.358 3.779,-0.681 5.749,-0.967c1.97,-0.287 3.869,-0.538 5.696,-0.752c1.827,-0.215 3.385,-0.359 4.675,-0.43c1.504,-0.144 2.955,0 4.352,0.43c1.397,0.429 2.705,1.253 3.922,2.471c0.287,1.003 0.09,1.756 -0.591,2.257c-0.68,0.502 -1.558,0.824 -2.633,0.967c-1.074,0.144 -2.364,0.305 -3.868,0.484c-1.505,0.179 -3.063,0.376 -4.675,0.591c-1.612,0.215 -3.224,0.412 -4.836,0.591c-1.612,0.179 -3.135,0.376 -4.567,0.591c0,0.143 0.018,0.305 0.053,0.484c0.036,0.179 0.054,0.34 0.054,0.483c-0.143,1.863 -0.251,3.726 -0.322,5.589c-0.072,1.862 -0.144,3.725 -0.215,5.588c3.009,-0.502 6.089,-0.95 9.242,-1.344c3.152,-0.394 5.66,-0.662 7.522,-0.806c1.505,-0.143 2.974,0.036 4.407,0.538c1.433,0.501 2.722,1.361 3.868,2.579Z" style="fill:#fff;fill-rule:nonzero;"/><path d="M538.281,83.762c-0.43,2.006 -1.2,3.923 -2.31,5.75c-1.111,1.827 -2.382,3.528 -3.815,5.104c-1.433,1.577 -2.991,2.938 -4.675,4.084c-1.684,1.146 -3.385,2.042 -5.105,2.687c-3.152,1.146 -6.286,1.522 -9.403,1.128c-3.117,-0.394 -5.893,-1.809 -8.329,-4.245c-1.647,-2.006 -2.812,-4.263 -3.492,-6.77c-0.681,-2.508 -1.003,-5.069 -0.968,-7.684c0.036,-2.615 0.395,-5.14 1.075,-7.576c0.681,-2.436 1.558,-4.621 2.633,-6.556c1.29,-2.292 2.83,-4.191 4.621,-5.696c1.791,-1.504 3.761,-2.4 5.911,-2.686c0.573,-0.143 1.039,0 1.397,0.43c0.358,0.43 0.537,0.931 0.537,1.504c0.717,-0.716 1.827,-1.254 3.332,-1.612c1.504,-0.358 3.188,-0.394 5.051,-0.107c3.438,0.43 6.161,1.468 8.167,3.116c2.006,1.648 3.493,3.565 4.46,5.75c0.967,2.185 1.469,4.478 1.504,6.878c0.036,2.4 -0.161,4.567 -0.591,6.501ZM514.854,68.932c-1.433,0.645 -2.633,1.594 -3.6,2.848c-0.968,1.254 -1.756,2.669 -2.365,4.245c-0.609,1.576 -1.003,3.277 -1.182,5.104c-0.179,1.827 -0.197,3.601 -0.054,5.32c0.215,2.508 0.968,4.567 2.257,6.179c1.29,1.612 3.296,2.418 6.018,2.418c1.576,0 3.135,-0.304 4.675,-0.913c1.54,-0.609 2.955,-1.415 4.245,-2.418c1.29,-1.003 2.472,-2.203 3.546,-3.6c1.075,-1.397 1.935,-2.848 2.58,-4.353c0.358,-0.788 0.644,-1.773 0.859,-2.955c0.215,-1.182 0.287,-2.4 0.215,-3.654c-0.071,-1.254 -0.358,-2.454 -0.859,-3.6c-0.502,-1.146 -1.29,-2.114 -2.365,-2.902c-1.504,-1.074 -3.295,-1.719 -5.373,-1.934c-2.078,-0.215 -4.263,0.251 -6.555,1.397c-0.43,0.287 -0.914,0.34 -1.451,0.161c-0.538,-0.179 -0.735,-0.627 -0.591,-1.343Z" style="fill:#fff;fill-rule:nonzero;"/><path d="M581.407,59.103c-0.502,6.09 -1.093,12.305 -1.773,18.646c-0.681,6.34 -1.594,12.305 -2.741,17.893c-0.286,1.361 -0.68,2.328 -1.182,2.902c-0.501,0.573 -1.218,0.967 -2.149,1.182c-0.788,0.143 -1.881,-0.108 -3.278,-0.753c-1.397,-0.644 -2.561,-1.576 -3.493,-2.794c-1.218,-1.647 -2.525,-3.456 -3.922,-5.427c-1.397,-1.97 -2.902,-3.976 -4.514,-6.018c-1.612,-2.042 -3.295,-4.066 -5.051,-6.072c-1.755,-2.006 -3.6,-3.868 -5.534,-5.588c-0.215,4.729 -0.394,9.403 -0.537,14.024c-0.144,4.621 -0.144,9.26 0,13.917c0,0.645 -0.574,0.968 -1.72,0.968c-1.361,0 -2.472,-0.699 -3.331,-2.096c-0.86,-1.397 -1.362,-2.812 -1.505,-4.245c-0.215,-1.433 -0.322,-3.493 -0.322,-6.179c0,-2.687 0.053,-5.499 0.161,-8.436c0.107,-2.938 0.233,-5.768 0.376,-8.49c0.143,-2.723 0.287,-4.872 0.43,-6.448c0.143,-1.72 0.555,-2.973 1.236,-3.762c0.68,-0.788 1.343,-1.146 1.988,-1.074c1.433,0.143 2.382,0.555 2.848,1.236c0.465,0.68 0.734,1.522 0.806,2.525c2.579,1.863 4.961,3.869 7.146,6.018c2.185,2.15 4.191,4.335 6.018,6.556c1.827,2.221 3.511,4.424 5.051,6.609c1.541,2.185 2.991,4.173 4.353,5.964c0.859,-4.298 1.558,-9.099 2.095,-14.4c0.538,-5.302 1.093,-10.854 1.666,-16.658c-0.072,-0.716 0.358,-1.415 1.29,-2.095c0.931,-0.681 1.791,-0.985 2.579,-0.914c2.006,0.144 3.009,1.147 3.009,3.009Z" style="fill:#fff;fill-rule:nonzero;"/></g><g><path d="M388.3,135.62c-3.547,9.176 -7.676,18.749 -12.387,28.719c-4.71,9.971 -10.307,19.85 -16.791,29.637c-1.835,2.814 -3.914,4.221 -6.239,4.221c-1.468,0 -2.691,-0.337 -3.67,-1.01c-0.979,-0.672 -1.835,-1.559 -2.569,-2.661c-3.181,-4.893 -6.056,-10.093 -8.625,-15.598c-2.569,-5.505 -5.077,-11.744 -7.524,-18.718c-3.548,6.24 -7.493,12.54 -11.836,18.902c-4.343,6.361 -9.084,12.295 -14.222,17.8c-0.979,1.101 -1.988,1.835 -3.028,2.202c-1.04,0.367 -1.866,0.49 -2.478,0.367c-2.569,-0.367 -4.587,-1.957 -6.055,-4.771c-4.527,-8.441 -7.585,-17.739 -9.176,-27.893c-1.59,-10.155 -2.447,-20.553 -2.569,-31.197c0,-0.979 0.367,-1.957 1.101,-2.936c0.734,-0.979 1.835,-1.407 3.303,-1.285c2.202,0.123 3.915,0.948 5.138,2.478c1.224,1.529 1.958,3.395 2.203,5.597c0.244,3.058 0.55,6.514 0.917,10.368c0.367,3.854 0.857,7.799 1.468,11.836c0.612,4.038 1.407,7.952 2.386,11.745c0.979,3.792 2.202,7.096 3.67,9.909c1.835,-2.324 3.793,-4.893 5.872,-7.707c2.08,-2.814 4.129,-5.75 6.148,-8.808c2.018,-3.059 3.945,-6.148 5.78,-9.268c1.835,-3.119 3.487,-6.208 4.955,-9.267c0.979,-2.08 2.202,-3.425 3.67,-4.037c1.468,-0.612 2.631,-0.918 3.487,-0.918c3.67,0 6.178,1.774 7.524,5.322c2.08,5.138 4.19,10.583 6.331,16.333c2.141,5.749 4.496,11.194 7.065,16.332c2.202,-3.426 4.465,-7.279 6.79,-11.561c2.324,-4.282 4.588,-8.656 6.79,-13.121c2.202,-4.466 4.312,-8.962 6.331,-13.488c2.018,-4.527 3.823,-8.809 5.413,-12.846c0.612,-1.468 1.652,-2.691 3.12,-3.67c1.468,-0.979 3.058,-0.917 4.771,0.184c1.346,0.856 2.294,2.232 2.845,4.129c0.55,1.896 0.581,3.456 0.091,4.679Z" style="fill:#fff;fill-rule:nonzero;"/><path d="M456.975,168.745c-0.734,3.426 -2.049,6.698 -3.945,9.818c-1.896,3.12 -4.068,6.025 -6.515,8.717c-2.446,2.691 -5.107,5.016 -7.982,6.973c-2.875,1.958 -5.781,3.487 -8.717,4.588c-5.383,1.957 -10.735,2.6 -16.057,1.927c-5.322,-0.673 -10.062,-3.089 -14.222,-7.249c-2.814,-3.425 -4.802,-7.279 -5.964,-11.561c-1.162,-4.282 -1.713,-8.656 -1.652,-13.121c0.062,-4.465 0.673,-8.778 1.835,-12.937c1.163,-4.16 2.661,-7.891 4.496,-11.194c2.203,-3.915 4.833,-7.157 7.891,-9.726c3.059,-2.57 6.423,-4.099 10.093,-4.588c0.979,-0.245 1.774,0 2.386,0.734c0.612,0.734 0.918,1.59 0.918,2.569c1.223,-1.223 3.119,-2.141 5.688,-2.753c2.569,-0.611 5.444,-0.672 8.625,-0.183c5.873,0.734 10.521,2.508 13.947,5.322c3.425,2.813 5.964,6.086 7.616,9.817c1.651,3.732 2.508,7.647 2.569,11.745c0.061,4.098 -0.276,7.799 -1.01,11.102ZM416.97,143.421c-2.446,1.101 -4.496,2.722 -6.147,4.863c-1.652,2.141 -2.997,4.557 -4.037,7.249c-1.04,2.691 -1.713,5.597 -2.019,8.716c-0.306,3.12 -0.336,6.148 -0.092,9.084c0.367,4.282 1.652,7.799 3.854,10.552c2.202,2.752 5.628,4.129 10.276,4.129c2.692,0 5.353,-0.52 7.983,-1.56c2.63,-1.04 5.047,-2.416 7.249,-4.129c2.202,-1.713 4.22,-3.762 6.056,-6.148c1.835,-2.385 3.303,-4.863 4.404,-7.432c0.611,-1.345 1.101,-3.028 1.468,-5.046c0.367,-2.019 0.489,-4.099 0.367,-6.24c-0.122,-2.14 -0.612,-4.19 -1.468,-6.147c-0.857,-1.957 -2.202,-3.609 -4.037,-4.955c-2.57,-1.835 -5.628,-2.936 -9.176,-3.303c-3.548,-0.367 -7.279,0.428 -11.194,2.386c-0.734,0.489 -1.56,0.581 -2.477,0.275c-0.918,-0.306 -1.254,-1.071 -1.01,-2.294Z" style="fill:#fff;fill-rule:nonzero;"/><path d="M476.611,204.53c-0.367,-4.527 -0.642,-9.665 -0.826,-15.415c-0.183,-5.75 -0.275,-11.653 -0.275,-17.709c0,-6.056 0.03,-12.02 0.092,-17.892c0.061,-5.872 0.214,-11.194 0.458,-15.965c0,-1.224 0.581,-2.172 1.744,-2.845c1.162,-0.673 2.11,-0.948 2.844,-0.825c2.202,0.244 3.701,1.009 4.496,2.293c0.795,1.285 1.315,3.089 1.56,5.414c-0.122,3.915 -0.214,7.83 -0.275,11.745c-0.062,3.914 -0.031,7.829 0.091,11.744c5.506,-0.979 10.124,-2.997 13.855,-6.056c3.732,-3.058 6.393,-6.545 7.983,-10.46c0.612,-1.468 1.07,-3.242 1.376,-5.321c0.306,-2.08 0.337,-4.191 0.092,-6.332c-0.245,-2.14 -0.826,-4.159 -1.743,-6.055c-0.918,-1.897 -2.294,-3.395 -4.129,-4.496c-2.692,-1.591 -5.628,-2.447 -8.809,-2.569c-3.181,-0.123 -6.453,0.336 -9.817,1.376c-3.365,1.04 -6.668,2.661 -9.91,4.863c-3.242,2.202 -6.27,4.832 -9.084,7.891c0.367,1.835 0.123,3.456 -0.734,4.863c-0.856,1.407 -2.079,2.416 -3.67,3.028c-0.979,0.244 -2.141,-0.276 -3.487,-1.56c-1.345,-1.285 -2.018,-2.6 -2.018,-3.946c0,-4.893 1.376,-9.144 4.129,-12.754c2.752,-3.609 6.209,-6.636 10.368,-9.083c4.16,-2.447 8.625,-4.282 13.396,-5.505c4.771,-1.224 9.176,-1.836 13.213,-1.836c5.995,0 11.01,1.744 15.048,5.23c4.037,3.487 6.789,7.861 8.258,13.121c2.569,9.176 1.926,17.434 -1.927,24.774c-3.854,7.34 -10.124,13.702 -18.81,19.085c6.362,3.915 12.326,7.646 17.892,11.194c5.567,3.548 11.164,7.402 16.791,11.561c0.734,0.734 1.56,1.805 2.478,3.212c0.917,1.406 0.764,3.517 -0.459,6.331c-0.734,1.712 -1.988,2.661 -3.762,2.844c-1.774,0.184 -3.517,-0.336 -5.23,-1.56c-2.692,-2.202 -5.719,-4.496 -9.084,-6.881c-3.364,-2.386 -6.881,-4.772 -10.552,-7.157c-3.67,-2.386 -7.34,-4.71 -11.01,-6.974c-3.67,-2.263 -7.157,-4.373 -10.46,-6.331c0.122,4.894 0.214,9.757 0.275,14.589c0.061,4.833 0.214,9.573 0.459,14.222c0,1.713 -0.489,2.906 -1.468,3.579c-0.979,0.673 -2.202,1.009 -3.67,1.009c-0.734,-0.122 -1.407,-0.52 -2.019,-1.193c-0.612,-0.673 -1.193,-1.468 -1.743,-2.385c-0.551,-0.918 -1.01,-1.836 -1.377,-2.753c-0.367,-0.918 -0.55,-1.621 -0.55,-2.11Z" style="fill:#fff;fill-rule:nonzero;"/><path d="M554.235,133.695c-0.611,4.282 -1.162,9.023 -1.651,14.222c-0.49,5.199 -0.979,10.46 -1.468,15.782c-0.49,5.322 -0.949,10.49 -1.377,15.506c-0.428,5.016 -0.764,9.42 -1.009,13.213c4.159,-0.734 8.778,-1.59 13.855,-2.569c5.077,-0.979 10.246,-1.988 15.506,-3.028c5.261,-1.04 10.43,-1.957 15.507,-2.753c5.077,-0.795 9.695,-1.376 13.855,-1.743c0.367,0 0.795,0.122 1.284,0.367c0.979,0.489 1.469,1.285 1.469,2.386c0,1.59 -0.306,2.783 -0.918,3.578c-0.612,0.795 -1.346,1.407 -2.202,1.835c-0.857,0.428 -1.743,0.826 -2.661,1.193c-0.918,0.367 -1.743,0.917 -2.477,1.652c-3.793,0.978 -7.952,2.018 -12.479,3.119c-4.527,1.101 -9.175,2.202 -13.947,3.303c-4.771,1.101 -9.542,2.202 -14.313,3.304c-4.772,1.101 -9.237,2.202 -13.397,3.303c-3.792,0.978 -6.667,0.306 -8.625,-2.019c-1.957,-2.324 -2.752,-6.117 -2.385,-11.377c0.612,-9.91 1.346,-19.85 2.202,-29.821c0.856,-9.97 1.896,-19.91 3.12,-29.82c0.244,-2.08 0.948,-3.792 2.11,-5.138c1.162,-1.346 2.6,-2.141 4.312,-2.386c2.814,-0.367 4.496,0.337 5.047,2.111c0.55,1.773 0.765,3.7 0.642,5.78Z" style="fill:#fff;fill-rule:nonzero;"/><path d="M608.737,134.98c-1.835,0.734 -3.425,0.795 -4.771,0.183c-1.346,-0.612 -2.324,-1.407 -2.936,-2.385c-0.856,-1.224 -1.101,-2.508 -0.734,-3.854c0.367,-1.346 1.407,-2.508 3.12,-3.487c2.813,-1.59 6.361,-2.905 10.643,-3.945c4.282,-1.04 8.87,-1.315 13.763,-0.826c4.894,0.489 9.39,1.804 13.488,3.945c4.099,2.141 7.585,4.863 10.46,8.167c2.875,3.303 5.077,7.065 6.607,11.285c1.529,4.221 2.232,8.656 2.11,13.305c-0.245,4.893 -1.193,9.787 -2.844,14.68c-1.652,4.894 -3.915,9.482 -6.79,13.764c-2.875,4.282 -6.301,8.166 -10.277,11.652c-3.976,3.487 -8.349,6.209 -13.121,8.167c-3.303,0.856 -5.811,0.978 -7.524,0.367c-1.712,-0.612 -2.874,-1.346 -3.486,-2.202c-0.245,-0.612 -0.337,-1.438 -0.275,-2.478c0.061,-1.04 0.703,-2.11 1.926,-3.211c-1.468,-11.867 -2.355,-23.336 -2.66,-34.408c-0.306,-11.072 -0.459,-21.196 -0.459,-30.371c-2.08,0.367 -4.16,0.918 -6.24,1.652ZM628.74,132.594c-0.734,-0.122 -1.499,-0.214 -2.294,-0.275c-0.795,-0.061 -1.56,-0.092 -2.294,-0.092c0.734,0.979 1.346,2.172 1.835,3.578c0.49,1.407 0.734,2.784 0.734,4.129c0,7.463 0.092,15.476 0.276,24.04c0.183,8.564 0.764,17.8 1.743,27.71c5.383,-3.915 10.001,-8.839 13.855,-14.773c3.854,-5.933 5.903,-12.203 6.147,-18.809c0.123,-6.117 -1.406,-11.531 -4.587,-16.241c-3.181,-4.71 -8.319,-7.799 -15.415,-9.267Z" style="fill:#fff;fill-rule:nonzero;"/></g><circle cx="131.737" cy="134.647" r="130.067" style="fill:#fff;fill-opacity:0.282353;"/><circle cx="131.737" cy="134.647" r="111.476" style="fill:#fff;fill-opacity:0.498039;"/><circle cx="131.737" cy="134.647" r="92.611" style="fill:#1cbbda;"/><clipPath id="_clip1"><circle cx="131.737" cy="134.647" r="92.611"/></clipPath><g clip-path="url(#_clip1)"><clipPath id="_clip2"><path d="M67.562,113.095l-9.839,21.799l14.405,19.888l-2.472,30.7l2.472,9.639l9.821,9.085l-1.625,-10.529l13.778,-14.946l7.515,-11.21l7.931,-3.611l12.585,-22.585l-12.585,-6.431l-25.614,-27.728l-16.372,5.929M178.505,204.206l-5.062,-5.46l8.484,-12.615l5.44,-21.902l0,-23.874l-20.957,0l-11.416,-13.686l3.085,-23.47l15.364,-9.95l19.027,1.814l15.595,5.455l-1.924,-5.455l-7.71,-4.842l-7.759,0l-3.305,-5.155l-5.44,-2.335l-5.84,7.49l-9.677,-7.49l12.095,-8.042l1.87,-7.176l-10.596,-5.157l0,-8.593l22.691,-1.231l91.441,74.137l-105.406,77.537M67.562,109.861l-4.957,-13.073l2.271,-6.298l-7.153,-1.262l3.062,-10.31l15.823,-2.484l3.003,9.047l1.953,-10.216l11.705,-6.471l16.913,-2.511l9.05,0l0,-15.216l-16.411,4.421l5.656,-10.484l13.656,2.829l4.82,-5.149l3.88,14.836l18.273,-17.055l-29.874,-10.365l-90.337,17.733l22.067,36.175l0,9.01l6.761,3.77l9.839,13.073M166.41,63.683l-4.168,3.83l6.96,6.831l5.278,-2.893l-8.07,-7.768"/></clipPath><g clip-path="url(#_clip2)"><rect x="-29.359" y="30.1" width="313.271" height="251.736" style="fill:#2ba941;"/><g id="Layer2"><rect x="-66.076" y="159.904" width="395.627" height="8.419" style="fill:#1c9050;"/><rect x="-66.076" y="143.066" width="395.627" height="8.419" style="fill:#1c9050;"/><rect x="-66.076" y="176.743" width="395.627" height="8.419" style="fill:#1c9050;"/><rect x="-66.076" y="210.419" width="395.627" height="8.419" style="fill:#1c9050;"/><rect x="-66.076" y="193.581" width="395.627" height="8.419" style="fill:#1c9050;"/><rect x="-66.076" y="58.874" width="395.627" height="8.419" style="fill:#1c9050;"/><rect x="-66.076" y="42.036" width="395.627" height="8.419" style="fill:#1c9050;"/><rect x="-66.076" y="75.712" width="395.627" height="8.419" style="fill:#1c9050;"/><rect x="-66.076" y="109.389" width="395.627" height="8.419" style="fill:#1c9050;"/><rect x="-66.076" y="92.551" width="395.627" height="8.419" style="fill:#1c9050;"/><rect x="-66.076" y="126.228" width="395.627" height="8.419" style="fill:#1c9050;"/></g></g></g><path d="M706.301,35.504c6.006,0 10.882,4.876 10.882,10.882l0,21.765c0,6.006 -4.876,10.882 -10.882,10.882l-85.213,0c-6.006,0 -10.882,-4.876 -10.882,-10.882l0,-21.765c0,-6.006 4.876,-10.882 10.882,-10.882l85.213,0ZM635.954,45.762l-9.3,0l0,24.562l9.831,0c1.496,0 2.761,-0.217 3.794,-0.651c1.034,-0.434 1.87,-0.996 2.51,-1.687c0.639,-0.691 1.099,-1.464 1.379,-2.321c0.279,-0.856 0.419,-1.701 0.419,-2.535c0,-0.571 -0.077,-1.139 -0.231,-1.704c-0.154,-0.565 -0.403,-1.099 -0.745,-1.602c-0.343,-0.502 -0.782,-0.962 -1.319,-1.378c-0.537,-0.417 -1.188,-0.763 -1.953,-1.037c1.131,-0.548 1.976,-1.276 2.535,-2.184c0.56,-0.907 0.84,-1.875 0.84,-2.903c0,-0.833 -0.129,-1.644 -0.386,-2.432c-0.257,-0.788 -0.688,-1.487 -1.293,-2.098c-0.605,-0.611 -1.404,-1.102 -2.398,-1.473c-0.993,-0.371 -2.221,-0.557 -3.683,-0.557ZM663.49,49.205l0,-3.443l-15.227,0l0,24.562l15.998,0l0,-3.443l-12.35,0l0,-7.502l7.485,0l0,-3.443l-7.485,0l0,-6.731l11.579,0ZM676.621,70.324l0,-21.051l6.937,0l0,-3.511l-17.54,0l0,3.511l6.954,0l0,21.051l3.649,0ZM703.506,70.324l-8.839,-24.562l-3.751,0l-8.872,24.562l3.785,0l2.004,-5.652l9.935,0l1.952,5.652l3.786,0ZM635.715,59.276c1.027,0 1.875,0.114 2.543,0.343c0.668,0.228 1.196,0.528 1.585,0.899c0.388,0.371 0.656,0.799 0.805,1.285c0.148,0.485 0.222,0.985 0.222,1.498c0,0.434 -0.062,0.868 -0.188,1.302c-0.126,0.434 -0.343,0.825 -0.651,1.174c-0.308,0.348 -0.728,0.63 -1.259,0.847c-0.531,0.217 -1.202,0.326 -2.012,0.326l-6.458,0l0,-7.674l5.413,0ZM693.657,53.093c-0.137,-0.388 -0.289,-0.839 -0.454,-1.353c-0.166,-0.514 -0.294,-0.982 -0.386,-1.405c-0.114,0.423 -0.248,0.888 -0.402,1.396c-0.154,0.508 -0.3,0.962 -0.437,1.362l-3.032,8.359l7.691,0l-2.98,-8.359ZM636.057,49.136c0.822,0 1.488,0.1 1.996,0.3c0.508,0.2 0.908,0.462 1.199,0.788c0.291,0.325 0.488,0.688 0.591,1.088c0.102,0.399 0.154,0.799 0.154,1.199c0,0.502 -0.097,0.959 -0.291,1.37c-0.195,0.411 -0.486,0.768 -0.874,1.07c-0.388,0.303 -0.873,0.537 -1.456,0.703c-0.582,0.165 -1.256,0.248 -2.021,0.248l-5.053,0l0,-6.766l5.755,0Z" style="fill:#fff;fill-opacity:0.701961;"/></svg>