<?xml version="1.0" standalone="no"?>
<!DOCTYPE svg PUBLIC "-//W3C//DTD SVG 1.1//EN" "http://www.w3.org/Graphics/SVG/1.1/DTD/svg11.dtd">
<svg width="100%" height="100%" viewBox="0 0 180 180" version="1.1" xmlns="http://www.w3.org/2000/svg" xmlns:xlink="http://www.w3.org/1999/xlink" xml:space="preserve" style="fill-rule:evenodd;clip-rule:evenodd;stroke-linejoin:round;stroke-miterlimit:1.41421;">
    <g id="Layer1" transform="matrix(2.24079,0,0,2.24079,18.1975,3.99088)">
        <g transform="matrix(0.973354,0.229308,-0.229308,0.973354,8.41414,-6.43474)">
            <path d="M4.533,17.868L4.649,17.867L4.765,17.887L4.874,17.926L5.03,17.997L5.189,18.071L5.348,18.146L5.508,18.223L5.668,18.3L5.83,18.38L5.992,18.46L6.155,18.542L6.318,18.626L6.482,18.711L6.647,18.797L6.813,18.884L6.979,18.973L7.146,19.063L7.313,19.155L7.482,19.247L7.65,19.341L7.82,19.437L7.99,19.533L8.161,19.631L8.333,19.731L8.505,19.831L8.678,19.933L8.851,20.036L9.025,20.14L9.2,20.246L9.375,20.353L9.551,20.461L9.727,20.57L9.904,20.681L10.082,20.792L10.26,20.905L10.439,21.019L10.619,21.135L10.798,21.251L10.979,21.369L11.16,21.488L11.342,21.608L11.524,21.729L11.706,21.851L11.89,21.975L12.073,22.099L12.258,22.225L12.442,22.352L12.628,22.48L12.813,22.609L13,22.739L13.186,22.87L13.373,23.003L13.561,23.136L13.749,23.271L13.938,23.406L14.127,23.543L14.316,23.681L14.506,23.82L14.697,23.959L14.888,24.1L15.079,24.242L15.271,24.385L15.463,24.529L15.655,24.674L15.848,24.82L16.041,24.967L16.235,25.115L16.429,25.264L16.623,25.413L16.818,25.564L17.013,25.716L17.209,25.869L17.405,26.023L17.601,26.177L17.797,26.333L17.994,26.489L18.191,26.647L18.389,26.805L18.587,26.964L18.785,27.124L18.983,27.285L19.182,27.447L19.381,27.61L19.58,27.774L19.78,27.938L19.979,28.103L20.179,28.27L20.38,28.437L20.58,28.605L20.781,28.773L20.982,28.943L21.183,29.113L21.385,29.284L21.586,29.456L21.788,29.629L21.99,29.803L22.193,29.977L22.395,30.152L22.598,30.328L22.801,30.504L23.004,30.682L23.207,30.86L23.41,31.039L23.613,31.218L23.817,31.399L24.021,31.58L24.225,31.761L24.429,31.944L24.633,32.127L24.837,32.311L25.041,32.495L25.246,32.68L25.45,32.866L25.655,33.053L25.859,33.24L26.064,33.428L26.269,33.616L26.474,33.805L26.679,33.995L26.884,34.185L27.089,34.376L27.294,34.568L27.499,34.76L27.704,34.953L27.909,35.146L28.114,35.34L28.319,35.535L28.524,35.73L28.729,35.925L28.934,36.121L29.139,36.318L29.344,36.515L29.549,36.713L29.754,36.912L29.959,37.11L30.164,37.31L30.368,37.509L30.573,37.71L30.777,37.911L30.982,38.112L31.186,38.314L31.391,38.516L31.595,38.719L31.799,38.922L32.003,39.125L32.206,39.329L32.41,39.534L32.614,39.739L32.817,39.944L33.02,40.15L33.223,40.356L33.426,40.562L33.629,40.769L33.832,40.977L34.034,41.184L34.236,41.392L34.438,41.601L34.64,41.81L34.842,42.019L35.043,42.228L35.244,42.438L35.445,42.648L35.646,42.859L35.846,43.069L36.046,43.28L36.246,43.492L36.446,43.703L36.645,43.915L36.844,44.128L37.043,44.34L37.242,44.553L37.44,44.766L37.638,44.979L37.835,45.193L38.033,45.407L38.23,45.621L38.426,45.835L38.623,46.049L38.818,46.264L39.014,46.479L39.209,46.694L39.404,46.909L39.599,47.124L39.793,47.34L39.987,47.556L40.18,47.772L40.373,47.988L40.566,48.204L40.758,48.42L40.95,48.637L41.141,48.854L41.332,49.07L41.522,49.287L41.712,49.504L41.902,49.721L42.091,49.939L42.28,50.156L42.468,50.373L42.656,50.591L42.843,50.808L43.03,51.026L43.216,51.243L43.402,51.461L43.587,51.678L43.772,51.896L43.956,52.114L44.14,52.332L44.323,52.549L44.505,52.767L44.687,52.985L44.869,53.203L45.05,53.42L45.23,53.638L45.41,53.856L45.589,54.073L45.768,54.291L45.946,54.508L46.124,54.726L46.3,54.943L46.477,55.161L46.652,55.378L46.827,55.595L47.002,55.812L47.175,56.029L47.348,56.246L47.521,56.463L47.693,56.679L47.864,56.896L48.034,57.112L48.204,57.328L48.373,57.544L48.541,57.76L48.709,57.976L48.876,58.192L49.042,58.407L49.208,58.622L49.373,58.837L49.537,59.052L49.7,59.267L49.863,59.481L50.025,59.695L50.186,59.909L50.346,60.123L50.506,60.337L50.664,60.55L50.822,60.763L50.98,60.976L51.136,61.188L51.292,61.4L51.446,61.612L51.6,61.824L51.754,62.035L51.906,62.246L52.057,62.457L52.208,62.668L52.358,62.878L52.507,63.088L52.655,63.297L52.802,63.506L52.86,63.606L52.901,63.716L52.921,63.831L52.921,63.948L52.901,64.063L52.862,64.172L52.804,64.273L52.729,64.363L52.64,64.438L52.539,64.497L52.429,64.537L52.314,64.558L52.198,64.558L52.083,64.538L51.973,64.498L51.872,64.44L51.782,64.365L51.707,64.276L51.561,64.069L51.414,63.862L51.267,63.654L51.119,63.446L50.97,63.238L50.82,63.029L50.669,62.82L50.517,62.611L50.365,62.401L50.211,62.191L50.057,61.981L49.902,61.77L49.746,61.56L49.59,61.348L49.432,61.137L49.274,60.926L49.115,60.714L48.956,60.502L48.795,60.289L48.634,60.077L48.472,59.864L48.309,59.651L48.146,59.438L47.982,59.224L47.817,59.011L47.651,58.797L47.485,58.583L47.318,58.369L47.15,58.154L46.982,57.94L46.813,57.725L46.643,57.51L46.473,57.295L46.301,57.08L46.13,56.865L45.957,56.65L45.784,56.434L45.61,56.219L45.436,56.003L45.261,55.787L45.086,55.572L44.909,55.356L44.733,55.14L44.555,54.924L44.377,54.708L44.199,54.491L44.02,54.275L43.84,54.059L43.66,53.843L43.479,53.627L43.298,53.41L43.116,53.194L42.933,52.978L42.75,52.762L42.567,52.545L42.383,52.329L42.198,52.113L42.013,51.897L41.828,51.681L41.642,51.465L41.455,51.249L41.268,51.033L41.081,50.817L40.893,50.601L40.705,50.386L40.516,50.17L40.327,49.955L40.137,49.739L39.947,49.524L39.756,49.309L39.565,49.094L39.374,48.879L39.182,48.664L38.99,48.45L38.797,48.235L38.605,48.021L38.411,47.807L38.218,47.593L38.024,47.379L37.829,47.166L37.634,46.953L37.439,46.739L37.244,46.527L37.048,46.314L36.852,46.101L36.656,45.889L36.459,45.677L36.262,45.466L36.065,45.254L35.867,45.043L35.669,44.832L35.471,44.621L35.273,44.411L35.074,44.201L34.875,43.991L34.676,43.782L34.477,43.573L34.277,43.364L34.077,43.155L33.877,42.947L33.677,42.739L33.476,42.532L33.275,42.325L33.074,42.118L32.873,41.912L32.672,41.706L32.471,41.5L32.269,41.295L32.067,41.09L31.865,40.886L31.663,40.682L31.461,40.478L31.259,40.275L31.056,40.072L30.853,39.87L30.651,39.668L30.448,39.467L30.245,39.266L30.042,39.065L29.839,38.865L29.636,38.666L29.432,38.467L29.229,38.268L29.026,38.07L28.822,37.873L28.619,37.676L28.415,37.479L28.211,37.284L28.008,37.088L27.804,36.893L27.601,36.699L27.397,36.505L27.193,36.312L26.99,36.12L26.786,35.928L26.582,35.736L26.379,35.546L26.175,35.355L25.972,35.166L25.768,34.977L25.565,34.788L25.362,34.601L25.158,34.414L24.955,34.227L24.752,34.042L24.549,33.856L24.346,33.672L24.143,33.488L23.94,33.305L23.738,33.123L23.535,32.941L23.333,32.76L23.131,32.58L22.929,32.4L22.727,32.221L22.525,32.043L22.323,31.866L22.122,31.689L21.92,31.513L21.719,31.338L21.518,31.164L21.318,30.99L21.117,30.818L20.917,30.645L20.717,30.474L20.517,30.304L20.317,30.134L20.118,29.965L19.919,29.798L19.72,29.63L19.521,29.464L19.323,29.299L19.125,29.134L18.927,28.97L18.729,28.807L18.532,28.645L18.335,28.484L18.138,28.324L17.942,28.165L17.746,28.006L17.55,27.849L17.355,27.692L17.16,27.536L16.965,27.382L16.771,27.228L16.577,27.075L16.383,26.923L16.19,26.772L15.997,26.622L15.805,26.473L15.613,26.325L15.421,26.178L15.23,26.032L15.039,25.887L14.849,25.743L14.659,25.599L14.469,25.457L14.28,25.316L14.091,25.176L13.903,25.038L13.715,24.9L13.528,24.763L13.341,24.627L13.155,24.492L12.969,24.359L12.784,24.226L12.599,24.095L12.415,23.965L12.231,23.835L12.048,23.707L11.865,23.58L11.683,23.454L11.501,23.33L11.32,23.206L11.14,23.084L10.96,22.963L10.78,22.842L10.602,22.724L10.424,22.606L10.246,22.489L10.069,22.374L9.893,22.26L9.717,22.147L9.542,22.035L9.368,21.925L9.194,21.815L9.021,21.707L8.848,21.6L8.676,21.495L8.505,21.391L8.335,21.288L8.165,21.186L7.996,21.085L7.827,20.986L7.66,20.888L7.493,20.792L7.327,20.696L7.161,20.602L6.997,20.51L6.833,20.418L6.669,20.328L6.507,20.24L6.345,20.152L6.184,20.066L6.024,19.982L5.865,19.899L5.707,19.817L5.549,19.736L5.392,19.657L5.236,19.58L5.081,19.504L4.927,19.429L4.773,19.355L4.621,19.283L4.469,19.213L4.317,19.143L4.215,19.085L4.125,19.011L4.05,18.922L3.991,18.821L3.95,18.712L3.929,18.597L3.928,18.48L3.948,18.365L3.987,18.255L4.045,18.154L4.119,18.064L4.208,17.988L4.309,17.929L4.418,17.889L4.533,17.868Z" style="fill:rgb(33,33,33);"/>
        </g>
        <g transform="matrix(0.726461,0,0,0.723217,21.3978,-1.8966)">
            <ellipse cx="29.025" cy="31.03" rx="5.963" ry="5.97" style="fill:rgb(33,33,33);"/>
        </g>
        <g transform="matrix(-1,0.000759178,-0.000759178,-1,70.8686,62.5027)">
            <path d="M28.353,18.534C28.353,18.534 16.607,34.777 16.607,41.738C16.607,48.221 21.87,53.485 28.353,53.485C34.836,53.485 40.1,48.221 40.1,41.738C40.1,34.777 28.353,18.534 28.353,18.534Z" style="fill:none;stroke-width:1.34px;stroke:rgb(33,33,33);"/>
        </g>
        <g transform="matrix(0.861365,0.202925,-0.213433,0.905968,10.6591,-3.55281)">
            <path d="M31.499,26.803L31.547,26.796L31.595,26.792L31.644,26.79L31.692,26.792L31.74,26.796L31.788,26.804L31.835,26.814L31.882,26.827L31.927,26.843L31.972,26.862L32.015,26.883L32.056,26.907L32.096,26.934L32.134,26.963L32.17,26.994L32.203,27.027L32.235,27.062L32.264,27.099L32.29,27.138L32.314,27.178L32.335,27.219L32.353,27.262L32.368,27.306L32.38,27.35L32.389,27.396L32.396,27.441L32.399,27.487L32.399,27.534L32.395,27.58L32.389,27.625L32.38,27.671L32.367,27.715L32.352,27.759L32.334,27.802L32.313,27.843L32.289,27.883L32.262,27.922L32.233,27.959L32.202,27.994L32.168,28.027L32.132,28.058L25.225,33.631L25.187,33.66L25.148,33.686L25.106,33.71L25.063,33.731L25.019,33.75L24.973,33.766L24.927,33.779L24.879,33.789L24.831,33.796L24.783,33.801L24.735,33.802L24.686,33.8L24.638,33.796L24.59,33.789L24.543,33.778L24.496,33.765L24.451,33.749L24.407,33.73L24.364,33.709L24.322,33.685L24.283,33.659L24.245,33.63L24.209,33.599L24.175,33.566L24.144,33.53L24.115,33.493L24.088,33.455L24.065,33.415L24.044,33.373L24.026,33.33L24.01,33.286L23.998,33.242L23.989,33.197L23.983,33.151L23.98,33.105L23.98,33.059L23.983,33.013L23.989,32.967L23.999,32.922L24.011,32.877L24.026,32.833L24.045,32.791L24.066,32.749L24.09,32.709L24.116,32.671L24.145,32.634L24.177,32.599L24.21,32.565L24.246,32.535L31.153,26.961L31.191,26.932L31.231,26.906L31.272,26.882L31.315,26.861L31.36,26.842L31.405,26.827L31.452,26.814L31.499,26.803Z" style="fill:rgb(33,33,33);"/>
        </g>
        <g transform="matrix(0.973354,0.229308,-0.229308,0.973354,8.69631,-6.43474)">
            <path d="M61.115,9.022L61.151,9.015L61.187,9.009L61.196,9.008L61.239,9.005L61.282,9.004L61.286,9.004L61.328,9.006L61.369,9.01L61.372,9.011L61.41,9.017L61.448,9.025L61.485,9.036L61.487,9.037L61.537,9.055L61.584,9.077L61.63,9.102L61.632,9.103L61.674,9.131L61.713,9.161L61.751,9.195L61.785,9.231L61.787,9.232L61.821,9.274L61.851,9.318L61.878,9.364L61.901,9.412L61.902,9.414L61.919,9.459L61.934,9.505L61.944,9.552L61.952,9.6L61.952,9.602L61.956,9.651L61.957,9.7L61.953,9.749L61.953,9.751L61.946,9.805L61.934,9.857L61.933,9.86L61.922,9.898L61.908,9.935L61.907,9.938L61.89,9.976L61.872,10.012L61.867,10.02L61.85,10.05L61.831,10.079L61.812,10.107L61.779,10.148L61.751,10.18L61.724,10.209L61.702,10.231L61.662,10.269L61.619,10.303L61.572,10.334L61.524,10.36L61.474,10.383L61.421,10.401L61.368,10.415L61.313,10.425L61.258,10.43L61.239,10.43L61.185,10.46L61.104,10.506L61.015,10.558L60.918,10.614L60.814,10.675L60.702,10.74L60.584,10.81L60.328,10.964L60.046,11.133L59.411,11.515L58.689,11.95L58.298,12.186L57.889,12.431L57.462,12.686L57.019,12.949L56.792,13.084L56.561,13.22L56.326,13.358L56.088,13.498L55.847,13.639L55.603,13.781L55.356,13.925L55.106,14.07L54.853,14.215L54.598,14.362L54.34,14.509L54.08,14.657L53.817,14.806L53.553,14.955L53.287,15.104L53.019,15.253L52.749,15.403L52.478,15.552L52.205,15.701L51.931,15.85L51.656,15.999L51.381,16.147L51.104,16.295L50.827,16.441L50.777,16.465L50.726,16.484L50.672,16.499L50.618,16.51L50.563,16.517L50.508,16.518L50.453,16.516L50.398,16.508L50.344,16.496L50.291,16.48L50.24,16.459L50.19,16.435L50.143,16.406L50.098,16.373L50.056,16.337L50.018,16.298L49.982,16.255L49.95,16.21L49.923,16.162L49.899,16.112L49.879,16.06L49.864,16.007L49.853,15.953L49.847,15.898L49.845,15.843L49.848,15.787L49.855,15.733L49.867,15.679L49.883,15.626L49.904,15.574L49.929,15.525L49.957,15.478L49.99,15.433L50.026,15.391L50.066,15.352L50.108,15.317L50.154,15.285L50.201,15.257L50.476,15.112L50.749,14.966L51.022,14.82L51.293,14.673L51.564,14.526L51.833,14.379L52.102,14.231L52.368,14.083L52.634,13.935L52.897,13.787L53.159,13.64L53.419,13.493L53.677,13.346L53.932,13.2L54.186,13.055L54.436,12.91L54.684,12.767L54.93,12.624L55.172,12.483L55.411,12.343L55.648,12.204L55.881,12.067L56.11,11.932L56.336,11.798L56.777,11.536L57.201,11.282L57.609,11.038L57.999,10.803L58.72,10.369L59.356,9.985L59.64,9.815L59.9,9.66L60.021,9.588L60.135,9.521L60.243,9.457L60.345,9.398L60.44,9.344L60.529,9.293L60.612,9.247L60.688,9.205L60.76,9.167L60.824,9.134L60.858,9.118L60.89,9.103L60.922,9.088L60.955,9.074L60.991,9.06L61.031,9.045L61.082,9.03L61.115,9.022Z" style="fill:rgb(33,33,33);"/>
        </g>
        <g transform="matrix(1.3787,0.324801,-0.337958,1.43455,-0.431155,-28.4752)">
            <path d="M32.764,40.545L32.824,40.543L32.883,40.548L32.941,40.56L32.997,40.579L33.05,40.605L33.099,40.637L33.144,40.674L33.183,40.717L33.216,40.764L33.244,40.815L33.264,40.868L33.277,40.924L33.283,40.981L33.281,41.038L33.272,41.094L33.256,41.149L33.233,41.201L33.203,41.25L33.166,41.296L33.125,41.336L33.078,41.371L32.992,41.428L32.907,41.484L32.821,41.541L32.737,41.598L32.652,41.655L32.568,41.712L32.484,41.769L32.4,41.827L32.316,41.884L32.233,41.942L32.149,42L32.066,42.058L31.984,42.116L31.901,42.175L31.818,42.233L31.736,42.292L31.572,42.41L31.409,42.528L31.247,42.647L31.085,42.767L30.924,42.887L30.763,43.008L30.603,43.129L30.443,43.25L30.284,43.373L30.126,43.495L29.968,43.618L29.81,43.742L29.653,43.866L29.496,43.991L29.34,44.116L29.184,44.241L29.028,44.367L28.872,44.493L28.717,44.62L28.562,44.747L28.407,44.874L28.252,45.002L28.097,45.13L27.943,45.258L27.788,45.387L27.634,45.516L27.324,45.775L27.015,46.035L26.705,46.296L26.083,46.822L25.77,47.085L25.456,47.35L25.141,47.615L24.982,47.747L24.823,47.88L24.663,48.013L24.503,48.146L24.343,48.279L24.181,48.412L24.019,48.545L23.857,48.678L23.693,48.811L23.529,48.944L23.365,49.078L23.199,49.211L23.033,49.344L22.866,49.477L22.73,49.584L22.598,49.689L22.47,49.792L22.344,49.893L22.222,49.991L22.103,50.088L21.987,50.182L21.874,50.274L21.764,50.364L21.657,50.452L21.552,50.538L21.451,50.622L21.352,50.704L21.255,50.784L21.161,50.863L21.07,50.939L20.895,51.087L20.729,51.228L20.571,51.363L20.422,51.492L20.281,51.614L20.147,51.731L20.02,51.843L19.899,51.95L19.784,52.053L19.675,52.151L19.469,52.335L19.279,52.506L19.188,52.588L19.099,52.667L19.012,52.744L18.926,52.819L18.842,52.892L18.757,52.965L18.672,53.035L18.629,53.071L18.587,53.106L18.544,53.141L18.5,53.176L18.456,53.211L18.414,53.245L18.351,53.295L18.236,53.386L18.077,53.512L17.884,53.665L17.665,53.837L17.548,53.928L17.428,54.022L17.306,54.117L17.182,54.213L17.058,54.308L16.935,54.402L16.886,54.434L16.834,54.461L16.778,54.48L16.72,54.494L16.661,54.5L16.602,54.498L16.543,54.49L16.486,54.475L16.431,54.453L16.38,54.424L16.333,54.39L16.29,54.35L16.253,54.305L16.222,54.256L16.198,54.204L16.181,54.15L16.171,54.093L16.169,54.036L16.174,53.98L16.186,53.924L16.205,53.87L16.232,53.819L16.265,53.771L16.303,53.728L16.347,53.69L16.469,53.597L16.591,53.504L16.713,53.41L16.833,53.316L16.952,53.223L17.067,53.133L17.285,52.962L17.476,52.811L17.633,52.686L17.749,52.594L17.813,52.543L17.855,52.51L17.895,52.479L17.935,52.447L17.974,52.414L18.014,52.382L18.053,52.35L18.132,52.283L18.211,52.215L18.292,52.146L18.374,52.074L18.458,51.999L18.544,51.922L18.634,51.842L18.824,51.672L19.03,51.486L19.141,51.387L19.258,51.283L19.381,51.175L19.51,51.061L19.646,50.942L19.79,50.817L19.941,50.686L20.101,50.549L20.27,50.406L20.448,50.255L20.541,50.178L20.636,50.098L20.733,50.017L20.834,49.933L20.937,49.848L21.043,49.761L21.151,49.672L21.262,49.581L21.377,49.488L21.494,49.393L21.614,49.296L21.738,49.196L21.864,49.095L21.994,48.991L22.127,48.885L22.263,48.777L22.429,48.645L22.593,48.513L22.757,48.382L22.92,48.25L23.083,48.118L23.245,47.986L23.406,47.854L23.566,47.722L23.726,47.59L23.886,47.458L24.045,47.326L24.204,47.194L24.362,47.062L24.519,46.93L24.834,46.666L25.147,46.402L25.459,46.139L26.082,45.614L26.392,45.352L26.703,45.091L27.013,44.831L27.169,44.701L27.324,44.571L27.48,44.442L27.636,44.313L27.792,44.184L27.948,44.056L28.105,43.927L28.262,43.8L28.419,43.672L28.577,43.545L28.735,43.418L28.893,43.291L29.052,43.165L29.212,43.039L29.371,42.914L29.532,42.789L29.693,42.664L29.854,42.54L30.017,42.416L30.179,42.293L30.343,42.17L30.507,42.048L30.672,41.926L30.838,41.805L31.004,41.684L31.172,41.564L31.256,41.503L31.34,41.444L31.425,41.384L31.509,41.324L31.594,41.265L31.679,41.206L31.765,41.147L31.85,41.088L31.936,41.029L32.022,40.97L32.108,40.912L32.195,40.853L32.282,40.795L32.369,40.737L32.456,40.679L32.543,40.622L32.594,40.593L32.649,40.57L32.706,40.554L32.764,40.545Z" style="fill:rgb(33,33,33);"/>
        </g>
    </g>
</svg>
