<?xml version="1.0" encoding="UTF-8" standalone="no"?>
<!DOCTYPE svg PUBLIC "-//W3C//DTD SVG 1.1//EN" "http://www.w3.org/Graphics/SVG/1.1/DTD/svg11.dtd">
<svg width="100%" height="100%" viewBox="0 0 30 30" version="1.1" xmlns="http://www.w3.org/2000/svg" xmlns:xlink="http://www.w3.org/1999/xlink" xml:space="preserve" style="fill-rule:evenodd;clip-rule:evenodd;stroke-linejoin:round;stroke-miterlimit:1.41421;">
    <rect x="0" y="0" width="30" height="30" style="fill:black;fill-opacity:0;"/>
    <g transform="matrix(1,0,0,1.01465,0,0)">
        <ellipse cx="15" cy="14.783" rx="15" ry="14.783" style="fill:white;fill-opacity:0.498039;"/>
    </g>
    <g transform="matrix(0.872939,0,0,0.872939,1.90591,1.90591)">
        <circle cx="15" cy="15" r="15" style="fill:black;fill-opacity:0;"/>
        <clipPath id="_clip1">
            <circle cx="15" cy="15" r="15"/>
        </clipPath>
        <g clip-path="url(#_clip1)">
            <g transform="matrix(0.151855,0,0,0.151855,-44.5039,-10.9488)">
                <path d="M321.562,155.095L311.723,176.894L326.128,196.782L323.656,227.482L326.128,237.121L335.949,246.206L334.324,235.677L348.102,220.731L355.617,209.521L363.548,205.91L376.133,183.325L363.548,176.894L337.934,149.166L321.562,155.095M432.505,246.206L427.443,240.746L435.927,228.131L441.367,206.229L441.367,182.355L420.41,182.355L408.994,168.669L412.079,145.199L427.443,135.249L446.47,137.063L462.065,142.518L460.141,137.063L452.431,132.221L444.672,132.221L441.367,127.066L435.927,124.731L430.087,132.221L420.41,124.731L432.505,116.689L434.375,109.513L423.779,104.356L423.779,95.763L446.47,94.532L537.911,168.669L432.505,246.206M321.562,151.861L316.605,138.788L318.876,132.49L311.723,131.228L314.785,120.918L330.608,118.434L333.611,127.481L335.564,117.265L347.269,110.794L364.182,108.283L373.232,108.283L373.232,93.067L356.821,97.488L362.477,87.004L376.133,89.833L380.953,84.684L384.833,99.52L403.106,82.465L373.232,72.1L282.895,89.833L304.962,126.008L304.962,135.018L311.723,138.788L321.562,151.861M420.41,105.683L416.242,109.513L423.202,116.344L428.48,113.451L420.41,105.683" style="fill:black;"/>
            </g>
        </g>
    </g>
</svg>
