<?xml version="1.0" standalone="no"?>
<!DOCTYPE svg PUBLIC "-//W3C//DTD SVG 1.1//EN" "http://www.w3.org/Graphics/SVG/1.1/DTD/svg11.dtd">
<svg width="100%" height="100%" viewBox="0 0 40 40" version="1.1" xmlns="http://www.w3.org/2000/svg" xmlns:xlink="http://www.w3.org/1999/xlink" xml:space="preserve" style="fill-rule:evenodd;clip-rule:evenodd;stroke-linejoin:round;stroke-miterlimit:1.41421;">
    <circle cx="20" cy="20" r="20" style="fill:rgb(63,63,63);"/>
    <g transform="matrix(0.855054,0,0,0.855054,3.02873,6.56861)">
        <path d="M22.269,23.037C24.191,21.114 25.271,18.507 25.271,15.788C25.271,13.069 24.191,10.461 22.269,8.539L21.084,9.723C22.693,11.331 23.596,13.513 23.596,15.788C23.596,18.062 22.693,20.244 21.084,21.852L22.269,23.037Z" style="fill:white;"/>
    </g>
    <g transform="matrix(1.29507,0,0,1.29507,-3.58015,-0.378271)">
        <path d="M22.269,23.037C24.191,21.114 25.271,18.507 25.271,15.788C25.271,13.069 24.191,10.461 22.269,8.539L21.515,9.292C23.238,11.015 24.206,13.351 24.206,15.788C24.206,18.224 23.238,20.561 21.515,22.284L22.269,23.037Z" style="fill:white;"/>
    </g>
    <g transform="matrix(1.76754,0,0,1.76754,-10.6764,-7.83748)">
        <path d="M22.269,23.037C24.191,21.114 25.271,18.507 25.271,15.788C25.271,13.069 24.191,10.461 22.269,8.539L21.713,9.094C23.488,10.869 24.486,13.277 24.486,15.788C24.486,18.298 23.488,20.706 21.713,22.481L22.269,23.037Z" style="fill:white;"/>
    </g>
    <g transform="matrix(0.855054,0,0,0.855054,1.03531,1.13345)">
        <path d="M14.371,16.673L14.371,16.667L21.237,11.196L21.227,33.092L14.365,27.615L14.365,27.615L7.099,27.615L7.099,16.673L14.371,16.673Z" style="fill:white;"/>
    </g>
</svg>
