<?xml version="1.0" standalone="no"?>
<!DOCTYPE svg PUBLIC "-//W3C//DTD SVG 1.1//EN" "http://www.w3.org/Graphics/SVG/1.1/DTD/svg11.dtd">
<svg width="100%" height="100%" viewBox="0 0 220 80" version="1.1" xmlns="http://www.w3.org/2000/svg" xmlns:xlink="http://www.w3.org/1999/xlink" xml:space="preserve" style="fill-rule:evenodd;clip-rule:evenodd;stroke-linejoin:round;stroke-miterlimit:1.41421;">
    <g transform="matrix(1,0,0,1,-50.756,-63.4418)">
        <path d="M255.981,107.956C255.981,107.956 263.502,107.886 264.106,110.029C264.617,111.839 257.216,114.66 257.216,114.66L255.981,107.956Z" style="fill:rgb(238,238,238);"/>
    </g>
    <g transform="matrix(0.736787,-0.113495,0.142398,0.92442,0.42742,-27.2881)">
        <rect x="258.407" y="93.315" width="2.198" height="38.487" style="fill:rgb(164,164,164);"/>
    </g>
    <g transform="matrix(0.976265,0.216582,-0.216582,0.976265,-21.7195,-95.4532)">
        <path d="M79.695,101.87C68.372,110.962 67.867,132.025 79.44,149.914C88.546,163.989 197.856,128.995 230.862,116.321C238.967,113.209 248.93,108.553 254.905,101.851C258.353,97.983 250.634,82.923 248.101,81.162C241.687,76.701 213.625,85.612 213.625,85.612C213.625,85.612 208.765,76.056 203.041,76.73C164.482,81.267 111.773,120.262 104.594,118.643C99.501,117.495 101.323,117.594 94.899,102.071C93.784,99.378 84.618,97.917 79.695,101.87Z" style="fill:rgb(191,109,91);"/>
    </g>
    <g transform="matrix(0.976265,0.216582,-0.216582,0.976265,-21.7195,-95.4532)">
        <path d="M97.664,145.87C82.593,147.108 67.867,132.025 79.44,149.914C88.546,163.989 197.856,128.995 230.862,116.321C238.967,113.209 248.93,108.553 254.905,101.851C258.353,97.983 251.241,85.085 250.758,88.132C246.878,112.61 108.057,145.017 97.664,145.87Z" style="fill:rgb(147,79,65);"/>
    </g>
    <g transform="matrix(1,0,0,1,-57.2032,-63.602)">
        <path d="M167.794,100L159.041,81.28C159.041,81.28 190.222,74.387 199.127,73.013C206.198,71.921 208.136,67.998 208.136,67.998L201.723,93.242C199.737,97.647 181.462,98.292 167.794,100Z" style="fill:rgb(147,79,65);"/>
    </g>
    <g transform="matrix(0.779733,0,0,0.779733,-16.496,-42.0748)">
        <circle cx="145.284" cy="113.33" r="5.182" style="fill:rgb(115,190,251);"/>
    </g>
    <g transform="matrix(0.779733,0,0,0.779733,-2.9332,-43.989)">
        <circle cx="145.284" cy="113.33" r="5.182" style="fill:rgb(115,190,251);"/>
    </g>
    <g transform="matrix(0.779733,0,0,0.779733,9.33082,-46.1154)">
        <circle cx="145.284" cy="113.33" r="5.182" style="fill:rgb(115,190,251);"/>
    </g>
    <g transform="matrix(1,0,0,1,-57.2032,-63.602)">
        <path d="M158.435,78.677L159.041,81.272C159.041,81.272 190.275,74.693 199.127,73.013C208.1,71.31 208.136,67.998 208.136,67.998C208.136,67.998 206.496,66.677 198.564,67.433C189.621,68.285 158.435,78.677 158.435,78.677Z" style="fill:rgb(191,109,91);"/>
    </g>
    <g transform="matrix(0.755621,0.160285,-0.160285,0.755621,-100.482,-36.556)">
        <path d="M158.435,78.677L159.041,81.272C159.041,81.272 190.275,74.693 199.127,73.013C208.1,71.31 208.136,67.998 208.136,67.998C208.136,67.998 206.496,66.677 198.564,67.433C189.621,68.285 158.435,78.677 158.435,78.677Z" style="fill:rgb(147,79,65);"/>
    </g>
    <g transform="matrix(1,0,0,1,-57.2032,-63.602)">
        <path d="M182.482,83.823L191.009,81.991C191.582,83.556 189.608,83.068 189.179,86.564C189.002,88.008 191.704,106.975 192.816,111.537C193.121,112.789 196.57,113.121 195.85,113.935C195.024,114.869 188.027,116.306 187.75,115.486C187.343,114.283 189.589,113.307 189.522,112.007C189.276,107.258 186.352,87.156 186.271,86.988C185.296,84.964 183.085,85.688 182.482,83.823Z" style="fill:rgb(164,164,164);"/>
    </g>
    <g transform="matrix(1,0,0,1,-50.756,-63.4418)">
        <path d="M214.429,88.911C214.429,88.911 205.062,89.381 203.189,90.849C201.386,92.261 203.189,97.718 203.189,97.718L218.527,96.303C217.897,93.717 216.191,90.823 214.429,88.911Z" style="fill:rgb(115,190,251);"/>
    </g>
</svg>
