<?xml version="1.0" standalone="no"?>
<!DOCTYPE svg PUBLIC "-//W3C//DTD SVG 1.1//EN" "http://www.w3.org/Graphics/SVG/1.1/DTD/svg11.dtd">
<svg width="100%" height="100%" viewBox="0 0 180 180" version="1.1" xmlns="http://www.w3.org/2000/svg" xmlns:xlink="http://www.w3.org/1999/xlink" xml:space="preserve" style="fill-rule:evenodd;clip-rule:evenodd;stroke-linejoin:round;stroke-miterlimit:1.41421;">
    <g id="Layer1" transform="matrix(2.011,0,0,2.011,15.5931,13.0858)">
        <g transform="matrix(0.851429,0,0,0.851429,9.8226,2.64307)">
            <circle cx="31.252" cy="34.684" r="7.373" style="fill:none;stroke-width:1.75px;stroke:rgb(33,33,33);"/>
        </g>
        <g transform="matrix(0.906083,0,0,0.906083,-11.1803,-8.02613)">
            <path d="M33.186,46.624L33.297,46.628L33.408,46.632L33.519,46.638L33.629,46.643L33.739,46.649L33.849,46.656L33.959,46.663L34.068,46.671L34.177,46.679L34.285,46.688L34.394,46.697L34.502,46.707L34.609,46.717L34.717,46.728L34.824,46.739L34.93,46.75L35.037,46.763L35.143,46.775L35.249,46.788L35.354,46.802L35.459,46.816L35.564,46.831L35.669,46.846L35.773,46.861L35.877,46.877L35.981,46.894L36.084,46.911L36.187,46.928L36.29,46.946L36.392,46.965L36.494,46.984L36.596,47.003L36.697,47.023L36.798,47.044L36.899,47.065L37,47.086L37.1,47.108L37.2,47.13L37.299,47.153L37.398,47.177L37.497,47.2L37.596,47.225L37.694,47.249L37.792,47.275L37.89,47.3L37.987,47.327L38.084,47.353L38.181,47.38L38.277,47.408L38.373,47.436L38.469,47.465L38.564,47.494L38.659,47.523L38.754,47.553L38.848,47.583L38.942,47.614L39.036,47.646L39.129,47.677L39.222,47.71L39.315,47.743L39.407,47.776L39.5,47.809L39.591,47.844L39.683,47.878L39.774,47.913L39.864,47.949L39.955,47.985L40.045,48.021L40.135,48.058L40.224,48.096L40.313,48.133L40.402,48.172L40.49,48.21L40.578,48.25L40.666,48.289L40.753,48.329L40.84,48.37L40.927,48.411L41.013,48.452L41.099,48.494L41.185,48.537L41.27,48.579L41.355,48.623L41.44,48.666L41.524,48.71L41.608,48.755L41.692,48.8L41.775,48.846L41.858,48.891L41.94,48.938L42.022,48.985L42.104,49.032L42.186,49.08L42.267,49.128L42.347,49.176L42.428,49.225L42.508,49.275L42.588,49.324L42.667,49.375L42.746,49.425L42.825,49.477L42.903,49.528L42.981,49.58L43.058,49.633L43.136,49.685L43.212,49.739L43.289,49.792L43.365,49.846L43.441,49.901L43.516,49.956L43.591,50.011L43.666,50.067L43.74,50.123L43.814,50.18L43.888,50.237L43.961,50.295L44.034,50.352L44.106,50.411L44.178,50.469L44.25,50.529L44.321,50.588L44.392,50.648L44.463,50.708L44.533,50.769L44.603,50.83L44.673,50.892L44.742,50.954L44.811,51.016L44.879,51.079L44.947,51.142L45.015,51.206L45.082,51.27L45.149,51.334L45.215,51.399L45.281,51.464L45.347,51.53L45.413,51.596L45.478,51.662L45.542,51.729L45.606,51.796L45.67,51.863L45.734,51.931L45.797,51.999L45.86,52.068L45.922,52.137L45.984,52.207L46.046,52.276L46.107,52.346L46.168,52.417L46.228,52.488L46.288,52.559L46.348,52.631L46.407,52.703L46.466,52.776L46.524,52.848L46.583,52.921L46.64,52.995L46.698,53.069L46.755,53.143L46.811,53.218L46.867,53.293L46.923,53.368L46.979,53.444L47.034,53.52L47.088,53.597L47.143,53.673L47.196,53.751L47.25,53.828L47.303,53.906L47.356,53.984L47.408,54.063L47.46,54.142L47.512,54.221L47.563,54.301L47.613,54.381L47.664,54.461L47.714,54.542L47.763,54.623L47.812,54.704L47.861,54.786L47.91,54.868L47.958,54.951L48.005,55.033L48.052,55.116L48.099,55.2L48.146,55.284L48.192,55.368L48.237,55.452L48.283,55.537L48.327,55.622L48.372,55.707L48.416,55.793L48.46,55.879L48.503,55.966L48.546,56.053L48.588,56.14L48.63,56.227L48.672,56.315L48.713,56.403L48.754,56.491L48.795,56.58L48.835,56.669L48.875,56.758L48.914,56.848L48.953,56.938L48.991,57.028L49.029,57.119L49.067,57.21L49.104,57.301L49.141,57.393L49.178,57.484L49.214,57.577L49.25,57.669L49.285,57.762L49.32,57.855L49.354,57.948L49.389,58.042L49.422,58.136L49.456,58.23L49.489,58.325L49.521,58.42L49.553,58.515L49.585,58.611L49.616,58.707L49.647,58.803L49.678,58.899L49.708,58.996L49.738,59.093L49.767,59.19L49.796,59.288L49.824,59.386L49.853,59.484L49.88,59.582L49.908,59.681L49.934,59.78L49.961,59.879L49.987,59.979L50.013,60.079L50.038,60.179L50.063,60.28L50.088,60.38L50.112,60.481L50.135,60.583L50.159,60.684L50.182,60.786L50.204,60.888L50.226,60.991L50.248,61.094L50.269,61.197L50.29,61.3L50.311,61.403L50.331,61.507L50.35,61.611L50.37,61.716L50.388,61.819L50.4,61.921L50.399,62.025L50.385,62.127L50.358,62.227L50.319,62.323L50.269,62.413L50.207,62.496L50.135,62.571L50.055,62.636L49.967,62.69L49.873,62.733L49.775,62.764L49.673,62.783L49.57,62.788L49.467,62.78L49.365,62.76L49.267,62.727L49.174,62.682L49.087,62.626L49.008,62.559L48.938,62.483L48.879,62.399L48.83,62.308L48.793,62.211L48.768,62.111L48.75,62.011L48.732,61.914L48.714,61.817L48.695,61.72L48.676,61.623L48.656,61.526L48.636,61.43L48.616,61.335L48.595,61.239L48.574,61.144L48.553,61.049L48.531,60.954L48.509,60.86L48.487,60.766L48.464,60.672L48.441,60.579L48.417,60.486L48.394,60.393L48.369,60.301L48.345,60.208L48.32,60.117L48.294,60.025L48.269,59.934L48.243,59.843L48.216,59.752L48.189,59.662L48.162,59.572L48.135,59.482L48.107,59.392L48.079,59.303L48.05,59.215L48.021,59.126L47.992,59.038L47.962,58.95L47.932,58.863L47.902,58.775L47.871,58.688L47.84,58.602L47.809,58.516L47.777,58.43L47.745,58.344L47.712,58.259L47.68,58.174L47.646,58.089L47.613,58.005L47.579,57.921L47.545,57.837L47.51,57.753L47.475,57.67L47.44,57.588L47.404,57.505L47.368,57.423L47.332,57.341L47.295,57.26L47.258,57.179L47.221,57.098L47.183,57.018L47.145,56.937L47.107,56.858L47.068,56.778L47.029,56.699L46.989,56.62L46.95,56.542L46.909,56.464L46.869,56.386L46.828,56.308L46.787,56.231L46.745,56.154L46.704,56.078L46.661,56.002L46.619,55.926L46.576,55.85L46.533,55.775L46.489,55.701L46.445,55.626L46.401,55.552L46.356,55.478L46.312,55.405L46.266,55.332L46.221,55.259L46.175,55.186L46.128,55.114L46.082,55.043L46.035,54.971L45.988,54.9L45.94,54.83L45.892,54.759L45.844,54.689L45.795,54.62L45.746,54.55L45.697,54.481L45.647,54.413L45.597,54.344L45.547,54.276L45.496,54.209L45.445,54.142L45.394,54.075L45.342,54.008L45.29,53.942L45.238,53.876L45.186,53.811L45.133,53.745L45.079,53.681L45.026,53.616L44.972,53.552L44.917,53.488L44.863,53.425L44.808,53.362L44.753,53.299L44.697,53.237L44.641,53.175L44.585,53.113L44.528,53.052L44.471,52.991L44.414,52.931L44.356,52.871L44.298,52.811L44.24,52.751L44.181,52.692L44.122,52.634L44.063,52.575L44.004,52.517L43.944,52.46L43.883,52.402L43.823,52.345L43.762,52.289L43.701,52.233L43.639,52.177L43.577,52.121L43.515,52.066L43.453,52.011L43.39,51.957L43.326,51.903L43.263,51.849L43.199,51.796L43.135,51.743L43.07,51.691L43.005,51.638L42.94,51.587L42.875,51.535L42.809,51.484L42.743,51.433L42.676,51.383L42.609,51.333L42.542,51.283L42.475,51.234L42.407,51.185L42.339,51.137L42.27,51.089L42.201,51.041L42.132,50.994L42.063,50.947L41.993,50.9L41.923,50.854L41.852,50.808L41.782,50.763L41.711,50.718L41.639,50.673L41.567,50.629L41.495,50.585L41.423,50.541L41.35,50.498L41.277,50.455L41.203,50.413L41.13,50.371L41.056,50.329L40.981,50.288L40.906,50.247L40.831,50.207L40.756,50.167L40.68,50.127L40.604,50.088L40.528,50.049L40.451,50.01L40.374,49.972L40.296,49.934L40.219,49.897L40.14,49.86L40.062,49.824L39.983,49.788L39.904,49.752L39.825,49.716L39.745,49.681L39.665,49.647L39.585,49.613L39.504,49.579L39.423,49.546L39.341,49.513L39.26,49.48L39.178,49.448L39.095,49.416L39.012,49.385L38.929,49.354L38.846,49.324L38.762,49.293L38.678,49.264L38.594,49.234L38.509,49.206L38.424,49.177L38.339,49.149L38.253,49.121L38.167,49.094L38.08,49.067L37.994,49.041L37.907,49.015L37.819,48.989L37.731,48.964L37.643,48.94L37.555,48.915L37.466,48.891L37.377,48.868L37.288,48.845L37.198,48.822L37.108,48.8L37.017,48.778L36.927,48.757L36.836,48.736L36.744,48.716L36.652,48.696L36.56,48.676L36.468,48.657L36.375,48.638L36.282,48.62L36.189,48.602L36.095,48.584L36.001,48.567L35.907,48.551L35.812,48.535L35.717,48.519L35.621,48.504L35.526,48.489L35.429,48.475L35.333,48.461L35.236,48.447L35.139,48.434L35.042,48.422L34.944,48.41L34.846,48.398L34.748,48.387L34.649,48.376L34.55,48.366L34.45,48.356L34.351,48.346L34.251,48.337L34.15,48.329L34.049,48.321L33.948,48.313L33.847,48.306L33.745,48.299L33.643,48.293L33.541,48.287L33.438,48.282L33.335,48.277L33.232,48.273L33.128,48.269L33.037,48.266L32.937,48.266L32.824,48.267L32.712,48.268L32.6,48.27L32.489,48.272L32.378,48.275L32.267,48.278L32.157,48.282L32.047,48.286L31.937,48.291L31.828,48.296L31.72,48.302L31.611,48.308L31.503,48.315L31.396,48.322L31.289,48.329L31.182,48.338L31.076,48.346L30.97,48.355L30.864,48.365L30.759,48.375L30.654,48.385L30.55,48.396L30.446,48.408L30.342,48.42L30.239,48.432L30.136,48.445L30.033,48.458L29.931,48.472L29.83,48.486L29.728,48.501L29.627,48.516L29.527,48.532L29.427,48.548L29.327,48.565L29.228,48.582L29.129,48.599L29.03,48.617L28.932,48.636L28.834,48.655L28.737,48.674L28.64,48.694L28.544,48.714L28.447,48.735L28.352,48.756L28.256,48.778L28.161,48.8L28.067,48.822L27.972,48.845L27.879,48.869L27.785,48.893L27.692,48.917L27.599,48.942L27.507,48.967L27.415,48.993L27.324,49.019L27.233,49.045L27.142,49.072L27.052,49.1L26.962,49.127L26.873,49.156L26.784,49.185L26.695,49.214L26.607,49.243L26.519,49.273L26.431,49.304L26.344,49.335L26.257,49.366L26.171,49.398L26.085,49.43L25.999,49.463L25.914,49.496L25.83,49.529L25.745,49.563L25.661,49.597L25.578,49.632L25.494,49.667L25.412,49.703L25.329,49.739L25.247,49.775L25.166,49.812L25.084,49.849L25.004,49.887L24.923,49.925L24.843,49.964L24.763,50.003L24.684,50.042L24.605,50.082L24.527,50.122L24.449,50.163L24.371,50.204L24.294,50.245L24.217,50.287L24.14,50.329L24.064,50.372L23.988,50.415L23.913,50.458L23.838,50.502L23.763,50.546L23.689,50.591L23.615,50.636L23.542,50.682L23.469,50.728L23.396,50.774L23.324,50.821L23.252,50.868L23.181,50.915L23.109,50.963L23.039,51.011L22.968,51.06L22.899,51.109L22.829,51.159L22.76,51.209L22.691,51.259L22.623,51.31L22.555,51.361L22.487,51.412L22.42,51.464L22.353,51.516L22.286,51.569L22.22,51.622L22.155,51.675L22.089,51.729L22.024,51.784L21.96,51.838L21.896,51.893L21.832,51.949L21.769,52.004L21.706,52.061L21.643,52.117L21.581,52.174L21.519,52.231L21.458,52.289L21.396,52.347L21.336,52.406L21.275,52.465L21.216,52.524L21.156,52.584L21.097,52.644L21.038,52.704L20.98,52.765L20.922,52.826L20.864,52.888L20.807,52.95L20.75,53.012L20.693,53.075L20.637,53.138L20.582,53.202L20.526,53.266L20.471,53.33L20.417,53.395L20.363,53.46L20.309,53.525L20.256,53.591L20.203,53.657L20.15,53.724L20.098,53.791L20.046,53.858L19.994,53.926L19.943,53.994L19.892,54.063L19.842,54.131L19.792,54.201L19.743,54.27L19.694,54.34L19.645,54.411L19.596,54.481L19.548,54.553L19.501,54.624L19.454,54.696L19.407,54.768L19.36,54.841L19.314,54.914L19.268,54.987L19.223,55.061L19.178,55.135L19.134,55.21L19.09,55.285L19.046,55.36L19.003,55.436L18.96,55.512L18.917,55.588L18.875,55.665L18.833,55.742L18.792,55.819L18.751,55.897L18.71,55.976L18.67,56.054L18.63,56.133L18.591,56.213L18.552,56.292L18.513,56.372L18.475,56.453L18.437,56.534L18.4,56.615L18.363,56.697L18.326,56.778L18.29,56.861L18.254,56.943L18.218,57.027L18.183,57.11L18.149,57.194L18.114,57.278L18.081,57.362L18.047,57.447L18.014,57.532L17.981,57.618L17.949,57.704L17.917,57.79L17.886,57.877L17.855,57.964L17.824,58.052L17.794,58.139L17.764,58.227L17.735,58.316L17.706,58.405L17.677,58.494L17.649,58.584L17.621,58.673L17.594,58.764L17.567,58.854L17.54,58.945L17.514,59.037L17.488,59.128L17.463,59.22L17.438,59.313L17.414,59.406L17.39,59.499L17.366,59.592L17.343,59.686L17.32,59.78L17.297,59.875L17.275,59.97L17.254,60.065L17.233,60.16L17.212,60.256L17.191,60.352L17.172,60.449L17.152,60.546L17.133,60.643L17.114,60.741L17.096,60.839L17.078,60.937L17.061,61.036L17.044,61.135L17.027,61.234L17.011,61.334L16.995,61.434L16.98,61.534L16.965,61.635L16.951,61.736L16.937,61.837L16.923,61.939L16.91,62.041L16.897,62.143L16.885,62.248L16.866,62.35L16.835,62.448L16.791,62.542L16.736,62.63L16.671,62.71L16.596,62.781L16.513,62.842L16.422,62.893L16.327,62.931L16.227,62.958L16.124,62.971L16.021,62.972L15.918,62.96L15.818,62.935L15.721,62.897L15.631,62.848L15.547,62.788L15.471,62.717L15.404,62.638L15.348,62.551L15.304,62.458L15.271,62.36L15.251,62.258L15.244,62.155L15.25,62.052L15.263,61.944L15.277,61.834L15.291,61.725L15.305,61.615L15.32,61.507L15.336,61.398L15.352,61.29L15.368,61.182L15.385,61.074L15.403,60.967L15.42,60.86L15.439,60.754L15.457,60.647L15.477,60.541L15.496,60.435L15.517,60.33L15.537,60.225L15.558,60.12L15.58,60.016L15.602,59.912L15.624,59.808L15.647,59.704L15.671,59.601L15.695,59.498L15.719,59.396L15.744,59.294L15.769,59.192L15.795,59.09L15.821,58.989L15.847,58.888L15.875,58.788L15.902,58.688L15.93,58.588L15.959,58.488L15.988,58.389L16.017,58.29L16.047,58.192L16.077,58.093L16.108,57.995L16.139,57.898L16.171,57.801L16.203,57.704L16.236,57.607L16.269,57.511L16.303,57.415L16.337,57.32L16.371,57.225L16.406,57.13L16.441,57.036L16.477,56.942L16.514,56.848L16.551,56.754L16.588,56.661L16.626,56.569L16.664,56.476L16.702,56.384L16.741,56.293L16.781,56.202L16.821,56.111L16.862,56.02L16.902,55.93L16.944,55.84L16.986,55.751L17.028,55.662L17.071,55.573L17.114,55.485L17.158,55.397L17.202,55.309L17.247,55.222L17.292,55.135L17.337,55.048L17.383,54.962L17.43,54.876L17.476,54.791L17.524,54.706L17.572,54.621L17.62,54.537L17.669,54.453L17.718,54.37L17.767,54.287L17.817,54.204L17.868,54.122L17.919,54.04L17.97,53.958L18.022,53.877L18.075,53.796L18.127,53.716L18.181,53.636L18.234,53.556L18.289,53.477L18.343,53.398L18.398,53.32L18.454,53.242L18.51,53.164L18.566,53.087L18.623,53.01L18.68,52.934L18.738,52.858L18.796,52.782L18.855,52.707L18.914,52.632L18.974,52.558L19.034,52.484L19.094,52.41L19.155,52.337L19.216,52.265L19.278,52.192L19.34,52.12L19.403,52.049L19.466,51.978L19.53,51.907L19.594,51.837L19.658,51.767L19.723,51.698L19.788,51.629L19.854,51.56L19.92,51.492L19.987,51.425L20.054,51.358L20.121,51.291L20.189,51.224L20.257,51.158L20.326,51.093L20.395,51.028L20.465,50.963L20.535,50.899L20.606,50.835L20.677,50.772L20.748,50.709L20.82,50.647L20.892,50.585L20.965,50.523L21.038,50.462L21.111,50.402L21.185,50.342L21.26,50.282L21.335,50.223L21.41,50.164L21.485,50.105L21.562,50.047L21.638,49.99L21.715,49.933L21.792,49.876L21.87,49.82L21.948,49.765L22.027,49.71L22.106,49.655L22.185,49.601L22.265,49.547L22.345,49.493L22.426,49.441L22.507,49.388L22.588,49.336L22.67,49.285L22.753,49.234L22.835,49.183L22.918,49.133L23.002,49.084L23.086,49.035L23.17,48.986L23.255,48.938L23.34,48.89L23.426,48.843L23.512,48.796L23.598,48.75L23.685,48.704L23.772,48.659L23.859,48.614L23.947,48.57L24.036,48.526L24.124,48.482L24.214,48.44L24.303,48.397L24.393,48.355L24.483,48.314L24.574,48.273L24.665,48.232L24.757,48.192L24.849,48.153L24.941,48.114L25.034,48.075L25.127,48.037L25.22,48L25.314,47.963L25.408,47.926L25.503,47.89L25.598,47.854L25.693,47.819L25.789,47.785L25.885,47.75L25.982,47.717L26.079,47.684L26.176,47.651L26.274,47.619L26.372,47.587L26.47,47.556L26.569,47.526L26.668,47.496L26.768,47.466L26.868,47.437L26.968,47.408L27.069,47.38L27.17,47.352L27.271,47.325L27.373,47.299L27.475,47.272L27.578,47.247L27.681,47.222L27.784,47.197L27.888,47.173L27.992,47.149L28.096,47.126L28.201,47.104L28.306,47.082L28.412,47.06L28.518,47.039L28.624,47.019L28.73,46.998L28.837,46.979L28.945,46.96L29.052,46.941L29.161,46.923L29.269,46.906L29.378,46.889L29.487,46.872L29.597,46.857L29.706,46.841L29.817,46.826L29.927,46.812L30.038,46.798L30.15,46.785L30.261,46.772L30.373,46.759L30.486,46.748L30.599,46.736L30.712,46.725L30.825,46.715L30.939,46.705L31.053,46.696L31.168,46.687L31.283,46.679L31.398,46.672L31.514,46.665L31.63,46.658L31.746,46.652L31.863,46.646L31.98,46.641L32.097,46.637L32.215,46.633L32.333,46.629L32.451,46.626L32.57,46.624L32.689,46.622L32.809,46.621L32.929,46.62L33.062,46.619L33.186,46.624Z" style="fill:url(#_Linear1);"/>
        </g>
        <g transform="matrix(0.906083,0,0,0.906083,25.7003,-8.63986)">
            <path d="M33.186,46.624L33.297,46.628L33.408,46.632L33.519,46.638L33.629,46.643L33.739,46.649L33.849,46.656L33.959,46.663L34.068,46.671L34.177,46.679L34.285,46.688L34.394,46.697L34.502,46.707L34.609,46.717L34.717,46.728L34.824,46.739L34.93,46.75L35.037,46.763L35.143,46.775L35.249,46.788L35.354,46.802L35.459,46.816L35.564,46.831L35.669,46.846L35.773,46.861L35.877,46.877L35.981,46.894L36.084,46.911L36.187,46.928L36.29,46.946L36.392,46.965L36.494,46.984L36.596,47.003L36.697,47.023L36.798,47.044L36.899,47.065L37,47.086L37.1,47.108L37.2,47.13L37.299,47.153L37.398,47.177L37.497,47.2L37.596,47.225L37.694,47.249L37.792,47.275L37.89,47.3L37.987,47.327L38.084,47.353L38.181,47.38L38.277,47.408L38.373,47.436L38.469,47.465L38.564,47.494L38.659,47.523L38.754,47.553L38.848,47.583L38.942,47.614L39.036,47.646L39.129,47.677L39.222,47.71L39.315,47.743L39.407,47.776L39.5,47.809L39.591,47.844L39.683,47.878L39.774,47.913L39.864,47.949L39.955,47.985L40.045,48.021L40.135,48.058L40.224,48.096L40.313,48.133L40.402,48.172L40.49,48.21L40.578,48.25L40.666,48.289L40.753,48.329L40.84,48.37L40.927,48.411L41.013,48.452L41.099,48.494L41.185,48.537L41.27,48.579L41.355,48.623L41.44,48.666L41.524,48.71L41.608,48.755L41.692,48.8L41.775,48.846L41.858,48.891L41.94,48.938L42.022,48.985L42.104,49.032L42.186,49.08L42.267,49.128L42.347,49.176L42.428,49.225L42.508,49.275L42.588,49.324L42.667,49.375L42.746,49.425L42.825,49.477L42.903,49.528L42.981,49.58L43.058,49.633L43.136,49.685L43.212,49.739L43.289,49.792L43.365,49.846L43.441,49.901L43.516,49.956L43.591,50.011L43.666,50.067L43.74,50.123L43.814,50.18L43.888,50.237L43.961,50.295L44.034,50.352L44.106,50.411L44.178,50.469L44.25,50.529L44.321,50.588L44.392,50.648L44.463,50.708L44.533,50.769L44.603,50.83L44.673,50.892L44.742,50.954L44.811,51.016L44.879,51.079L44.947,51.142L45.015,51.206L45.082,51.27L45.149,51.334L45.215,51.399L45.281,51.464L45.347,51.53L45.413,51.596L45.478,51.662L45.542,51.729L45.606,51.796L45.67,51.863L45.734,51.931L45.797,51.999L45.86,52.068L45.922,52.137L45.984,52.207L46.046,52.276L46.107,52.347L46.168,52.417L46.228,52.488L46.288,52.559L46.348,52.631L46.407,52.703L46.466,52.775L46.524,52.848L46.583,52.921L46.64,52.995L46.698,53.069L46.755,53.143L46.811,53.218L46.867,53.293L46.923,53.368L46.979,53.444L47.034,53.52L47.088,53.597L47.143,53.673L47.196,53.751L47.25,53.828L47.303,53.906L47.356,53.984L47.408,54.063L47.46,54.142L47.512,54.221L47.563,54.301L47.613,54.381L47.664,54.461L47.714,54.542L47.763,54.623L47.812,54.704L47.861,54.786L47.91,54.868L47.958,54.951L48.005,55.033L48.052,55.116L48.099,55.2L48.146,55.284L48.192,55.368L48.237,55.452L48.283,55.537L48.327,55.622L48.372,55.707L48.416,55.793L48.46,55.879L48.503,55.966L48.546,56.053L48.588,56.14L48.63,56.227L48.672,56.315L48.713,56.403L48.754,56.491L48.795,56.58L48.835,56.669L48.875,56.758L48.914,56.848L48.953,56.938L48.991,57.028L49.029,57.119L49.067,57.21L49.104,57.301L49.141,57.393L49.178,57.484L49.214,57.577L49.25,57.669L49.285,57.762L49.32,57.855L49.354,57.948L49.389,58.042L49.422,58.136L49.456,58.23L49.489,58.325L49.521,58.42L49.553,58.515L49.585,58.611L49.616,58.707L49.647,58.803L49.678,58.899L49.708,58.996L49.738,59.093L49.767,59.19L49.796,59.288L49.824,59.386L49.853,59.484L49.88,59.582L49.908,59.681L49.934,59.78L49.961,59.879L49.987,59.979L50.013,60.079L50.038,60.179L50.063,60.28L50.088,60.38L50.112,60.481L50.135,60.583L50.159,60.684L50.182,60.786L50.204,60.888L50.226,60.991L50.248,61.094L50.269,61.197L50.29,61.3L50.311,61.404L50.331,61.507L50.35,61.611L50.37,61.716L50.388,61.819L50.4,61.921L50.399,62.025L50.385,62.127L50.358,62.227L50.319,62.323L50.269,62.413L50.207,62.496L50.135,62.571L50.055,62.636L49.967,62.69L49.873,62.733L49.775,62.764L49.673,62.783L49.57,62.788L49.467,62.78L49.365,62.76L49.267,62.727L49.174,62.682L49.087,62.626L49.008,62.559L48.938,62.483L48.879,62.399L48.83,62.308L48.793,62.211L48.768,62.111L48.75,62.011L48.732,61.914L48.713,61.817L48.695,61.72L48.676,61.623L48.656,61.527L48.636,61.43L48.616,61.335L48.595,61.239L48.574,61.144L48.553,61.049L48.531,60.954L48.509,60.86L48.487,60.766L48.464,60.672L48.441,60.579L48.417,60.486L48.394,60.393L48.369,60.301L48.345,60.208L48.32,60.116L48.294,60.025L48.269,59.934L48.243,59.843L48.216,59.752L48.189,59.662L48.162,59.572L48.135,59.482L48.107,59.393L48.079,59.303L48.05,59.215L48.021,59.126L47.992,59.038L47.962,58.95L47.932,58.863L47.902,58.775L47.871,58.688L47.84,58.602L47.809,58.516L47.777,58.43L47.745,58.344L47.712,58.259L47.68,58.174L47.646,58.089L47.613,58.005L47.579,57.921L47.545,57.837L47.51,57.753L47.475,57.67L47.44,57.588L47.404,57.505L47.368,57.423L47.332,57.341L47.295,57.26L47.258,57.179L47.221,57.098L47.183,57.018L47.145,56.937L47.107,56.858L47.068,56.778L47.029,56.699L46.989,56.62L46.95,56.542L46.909,56.464L46.869,56.386L46.828,56.308L46.787,56.231L46.745,56.154L46.704,56.078L46.661,56.002L46.619,55.926L46.576,55.85L46.533,55.775L46.489,55.701L46.445,55.626L46.401,55.552L46.356,55.478L46.312,55.405L46.266,55.332L46.221,55.259L46.175,55.186L46.128,55.114L46.082,55.043L46.035,54.971L45.988,54.9L45.94,54.83L45.892,54.759L45.844,54.689L45.795,54.619L45.746,54.55L45.697,54.481L45.647,54.413L45.597,54.344L45.547,54.276L45.496,54.209L45.445,54.142L45.394,54.075L45.342,54.008L45.29,53.942L45.238,53.876L45.186,53.811L45.133,53.745L45.079,53.681L45.026,53.616L44.972,53.552L44.917,53.488L44.863,53.425L44.808,53.362L44.753,53.299L44.697,53.237L44.641,53.175L44.585,53.113L44.528,53.052L44.471,52.991L44.414,52.931L44.356,52.871L44.298,52.811L44.24,52.751L44.181,52.692L44.123,52.634L44.063,52.575L44.004,52.517L43.944,52.46L43.883,52.402L43.823,52.345L43.762,52.289L43.701,52.233L43.639,52.177L43.577,52.121L43.515,52.066L43.453,52.011L43.39,51.957L43.326,51.903L43.263,51.849L43.199,51.796L43.135,51.743L43.07,51.691L43.005,51.638L42.94,51.587L42.875,51.535L42.809,51.484L42.743,51.433L42.676,51.383L42.609,51.333L42.542,51.283L42.475,51.234L42.407,51.185L42.339,51.137L42.27,51.089L42.201,51.041L42.132,50.994L42.063,50.947L41.993,50.9L41.923,50.854L41.852,50.808L41.782,50.763L41.711,50.718L41.639,50.673L41.567,50.629L41.495,50.585L41.423,50.541L41.35,50.498L41.277,50.455L41.203,50.413L41.13,50.371L41.056,50.329L40.981,50.288L40.906,50.247L40.831,50.207L40.756,50.167L40.68,50.127L40.604,50.088L40.528,50.049L40.451,50.01L40.374,49.972L40.296,49.934L40.219,49.897L40.14,49.86L40.062,49.824L39.983,49.788L39.904,49.752L39.825,49.716L39.745,49.681L39.665,49.647L39.585,49.613L39.504,49.579L39.423,49.546L39.341,49.513L39.26,49.48L39.178,49.448L39.095,49.416L39.012,49.385L38.929,49.354L38.846,49.324L38.762,49.293L38.678,49.264L38.594,49.234L38.509,49.206L38.424,49.177L38.339,49.149L38.253,49.121L38.167,49.094L38.08,49.067L37.994,49.041L37.907,49.015L37.819,48.989L37.731,48.964L37.643,48.94L37.555,48.915L37.466,48.891L37.377,48.868L37.288,48.845L37.198,48.822L37.108,48.8L37.017,48.778L36.927,48.757L36.836,48.736L36.744,48.716L36.653,48.696L36.56,48.676L36.468,48.657L36.375,48.638L36.282,48.62L36.189,48.602L36.095,48.584L36.001,48.567L35.907,48.551L35.812,48.535L35.717,48.519L35.621,48.504L35.526,48.489L35.429,48.475L35.333,48.461L35.236,48.447L35.139,48.434L35.042,48.422L34.944,48.41L34.846,48.398L34.748,48.387L34.649,48.376L34.55,48.366L34.45,48.356L34.351,48.346L34.251,48.337L34.15,48.329L34.049,48.321L33.948,48.313L33.847,48.306L33.745,48.299L33.643,48.293L33.541,48.287L33.438,48.282L33.335,48.277L33.232,48.273L33.128,48.269L33.037,48.266L32.937,48.266L32.824,48.267L32.712,48.268L32.6,48.27L32.489,48.272L32.378,48.275L32.267,48.278L32.157,48.282L32.047,48.286L31.937,48.291L31.828,48.296L31.72,48.302L31.611,48.308L31.503,48.315L31.396,48.322L31.289,48.329L31.182,48.338L31.076,48.346L30.97,48.355L30.864,48.365L30.759,48.375L30.654,48.385L30.55,48.396L30.446,48.408L30.342,48.42L30.239,48.432L30.136,48.445L30.033,48.458L29.931,48.472L29.83,48.486L29.728,48.501L29.627,48.516L29.527,48.532L29.427,48.548L29.327,48.565L29.228,48.582L29.129,48.599L29.03,48.617L28.932,48.636L28.834,48.655L28.737,48.674L28.64,48.694L28.544,48.714L28.447,48.735L28.352,48.756L28.256,48.778L28.161,48.8L28.067,48.822L27.972,48.845L27.879,48.869L27.785,48.893L27.692,48.917L27.599,48.942L27.507,48.967L27.415,48.993L27.324,49.019L27.233,49.045L27.142,49.072L27.052,49.1L26.962,49.127L26.873,49.156L26.784,49.185L26.695,49.214L26.607,49.243L26.519,49.273L26.431,49.304L26.344,49.335L26.257,49.366L26.171,49.398L26.085,49.43L25.999,49.463L25.914,49.496L25.83,49.529L25.745,49.563L25.661,49.597L25.578,49.632L25.494,49.667L25.412,49.703L25.329,49.739L25.247,49.775L25.166,49.812L25.084,49.849L25.004,49.887L24.923,49.925L24.843,49.964L24.763,50.003L24.684,50.042L24.605,50.082L24.527,50.122L24.449,50.163L24.371,50.204L24.294,50.245L24.217,50.287L24.14,50.329L24.064,50.372L23.988,50.415L23.913,50.458L23.838,50.502L23.763,50.546L23.689,50.591L23.615,50.636L23.542,50.682L23.469,50.728L23.396,50.774L23.324,50.821L23.252,50.868L23.181,50.915L23.109,50.963L23.039,51.011L22.968,51.06L22.899,51.109L22.829,51.159L22.76,51.209L22.691,51.259L22.623,51.31L22.555,51.361L22.487,51.412L22.42,51.464L22.353,51.516L22.286,51.569L22.22,51.622L22.155,51.675L22.089,51.729L22.025,51.784L21.96,51.838L21.896,51.893L21.832,51.949L21.769,52.004L21.706,52.061L21.643,52.117L21.581,52.174L21.519,52.231L21.458,52.289L21.396,52.347L21.336,52.406L21.275,52.465L21.216,52.524L21.156,52.584L21.097,52.644L21.038,52.704L20.98,52.765L20.922,52.826L20.864,52.888L20.807,52.95L20.75,53.012L20.693,53.075L20.637,53.138L20.582,53.202L20.526,53.266L20.471,53.33L20.417,53.395L20.363,53.46L20.309,53.525L20.256,53.591L20.203,53.657L20.15,53.724L20.098,53.791L20.046,53.858L19.994,53.926L19.943,53.994L19.892,54.063L19.842,54.131L19.792,54.201L19.743,54.27L19.694,54.34L19.645,54.411L19.596,54.481L19.548,54.553L19.501,54.624L19.454,54.696L19.407,54.768L19.36,54.841L19.314,54.914L19.268,54.987L19.223,55.061L19.178,55.135L19.134,55.21L19.09,55.285L19.046,55.36L19.003,55.436L18.96,55.512L18.917,55.588L18.875,55.665L18.833,55.742L18.792,55.819L18.751,55.897L18.71,55.976L18.67,56.054L18.63,56.133L18.591,56.213L18.552,56.292L18.513,56.372L18.475,56.453L18.437,56.534L18.4,56.615L18.363,56.697L18.326,56.778L18.29,56.861L18.254,56.943L18.218,57.027L18.183,57.11L18.149,57.194L18.114,57.278L18.081,57.362L18.047,57.447L18.014,57.532L17.981,57.618L17.949,57.704L17.917,57.79L17.886,57.877L17.855,57.964L17.824,58.052L17.794,58.139L17.764,58.227L17.735,58.316L17.706,58.405L17.677,58.494L17.649,58.584L17.621,58.673L17.594,58.764L17.567,58.854L17.54,58.945L17.514,59.037L17.488,59.128L17.463,59.22L17.438,59.313L17.414,59.406L17.39,59.499L17.366,59.592L17.343,59.686L17.32,59.78L17.297,59.875L17.275,59.97L17.254,60.065L17.233,60.16L17.212,60.256L17.191,60.352L17.172,60.449L17.152,60.546L17.133,60.643L17.114,60.741L17.096,60.839L17.078,60.937L17.061,61.036L17.044,61.135L17.027,61.234L17.011,61.334L16.995,61.434L16.98,61.534L16.965,61.635L16.951,61.736L16.937,61.837L16.923,61.939L16.91,62.041L16.897,62.143L16.885,62.248L16.866,62.35L16.835,62.448L16.791,62.542L16.736,62.63L16.671,62.71L16.596,62.781L16.513,62.842L16.422,62.893L16.327,62.931L16.227,62.958L16.124,62.971L16.021,62.972L15.918,62.96L15.818,62.935L15.721,62.897L15.631,62.848L15.547,62.788L15.471,62.717L15.404,62.638L15.348,62.551L15.304,62.458L15.271,62.36L15.251,62.258L15.244,62.155L15.25,62.052L15.263,61.944L15.277,61.834L15.291,61.725L15.305,61.615L15.32,61.507L15.336,61.398L15.352,61.29L15.368,61.182L15.385,61.074L15.403,60.967L15.42,60.86L15.439,60.754L15.457,60.647L15.477,60.541L15.496,60.435L15.517,60.33L15.537,60.225L15.558,60.12L15.58,60.016L15.602,59.912L15.624,59.808L15.647,59.704L15.671,59.601L15.695,59.498L15.719,59.396L15.744,59.294L15.769,59.192L15.795,59.09L15.821,58.989L15.847,58.888L15.875,58.788L15.902,58.688L15.93,58.588L15.959,58.488L15.988,58.389L16.017,58.29L16.047,58.192L16.077,58.093L16.108,57.995L16.139,57.898L16.171,57.801L16.203,57.704L16.236,57.607L16.269,57.511L16.303,57.415L16.337,57.32L16.371,57.225L16.406,57.13L16.442,57.036L16.477,56.942L16.514,56.848L16.551,56.754L16.588,56.661L16.626,56.569L16.664,56.476L16.702,56.384L16.741,56.293L16.781,56.202L16.821,56.111L16.862,56.02L16.902,55.93L16.944,55.84L16.986,55.751L17.028,55.662L17.071,55.573L17.114,55.485L17.158,55.397L17.202,55.309L17.246,55.222L17.292,55.135L17.337,55.048L17.383,54.962L17.43,54.876L17.476,54.791L17.524,54.706L17.572,54.621L17.62,54.537L17.669,54.453L17.718,54.37L17.767,54.287L17.817,54.204L17.868,54.122L17.919,54.04L17.97,53.958L18.022,53.877L18.075,53.796L18.127,53.716L18.181,53.636L18.234,53.556L18.289,53.477L18.343,53.398L18.398,53.32L18.454,53.242L18.51,53.164L18.566,53.087L18.623,53.01L18.68,52.934L18.738,52.858L18.796,52.782L18.855,52.707L18.914,52.632L18.974,52.558L19.034,52.484L19.094,52.41L19.155,52.337L19.216,52.265L19.278,52.192L19.34,52.12L19.403,52.049L19.466,51.978L19.53,51.907L19.593,51.837L19.658,51.767L19.723,51.698L19.788,51.629L19.854,51.56L19.92,51.492L19.987,51.425L20.054,51.358L20.121,51.291L20.189,51.224L20.257,51.158L20.326,51.093L20.395,51.028L20.465,50.963L20.535,50.899L20.606,50.835L20.677,50.772L20.748,50.709L20.82,50.647L20.892,50.585L20.965,50.523L21.038,50.462L21.111,50.402L21.185,50.342L21.26,50.282L21.335,50.223L21.41,50.164L21.485,50.105L21.562,50.047L21.638,49.99L21.715,49.933L21.792,49.876L21.87,49.82L21.948,49.765L22.027,49.71L22.106,49.655L22.185,49.601L22.265,49.547L22.345,49.493L22.426,49.441L22.507,49.388L22.588,49.336L22.67,49.285L22.753,49.234L22.835,49.183L22.918,49.133L23.002,49.084L23.086,49.035L23.17,48.986L23.255,48.938L23.34,48.89L23.426,48.843L23.512,48.796L23.598,48.75L23.685,48.704L23.772,48.659L23.859,48.614L23.947,48.57L24.036,48.526L24.124,48.482L24.214,48.44L24.303,48.397L24.393,48.355L24.483,48.314L24.574,48.273L24.665,48.232L24.757,48.192L24.849,48.153L24.941,48.114L25.034,48.075L25.127,48.037L25.22,48L25.314,47.963L25.408,47.926L25.503,47.89L25.598,47.854L25.693,47.819L25.789,47.785L25.885,47.75L25.982,47.717L26.079,47.684L26.176,47.651L26.274,47.619L26.372,47.587L26.47,47.556L26.569,47.526L26.668,47.496L26.768,47.466L26.868,47.437L26.968,47.408L27.069,47.38L27.17,47.352L27.271,47.325L27.373,47.299L27.475,47.272L27.578,47.247L27.681,47.222L27.784,47.197L27.888,47.173L27.992,47.149L28.096,47.126L28.201,47.104L28.306,47.082L28.412,47.06L28.518,47.039L28.624,47.019L28.73,46.998L28.837,46.979L28.945,46.96L29.052,46.941L29.161,46.923L29.269,46.906L29.378,46.889L29.487,46.872L29.597,46.857L29.706,46.841L29.817,46.826L29.927,46.812L30.038,46.798L30.15,46.785L30.261,46.772L30.373,46.759L30.486,46.748L30.599,46.736L30.712,46.725L30.825,46.715L30.939,46.705L31.053,46.696L31.168,46.687L31.283,46.679L31.398,46.672L31.514,46.665L31.63,46.658L31.746,46.652L31.863,46.646L31.98,46.641L32.097,46.637L32.215,46.633L32.333,46.629L32.451,46.626L32.57,46.624L32.689,46.622L32.809,46.621L32.929,46.62L33.062,46.619L33.186,46.624Z" style="fill:url(#_Linear2);"/>
        </g>
        <g transform="matrix(1,0,0,1,3.60894,-5.11501)">
            <path d="M33.183,46.701L33.294,46.705L33.405,46.71L33.515,46.715L33.625,46.72L33.735,46.727L33.844,46.733L33.953,46.74L34.062,46.748L34.171,46.756L34.279,46.765L34.387,46.774L34.494,46.784L34.602,46.794L34.709,46.804L34.815,46.816L34.922,46.827L35.028,46.839L35.133,46.852L35.239,46.865L35.344,46.879L35.449,46.893L35.553,46.907L35.658,46.922L35.761,46.938L35.865,46.954L35.968,46.97L36.071,46.987L36.174,47.005L36.276,47.023L36.378,47.041L36.48,47.06L36.581,47.079L36.682,47.099L36.783,47.12L36.883,47.14L36.983,47.162L37.083,47.184L37.183,47.206L37.282,47.229L37.381,47.252L37.479,47.275L37.577,47.3L37.675,47.324L37.773,47.349L37.87,47.375L37.967,47.401L38.063,47.428L38.16,47.455L38.255,47.482L38.351,47.51L38.446,47.539L38.541,47.567L38.636,47.597L38.73,47.627L38.824,47.657L38.918,47.688L39.011,47.719L39.104,47.751L39.197,47.783L39.289,47.815L39.381,47.848L39.473,47.882L39.564,47.916L39.655,47.95L39.746,47.985L39.836,48.021L39.926,48.057L40.016,48.093L40.105,48.13L40.194,48.167L40.283,48.204L40.371,48.243L40.459,48.281L40.547,48.32L40.634,48.36L40.721,48.4L40.807,48.44L40.894,48.481L40.98,48.522L41.065,48.564L41.15,48.606L41.235,48.648L41.32,48.691L41.404,48.735L41.488,48.779L41.571,48.823L41.655,48.868L41.737,48.913L41.82,48.959L41.902,49.005L41.984,49.052L42.065,49.099L42.146,49.146L42.227,49.194L42.307,49.242L42.387,49.291L42.467,49.34L42.546,49.39L42.625,49.44L42.704,49.49L42.782,49.541L42.86,49.593L42.938,49.644L43.015,49.696L43.092,49.749L43.168,49.802L43.244,49.855L43.32,49.909L43.395,49.964L43.47,50.018L43.545,50.073L43.619,50.129L43.693,50.185L43.767,50.241L43.84,50.298L43.913,50.355L43.985,50.413L44.057,50.471L44.129,50.529L44.201,50.588L44.272,50.647L44.342,50.707L44.413,50.767L44.482,50.828L44.552,50.888L44.621,50.95L44.69,51.011L44.758,51.073L44.826,51.136L44.894,51.199L44.961,51.262L45.028,51.326L45.095,51.39L45.161,51.454L45.227,51.519L45.292,51.584L45.357,51.65L45.422,51.716L45.486,51.782L45.55,51.849L45.614,51.916L45.677,51.984L45.74,52.052L45.802,52.12L45.864,52.189L45.926,52.258L45.987,52.327L46.048,52.397L46.109,52.467L46.169,52.538L46.229,52.609L46.288,52.68L46.347,52.752L46.406,52.824L46.464,52.897L46.522,52.969L46.579,53.043L46.636,53.116L46.693,53.19L46.749,53.264L46.805,53.339L46.861,53.414L46.916,53.49L46.971,53.565L47.025,53.641L47.079,53.718L47.133,53.795L47.186,53.872L47.239,53.949L47.292,54.027L47.344,54.106L47.395,54.184L47.447,54.263L47.497,54.342L47.548,54.422L47.598,54.502L47.648,54.582L47.697,54.663L47.746,54.744L47.795,54.825L47.843,54.907L47.891,54.989L47.938,55.072L47.985,55.154L48.032,55.237L48.078,55.321L48.124,55.405L48.169,55.489L48.214,55.573L48.259,55.658L48.303,55.743L48.347,55.828L48.391,55.914L48.434,56L48.476,56.087L48.519,56.173L48.561,56.26L48.602,56.348L48.643,56.436L48.684,56.524L48.724,56.612L48.764,56.701L48.804,56.79L48.843,56.879L48.882,56.968L48.92,57.058L48.958,57.149L48.996,57.239L49.033,57.33L49.07,57.421L49.106,57.513L49.142,57.605L49.177,57.697L49.213,57.789L49.247,57.882L49.282,57.975L49.316,58.068L49.349,58.162L49.383,58.256L49.415,58.35L49.448,58.445L49.48,58.54L49.512,58.635L49.543,58.73L49.574,58.826L49.604,58.922L49.634,59.019L49.664,59.115L49.693,59.212L49.722,59.31L49.75,59.407L49.778,59.505L49.806,59.603L49.833,59.702L49.86,59.8L49.886,59.899L49.912,59.999L49.938,60.098L49.963,60.198L49.988,60.298L50.012,60.399L50.036,60.499L50.06,60.6L50.083,60.702L50.106,60.803L50.129,60.905L50.151,61.007L50.172,61.109L50.193,61.212L50.214,61.315L50.235,61.418L50.255,61.522L50.274,61.626L50.294,61.73L50.312,61.832L50.323,61.929L50.321,62.027L50.307,62.123L50.28,62.217L50.241,62.307L50.191,62.39L50.13,62.467L50.06,62.534L49.981,62.592L49.896,62.64L49.805,62.675L49.71,62.699L49.613,62.71L49.516,62.708L49.419,62.694L49.326,62.667L49.236,62.628L49.153,62.577L49.076,62.517L49.008,62.446L48.95,62.368L48.903,62.283L48.867,62.192L48.844,62.097L48.826,61.997L48.808,61.9L48.789,61.802L48.771,61.705L48.751,61.608L48.732,61.511L48.712,61.415L48.692,61.318L48.671,61.223L48.65,61.127L48.629,61.032L48.607,60.937L48.585,60.842L48.562,60.748L48.539,60.654L48.516,60.56L48.492,60.467L48.468,60.374L48.444,60.281L48.419,60.188L48.394,60.096L48.369,60.004L48.343,59.913L48.317,59.821L48.29,59.73L48.264,59.64L48.236,59.549L48.209,59.459L48.181,59.369L48.152,59.28L48.124,59.191L48.095,59.102L48.065,59.013L48.036,58.925L48.005,58.837L47.975,58.75L47.944,58.662L47.913,58.576L47.881,58.489L47.849,58.403L47.817,58.317L47.785,58.231L47.752,58.146L47.718,58.061L47.685,57.976L47.651,57.891L47.616,57.807L47.581,57.724L47.546,57.64L47.511,57.557L47.475,57.474L47.439,57.392L47.403,57.31L47.366,57.228L47.328,57.146L47.291,57.065L47.253,56.985L47.215,56.904L47.176,56.824L47.137,56.744L47.098,56.665L47.058,56.585L47.018,56.507L46.978,56.428L46.937,56.35L46.896,56.272L46.855,56.195L46.813,56.117L46.771,56.041L46.729,55.964L46.686,55.888L46.643,55.812L46.6,55.737L46.556,55.661L46.512,55.587L46.467,55.512L46.423,55.438L46.377,55.364L46.332,55.291L46.286,55.218L46.24,55.145L46.193,55.072L46.147,55L46.099,54.929L46.052,54.857L46.004,54.786L45.956,54.715L45.907,54.645L45.858,54.575L45.809,54.505L45.76,54.436L45.71,54.367L45.66,54.298L45.609,54.23L45.558,54.162L45.507,54.095L45.455,54.027L45.403,53.961L45.351,53.894L45.299,53.828L45.246,53.762L45.192,53.696L45.139,53.631L45.085,53.567L45.031,53.502L44.976,53.438L44.921,53.374L44.866,53.311L44.81,53.248L44.754,53.185L44.698,53.123L44.642,53.061L44.585,53L44.527,52.938L44.47,52.878L44.412,52.817L44.354,52.757L44.295,52.697L44.236,52.638L44.177,52.579L44.117,52.52L44.057,52.462L43.997,52.404L43.937,52.346L43.876,52.289L43.814,52.232L43.753,52.175L43.691,52.119L43.629,52.063L43.566,52.008L43.503,51.953L43.44,51.898L43.376,51.844L43.313,51.79L43.248,51.736L43.184,51.683L43.119,51.63L43.054,51.578L42.988,51.526L42.922,51.474L42.856,51.423L42.79,51.372L42.723,51.321L42.655,51.271L42.588,51.221L42.52,51.172L42.452,51.123L42.383,51.074L42.314,51.025L42.245,50.977L42.176,50.93L42.106,50.883L42.036,50.836L41.965,50.789L41.894,50.743L41.823,50.698L41.752,50.652L41.68,50.607L41.608,50.563L41.535,50.519L41.462,50.475L41.389,50.432L41.316,50.388L41.242,50.346L41.168,50.304L41.093,50.262L41.018,50.22L40.943,50.179L40.868,50.139L40.792,50.098L40.716,50.058L40.639,50.019L40.562,49.98L40.485,49.941L40.408,49.903L40.33,49.865L40.252,49.827L40.173,49.79L40.095,49.754L40.015,49.717L39.936,49.681L39.856,49.646L39.776,49.611L39.695,49.576L39.615,49.542L39.534,49.508L39.452,49.474L39.37,49.441L39.288,49.408L39.206,49.376L39.123,49.344L39.04,49.313L38.956,49.281L38.872,49.251L38.788,49.221L38.704,49.191L38.619,49.161L38.534,49.132L38.448,49.104L38.363,49.075L38.276,49.048L38.19,49.02L38.103,48.993L38.016,48.967L37.928,48.941L37.841,48.915L37.753,48.89L37.664,48.865L37.575,48.841L37.486,48.817L37.397,48.793L37.307,48.77L37.217,48.747L37.126,48.725L37.035,48.703L36.944,48.682L36.853,48.661L36.761,48.64L36.669,48.62L36.576,48.6L36.484,48.581L36.39,48.562L36.297,48.544L36.203,48.526L36.109,48.508L36.014,48.491L35.92,48.475L35.825,48.458L35.729,48.443L35.633,48.427L35.537,48.413L35.441,48.398L35.344,48.384L35.247,48.371L35.149,48.358L35.052,48.345L34.953,48.333L34.855,48.321L34.756,48.31L34.657,48.299L34.558,48.289L34.458,48.279L34.358,48.269L34.257,48.26L34.157,48.252L34.055,48.244L33.954,48.236L33.852,48.229L33.75,48.222L33.648,48.216L33.545,48.21L33.442,48.205L33.339,48.2L33.235,48.196L33.131,48.192L33.038,48.189L32.936,48.189L32.823,48.19L32.711,48.191L32.599,48.193L32.487,48.195L32.375,48.198L32.265,48.201L32.154,48.205L32.044,48.209L31.934,48.214L31.824,48.219L31.715,48.225L31.607,48.231L31.498,48.238L31.391,48.245L31.283,48.252L31.176,48.261L31.069,48.269L30.963,48.278L30.857,48.288L30.751,48.298L30.646,48.308L30.541,48.319L30.437,48.331L30.333,48.343L30.229,48.355L30.126,48.368L30.023,48.382L29.921,48.396L29.819,48.41L29.717,48.425L29.616,48.44L29.515,48.456L29.414,48.472L29.314,48.489L29.215,48.506L29.115,48.523L29.016,48.541L28.918,48.56L28.82,48.579L28.722,48.598L28.624,48.618L28.527,48.639L28.431,48.659L28.335,48.681L28.239,48.702L28.143,48.725L28.048,48.747L27.954,48.77L27.86,48.794L27.766,48.818L27.672,48.842L27.579,48.867L27.487,48.892L27.394,48.918L27.303,48.944L27.211,48.971L27.12,48.998L27.029,49.026L26.939,49.054L26.849,49.082L26.76,49.111L26.67,49.14L26.582,49.17L26.493,49.2L26.405,49.231L26.318,49.262L26.231,49.293L26.144,49.325L26.058,49.358L25.972,49.39L25.886,49.424L25.801,49.457L25.716,49.491L25.632,49.526L25.548,49.561L25.464,49.596L25.381,49.632L25.298,49.668L25.216,49.705L25.134,49.742L25.052,49.779L24.971,49.817L24.89,49.855L24.809,49.894L24.729,49.933L24.649,49.973L24.57,50.013L24.491,50.053L24.413,50.094L24.335,50.135L24.257,50.177L24.18,50.219L24.103,50.262L24.026,50.304L23.95,50.348L23.874,50.391L23.799,50.436L23.724,50.48L23.649,50.525L23.575,50.57L23.501,50.616L23.427,50.662L23.354,50.709L23.282,50.756L23.209,50.803L23.138,50.851L23.066,50.899L22.995,50.948L22.924,50.997L22.854,51.046L22.784,51.096L22.714,51.146L22.645,51.197L22.576,51.248L22.508,51.299L22.44,51.351L22.372,51.403L22.305,51.456L22.238,51.508L22.172,51.562L22.106,51.616L22.04,51.67L21.975,51.724L21.91,51.779L21.845,51.835L21.781,51.89L21.717,51.946L21.654,52.003L21.591,52.06L21.528,52.117L21.466,52.175L21.404,52.233L21.343,52.292L21.282,52.35L21.221,52.41L21.161,52.469L21.101,52.529L21.042,52.59L20.982,52.651L20.924,52.712L20.865,52.773L20.807,52.835L20.75,52.898L20.693,52.96L20.636,53.024L20.579,53.087L20.523,53.151L20.468,53.215L20.412,53.28L20.358,53.345L20.303,53.41L20.249,53.476L20.195,53.543L20.142,53.609L20.089,53.676L20.037,53.743L19.984,53.811L19.933,53.879L19.881,53.948L19.83,54.017L19.78,54.086L19.729,54.156L19.68,54.226L19.63,54.296L19.581,54.367L19.532,54.438L19.484,54.51L19.436,54.581L19.389,54.654L19.342,54.726L19.295,54.799L19.249,54.873L19.203,54.947L19.157,55.021L19.112,55.095L19.067,55.17L19.023,55.246L18.979,55.321L18.935,55.397L18.892,55.474L18.849,55.551L18.807,55.628L18.765,55.705L18.723,55.783L18.682,55.862L18.641,55.94L18.601,56.019L18.561,56.099L18.521,56.178L18.482,56.259L18.443,56.339L18.405,56.42L18.367,56.501L18.329,56.583L18.292,56.665L18.255,56.747L18.219,56.83L18.183,56.913L18.147,56.996L18.112,57.08L18.077,57.164L18.043,57.249L18.009,57.334L17.975,57.419L17.942,57.505L17.909,57.591L17.877,57.677L17.845,57.764L17.813,57.851L17.782,57.938L17.751,58.026L17.721,58.114L17.691,58.203L17.661,58.292L17.632,58.381L17.604,58.471L17.575,58.561L17.547,58.651L17.52,58.741L17.493,58.832L17.466,58.924L17.44,59.016L17.414,59.108L17.388,59.2L17.363,59.293L17.339,59.386L17.315,59.48L17.291,59.573L17.268,59.668L17.245,59.762L17.222,59.857L17.2,59.952L17.178,60.048L17.157,60.144L17.136,60.24L17.116,60.337L17.096,60.434L17.076,60.531L17.057,60.629L17.038,60.727L17.02,60.825L17.002,60.924L16.985,61.023L16.968,61.122L16.951,61.222L16.935,61.322L16.919,61.422L16.904,61.523L16.889,61.624L16.874,61.725L16.86,61.827L16.846,61.929L16.833,62.031L16.82,62.134L16.808,62.239L16.79,62.335L16.76,62.427L16.718,62.515L16.664,62.597L16.601,62.671L16.528,62.736L16.448,62.792L16.361,62.836L16.269,62.868L16.173,62.888L16.076,62.896L15.978,62.891L15.883,62.873L15.79,62.842L15.702,62.8L15.62,62.747L15.546,62.683L15.481,62.611L15.426,62.53L15.381,62.443L15.349,62.351L15.329,62.256L15.321,62.159L15.327,62.061L15.34,61.953L15.353,61.844L15.367,61.735L15.382,61.626L15.397,61.517L15.412,61.409L15.428,61.301L15.445,61.194L15.462,61.087L15.479,60.98L15.497,60.873L15.515,60.767L15.534,60.661L15.553,60.555L15.572,60.45L15.592,60.345L15.613,60.24L15.634,60.136L15.655,60.032L15.677,59.928L15.7,59.824L15.723,59.721L15.746,59.619L15.77,59.516L15.794,59.414L15.819,59.312L15.844,59.211L15.87,59.11L15.896,59.009L15.922,58.908L15.949,58.808L15.977,58.708L16.005,58.609L16.033,58.51L16.062,58.411L16.091,58.312L16.121,58.214L16.151,58.116L16.182,58.019L16.213,57.922L16.244,57.825L16.277,57.728L16.309,57.632L16.342,57.537L16.375,57.441L16.409,57.346L16.444,57.251L16.479,57.157L16.514,57.063L16.55,56.969L16.586,56.876L16.622,56.783L16.659,56.69L16.697,56.598L16.735,56.506L16.774,56.415L16.812,56.323L16.852,56.233L16.892,56.142L16.932,56.052L16.973,55.962L17.014,55.873L17.056,55.784L17.098,55.695L17.14,55.607L17.183,55.519L17.227,55.431L17.271,55.344L17.315,55.257L17.36,55.171L17.405,55.085L17.451,54.999L17.497,54.913L17.544,54.829L17.591,54.744L17.639,54.66L17.687,54.576L17.735,54.492L17.784,54.409L17.834,54.327L17.883,54.244L17.934,54.162L17.984,54.081L18.036,54L18.087,53.919L18.139,53.839L18.192,53.759L18.245,53.679L18.298,53.6L18.352,53.521L18.407,53.443L18.461,53.364L18.517,53.287L18.572,53.21L18.628,53.133L18.685,53.056L18.742,52.98L18.799,52.905L18.857,52.83L18.916,52.755L18.975,52.68L19.034,52.606L19.093,52.533L19.154,52.46L19.214,52.387L19.275,52.315L19.337,52.243L19.399,52.171L19.461,52.1L19.524,52.029L19.587,51.959L19.65,51.889L19.715,51.82L19.779,51.751L19.844,51.682L19.909,51.614L19.975,51.546L20.042,51.479L20.108,51.412L20.175,51.346L20.243,51.28L20.311,51.214L20.379,51.149L20.448,51.084L20.518,51.02L20.587,50.956L20.657,50.893L20.728,50.83L20.799,50.767L20.87,50.705L20.942,50.644L21.015,50.583L21.087,50.522L21.16,50.462L21.234,50.402L21.308,50.342L21.382,50.283L21.457,50.225L21.532,50.167L21.608,50.109L21.684,50.052L21.761,49.995L21.838,49.939L21.915,49.883L21.993,49.828L22.071,49.773L22.15,49.719L22.229,49.665L22.308,49.611L22.388,49.558L22.468,49.505L22.549,49.453L22.63,49.402L22.711,49.35L22.793,49.3L22.875,49.249L22.958,49.2L23.041,49.15L23.125,49.101L23.209,49.053L23.293,49.005L23.378,48.958L23.463,48.911L23.548,48.864L23.634,48.818L23.721,48.773L23.807,48.728L23.894,48.683L23.982,48.639L24.07,48.595L24.158,48.552L24.247,48.509L24.336,48.467L24.426,48.425L24.515,48.384L24.606,48.343L24.696,48.303L24.788,48.263L24.879,48.224L24.971,48.185L25.063,48.147L25.156,48.109L25.249,48.071L25.342,48.035L25.436,47.998L25.53,47.962L25.625,47.927L25.72,47.892L25.815,47.857L25.911,47.823L26.007,47.79L26.103,47.757L26.2,47.725L26.298,47.693L26.395,47.661L26.493,47.63L26.592,47.6L26.69,47.57L26.79,47.54L26.889,47.511L26.989,47.483L27.089,47.454L27.19,47.427L27.291,47.4L27.392,47.373L27.494,47.347L27.596,47.322L27.699,47.297L27.802,47.272L27.905,47.248L28.009,47.225L28.113,47.202L28.217,47.179L28.322,47.157L28.427,47.136L28.532,47.115L28.638,47.094L28.745,47.074L28.851,47.055L28.958,47.036L29.065,47.018L29.173,47L29.281,46.982L29.39,46.965L29.498,46.949L29.607,46.933L29.717,46.918L29.827,46.903L29.937,46.888L30.048,46.875L30.159,46.861L30.27,46.848L30.382,46.836L30.494,46.824L30.606,46.813L30.719,46.802L30.832,46.792L30.945,46.782L31.059,46.773L31.174,46.765L31.288,46.756L31.403,46.749L31.518,46.742L31.634,46.735L31.75,46.729L31.866,46.723L31.983,46.718L32.1,46.714L32.217,46.71L32.335,46.706L32.453,46.704L32.572,46.701L32.69,46.699L32.81,46.698L32.929,46.697L33.061,46.697L33.183,46.701Z" style="fill:rgb(33,33,33);"/>
        </g>
        <g transform="matrix(0.771466,0,0,0.771466,-5.55023,-0.99666)">
            <circle cx="31.252" cy="34.684" r="7.373" style="fill:none;stroke-width:1.93px;stroke:rgb(33,33,33);"/>
        </g>
        <g transform="matrix(0.771466,0,0,0.771466,31.3304,-1.61039)">
            <circle cx="31.252" cy="34.684" r="7.373" style="fill:none;stroke-width:1.93px;stroke:rgb(33,33,33);"/>
        </g>
    </g>
    <defs>
        <linearGradient id="_Linear1" x1="0" y1="0" x2="1" y2="0" gradientUnits="userSpaceOnUse" gradientTransform="matrix(33.5107,0,0,14.7073,16.0673,54.7963)"><stop offset="0%" style="stop-color:black;stop-opacity:1"/><stop offset="48%" style="stop-color:black;stop-opacity:0.866667"/><stop offset="61%" style="stop-color:black;stop-opacity:0.482353"/><stop offset="72%" style="stop-color:black;stop-opacity:0"/><stop offset="72%" style="stop-color:black;stop-opacity:0"/></linearGradient>
        <linearGradient id="_Linear2" x1="0" y1="0" x2="1" y2="0" gradientUnits="userSpaceOnUse" gradientTransform="matrix(33.5107,0,0,14.7073,16.0673,54.7963)"><stop offset="0%" style="stop-color:white;stop-opacity:0"/><stop offset="27%" style="stop-color:black;stop-opacity:0"/><stop offset="38%" style="stop-color:black;stop-opacity:0.482353"/><stop offset="51%" style="stop-color:black;stop-opacity:0.866667"/><stop offset="100%" style="stop-color:black;stop-opacity:1"/></linearGradient>
    </defs>
</svg>
