<?xml version="1.0" encoding="UTF-8" standalone="no"?>
<!DOCTYPE svg PUBLIC "-//W3C//DTD SVG 1.1//EN" "http://www.w3.org/Graphics/SVG/1.1/DTD/svg11.dtd">
<svg width="100%" height="100%" viewBox="0 0 180 180" version="1.1" xmlns="http://www.w3.org/2000/svg" xmlns:xlink="http://www.w3.org/1999/xlink" xml:space="preserve" style="fill-rule:evenodd;clip-rule:evenodd;stroke-linejoin:round;stroke-miterlimit:1.41421;">
    <g transform="matrix(2.2714,0,0,2.2714,-16.9461,19.5618)">
        <path d="M33.18,46.786L33.291,46.79L33.401,46.795L33.511,46.8L33.621,46.806L33.73,46.812L33.839,46.819L33.948,46.826L34.056,46.833L34.164,46.842L34.272,46.85L34.379,46.859L34.487,46.869L34.593,46.879L34.7,46.89L34.806,46.901L34.912,46.912L35.018,46.924L35.123,46.937L35.228,46.95L35.333,46.963L35.437,46.977L35.541,46.992L35.645,47.007L35.749,47.022L35.852,47.038L35.954,47.055L36.057,47.072L36.159,47.089L36.261,47.107L36.363,47.125L36.464,47.144L36.565,47.163L36.665,47.183L36.766,47.203L36.866,47.224L36.965,47.245L37.065,47.267L37.164,47.289L37.262,47.312L37.361,47.335L37.459,47.359L37.557,47.383L37.654,47.407L37.751,47.432L37.848,47.458L37.944,47.484L38.04,47.51L38.136,47.537L38.232,47.564L38.327,47.592L38.422,47.62L38.516,47.649L38.61,47.678L38.704,47.708L38.798,47.738L38.891,47.769L38.984,47.8L39.076,47.831L39.168,47.863L39.26,47.896L39.352,47.929L39.443,47.962L39.534,47.996L39.625,48.03L39.715,48.065L39.805,48.1L39.894,48.136L39.983,48.172L40.072,48.209L40.161,48.246L40.249,48.283L40.337,48.321L40.424,48.359L40.512,48.398L40.598,48.437L40.685,48.477L40.771,48.517L40.857,48.558L40.942,48.599L41.028,48.64L41.112,48.682L41.197,48.725L41.281,48.768L41.365,48.811L41.448,48.855L41.531,48.899L41.614,48.943L41.696,48.988L41.778,49.034L41.86,49.08L41.941,49.126L42.022,49.173L42.103,49.22L42.183,49.267L42.263,49.315L42.343,49.364L42.422,49.413L42.501,49.462L42.579,49.512L42.658,49.562L42.735,49.613L42.813,49.664L42.89,49.715L42.967,49.767L43.043,49.819L43.119,49.872L43.195,49.925L43.27,49.979L43.345,50.033L43.42,50.087L43.494,50.142L43.568,50.197L43.641,50.253L43.715,50.309L43.787,50.365L43.86,50.422L43.932,50.48L44.004,50.537L44.075,50.595L44.146,50.654L44.217,50.713L44.287,50.772L44.357,50.832L44.426,50.892L44.495,50.953L44.564,51.013L44.633,51.075L44.701,51.137L44.768,51.199L44.836,51.261L44.903,51.324L44.969,51.387L45.035,51.451L45.101,51.515L45.167,51.58L45.232,51.645L45.297,51.71L45.361,51.776L45.425,51.842L45.488,51.908L45.552,51.975L45.615,52.042L45.677,52.11L45.739,52.178L45.801,52.246L45.862,52.315L45.923,52.384L45.984,52.453L46.044,52.523L46.104,52.593L46.163,52.664L46.222,52.735L46.281,52.806L46.339,52.878L46.397,52.95L46.455,53.022L46.512,53.095L46.569,53.168L46.625,53.242L46.681,53.316L46.737,53.39L46.792,53.465L46.847,53.54L46.902,53.615L46.956,53.691L47.009,53.767L47.063,53.843L47.116,53.92L47.168,53.997L47.22,54.075L47.272,54.153L47.324,54.231L47.375,54.309L47.425,54.388L47.476,54.468L47.526,54.547L47.575,54.627L47.624,54.708L47.673,54.788L47.721,54.869L47.769,54.95L47.817,55.032L47.864,55.114L47.911,55.196L47.957,55.279L48.003,55.362L48.049,55.445L48.094,55.529L48.139,55.613L48.183,55.698L48.227,55.782L48.271,55.867L48.314,55.953L48.357,56.038L48.4,56.124L48.442,56.211L48.483,56.297L48.525,56.384L48.566,56.472L48.606,56.559L48.646,56.647L48.686,56.735L48.726,56.824L48.765,56.913L48.803,57.002L48.841,57.092L48.879,57.182L48.917,57.272L48.954,57.362L48.99,57.453L49.026,57.544L49.062,57.636L49.098,57.727L49.133,57.819L49.167,57.912L49.202,58.005L49.235,58.097L49.269,58.191L49.302,58.284L49.335,58.378L49.367,58.472L49.399,58.567L49.43,58.662L49.461,58.757L49.492,58.852L49.522,58.948L49.552,59.044L49.582,59.14L49.611,59.237L49.64,59.334L49.668,59.431L49.696,59.528L49.723,59.626L49.751,59.724L49.777,59.822L49.804,59.921L49.83,60.02L49.855,60.119L49.88,60.219L49.905,60.319L49.929,60.419L49.953,60.519L49.977,60.62L50,60.72L50.023,60.822L50.045,60.923L50.067,61.025L50.089,61.127L50.11,61.229L50.13,61.332L50.151,61.435L50.171,61.538L50.19,61.641L50.209,61.745L50.228,61.848L50.238,61.937L50.235,62.027L50.221,62.116L50.194,62.202L50.156,62.284L50.107,62.36L50.049,62.428L49.981,62.488L49.906,62.538L49.825,62.577L49.739,62.605L49.651,62.621L49.561,62.625L49.471,62.616L49.383,62.596L49.299,62.563L49.22,62.52L49.148,62.466L49.084,62.403L49.029,62.331L48.984,62.253L48.95,62.169L48.928,62.082L48.91,61.982L48.892,61.884L48.873,61.786L48.855,61.688L48.835,61.591L48.816,61.494L48.796,61.397L48.775,61.301L48.755,61.204L48.733,61.109L48.712,61.013L48.69,60.918L48.668,60.823L48.645,60.728L48.622,60.634L48.599,60.539L48.575,60.446L48.551,60.352L48.527,60.259L48.502,60.166L48.477,60.073L48.451,59.981L48.425,59.889L48.399,59.797L48.372,59.706L48.345,59.615L48.318,59.524L48.29,59.434L48.262,59.344L48.234,59.254L48.205,59.164L48.176,59.075L48.146,58.986L48.116,58.898L48.086,58.809L48.056,58.721L48.025,58.634L47.993,58.546L47.962,58.459L47.93,58.373L47.897,58.286L47.864,58.2L47.831,58.115L47.798,58.029L47.764,57.944L47.73,57.859L47.695,57.775L47.66,57.691L47.625,57.607L47.59,57.523L47.554,57.44L47.517,57.357L47.481,57.275L47.444,57.193L47.406,57.111L47.368,57.029L47.33,56.948L47.292,56.867L47.253,56.787L47.214,56.706L47.175,56.626L47.135,56.547L47.095,56.468L47.054,56.389L47.013,56.31L46.972,56.232L46.93,56.154L46.888,56.077L46.846,55.999L46.804,55.922L46.761,55.846L46.717,55.77L46.674,55.694L46.63,55.618L46.585,55.543L46.541,55.468L46.496,55.394L46.45,55.319L46.404,55.246L46.358,55.172L46.312,55.099L46.265,55.026L46.218,54.954L46.171,54.881L46.123,54.81L46.075,54.738L46.026,54.667L45.978,54.596L45.928,54.526L45.879,54.456L45.829,54.386L45.779,54.317L45.728,54.248L45.678,54.179L45.626,54.111L45.575,54.043L45.523,53.975L45.471,53.908L45.418,53.841L45.365,53.774L45.312,53.708L45.259,53.642L45.205,53.577L45.151,53.512L45.096,53.447L45.041,53.382L44.986,53.318L44.93,53.255L44.874,53.191L44.818,53.128L44.761,53.066L44.705,53.003L44.647,52.941L44.59,52.88L44.532,52.819L44.474,52.758L44.415,52.697L44.356,52.637L44.297,52.577L44.237,52.518L44.177,52.459L44.117,52.4L44.056,52.342L43.995,52.284L43.934,52.226L43.872,52.169L43.811,52.112L43.748,52.056L43.686,52L43.623,51.944L43.559,51.888L43.496,51.833L43.432,51.779L43.368,51.725L43.303,51.671L43.238,51.617L43.173,51.564L43.107,51.511L43.041,51.459L42.975,51.407L42.908,51.355L42.841,51.304L42.774,51.253L42.706,51.202L42.639,51.152L42.57,51.102L42.502,51.053L42.433,51.004L42.363,50.955L42.294,50.907L42.224,50.859L42.154,50.812L42.083,50.765L42.012,50.718L41.941,50.671L41.869,50.626L41.797,50.58L41.725,50.535L41.652,50.49L41.579,50.446L41.506,50.401L41.433,50.358L41.359,50.315L41.284,50.272L41.21,50.229L41.135,50.187L41.06,50.145L40.984,50.104L40.908,50.063L40.832,50.023L40.755,49.983L40.678,49.943L40.601,49.904L40.523,49.865L40.445,49.826L40.367,49.788L40.289,49.75L40.21,49.713L40.13,49.676L40.051,49.639L39.971,49.603L39.891,49.567L39.81,49.532L39.729,49.497L39.648,49.463L39.566,49.429L39.484,49.395L39.402,49.362L39.319,49.329L39.237,49.296L39.153,49.264L39.07,49.233L38.986,49.201L38.902,49.17L38.817,49.14L38.732,49.11L38.647,49.08L38.561,49.051L38.475,49.023L38.389,48.994L38.302,48.966L38.215,48.939L38.128,48.912L38.041,48.885L37.953,48.859L37.864,48.833L37.776,48.808L37.687,48.783L37.598,48.758L37.508,48.734L37.418,48.71L37.328,48.687L37.237,48.664L37.146,48.642L37.055,48.62L36.964,48.598L36.872,48.577L36.779,48.557L36.687,48.536L36.594,48.517L36.501,48.497L36.407,48.478L36.313,48.46L36.219,48.442L36.124,48.424L36.029,48.407L35.934,48.39L35.839,48.374L35.743,48.358L35.647,48.343L35.55,48.328L35.453,48.314L35.356,48.3L35.258,48.286L35.16,48.273L35.062,48.26L34.964,48.248L34.865,48.236L34.766,48.225L34.666,48.214L34.566,48.204L34.466,48.194L34.366,48.184L34.265,48.175L34.164,48.166L34.062,48.158L33.96,48.151L33.858,48.144L33.756,48.137L33.653,48.131L33.55,48.125L33.446,48.119L33.342,48.115L33.238,48.11L33.134,48.106L33.039,48.103L32.936,48.103L32.823,48.104L32.71,48.105L32.597,48.107L32.485,48.109L32.373,48.112L32.262,48.116L32.151,48.119L32.04,48.124L31.93,48.128L31.82,48.134L31.711,48.139L31.602,48.146L31.493,48.152L31.385,48.159L31.277,48.167L31.169,48.175L31.062,48.184L30.955,48.193L30.849,48.203L30.743,48.213L30.637,48.223L30.532,48.234L30.427,48.246L30.323,48.258L30.219,48.27L30.115,48.283L30.012,48.297L29.909,48.311L29.807,48.325L29.704,48.34L29.603,48.355L29.501,48.371L29.4,48.387L29.3,48.404L29.2,48.421L29.1,48.439L29.001,48.457L28.902,48.476L28.803,48.495L28.705,48.514L28.607,48.534L28.51,48.555L28.413,48.576L28.316,48.597L28.22,48.619L28.124,48.641L28.028,48.664L27.933,48.687L27.839,48.711L27.744,48.735L27.65,48.76L27.557,48.785L27.464,48.81L27.371,48.836L27.279,48.862L27.187,48.889L27.095,48.916L27.004,48.944L26.913,48.972L26.823,49.001L26.733,49.03L26.644,49.059L26.554,49.089L26.466,49.119L26.377,49.15L26.289,49.181L26.201,49.213L26.114,49.245L26.027,49.278L25.941,49.311L25.855,49.344L25.769,49.378L25.684,49.412L25.599,49.447L25.515,49.482L25.431,49.517L25.347,49.553L25.264,49.59L25.181,49.627L25.098,49.664L25.016,49.702L24.934,49.74L24.853,49.778L24.772,49.817L24.691,49.857L24.611,49.896L24.531,49.937L24.452,49.977L24.373,50.018L24.294,50.06L24.216,50.102L24.138,50.144L24.061,50.187L23.984,50.23L23.907,50.274L23.831,50.317L23.755,50.362L23.68,50.407L23.605,50.452L23.53,50.498L23.456,50.544L23.382,50.59L23.308,50.637L23.235,50.684L23.162,50.732L23.09,50.78L23.018,50.828L22.946,50.877L22.875,50.927L22.805,50.976L22.734,51.026L22.664,51.077L22.594,51.128L22.525,51.179L22.456,51.231L22.388,51.283L22.32,51.335L22.252,51.388L22.185,51.442L22.118,51.495L22.052,51.549L21.985,51.604L21.92,51.659L21.854,51.714L21.789,51.77L21.725,51.826L21.661,51.883L21.597,51.939L21.533,51.997L21.47,52.054L21.408,52.112L21.346,52.171L21.284,52.23L21.222,52.289L21.161,52.349L21.101,52.409L21.04,52.469L20.98,52.53L20.921,52.591L20.862,52.653L20.803,52.715L20.745,52.777L20.687,52.84L20.629,52.903L20.572,52.967L20.515,53.031L20.459,53.095L20.403,53.16L20.347,53.225L20.292,53.29L20.237,53.356L20.183,53.422L20.129,53.489L20.075,53.556L20.022,53.623L19.969,53.691L19.916,53.759L19.864,53.828L19.813,53.897L19.761,53.966L19.71,54.036L19.66,54.106L19.61,54.176L19.56,54.247L19.511,54.318L19.462,54.39L19.413,54.462L19.365,54.534L19.317,54.607L19.27,54.68L19.223,54.754L19.176,54.827L19.13,54.902L19.084,54.976L19.039,55.051L18.994,55.127L18.949,55.202L18.905,55.279L18.861,55.355L18.818,55.432L18.775,55.509L18.732,55.587L18.69,55.665L18.648,55.743L18.606,55.822L18.565,55.901L18.525,55.98L18.485,56.06L18.445,56.141L18.405,56.221L18.366,56.302L18.328,56.383L18.289,56.465L18.252,56.547L18.214,56.63L18.177,56.712L18.141,56.796L18.104,56.879L18.068,56.963L18.033,57.047L17.998,57.132L17.963,57.217L17.929,57.302L17.896,57.388L17.862,57.474L17.829,57.56L17.797,57.647L17.764,57.734L17.733,57.822L17.701,57.91L17.67,57.998L17.64,58.087L17.61,58.176L17.58,58.265L17.551,58.355L17.522,58.445L17.494,58.535L17.466,58.626L17.438,58.717L17.411,58.808L17.384,58.9L17.358,58.992L17.332,59.085L17.306,59.178L17.281,59.271L17.256,59.364L17.232,59.458L17.208,59.553L17.185,59.647L17.161,59.742L17.139,59.837L17.117,59.933L17.095,60.029L17.074,60.125L17.053,60.222L17.032,60.319L17.012,60.417L16.992,60.514L16.973,60.612L16.954,60.711L16.936,60.809L16.918,60.909L16.9,61.008L16.883,61.108L16.866,61.208L16.85,61.308L16.834,61.409L16.819,61.51L16.804,61.611L16.789,61.713L16.775,61.815L16.762,61.918L16.748,62.021L16.736,62.124L16.723,62.229L16.706,62.317L16.677,62.403L16.637,62.483L16.587,62.558L16.526,62.625L16.457,62.683L16.381,62.731L16.299,62.768L16.213,62.794L16.124,62.808L16.034,62.81L15.944,62.799L15.857,62.776L15.774,62.741L15.696,62.696L15.625,62.64L15.562,62.576L15.509,62.503L15.466,62.424L15.435,62.339L15.415,62.251L15.407,62.161L15.412,62.071L15.425,61.964L15.438,61.855L15.452,61.746L15.467,61.637L15.482,61.529L15.497,61.422L15.513,61.314L15.529,61.207L15.546,61.1L15.563,60.994L15.581,60.887L15.599,60.781L15.618,60.676L15.637,60.571L15.656,60.466L15.676,60.361L15.697,60.257L15.718,60.153L15.739,60.049L15.761,59.946L15.783,59.843L15.806,59.74L15.829,59.638L15.853,59.536L15.877,59.434L15.902,59.333L15.927,59.231L15.952,59.131L15.978,59.03L16.005,58.93L16.032,58.831L16.059,58.731L16.087,58.632L16.115,58.533L16.144,58.435L16.173,58.337L16.203,58.239L16.233,58.142L16.263,58.045L16.294,57.948L16.326,57.852L16.358,57.756L16.39,57.66L16.423,57.565L16.456,57.47L16.49,57.375L16.524,57.281L16.559,57.187L16.594,57.093L16.629,57L16.665,56.907L16.702,56.815L16.739,56.722L16.776,56.631L16.814,56.539L16.852,56.448L16.891,56.357L16.93,56.267L16.97,56.177L17.01,56.087L17.051,55.998L17.092,55.909L17.133,55.82L17.175,55.732L17.217,55.644L17.26,55.557L17.303,55.469L17.347,55.383L17.391,55.296L17.436,55.21L17.481,55.125L17.526,55.039L17.572,54.954L17.619,54.87L17.666,54.786L17.713,54.702L17.761,54.619L17.809,54.536L17.858,54.453L17.907,54.371L17.956,54.289L18.006,54.207L18.057,54.126L18.108,54.046L18.159,53.965L18.211,53.885L18.263,53.806L18.316,53.727L18.369,53.648L18.423,53.569L18.477,53.491L18.531,53.414L18.586,53.337L18.642,53.26L18.697,53.184L18.754,53.108L18.81,53.032L18.867,52.957L18.925,52.882L18.983,52.808L19.041,52.734L19.1,52.66L19.16,52.587L19.219,52.514L19.28,52.442L19.34,52.37L19.401,52.298L19.463,52.227L19.525,52.157L19.587,52.086L19.65,52.017L19.713,51.947L19.777,51.878L19.841,51.809L19.906,51.741L19.971,51.674L20.036,51.606L20.102,51.539L20.169,51.473L20.235,51.407L20.302,51.341L20.37,51.276L20.438,51.211L20.507,51.147L20.575,51.083L20.645,51.02L20.715,50.957L20.785,50.894L20.855,50.832L20.926,50.77L20.998,50.709L21.07,50.648L21.142,50.588L21.215,50.528L21.288,50.468L21.361,50.409L21.435,50.351L21.51,50.292L21.584,50.235L21.66,50.177L21.735,50.12L21.811,50.064L21.888,50.008L21.965,49.953L22.042,49.898L22.12,49.843L22.198,49.789L22.277,49.735L22.356,49.682L22.435,49.629L22.515,49.577L22.595,49.525L22.675,49.474L22.756,49.423L22.838,49.373L22.92,49.323L23.002,49.273L23.085,49.224L23.168,49.175L23.251,49.127L23.335,49.08L23.419,49.032L23.504,48.986L23.589,48.939L23.674,48.894L23.76,48.848L23.847,48.804L23.933,48.759L24.02,48.715L24.108,48.672L24.196,48.629L24.284,48.586L24.372,48.544L24.461,48.503L24.551,48.462L24.641,48.421L24.731,48.381L24.822,48.342L24.913,48.303L25.004,48.264L25.096,48.226L25.188,48.188L25.28,48.151L25.373,48.114L25.467,48.078L25.56,48.042L25.655,48.007L25.749,47.972L25.844,47.938L25.939,47.904L26.035,47.871L26.131,47.838L26.227,47.806L26.324,47.774L26.421,47.743L26.519,47.712L26.617,47.681L26.715,47.651L26.814,47.622L26.913,47.593L27.012,47.565L27.112,47.537L27.212,47.51L27.313,47.483L27.414,47.456L27.515,47.43L27.617,47.405L27.719,47.38L27.821,47.356L27.924,47.332L28.027,47.308L28.131,47.285L28.235,47.263L28.339,47.241L28.444,47.22L28.549,47.199L28.654,47.178L28.76,47.159L28.866,47.139L28.973,47.12L29.08,47.102L29.187,47.084L29.295,47.067L29.403,47.05L29.511,47.034L29.62,47.018L29.729,47.002L29.838,46.988L29.948,46.973L30.058,46.96L30.169,46.946L30.28,46.933L30.391,46.921L30.502,46.909L30.614,46.898L30.727,46.888L30.84,46.877L30.953,46.868L31.066,46.859L31.18,46.85L31.294,46.842L31.408,46.834L31.523,46.827L31.639,46.82L31.754,46.814L31.87,46.809L31.986,46.804L32.103,46.799L32.22,46.795L32.337,46.792L32.455,46.789L32.573,46.787L32.692,46.785L32.81,46.783L32.93,46.783L33.059,46.782L33.18,46.786Z" style="fill:black;"/>
    </g>
    <g transform="matrix(1.93394,0,0,1.93394,-2.83238,37.1835)">
        <circle cx="31.252" cy="34.684" r="7.373" style="fill:none;stroke-width:1.55px;stroke:rgb(33,33,33);"/>
    </g>
    <g transform="matrix(0.80233,0,0,0.801252,52.3466,-44.8424)">
        <rect x="100.233" y="116.872" width="42.398" height="42.398" style="fill:none;stroke-width:3.74px;stroke:rgb(33,33,33);"/>
    </g>
    <g transform="matrix(0.962823,0,0,0.962823,-26.7251,-17.6029)">
        <circle cx="142.33" cy="86.633" r="17.665" style="fill:none;stroke-width:3.12px;stroke:rgb(33,33,33);"/>
    </g>
    <g transform="matrix(1.19821,0,0,0.962825,24.9362,-113.066)">
        <path d="M89.993,132.923L104.188,161.313L75.798,161.313L89.993,132.923Z" style="fill:none;stroke-width:2.76px;stroke:rgb(33,33,33);"/>
    </g>
    <g transform="matrix(0.867319,0,0,0.867319,12.6158,12.5854)">
        <path d="M16.383,16.078L158.142,157.973" style="fill:rgb(235,235,235);"/>
        <path d="M16.564,14.939L16.797,15.002L17.011,15.111L17.198,15.263L158.957,157.158L159.109,157.346L159.218,157.56L159.281,157.793L159.293,158.034L159.255,158.272L159.169,158.497L159.037,158.699L158.867,158.87L158.665,159.001L158.44,159.087L158.201,159.125L157.961,159.112L157.728,159.049L157.513,158.94L157.326,158.788L15.567,16.893L15.416,16.705L15.306,16.49L15.244,16.258L15.231,16.017L15.269,15.779L15.356,15.554L15.487,15.352L15.658,15.181L15.86,15.05L16.085,14.964L16.323,14.926L16.564,14.939Z" style="fill:url(#_Linear1);"/>
    </g>
    <defs>
        <linearGradient id="_Linear1" x1="0" y1="0" x2="1" y2="0" gradientUnits="userSpaceOnUse" gradientTransform="matrix(141.759,0,0,141.895,16.3828,87.0255)"><stop offset="0%" style="stop-color:black;stop-opacity:0"/><stop offset="7%" style="stop-color:black;stop-opacity:0.482353"/><stop offset="16%" style="stop-color:black;stop-opacity:0.866667"/><stop offset="50%" style="stop-color:black;stop-opacity:1"/><stop offset="50%" style="stop-color:black;stop-opacity:1"/><stop offset="83%" style="stop-color:black;stop-opacity:0.866667"/><stop offset="92%" style="stop-color:black;stop-opacity:0.482353"/><stop offset="100%" style="stop-color:black;stop-opacity:0"/></linearGradient>
    </defs>
</svg>
