<?xml version="1.0" standalone="no"?>
<!DOCTYPE svg PUBLIC "-//W3C//DTD SVG 1.1//EN" "http://www.w3.org/Graphics/SVG/1.1/DTD/svg11.dtd">
<svg width="100%" height="100%" viewBox="0 0 180 180" version="1.1" xmlns="http://www.w3.org/2000/svg" xmlns:xlink="http://www.w3.org/1999/xlink" xml:space="preserve" style="fill-rule:evenodd;clip-rule:evenodd;stroke-linejoin:round;stroke-miterlimit:1.41421;">
    <path d="M90,90L90,23.887" style="fill:rgb(33,33,33);stroke-width:3px;stroke:rgb(33,33,33);"/>
    <g transform="matrix(-0.500674,0.865636,-0.865636,-0.500674,212.968,57.1534)">
        <path d="M90,90L90,23.887" style="fill:rgb(33,33,33);stroke-width:3px;stroke:rgb(33,33,33);"/>
    </g>
    <g transform="matrix(0.500674,0.865636,0.865636,-0.500674,-32.9679,57.1534)">
        <path d="M90,90L90,23.887" style="fill:rgb(33,33,33);stroke-width:3px;stroke:rgb(33,33,33);"/>
    </g>
    <g transform="matrix(1.5053,0,0,1.5053,-98.3774,42.4716)">
        <rect x="112.152" y="49.267" width="25.982" height="25.264" style="fill:none;stroke-width:1.99px;stroke:rgb(33,33,33);"/>
    </g>
    <g transform="matrix(1.15009,0,0,1.15009,-11.52,-19.4946)">
        <circle cx="79.926" cy="126.404" r="2.362" style="fill:black;stroke-width:0.87px;stroke:black;"/>
    </g>
    <g transform="matrix(1.15009,0,0,1.15009,-11.52,-21.6609)">
        <circle cx="79.926" cy="136.639" r="2.362" style="fill:black;stroke-width:0.87px;stroke:black;"/>
    </g>
    <g transform="matrix(1.15009,0,0,1.15009,-11.52,-22.3146)">
        <circle cx="79.926" cy="146.089" r="2.362" style="fill:black;stroke-width:0.87px;stroke:black;"/>
    </g>
    <g transform="matrix(1.15009,0,0,1.15009,7.67537,-19.7989)">
        <circle cx="79.926" cy="126.404" r="2.362" style="fill:black;stroke-width:0.87px;stroke:black;"/>
    </g>
    <g transform="matrix(1.15009,0,0,1.15009,7.67537,-21.9652)">
        <circle cx="79.926" cy="136.639" r="2.362" style="fill:black;stroke-width:0.87px;stroke:black;"/>
    </g>
    <g transform="matrix(1.15009,0,0,1.15009,7.67537,-22.619)">
        <circle cx="79.926" cy="146.089" r="2.362" style="fill:black;stroke-width:0.87px;stroke:black;"/>
    </g>
    <g id="Layer1">
        <rect x="102.991" y="48.6" width="39.75" height="23.502" style="fill:none;stroke-width:2.5px;stroke:rgb(33,33,33);"/>
        <g transform="matrix(-0.0013413,-0.801918,0.906422,-0.00151609,63.243,177.719)">
            <path d="M159.418,103.583L132.896,103.583L137.767,87.934L154.548,87.934L159.418,103.583Z" style="fill:none;stroke-width:2.92px;stroke:rgb(33,33,33);"/>
        </g>
        <g transform="matrix(1.37375,0,0,1.37375,66.3589,-90.6471)">
            <circle cx="33.9" cy="94.129" r="7.234" style="fill:none;stroke-width:1.82px;stroke:rgb(33,33,33);"/>
        </g>
        <g transform="matrix(1.33061,0,0,1.33061,87.3845,-86.2741)">
            <circle cx="33.9" cy="94.129" r="7.234" style="fill:none;stroke-width:1.88px;stroke:rgb(33,33,33);"/>
        </g>
    </g>
    <g id="Layer2" transform="matrix(1.13258,0,0,1.13258,-3.06851,-4.46396)">
        <g transform="matrix(3.12649,0,0,3.12649,-60.2251,-238.004)">
            <circle cx="33.9" cy="94.129" r="7.234" style="fill:none;stroke-width:0.85px;stroke:rgb(33,33,33);"/>
        </g>
        <path d="M55.544,35.275L55.557,35.276L55.63,35.285L55.701,35.3L55.706,35.302L55.769,35.32L55.83,35.343L55.835,35.345L55.908,35.38L55.978,35.421L55.982,35.424L56.059,35.481L56.13,35.546L56.133,35.549L56.201,35.628L56.259,35.714L56.261,35.718L56.308,35.808L56.344,35.904L56.345,35.908L56.374,36.025L56.385,36.145L56.381,36.265L56.36,36.384L56.323,36.499L56.271,36.607L56.205,36.708L56.125,36.798L56.034,36.877L55.933,36.943L55.824,36.994L55.709,37.031L55.59,37.051L55.566,37.051L55.553,37.057L55.476,37.093L55.3,37.178L55.105,37.27L54.675,37.471L54.441,37.58L54.196,37.695L53.939,37.818L53.671,37.946L53.393,38.082L53.104,38.225L52.958,38.299L52.808,38.375L52.657,38.453L52.503,38.533L52.348,38.615L52.191,38.698L52.032,38.784L51.871,38.871L51.709,38.961L51.545,39.053L51.38,39.146L51.214,39.242L51.046,39.34L50.878,39.44L50.708,39.542L50.537,39.646L50.366,39.752L50.193,39.861L50.02,39.971L49.846,40.084L49.672,40.199L49.497,40.317L49.322,40.436L49.147,40.558L48.972,40.682L48.796,40.809L48.62,40.938L48.445,41.069L48.269,41.203L48.094,41.339L47.919,41.477L47.745,41.618L47.571,41.761L47.398,41.907L47.225,42.055L47.053,42.206L46.882,42.359L46.711,42.515L46.628,42.593L46.543,42.673L46.459,42.753L46.375,42.834L46.291,42.915L46.208,42.997L46.125,43.08L46.043,43.163L45.96,43.247L45.878,43.332L45.797,43.417L45.716,43.502L45.584,43.645L45.454,43.787L45.325,43.93L45.199,44.074L45.075,44.218L44.952,44.363L44.831,44.509L44.711,44.655L44.593,44.802L44.477,44.949L44.363,45.098L44.25,45.246L44.138,45.396L44.028,45.546L43.919,45.697L43.812,45.849L43.706,46.001L43.601,46.154L43.498,46.307L43.396,46.461L43.295,46.616L43.195,46.772L43.097,46.928L42.999,47.085L42.903,47.242L42.808,47.401L42.713,47.56L42.62,47.72L42.528,47.88L42.436,48.041L42.345,48.203L42.256,48.365L42.167,48.528L42.078,48.692L41.991,48.857L41.904,49.022L41.818,49.188L41.733,49.355L41.648,49.522L41.564,49.69L41.48,49.859L41.397,50.029L41.314,50.199L41.232,50.369L41.068,50.714L40.906,51.06L40.745,51.409L40.585,51.761L40.425,52.116L40.266,52.474L40.106,52.834L39.947,53.196L39.626,53.929L39.497,54.226L39.433,54.375L39.37,54.526L39.306,54.678L39.243,54.831L39.179,54.986L39.117,55.143L39.054,55.3L38.992,55.46L38.931,55.62L38.87,55.782L38.809,55.946L38.749,56.111L38.69,56.278L38.632,56.446L38.574,56.616L38.517,56.788L38.461,56.961L38.406,57.136L38.351,57.313L38.298,57.492L38.246,57.672L38.195,57.854L38.145,58.038L38.096,58.223L38.048,58.411L38.002,58.6L37.956,58.792L37.913,58.985L37.87,59.18L37.83,59.377L37.79,59.577L37.752,59.778L37.716,59.981L37.682,60.187L37.649,60.394L37.618,60.604L37.589,60.816L37.561,61.03L37.536,61.246L37.512,61.464L37.49,61.685L37.471,61.908L37.454,62.133L37.438,62.361L37.425,62.591L37.414,62.823L37.406,63.058L37.4,63.296L37.396,63.535L37.395,63.778L37.396,64.024L37.398,64.146L37.4,64.27L37.403,64.395L37.406,64.52L37.411,64.646L37.416,64.772L37.421,64.9L37.427,65.027L37.434,65.156L37.442,65.285L37.45,65.415L37.459,65.546L37.469,65.677L37.48,65.809L37.491,65.942L37.503,66.075L37.516,66.209L37.529,66.343L37.544,66.479L37.559,66.615L37.574,66.752L37.591,66.889L37.611,67.046L37.631,67.202L37.652,67.358L37.674,67.513L37.696,67.666L37.718,67.819L37.742,67.971L37.766,68.123L37.79,68.273L37.815,68.422L37.84,68.571L37.866,68.718L37.919,69.011L37.975,69.3L38.031,69.585L38.09,69.867L38.15,70.144L38.212,70.418L38.274,70.688L38.338,70.953L38.404,71.215L38.47,71.472L38.537,71.725L38.605,71.974L38.674,72.218L38.743,72.458L38.813,72.694L38.884,72.925L38.955,73.151L39.025,73.372L39.097,73.589L39.168,73.801L39.239,74.009L39.31,74.211L39.38,74.408L39.45,74.6L39.52,74.787L39.589,74.969L39.657,75.146L39.725,75.317L39.792,75.483L39.857,75.643L39.922,75.798L39.985,75.947L40.047,76.091L40.108,76.228L40.167,76.36L40.224,76.487L40.28,76.607L40.334,76.721L40.385,76.829L40.435,76.93L40.483,77.026L40.528,77.115L40.57,77.197L40.61,77.273L40.647,77.342L40.681,77.404L40.711,77.458L40.738,77.504L40.741,77.51L40.8,77.57L40.871,77.667L40.929,77.773L40.971,77.886L40.998,78.004L40.999,78.011L41.009,78.12L41.009,78.126L41.006,78.231L40.99,78.336L40.989,78.34L40.959,78.45L40.914,78.555L40.855,78.653L40.785,78.744L40.783,78.746L40.702,78.826L40.611,78.895L40.512,78.951L40.407,78.995L40.296,79.024L40.183,79.039L40.181,79.039L40.074,79.04L39.968,79.028L39.864,79.003L39.764,78.966L39.76,78.964L39.672,78.919L39.59,78.864L39.585,78.861L39.506,78.795L39.501,78.79L39.441,78.728L39.408,78.689L39.361,78.627L39.323,78.572L39.288,78.518L39.253,78.461L39.216,78.4L39.178,78.334L39.138,78.262L39.095,78.185L39.051,78.102L39.004,78.013L38.955,77.918L38.904,77.817L38.851,77.71L38.796,77.598L38.739,77.479L38.68,77.354L38.619,77.223L38.557,77.087L38.494,76.944L38.429,76.796L38.362,76.642L38.294,76.483L38.225,76.317L38.155,76.147L38.085,75.97L38.013,75.789L37.94,75.602L37.867,75.409L37.793,75.211L37.719,75.008L37.645,74.8L37.57,74.587L37.495,74.368L37.42,74.145L37.346,73.917L37.271,73.684L37.196,73.445L37.122,73.203L37.049,72.955L36.976,72.703L36.904,72.446L36.832,72.185L36.762,71.919L36.692,71.649L36.623,71.374L36.556,71.095L36.49,70.812L36.426,70.525L36.362,70.233L36.301,69.938L36.241,69.638L36.183,69.335L36.128,69.028L36.1,68.872L36.074,68.716L36.047,68.559L36.022,68.401L35.997,68.242L35.972,68.083L35.948,67.922L35.925,67.76L35.903,67.598L35.88,67.435L35.859,67.27L35.838,67.105L35.821,66.959L35.804,66.813L35.788,66.668L35.773,66.524L35.758,66.381L35.745,66.238L35.732,66.095L35.72,65.954L35.709,65.813L35.698,65.673L35.688,65.533L35.679,65.394L35.671,65.256L35.664,65.118L35.657,64.981L35.651,64.845L35.646,64.709L35.641,64.574L35.638,64.44L35.634,64.306L35.632,64.173L35.63,64.04L35.629,63.778L35.63,63.517L35.634,63.259L35.641,63.004L35.65,62.751L35.662,62.5L35.676,62.252L35.692,62.006L35.711,61.763L35.732,61.522L35.755,61.284L35.781,61.048L35.808,60.814L35.838,60.582L35.87,60.353L35.903,60.127L35.939,59.902L35.976,59.68L36.015,59.46L36.056,59.243L36.099,59.027L36.143,58.814L36.189,58.603L36.236,58.394L36.285,58.188L36.335,57.983L36.386,57.781L36.439,57.581L36.493,57.383L36.548,57.187L36.604,56.993L36.661,56.801L36.72,56.611L36.779,56.424L36.839,56.238L36.9,56.054L36.962,55.873L37.024,55.693L37.087,55.515L37.151,55.339L37.215,55.166L37.28,54.994L37.345,54.823L37.41,54.655L37.476,54.489L37.542,54.324L37.609,54.161L37.675,54.001L37.742,53.841L37.808,53.684L37.875,53.528L38.007,53.223L38.33,52.486L38.491,52.121L38.652,51.757L38.814,51.394L38.976,51.033L39.14,50.674L39.304,50.316L39.471,49.96L39.639,49.607L39.724,49.429L39.81,49.253L39.896,49.078L39.983,48.902L40.071,48.727L40.159,48.553L40.249,48.379L40.339,48.205L40.43,48.032L40.521,47.86L40.614,47.687L40.708,47.516L40.802,47.344L40.898,47.173L40.995,47.003L41.093,46.833L41.192,46.664L41.292,46.495L41.393,46.326L41.496,46.159L41.6,45.991L41.705,45.824L41.812,45.658L41.92,45.492L42.029,45.327L42.14,45.162L42.253,44.997L42.367,44.834L42.482,44.67L42.6,44.508L42.718,44.346L42.839,44.184L42.961,44.023L43.085,43.863L43.211,43.703L43.338,43.544L43.468,43.386L43.599,43.228L43.732,43.071L43.868,42.914L44.005,42.758L44.144,42.603L44.285,42.448L44.428,42.294L44.517,42.2L44.606,42.107L44.695,42.015L44.785,41.923L44.875,41.833L44.965,41.743L45.056,41.653L45.147,41.565L45.238,41.477L45.329,41.39L45.421,41.304L45.514,41.218L45.697,41.05L45.882,40.884L46.068,40.721L46.255,40.561L46.442,40.404L46.629,40.249L46.817,40.098L47.005,39.949L47.193,39.803L47.381,39.659L47.569,39.519L47.757,39.381L47.945,39.245L48.133,39.113L48.32,38.982L48.507,38.855L48.693,38.73L48.879,38.607L49.063,38.487L49.247,38.369L49.43,38.254L49.612,38.142L49.793,38.031L49.973,37.923L50.151,37.818L50.328,37.714L50.504,37.613L50.678,37.514L50.851,37.418L51.021,37.324L51.19,37.231L51.357,37.141L51.522,37.054L51.685,36.968L51.845,36.885L52.004,36.803L52.16,36.724L52.314,36.646L52.613,36.498L52.901,36.357L53.177,36.224L53.441,36.099L53.692,35.981L53.928,35.871L54.354,35.672L54.541,35.583L54.716,35.499L54.817,35.451L54.916,35.408L54.969,35.386L55.02,35.366L55.072,35.346L55.128,35.328L55.19,35.31L55.263,35.293L55.311,35.285L55.397,35.275L55.413,35.274L55.479,35.272L55.544,35.275ZM39.246,78.228L39.253,78.275L39.244,78.17L39.246,78.228ZM39.241,78.073L39.243,78.145L39.248,78.037L39.241,78.073ZM54.931,36.846L54.956,36.863L54.921,36.836L54.931,36.846ZM54.793,36.705L54.829,36.741L54.764,36.655L54.793,36.705ZM54.69,36.53L54.759,36.647L54.704,36.548L54.66,36.436L54.69,36.53Z" style="fill:rgb(33,33,33);"/>
        <path d="M64.059,45.168L64.205,45.173L64.282,45.176L64.358,45.18L64.434,45.185L64.51,45.191L64.587,45.198L64.664,45.206L64.741,45.215L64.819,45.226L64.897,45.238L64.975,45.251L65.053,45.266L65.132,45.283L65.21,45.301L65.289,45.322L65.368,45.344L65.447,45.368L65.526,45.394L65.604,45.423L65.683,45.454L65.761,45.488L65.839,45.525L65.917,45.564L65.994,45.606L66.07,45.652L66.146,45.7L66.22,45.752L66.293,45.808L66.364,45.866L66.434,45.929L66.502,45.994L66.567,46.064L66.63,46.136L66.691,46.212L66.748,46.291L66.784,46.346L66.819,46.403L66.851,46.463L66.88,46.524L66.907,46.587L66.93,46.651L66.95,46.716L66.966,46.781L66.978,46.846L66.987,46.909L66.992,46.969L66.994,47.025L66.994,47.078L66.992,47.131L66.986,47.201L66.985,47.215L66.991,47.248L67,47.347L66.997,47.446L66.983,47.544L66.959,47.64L66.923,47.732L66.878,47.82L66.823,47.903L66.759,47.978L66.688,48.047L66.609,48.106L66.523,48.157L66.433,48.197L66.339,48.227L66.242,48.247L66.143,48.255L66.044,48.253L65.946,48.239L65.85,48.214L65.758,48.179L65.67,48.134L65.587,48.079L65.511,48.015L65.443,47.943L65.384,47.864L65.333,47.779L65.293,47.689L65.276,47.646L65.254,47.577L65.237,47.508L65.224,47.44L65.216,47.375L65.212,47.313L65.21,47.256L65.211,47.204L65.198,47.194L65.18,47.18L65.16,47.166L65.139,47.153L65.117,47.139L65.092,47.126L65.066,47.112L65.038,47.099L65.008,47.086L64.976,47.074L64.942,47.061L64.907,47.049L64.87,47.038L64.831,47.027L64.79,47.017L64.748,47.007L64.704,46.998L64.659,46.989L64.613,46.981L64.565,46.974L64.515,46.967L64.465,46.961L64.413,46.955L64.361,46.95L64.307,46.946L64.253,46.943L64.197,46.94L64.143,46.937L64.026,46.934L63.91,46.933L63.791,46.934L63.672,46.936L63.551,46.94L63.43,46.945L63.309,46.951L63.066,46.964L62.829,46.977L62.71,46.982L62.594,46.987L62.478,46.99L62.37,46.991L62.241,46.991L62.118,46.993L61.995,46.995L61.872,46.997L61.748,47.001L61.625,47.006L61.501,47.011L61.377,47.017L61.253,47.024L61.129,47.031L61.005,47.04L60.881,47.049L60.756,47.059L60.632,47.069L60.507,47.081L60.383,47.093L60.258,47.106L60.134,47.12L60.009,47.134L59.884,47.149L59.76,47.165L59.635,47.182L59.51,47.199L59.385,47.217L59.261,47.236L59.136,47.255L59.012,47.275L58.887,47.296L58.762,47.318L58.638,47.34L58.514,47.363L58.389,47.386L58.265,47.411L58.141,47.435L58.017,47.461L57.893,47.487L57.77,47.514L57.646,47.541L57.523,47.57L57.4,47.598L57.276,47.628L57.155,47.657L56.908,47.719L56.664,47.783L56.42,47.85L56.178,47.919L55.936,47.99L55.695,48.063L55.456,48.139L55.218,48.216L54.981,48.296L54.746,48.378L54.511,48.462L54.329,48.529L54.148,48.596L53.969,48.664L53.791,48.733L53.615,48.803L53.44,48.873L53.267,48.944L53.095,49.017L52.924,49.09L52.756,49.165L52.588,49.241L52.422,49.318L52.258,49.397L52.095,49.477L51.933,49.559L51.773,49.642L51.614,49.727L51.456,49.814L51.3,49.903L51.145,49.994L50.99,50.087L50.915,50.134L50.839,50.181L50.764,50.23L50.688,50.279L50.613,50.328L50.539,50.378L50.464,50.429L50.39,50.48L50.316,50.532L50.242,50.585L50.169,50.638L50.096,50.692L50.023,50.746L49.951,50.801L49.879,50.857L49.807,50.914L49.735,50.971L49.664,51.029L49.593,51.088L49.522,51.147L49.451,51.208L49.381,51.268L49.328,51.315L49.275,51.363L49.223,51.411L49.172,51.459L49.121,51.509L49.07,51.558L49.02,51.609L48.971,51.66L48.921,51.711L48.872,51.763L48.824,51.816L48.776,51.869L48.728,51.923L48.681,51.977L48.634,52.032L48.588,52.087L48.541,52.143L48.497,52.198L48.405,52.314L48.316,52.43L48.228,52.549L48.142,52.669L48.057,52.79L47.973,52.914L47.891,53.039L47.809,53.165L47.729,53.293L47.649,53.423L47.571,53.553L47.494,53.685L47.417,53.818L47.342,53.952L47.267,54.087L47.193,54.222L47.12,54.359L47.048,54.496L46.976,54.634L46.904,54.773L46.834,54.911L46.693,55.19L46.643,55.292L46.593,55.395L46.543,55.5L46.493,55.606L46.444,55.713L46.395,55.821L46.346,55.931L46.298,56.042L46.25,56.153L46.202,56.266L46.156,56.38L46.109,56.495L46.063,56.61L46.018,56.727L45.973,56.844L45.929,56.962L45.885,57.081L45.842,57.201L45.8,57.321L45.758,57.442L45.717,57.564L45.676,57.686L45.637,57.809L45.598,57.932L45.56,58.056L45.522,58.18L45.486,58.304L45.45,58.429L45.415,58.554L45.381,58.679L45.348,58.805L45.316,58.93L45.285,59.056L45.254,59.182L45.225,59.308L45.196,59.433L45.169,59.559L45.143,59.685L45.117,59.811L45.093,59.936L45.07,60.061L45.048,60.186L45.027,60.311L45.007,60.435L44.988,60.559L44.971,60.683L44.955,60.806L44.94,60.928L44.926,61.05L44.913,61.172L44.902,61.292L44.891,61.413L44.883,61.532L44.875,61.651L44.869,61.768L44.864,61.885L44.86,62.001L44.858,62.117L44.857,62.231L44.858,62.344L44.859,62.456L44.863,62.567L44.867,62.676L44.873,62.785L44.886,62.962L44.9,63.137L44.916,63.312L44.935,63.485L44.955,63.657L44.978,63.828L45.003,63.997L45.029,64.165L45.058,64.332L45.088,64.498L45.12,64.663L45.154,64.826L45.19,64.988L45.228,65.148L45.267,65.308L45.308,65.466L45.351,65.623L45.395,65.778L45.441,65.932L45.489,66.085L45.538,66.237L45.588,66.387L45.64,66.536L45.693,66.683L45.748,66.829L45.804,66.974L45.862,67.117L45.92,67.26L45.98,67.4L46.042,67.539L46.104,67.677L46.168,67.814L46.232,67.949L46.298,68.082L46.365,68.214L46.433,68.345L46.502,68.474L46.572,68.602L46.643,68.728L46.714,68.853L46.787,68.976L46.86,69.098L46.935,69.219L47.009,69.337L47.085,69.455L47.161,69.57L47.238,69.684L47.316,69.797L47.394,69.908L47.473,70.018L47.552,70.125L47.632,70.232L47.712,70.336L47.792,70.439L47.873,70.541L47.955,70.64L48.036,70.739L48.118,70.835L48.2,70.93L48.282,71.023L48.364,71.114L48.447,71.204L48.529,71.292L48.611,71.378L48.649,71.417L48.688,71.456L48.728,71.495L48.768,71.533L48.855,71.615L48.945,71.695L49.039,71.777L49.136,71.859L49.237,71.941L49.342,72.024L49.45,72.107L49.561,72.19L49.675,72.272L49.792,72.355L49.912,72.438L50.035,72.521L50.16,72.603L50.287,72.684L50.417,72.766L50.548,72.846L50.681,72.927L50.817,73.006L50.953,73.085L51.091,73.163L51.231,73.24L51.371,73.316L51.513,73.391L51.656,73.465L51.799,73.538L51.943,73.61L52.087,73.681L52.232,73.75L52.377,73.818L52.522,73.885L52.667,73.95L52.811,74.013L52.955,74.076L53.099,74.136L53.242,74.195L53.384,74.252L53.526,74.307L53.666,74.361L53.805,74.412L53.942,74.462L54.078,74.51L54.212,74.555L54.344,74.599L54.474,74.64L54.602,74.68L54.728,74.716L54.851,74.751L54.971,74.783L55.088,74.813L55.203,74.841L55.313,74.866L55.42,74.888L55.524,74.908L55.623,74.926L55.718,74.941L55.808,74.953L55.893,74.962L55.976,74.97L56.011,74.972L56.048,74.974L56.082,74.976L56.115,74.977L56.147,74.977L56.177,74.977L56.205,74.976L56.239,74.975L56.338,74.977L56.436,74.989L56.533,75.013L56.625,75.047L56.714,75.091L56.797,75.145L56.873,75.208L56.942,75.28L57.003,75.358L57.054,75.443L57.096,75.532L57.127,75.626L57.147,75.723L57.157,75.822L57.155,75.921L57.143,76.019L57.119,76.115L57.085,76.208L57.041,76.297L56.987,76.38L56.924,76.456L56.852,76.525L56.774,76.585L56.689,76.637L56.6,76.678L56.506,76.71L56.409,76.73L56.31,76.74L56.259,76.742L56.2,76.743L56.14,76.743L56.08,76.742L56.02,76.741L55.96,76.738L55.899,76.735L55.835,76.73L55.715,76.719L55.59,76.705L55.463,76.688L55.334,76.668L55.204,76.645L55.072,76.619L54.937,76.591L54.801,76.561L54.663,76.527L54.524,76.492L54.382,76.454L54.239,76.413L54.094,76.371L53.948,76.326L53.8,76.279L53.651,76.23L53.501,76.179L53.349,76.126L53.197,76.07L53.043,76.013L52.889,75.954L52.733,75.893L52.577,75.831L52.421,75.766L52.264,75.7L52.106,75.632L51.949,75.563L51.791,75.492L51.633,75.42L51.475,75.346L51.318,75.27L51.161,75.193L51.004,75.115L50.848,75.035L50.692,74.955L50.537,74.872L50.383,74.789L50.231,74.705L50.079,74.619L49.928,74.532L49.779,74.445L49.631,74.356L49.485,74.266L49.34,74.175L49.198,74.083L49.057,73.991L48.918,73.897L48.781,73.803L48.646,73.708L48.514,73.612L48.384,73.515L48.257,73.417L48.132,73.319L48.01,73.219L47.891,73.119L47.775,73.018L47.662,72.916L47.553,72.815L47.498,72.762L47.445,72.71L47.393,72.658L47.342,72.605L47.247,72.506L47.152,72.405L47.058,72.302L46.964,72.198L46.87,72.092L46.777,71.984L46.683,71.874L46.591,71.762L46.498,71.649L46.407,71.534L46.315,71.417L46.224,71.298L46.134,71.178L46.044,71.056L45.955,70.932L45.867,70.806L45.779,70.679L45.692,70.55L45.606,70.42L45.521,70.287L45.436,70.153L45.352,70.017L45.27,69.88L45.188,69.741L45.107,69.6L45.027,69.458L44.948,69.313L44.871,69.168L44.794,69.02L44.719,68.871L44.644,68.721L44.571,68.569L44.5,68.415L44.429,68.259L44.36,68.102L44.292,67.944L44.226,67.783L44.161,67.622L44.098,67.458L44.036,67.293L43.976,67.127L43.917,66.959L43.86,66.79L43.805,66.619L43.752,66.446L43.7,66.272L43.65,66.097L43.602,65.92L43.555,65.741L43.511,65.561L43.468,65.38L43.428,65.197L43.389,65.013L43.353,64.827L43.319,64.64L43.287,64.452L43.257,64.262L43.229,64.071L43.203,63.878L43.18,63.684L43.159,63.489L43.141,63.292L43.125,63.094L43.111,62.895L43.103,62.763L43.098,62.63L43.094,62.496L43.092,62.362L43.091,62.227L43.092,62.092L43.095,61.957L43.099,61.821L43.105,61.684L43.112,61.548L43.121,61.41L43.131,61.273L43.143,61.135L43.156,60.997L43.17,60.859L43.186,60.72L43.203,60.582L43.221,60.443L43.241,60.304L43.262,60.165L43.284,60.025L43.308,59.886L43.332,59.747L43.358,59.608L43.385,59.468L43.413,59.329L43.442,59.19L43.472,59.051L43.504,58.913L43.536,58.774L43.569,58.636L43.604,58.498L43.639,58.36L43.675,58.222L43.713,58.085L43.751,57.949L43.79,57.812L43.83,57.676L43.871,57.541L43.912,57.406L43.955,57.272L43.998,57.138L44.042,57.005L44.087,56.872L44.132,56.74L44.178,56.609L44.225,56.478L44.273,56.348L44.321,56.22L44.37,56.091L44.42,55.964L44.47,55.838L44.521,55.712L44.572,55.588L44.624,55.464L44.677,55.341L44.73,55.22L44.783,55.099L44.837,54.98L44.891,54.862L44.946,54.745L45.002,54.629L45.058,54.514L45.114,54.401L45.259,54.113L45.333,53.967L45.408,53.822L45.484,53.676L45.561,53.53L45.64,53.383L45.719,53.237L45.8,53.091L45.883,52.944L45.967,52.798L46.052,52.652L46.139,52.507L46.228,52.362L46.319,52.218L46.412,52.074L46.506,51.931L46.603,51.788L46.702,51.647L46.803,51.507L46.906,51.367L47.012,51.229L47.119,51.094L47.175,51.025L47.231,50.957L47.287,50.89L47.344,50.824L47.402,50.757L47.46,50.691L47.519,50.626L47.579,50.561L47.639,50.497L47.701,50.433L47.763,50.369L47.825,50.306L47.889,50.244L47.953,50.182L48.018,50.12L48.084,50.059L48.151,49.999L48.218,49.94L48.299,49.869L48.381,49.8L48.462,49.731L48.545,49.663L48.627,49.596L48.71,49.53L48.792,49.465L48.876,49.401L48.959,49.337L49.043,49.274L49.127,49.212L49.211,49.151L49.296,49.091L49.38,49.031L49.465,48.973L49.551,48.914L49.636,48.857L49.722,48.801L49.808,48.745L49.894,48.69L49.981,48.635L50.069,48.581L50.242,48.476L50.417,48.374L50.593,48.273L50.77,48.176L50.948,48.08L51.127,47.987L51.307,47.897L51.487,47.808L51.669,47.721L51.851,47.636L52.034,47.553L52.218,47.472L52.402,47.392L52.588,47.314L52.774,47.238L52.961,47.162L53.149,47.088L53.337,47.015L53.527,46.943L53.717,46.872L53.909,46.802L54.158,46.713L54.409,46.625L54.662,46.54L54.916,46.457L55.172,46.377L55.429,46.298L55.687,46.222L55.947,46.149L56.207,46.078L56.469,46.009L56.73,45.943L56.863,45.911L56.994,45.879L57.126,45.849L57.259,45.819L57.391,45.789L57.524,45.76L57.657,45.732L57.79,45.705L57.923,45.678L58.056,45.652L58.19,45.627L58.323,45.602L58.457,45.578L58.591,45.555L58.725,45.533L58.859,45.511L58.993,45.49L59.128,45.47L59.262,45.451L59.397,45.432L59.532,45.414L59.666,45.397L59.801,45.381L59.936,45.365L60.071,45.35L60.206,45.336L60.341,45.323L60.476,45.311L60.611,45.299L60.746,45.288L60.881,45.278L61.016,45.269L61.151,45.261L61.286,45.253L61.421,45.247L61.556,45.241L61.69,45.236L61.825,45.232L61.96,45.229L62.095,45.227L62.229,45.226L62.358,45.225L62.446,45.224L62.536,45.222L62.635,45.218L62.74,45.213L62.971,45.201L63.219,45.187L63.352,45.181L63.487,45.175L63.626,45.171L63.767,45.168L63.912,45.167L64.059,45.168ZM66.956,47.101L66.955,47.097L66.944,47.064L66.941,47.057L66.956,47.101Z" style="fill:rgb(33,33,33);"/>
        <path d="M25.521,46.457L25.64,46.476L25.755,46.511L25.865,46.561L25.966,46.626L26.058,46.704L26.139,46.794L26.197,46.869L26.254,46.94L26.311,47.011L26.369,47.081L26.428,47.151L26.487,47.22L26.547,47.289L26.608,47.357L26.669,47.425L26.731,47.492L26.793,47.559L26.856,47.626L26.92,47.692L26.984,47.757L27.049,47.822L27.114,47.887L27.18,47.951L27.246,48.014L27.314,48.077L27.381,48.14L27.449,48.203L27.518,48.264L27.588,48.326L27.657,48.387L27.728,48.447L27.799,48.508L27.87,48.567L27.942,48.627L28.015,48.686L28.087,48.743L28.235,48.86L28.385,48.975L28.536,49.087L28.689,49.199L28.844,49.309L29.001,49.417L29.159,49.524L29.319,49.63L29.481,49.734L29.644,49.837L29.809,49.938L29.975,50.038L30.142,50.137L30.311,50.235L30.481,50.332L30.652,50.427L30.824,50.522L30.997,50.615L31.171,50.707L31.347,50.798L31.523,50.888L31.7,50.977L31.877,51.066L32.056,51.153L32.235,51.239L32.414,51.325L32.595,51.41L32.775,51.494L32.956,51.577L33.138,51.66L33.319,51.742L33.684,51.904L34.048,52.064L34.413,52.222L34.777,52.378L35.141,52.534L35.863,52.841L36.221,52.994L36.574,53.146L36.945,53.306L37.316,53.464L37.687,53.621L38.058,53.777L38.431,53.931L38.803,54.085L39.177,54.238L39.551,54.389L39.926,54.539L40.301,54.689L40.678,54.837L41.054,54.984L41.431,55.13L41.809,55.275L42.187,55.418L42.566,55.561L42.946,55.703L43.326,55.843L43.706,55.982L44.087,56.121L44.468,56.258L44.85,56.394L45.233,56.529L45.616,56.662L45.999,56.795L46.383,56.927L46.767,57.057L47.151,57.186L47.536,57.315L47.922,57.442L48.308,57.568L48.694,57.693L49.08,57.817L49.467,57.939L49.854,58.061L50.242,58.181L50.63,58.3L51.018,58.419L51.406,58.536L51.795,58.652L52.184,58.767L52.574,58.88L52.963,58.993L53.353,59.104L53.743,59.215L54.133,59.324L54.524,59.432L54.915,59.539L55.306,59.645L55.697,59.75L56.088,59.853L56.48,59.956L56.871,60.057L57.263,60.157L57.655,60.256L58.047,60.354L58.439,60.451L58.831,60.547L59.223,60.641L59.616,60.735L60.008,60.827L60.401,60.918L60.793,61.008L61.188,61.098L61.603,61.193L62.012,61.288L62.413,61.382L62.806,61.476L63.194,61.568L63.578,61.658L63.958,61.745L64.147,61.787L64.336,61.829L64.524,61.87L64.712,61.91L64.9,61.949L65.089,61.987L65.278,62.023L65.467,62.059L65.657,62.093L65.848,62.127L66.039,62.159L66.232,62.189L66.427,62.218L66.622,62.246L66.82,62.272L67.019,62.297L67.22,62.32L67.428,62.341L67.546,62.362L67.661,62.399L67.77,62.451L67.87,62.517L67.961,62.596L68.04,62.687L68.106,62.788L68.158,62.897L68.194,63.012L68.214,63.131L68.218,63.251L68.205,63.371L68.177,63.488L68.132,63.6L68.073,63.705L68,63.801L67.915,63.886L67.818,63.959L67.713,64.018L67.601,64.062L67.484,64.09L67.364,64.102L67.244,64.098L67.028,64.075L66.81,64.05L66.595,64.024L66.383,63.995L66.172,63.966L65.963,63.934L65.757,63.902L65.551,63.868L65.348,63.832L65.146,63.796L64.945,63.758L64.746,63.719L64.548,63.679L64.35,63.638L64.154,63.597L63.958,63.554L63.763,63.511L63.567,63.467L63.179,63.378L62.789,63.287L62.399,63.194L62.006,63.101L61.609,63.007L61.207,62.913L60.797,62.82L60.401,62.73L60.004,62.639L59.606,62.547L59.209,62.453L58.812,62.359L58.415,62.263L58.018,62.166L57.621,62.068L57.224,61.969L56.828,61.869L56.431,61.767L56.035,61.665L55.638,61.561L55.242,61.456L54.847,61.35L54.451,61.243L54.055,61.135L53.66,61.025L53.265,60.915L52.87,60.803L52.475,60.69L52.081,60.576L51.687,60.461L51.293,60.345L50.899,60.227L50.506,60.109L50.113,59.989L49.72,59.868L49.328,59.746L48.936,59.623L48.544,59.499L48.153,59.374L47.762,59.247L47.371,59.12L46.981,58.991L46.591,58.861L46.201,58.73L45.812,58.598L45.424,58.465L45.035,58.33L44.648,58.195L44.26,58.058L43.874,57.92L43.487,57.781L43.101,57.641L42.716,57.5L42.331,57.358L41.947,57.215L41.563,57.07L41.179,56.924L40.797,56.778L40.414,56.63L40.033,56.481L39.652,56.331L39.271,56.179L38.891,56.027L38.512,55.873L38.133,55.719L37.755,55.563L37.378,55.406L37.001,55.248L36.625,55.089L36.25,54.929L35.876,54.768L35.525,54.617L35.17,54.465L34.448,54.158L34.082,54.002L33.714,53.844L33.343,53.683L32.97,53.519L32.597,53.353L32.409,53.268L32.221,53.183L32.034,53.097L31.846,53.009L31.658,52.921L31.471,52.832L31.284,52.741L31.096,52.65L30.91,52.557L30.723,52.463L30.537,52.367L30.351,52.271L30.166,52.173L29.981,52.073L29.797,51.973L29.614,51.87L29.431,51.767L29.25,51.661L29.069,51.554L28.889,51.445L28.71,51.335L28.532,51.223L28.355,51.109L28.179,50.993L28.005,50.875L27.831,50.755L27.66,50.634L27.489,50.51L27.32,50.384L27.153,50.256L26.988,50.126L26.905,50.06L26.823,49.993L26.742,49.926L26.661,49.858L26.581,49.79L26.501,49.721L26.421,49.652L26.342,49.582L26.263,49.511L26.185,49.44L26.108,49.368L26.031,49.295L25.954,49.222L25.878,49.148L25.803,49.074L25.728,48.999L25.654,48.923L25.58,48.847L25.507,48.77L25.434,48.692L25.363,48.613L25.291,48.534L25.221,48.455L25.15,48.374L25.081,48.293L25.012,48.211L24.944,48.129L24.877,48.045L24.81,47.961L24.746,47.88L24.679,47.78L24.626,47.672L24.588,47.558L24.566,47.439L24.56,47.319L24.57,47.199L24.597,47.081L24.64,46.969L24.698,46.863L24.769,46.766L24.853,46.679L24.948,46.605L25.052,46.545L25.164,46.499L25.281,46.469L25.4,46.455L25.521,46.457Z" style="fill:rgb(33,33,33);"/>
        <path d="M33.239,36.555L33.319,36.569L33.325,36.57L33.417,36.596L33.506,36.632L33.59,36.677L33.669,36.731L33.742,36.793L33.807,36.863L33.864,36.94L33.913,37.022L33.953,37.109L33.983,37.199L34.003,37.293L34.007,37.333L34.047,37.384L34.142,37.511L34.236,37.642L34.327,37.773L34.415,37.906L34.501,38.04L34.584,38.175L34.665,38.311L34.743,38.448L34.818,38.586L34.891,38.725L34.962,38.864L35.03,39.005L35.096,39.146L35.159,39.288L35.22,39.431L35.278,39.575L35.334,39.719L35.388,39.864L35.44,40.009L35.49,40.155L35.537,40.302L35.582,40.449L35.625,40.596L35.666,40.744L35.705,40.893L35.742,41.042L35.777,41.191L35.81,41.34L35.841,41.49L35.87,41.64L35.897,41.791L35.922,41.941L35.946,42.092L35.968,42.243L35.988,42.394L36.006,42.546L36.023,42.697L36.038,42.849L36.051,43L36.063,43.152L36.073,43.304L36.082,43.455L36.089,43.607L36.095,43.759L36.099,43.91L36.102,44.062L36.103,44.213L36.103,44.364L36.102,44.515L36.1,44.666L36.096,44.817L36.091,44.967L36.085,45.117L36.077,45.267L36.069,45.417L36.059,45.566L36.048,45.715L36.036,45.864L36.023,46.012L36.009,46.16L35.994,46.307L35.978,46.454L35.962,46.601L35.944,46.747L35.925,46.892L35.906,47.037L35.885,47.181L35.864,47.325L35.842,47.468L35.819,47.611L35.796,47.753L35.771,47.894L35.746,48.035L35.721,48.175L35.695,48.314L35.668,48.452L35.64,48.59L35.613,48.727L35.584,48.864L35.526,49.132L35.465,49.398L35.403,49.66L35.34,49.918L35.276,50.172L35.21,50.422L35.144,50.667L35.077,50.908L35.009,51.144L34.942,51.374L34.874,51.6L34.806,51.82L34.739,52.034L34.673,52.242L34.607,52.445L34.542,52.641L34.479,52.83L34.416,53.014L34.298,53.358L34.186,53.674L34.084,53.961L34.008,54.172L33.916,54.418L33.864,54.554L33.809,54.696L33.751,54.846L33.688,55.002L33.623,55.165L33.554,55.334L33.481,55.509L33.405,55.69L33.325,55.876L33.242,56.067L33.156,56.262L33.067,56.462L32.974,56.666L32.878,56.874L32.778,57.085L32.676,57.3L32.57,57.517L32.461,57.736L32.349,57.958L32.234,58.181L32.115,58.406L31.994,58.633L31.87,58.86L31.742,59.088L31.612,59.316L31.479,59.543L31.41,59.658L31.342,59.771L31.273,59.885L31.202,59.999L31.132,60.112L31.06,60.225L30.988,60.337L30.915,60.45L30.841,60.562L30.766,60.673L30.691,60.784L30.615,60.895L30.538,61.005L30.461,61.114L30.382,61.223L30.303,61.331L30.223,61.439L30.143,61.545L30.062,61.651L29.98,61.757L29.897,61.861L29.813,61.964L29.729,62.067L29.644,62.169L29.558,62.269L29.471,62.369L29.384,62.467L29.295,62.565L29.206,62.661L29.117,62.756L29.026,62.85L28.934,62.942L28.842,63.033L28.749,63.123L28.655,63.212L28.56,63.298L28.464,63.384L28.367,63.468L28.27,63.55L28.171,63.631L28.072,63.71L27.972,63.788L27.87,63.863L27.768,63.937L27.665,64.009L27.561,64.079L27.455,64.147L27.349,64.213L27.242,64.277L27.134,64.338L27.024,64.398L26.914,64.455L26.802,64.51L26.69,64.562L26.576,64.612L26.461,64.659L26.346,64.704L26.229,64.745L26.111,64.784L25.992,64.821L25.875,64.853L25.812,64.869L25.751,64.884L25.69,64.898L25.629,64.911L25.568,64.923L25.506,64.934L25.444,64.945L25.382,64.955L25.32,64.964L25.258,64.972L25.195,64.979L25.132,64.985L25.07,64.991L25.013,64.995L24.917,64.996L24.822,64.988L24.728,64.969L24.637,64.94L24.55,64.901L24.467,64.854L24.39,64.797L24.319,64.733L24.256,64.661L24.201,64.583L24.155,64.499L24.118,64.411L24.09,64.319L24.073,64.225L24.066,64.13L24.07,64.034L24.084,63.94L24.108,63.847L24.141,63.758L24.185,63.672L24.237,63.592L24.297,63.518L24.366,63.451L24.441,63.392L24.522,63.342L24.608,63.3L24.698,63.268L24.791,63.245L24.886,63.233L24.93,63.23L24.968,63.227L25.006,63.223L25.044,63.219L25.082,63.214L25.119,63.208L25.157,63.202L25.195,63.196L25.233,63.189L25.271,63.181L25.309,63.173L25.347,63.164L25.386,63.155L25.421,63.146L25.5,63.124L25.577,63.101L25.654,63.076L25.731,63.048L25.808,63.018L25.885,62.986L25.963,62.952L26.041,62.916L26.119,62.878L26.197,62.838L26.275,62.795L26.353,62.75L26.432,62.704L26.511,62.655L26.589,62.604L26.668,62.551L26.747,62.496L26.826,62.439L26.904,62.381L26.983,62.32L27.062,62.257L27.14,62.193L27.219,62.127L27.297,62.059L27.375,61.989L27.453,61.917L27.531,61.844L27.609,61.769L27.686,61.693L27.763,61.615L27.84,61.535L27.917,61.454L27.993,61.372L28.069,61.288L28.145,61.203L28.22,61.116L28.295,61.028L28.37,60.939L28.444,60.849L28.518,60.757L28.592,60.665L28.665,60.571L28.737,60.476L28.81,60.381L28.881,60.284L28.952,60.187L29.023,60.088L29.094,59.989L29.163,59.889L29.233,59.788L29.301,59.687L29.37,59.585L29.437,59.482L29.505,59.379L29.571,59.275L29.637,59.171L29.703,59.066L29.768,58.961L29.832,58.856L29.896,58.75L29.958,58.645L30.083,58.431L30.205,58.218L30.325,58.004L30.442,57.791L30.556,57.578L30.667,57.366L30.776,57.155L30.882,56.945L30.985,56.737L31.086,56.531L31.183,56.328L31.277,56.127L31.369,55.93L31.457,55.736L31.542,55.545L31.624,55.359L31.703,55.177L31.779,55L31.852,54.828L31.921,54.661L31.987,54.5L32.049,54.346L32.108,54.197L32.164,54.055L32.216,53.921L32.264,53.794L32.35,53.563L32.422,53.364L32.522,53.085L32.63,52.777L32.746,52.442L32.806,52.266L32.867,52.084L32.929,51.895L32.992,51.701L33.056,51.502L33.12,51.297L33.184,51.087L33.249,50.872L33.313,50.652L33.377,50.428L33.441,50.2L33.504,49.967L33.566,49.731L33.627,49.491L33.687,49.247L33.745,49L33.802,48.75L33.857,48.496L33.883,48.369L33.909,48.241L33.935,48.112L33.96,47.983L33.985,47.853L34.008,47.722L34.032,47.591L34.054,47.46L34.076,47.328L34.097,47.195L34.118,47.062L34.137,46.929L34.156,46.795L34.174,46.661L34.192,46.527L34.208,46.392L34.224,46.258L34.238,46.123L34.252,45.987L34.265,45.852L34.277,45.716L34.287,45.581L34.297,45.445L34.306,45.309L34.314,45.173L34.321,45.037L34.326,44.901L34.331,44.765L34.334,44.629L34.336,44.494L34.338,44.358L34.337,44.222L34.336,44.087L34.334,43.952L34.33,43.817L34.325,43.682L34.318,43.548L34.311,43.414L34.302,43.28L34.291,43.147L34.279,43.013L34.266,42.881L34.252,42.749L34.236,42.617L34.218,42.485L34.199,42.355L34.179,42.224L34.157,42.095L34.134,41.965L34.109,41.837L34.082,41.709L34.054,41.581L34.025,41.455L33.994,41.329L33.961,41.204L33.926,41.079L33.89,40.955L33.852,40.832L33.813,40.71L33.772,40.588L33.729,40.468L33.684,40.348L33.638,40.229L33.59,40.111L33.54,39.993L33.488,39.877L33.434,39.762L33.379,39.647L33.322,39.533L33.262,39.421L33.201,39.309L33.138,39.198L33.073,39.089L33.006,38.98L32.937,38.872L32.866,38.766L32.793,38.66L32.717,38.555L32.639,38.45L32.6,38.4L32.538,38.32L32.495,38.256L32.461,38.197L32.437,38.151L32.414,38.103L32.374,38.018L32.352,37.966L32.331,37.914L32.31,37.858L32.288,37.796L32.266,37.722L32.247,37.637L32.235,37.561L32.232,37.519L32.23,37.47L32.23,37.422L32.23,37.414L32.236,37.338L32.249,37.263L32.25,37.256L32.271,37.176L32.3,37.097L32.335,37.022L32.338,37.018L32.388,36.935L32.447,36.858L32.514,36.788L32.589,36.726L32.592,36.723L32.665,36.675L32.742,36.633L32.822,36.6L32.906,36.574L32.991,36.557L32.996,36.557L33.077,36.549L33.158,36.548L33.239,36.555Z" style="fill:rgb(33,33,33);"/>
    </g>
</svg>
