<?xml version="1.0" encoding="UTF-8" standalone="no"?>
<!DOCTYPE svg PUBLIC "-//W3C//DTD SVG 1.1//EN" "http://www.w3.org/Graphics/SVG/1.1/DTD/svg11.dtd">
<svg width="100%" height="100%" viewBox="0 0 180 180" version="1.1" xmlns="http://www.w3.org/2000/svg" xmlns:xlink="http://www.w3.org/1999/xlink" xml:space="preserve" style="fill-rule:evenodd;clip-rule:evenodd;stroke-linejoin:round;stroke-miterlimit:1.41421;">
    <g transform="matrix(1.03554,0,0,1.03554,-3.19818,-3.96055)">
        <path d="M113.496,107.982C116.821,112.675 118.776,118.406 118.776,124.59C118.776,140.471 105.882,153.365 90,153.365C74.118,153.365 61.224,140.471 61.224,124.59C61.224,120.724 61.988,117.035 63.374,113.666C65.233,114.368 66.687,115.897 67.289,117.803C67.97,117.426 68.753,117.211 69.585,117.211C70.23,117.211 70.846,117.34 71.406,117.573C72.197,114.105 75.303,111.513 79.01,111.513C83.158,111.513 86.554,114.76 86.795,118.848C87.64,118.075 88.765,117.603 90,117.603C91.809,117.603 93.383,118.616 94.186,120.105C94.771,118.442 96.356,117.25 98.218,117.25C99.986,117.25 101.505,118.326 102.154,119.859C103.392,118.475 105.191,117.603 107.192,117.603C107.766,117.603 108.322,117.675 108.854,117.81C108.704,117.168 108.624,116.5 108.624,115.813C108.624,112.38 110.61,109.407 113.496,107.982ZM87.981,106.81C90.325,106.81 92.227,108.712 92.227,111.056C92.227,113.399 90.325,115.302 87.981,115.302C85.638,115.302 83.735,113.399 83.735,111.056C83.735,108.712 85.638,106.81 87.981,106.81ZM104.149,111.513C105.065,111.513 105.808,112.257 105.808,113.172C105.808,114.088 105.065,114.831 104.149,114.831C103.234,114.831 102.49,114.088 102.49,113.172C102.49,112.257 103.234,111.513 104.149,111.513ZM66.083,108.593C66.378,108.331 66.766,108.172 67.192,108.172C68.114,108.172 68.862,108.92 68.862,109.843C68.862,110.765 68.114,111.513 67.192,111.513C66.269,111.513 65.521,110.765 65.521,109.843C65.521,109.669 65.547,109.501 65.597,109.343C65.755,109.09 65.917,108.84 66.083,108.593ZM80.343,97.043C81.124,97.798 81.61,98.857 81.61,100.028C81.61,102.32 79.749,104.18 77.458,104.18C75.523,104.18 73.896,102.855 73.436,101.063C75.547,99.573 77.867,98.36 80.343,97.477L80.343,97.043ZM97.238,97.685C98.61,97.685 99.724,98.799 99.724,100.171C99.724,101.542 98.61,102.656 97.238,102.656C95.867,102.656 94.753,101.542 94.753,100.171C94.753,98.799 95.867,97.685 97.238,97.685ZM86.917,86.659C87.84,86.659 88.588,87.407 88.588,88.329C88.588,89.251 87.84,90 86.917,90C85.995,90 85.247,89.251 85.247,88.329C85.247,87.407 85.995,86.659 86.917,86.659ZM96.655,79.483C97.517,79.483 98.218,80.183 98.218,81.046C98.218,81.908 97.517,82.608 96.655,82.608C95.793,82.608 95.092,81.908 95.092,81.046C95.092,80.183 95.793,79.483 96.655,79.483ZM84.309,69.543C85.689,69.543 86.808,70.662 86.808,72.041C86.808,73.42 85.689,74.54 84.309,74.54C82.93,74.54 81.811,73.42 81.811,72.041C81.811,70.662 82.93,69.543 84.309,69.543Z" style="fill:black;"/>
    </g>
    <g transform="matrix(0.169418,0,0,0.169418,-149.517,-69.3435)">
        <path d="M1482.26,534.862C1494.14,534.862 1503.78,544.504 1503.78,556.38C1503.78,568.182 1494.26,577.777 1482.49,577.897L1482.49,948.522C1561.74,976.788 1618.53,1052.54 1618.53,1141.45C1618.53,1254.46 1526.78,1346.21 1413.77,1346.21C1300.75,1346.21 1209,1254.46 1209,1141.45C1209,1052.54 1265.79,976.788 1345.05,948.522L1345.05,577.897C1333.27,577.777 1323.75,568.182 1323.75,556.38C1323.75,544.504 1333.39,534.862 1345.27,534.862L1482.26,534.862Z" style="fill:none;stroke-width:17.71px;stroke:black;"/>
    </g>
</svg>
