<?xml version="1.0" encoding="UTF-8" standalone="no"?>
<!-- Generator: Adobe Illustrator 16.2.1, SVG Export Plug-In . SVG Version: 6.00 Build 0)  -->

<svg
   xmlns:dc="http://purl.org/dc/elements/1.1/"
   xmlns:cc="http://creativecommons.org/ns#"
   xmlns:rdf="http://www.w3.org/1999/02/22-rdf-syntax-ns#"
   xmlns:svg="http://www.w3.org/2000/svg"
   xmlns="http://www.w3.org/2000/svg"
   xmlns:sodipodi="http://sodipodi.sourceforge.net/DTD/sodipodi-0.dtd"
   xmlns:inkscape="http://www.inkscape.org/namespaces/inkscape"
   version="1.1"
   id="Layer_1"
   x="0px"
   y="0px"
   width="79" 
   height="79"
   viewBox="0 0 79 79"
   xml:space="preserve"
   inkscape:version="0.91 r13725"
   sodipodi:docname="selectAll.svg"><metadata
     id="metadata9"><rdf:RDF><cc:Work
         rdf:about=""><dc:format>image/svg+xml</dc:format><dc:type
           rdf:resource="http://purl.org/dc/dcmitype/StillImage" /><dc:title /></cc:Work></rdf:RDF></metadata><defs
     id="defs7" /><sodipodi:namedview
     pagecolor="#ffffff"
     bordercolor="#666666"
     borderopacity="1"
     objecttolerance="10"
     gridtolerance="10"
     guidetolerance="10"
     inkscape:pageopacity="0"
     inkscape:pageshadow="2"
     inkscape:window-width="640"
     inkscape:window-height="480"
     id="namedview5"
     showgrid="false"
     inkscape:zoom="0.4609375"
     inkscape:cx="256"
     inkscape:cy="169.22034"
     inkscape:window-x="0"
     inkscape:window-y="1"
     inkscape:window-maximized="0"
     inkscape:current-layer="Layer_1" /><path
     d="m 30.01739,36.404276 -3.454678,2.999115 11.105085,9.640679 24.67797,-21.423728 -3.45468,-2.999122 -21.22329,18.316878 -7.650407,-6.533822 z m 29.860575,4.0703 c 0,9.426232 -8.884422,17.138981 -19.742371,17.138981 -10.857949,0 -19.742374,-7.712749 -19.742374,-17.138981 0,-9.426232 8.884305,-17.138981 19.742374,-17.138981 1.850848,0 3.701694,0.21444 5.429626,0.642812 l 3.824611,-3.320782 c -2.837729,-1.071185 -5.922474,-1.606777 -9.254237,-1.606777 -13.572882,0 -24.677967,9.640678 -24.677967,21.423728 0,11.783049 11.105085,21.423728 24.677967,21.423728 13.572884,0 24.677968,-9.640679 24.677968,-21.423728 l -4.935597,0 z"
     id="path3"
     inkscape:connector-curvature="0" /></svg>
