<?xml version="1.0" standalone="no"?>
<!DOCTYPE svg PUBLIC "-//W3C//DTD SVG 1.1//EN" "http://www.w3.org/Graphics/SVG/1.1/DTD/svg11.dtd">
<svg width="100%" height="100%" viewBox="0 0 50 50" version="1.1" xmlns="http://www.w3.org/2000/svg" xmlns:xlink="http://www.w3.org/1999/xlink" xml:space="preserve" style="fill-rule:evenodd;clip-rule:evenodd;stroke-linejoin:round;stroke-miterlimit:1.41421;">
    <g transform="matrix(0.878912,0,0,0.878912,3.0272,3.0272)">
        <path d="M28.67,0.271C26.237,-0.09 23.763,-0.09 21.33,0.271L21.048,5.677C19.147,6.066 17.313,6.733 15.607,7.658L11.916,3.697C9.82,4.985 7.925,6.575 6.293,8.416L9.552,12.738C8.346,14.258 7.37,15.948 6.657,17.753L1.284,17.091C0.506,19.425 0.076,21.861 0.009,24.32L5.284,25.536C5.337,27.476 5.676,29.398 6.29,31.239L1.749,34.186C2.653,36.474 3.89,38.616 5.419,40.543L10.242,38.084C11.529,39.536 13.024,40.79 14.678,41.806L13.093,46.982C15.256,48.154 17.581,49 19.991,49.493L22.104,44.509C24.024,44.794 25.976,44.794 27.896,44.509L30.009,49.493C32.419,49 34.744,48.154 36.907,46.982L35.322,41.806C36.976,40.79 38.471,39.536 39.758,38.084L44.581,40.543C46.11,38.616 47.347,36.474 48.251,34.186L43.71,31.239C44.324,29.398 44.663,27.476 44.716,25.536L49.991,24.32C49.924,21.861 49.494,19.425 48.716,17.091L43.343,17.753C42.63,15.948 41.654,14.258 40.448,12.738L43.707,8.416C42.075,6.575 40.18,4.985 38.084,3.697L34.393,7.658C32.687,6.733 30.853,6.066 28.952,5.677L28.67,0.271ZM25,11.776C32.299,11.776 38.224,17.701 38.224,25C38.224,32.299 32.299,38.224 25,38.224C17.701,38.224 11.776,32.299 11.776,25C11.776,17.701 17.701,11.776 25,11.776Z" style="fill:white;fill-opacity:0.498039;"/>
    </g>
</svg>
