<?xml version="1.0" encoding="UTF-8" standalone="no"?>
<!DOCTYPE svg PUBLIC "-//W3C//DTD SVG 1.1//EN" "http://www.w3.org/Graphics/SVG/1.1/DTD/svg11.dtd">
<svg width="100%" height="100%" viewBox="0 0 180 180" version="1.1" xmlns="http://www.w3.org/2000/svg" xmlns:xlink="http://www.w3.org/1999/xlink" xml:space="preserve" style="fill-rule:evenodd;clip-rule:evenodd;stroke-linejoin:round;stroke-miterlimit:1.41421;">
    <g id="Layer2" transform="matrix(2.76135,0,0,2.76135,-36.3641,-65.4289)">
        <g transform="matrix(2.4704,0,0,2.4704,-45.8682,-170.632)">
            <circle cx="33.9" cy="94.129" r="7.234" style="fill:none;stroke-width:0.44px;stroke:rgb(33,33,33);"/>
        </g>
        <g transform="matrix(0.79015,0,0,0.79015,1.71865,17.4276)">
            <path d="M55.496,35.697L55.538,35.701L55.544,35.702L55.597,35.712L55.602,35.713L55.666,35.735L55.671,35.737L55.745,35.776L55.749,35.779L55.789,35.808L55.825,35.842L55.828,35.845L55.864,35.886L55.894,35.931L55.896,35.934L55.92,35.981L55.939,36.031L55.94,36.035L55.958,36.118L55.96,36.202L55.947,36.286L55.918,36.365L55.876,36.438L55.821,36.502L55.754,36.555L55.68,36.595L55.599,36.62L55.515,36.63L55.476,36.628L55.472,36.629L55.444,36.641L55.412,36.655L55.377,36.671L55.338,36.689L55.295,36.709L55.209,36.751L55.117,36.795L54.924,36.886L54.717,36.983L54.495,37.086L54.261,37.195L54.014,37.312L53.755,37.435L53.622,37.498L53.486,37.564L53.347,37.632L53.205,37.701L53.061,37.772L52.914,37.845L52.766,37.92L52.615,37.997L52.462,38.076L52.306,38.157L52.149,38.239L51.99,38.324L51.829,38.411L51.667,38.499L51.503,38.59L51.337,38.683L51.17,38.778L51.001,38.875L50.831,38.974L50.66,39.075L50.488,39.179L50.401,39.231L50.315,39.284L50.228,39.338L50.141,39.392L50.053,39.447L49.966,39.502L49.878,39.558L49.79,39.614L49.702,39.671L49.614,39.729L49.525,39.787L49.437,39.846L49.348,39.905L49.259,39.965L49.17,40.026L49.081,40.087L48.992,40.148L48.903,40.211L48.814,40.273L48.725,40.337L48.636,40.401L48.546,40.466L48.457,40.531L48.368,40.597L48.278,40.663L48.189,40.73L48.1,40.798L48.011,40.866L47.921,40.935L47.832,41.004L47.743,41.075L47.654,41.145L47.565,41.217L47.477,41.289L47.388,41.361L47.3,41.435L47.211,41.509L47.123,41.583L47.035,41.658L46.947,41.734L46.859,41.811L46.772,41.888L46.684,41.966L46.597,42.044L46.51,42.123L46.424,42.203L46.337,42.283L46.251,42.364L46.165,42.446L46.08,42.529L45.994,42.612L45.909,42.695L45.825,42.78L45.74,42.865L45.656,42.951L45.572,43.037L45.489,43.124L45.406,43.212L45.338,43.284L45.271,43.357L45.205,43.43L45.139,43.502L45.073,43.575L45.008,43.648L44.943,43.722L44.879,43.795L44.815,43.869L44.752,43.942L44.689,44.016L44.627,44.09L44.565,44.164L44.503,44.239L44.442,44.313L44.381,44.388L44.321,44.463L44.261,44.538L44.202,44.613L44.143,44.688L44.084,44.764L44.026,44.839L43.968,44.915L43.91,44.991L43.853,45.067L43.797,45.143L43.74,45.22L43.684,45.296L43.629,45.373L43.574,45.45L43.519,45.527L43.464,45.604L43.41,45.682L43.357,45.759L43.303,45.837L43.25,45.915L43.197,45.993L43.145,46.071L43.093,46.15L43.041,46.228L42.99,46.307L42.938,46.386L42.888,46.465L42.837,46.543L42.737,46.703L42.638,46.862L42.54,47.022L42.443,47.183L42.347,47.344L42.253,47.506L42.159,47.669L42.066,47.832L41.974,47.996L41.883,48.161L41.793,48.326L41.704,48.492L41.616,48.659L41.528,48.826L41.441,48.994L41.354,49.162L41.269,49.331L41.184,49.501L41.099,49.671L41.015,49.842L40.932,50.014L40.849,50.186L40.766,50.359L40.684,50.532L40.602,50.706L40.521,50.881L40.44,51.057L40.359,51.233L40.278,51.409L40.198,51.586L40.118,51.764L40.038,51.942L39.878,52.301L39.718,52.662L39.558,53.026L39.397,53.392L39.236,53.76L39.172,53.908L39.107,54.058L39.043,54.209L38.978,54.361L38.914,54.515L38.85,54.67L38.786,54.827L38.722,54.985L38.659,55.145L38.596,55.307L38.534,55.47L38.472,55.634L38.411,55.8L38.35,55.968L38.29,56.137L38.23,56.309L38.171,56.481L38.113,56.656L38.085,56.744L38.056,56.832L38.028,56.921L38,57.01L37.973,57.1L37.945,57.19L37.918,57.281L37.891,57.372L37.864,57.463L37.838,57.555L37.811,57.648L37.785,57.741L37.76,57.834L37.734,57.928L37.709,58.022L37.685,58.117L37.66,58.212L37.636,58.308L37.612,58.404L37.589,58.501L37.566,58.598L37.543,58.696L37.52,58.794L37.498,58.893L37.476,58.992L37.455,59.092L37.434,59.192L37.413,59.293L37.393,59.394L37.373,59.496L37.354,59.599L37.335,59.701L37.316,59.805L37.298,59.909L37.28,60.013L37.263,60.118L37.246,60.224L37.229,60.33L37.213,60.436L37.197,60.544L37.182,60.651L37.168,60.759L37.153,60.868L37.14,60.978L37.126,61.088L37.114,61.198L37.101,61.309L37.09,61.421L37.078,61.533L37.068,61.646L37.057,61.759L37.048,61.873L37.039,61.988L37.03,62.103L37.022,62.218L37.015,62.335L37.008,62.452L37.001,62.569L36.995,62.687L36.99,62.806L36.986,62.925L36.982,63.045L36.978,63.166L36.975,63.287L36.973,63.409L36.972,63.531L36.971,63.654L36.97,63.778L36.971,63.902L36.972,64.027L36.973,64.152L36.975,64.279L36.978,64.405L36.982,64.533L36.986,64.661L36.991,64.79L36.997,64.919L37.003,65.049L37.01,65.18L37.018,65.311L37.027,65.444L37.036,65.576L37.046,65.71L37.057,65.844L37.068,65.979L37.08,66.114L37.093,66.25L37.107,66.387L37.121,66.524L37.137,66.663L37.153,66.801L37.17,66.941L37.19,67.1L37.21,67.258L37.231,67.416L37.253,67.572L37.276,67.728L37.299,67.883L37.322,68.037L37.346,68.19L37.371,68.342L37.396,68.493L37.422,68.643L37.448,68.793L37.475,68.941L37.502,69.089L37.53,69.236L37.558,69.382L37.586,69.526L37.615,69.67L37.645,69.813L37.675,69.955L37.705,70.096L37.735,70.236L37.766,70.375L37.798,70.513L37.829,70.65L37.861,70.786L37.893,70.921L37.926,71.054L37.959,71.187L37.992,71.319L38.025,71.45L38.059,71.58L38.093,71.708L38.127,71.836L38.162,71.962L38.196,72.087L38.231,72.212L38.266,72.335L38.301,72.457L38.336,72.578L38.371,72.697L38.407,72.816L38.442,72.934L38.478,73.05L38.514,73.165L38.55,73.279L38.586,73.392L38.621,73.503L38.657,73.614L38.693,73.723L38.729,73.831L38.765,73.938L38.801,74.043L38.837,74.148L38.873,74.251L38.909,74.352L38.945,74.453L38.981,74.552L39.016,74.65L39.052,74.747L39.123,74.937L39.193,75.121L39.262,75.3L39.331,75.474L39.398,75.642L39.465,75.805L39.531,75.962L39.595,76.114L39.658,76.26L39.72,76.401L39.78,76.535L39.838,76.664L39.895,76.786L39.95,76.903L40.003,77.014L40.054,77.118L40.103,77.216L40.149,77.308L40.193,77.393L40.235,77.472L40.274,77.545L40.31,77.61L40.343,77.668L40.372,77.72L40.398,77.763L40.409,77.78L40.412,77.782L40.473,77.841L40.522,77.91L40.557,77.987L40.578,78.069L40.579,78.076L40.585,78.133L40.585,78.139L40.583,78.193L40.575,78.247L40.574,78.251L40.551,78.328L40.514,78.401L40.513,78.402L40.464,78.466L40.404,78.521L40.403,78.522L40.351,78.556L40.294,78.584L40.234,78.603L40.233,78.603L40.158,78.615L40.082,78.615L40.08,78.615L40.006,78.602L39.936,78.577L39.932,78.576L39.886,78.552L39.844,78.524L39.839,78.521L39.798,78.486L39.781,78.47L39.756,78.443L39.737,78.42L39.72,78.398L39.704,78.376L39.676,78.336L39.647,78.29L39.615,78.24L39.582,78.184L39.547,78.123L39.509,78.056L39.468,77.982L39.426,77.903L39.381,77.817L39.333,77.725L39.284,77.627L39.232,77.523L39.178,77.413L39.122,77.296L39.065,77.174L39.005,77.046L38.944,76.912L38.882,76.772L38.818,76.626L38.752,76.475L38.686,76.318L38.618,76.155L38.549,75.987L38.479,75.813L38.408,75.634L38.337,75.449L38.265,75.26L38.192,75.065L38.155,74.965L38.119,74.864L38.082,74.762L38.045,74.658L38.008,74.554L37.971,74.448L37.934,74.341L37.897,74.232L37.86,74.122L37.823,74.011L37.786,73.899L37.749,73.786L37.713,73.671L37.676,73.555L37.639,73.438L37.602,73.32L37.566,73.201L37.529,73.08L37.493,72.959L37.456,72.836L37.42,72.712L37.384,72.586L37.348,72.46L37.313,72.333L37.277,72.204L37.242,72.074L37.207,71.943L37.172,71.812L37.138,71.679L37.104,71.544L37.07,71.409L37.036,71.273L37.002,71.136L36.969,70.997L36.937,70.858L36.904,70.717L36.872,70.576L36.84,70.433L36.809,70.29L36.778,70.145L36.747,70L36.717,69.853L36.687,69.706L36.658,69.557L36.629,69.408L36.601,69.257L36.573,69.106L36.546,68.953L36.519,68.8L36.492,68.646L36.466,68.49L36.441,68.334L36.416,68.177L36.392,68.019L36.369,67.861L36.346,67.701L36.323,67.54L36.301,67.379L36.28,67.216L36.26,67.053L36.242,66.909L36.226,66.766L36.21,66.623L36.195,66.481L36.181,66.339L36.167,66.199L36.155,66.058L36.143,65.919L36.132,65.78L36.122,65.642L36.112,65.505L36.103,65.368L36.095,65.232L36.088,65.097L36.081,64.962L36.075,64.828L36.07,64.694L36.066,64.561L36.062,64.429L36.059,64.298L36.057,64.167L36.055,64.036L36.054,63.907L36.054,63.778L36.054,63.649L36.055,63.522L36.057,63.394L36.059,63.268L36.062,63.142L36.065,63.017L36.07,62.892L36.074,62.768L36.08,62.645L36.086,62.522L36.092,62.4L36.1,62.278L36.107,62.157L36.116,62.037L36.125,61.917L36.134,61.798L36.144,61.679L36.155,61.561L36.166,61.444L36.178,61.327L36.19,61.211L36.203,61.095L36.216,60.98L36.23,60.866L36.244,60.752L36.259,60.638L36.274,60.526L36.29,60.414L36.306,60.302L36.323,60.191L36.34,60.08L36.358,59.971L36.376,59.861L36.395,59.752L36.414,59.644L36.433,59.537L36.453,59.429L36.473,59.323L36.494,59.217L36.515,59.111L36.536,59.006L36.558,58.902L36.581,58.798L36.603,58.695L36.626,58.592L36.65,58.49L36.673,58.388L36.697,58.287L36.722,58.186L36.747,58.086L36.772,57.986L36.797,57.887L36.823,57.789L36.849,57.691L36.875,57.593L36.902,57.496L36.929,57.4L36.956,57.303L36.984,57.208L37.011,57.113L37.04,57.018L37.068,56.924L37.096,56.831L37.125,56.738L37.154,56.645L37.183,56.553L37.213,56.461L37.243,56.37L37.303,56.19L37.363,56.011L37.425,55.834L37.487,55.659L37.55,55.485L37.613,55.314L37.677,55.144L37.741,54.976L37.806,54.81L37.871,54.646L37.936,54.483L38.002,54.323L38.067,54.163L38.133,54.006L38.199,53.85L38.265,53.696L38.331,53.543L38.396,53.393L38.558,53.024L38.719,52.657L38.879,52.292L39.04,51.929L39.201,51.568L39.282,51.388L39.363,51.208L39.444,51.029L39.526,50.851L39.607,50.673L39.689,50.495L39.772,50.318L39.855,50.141L39.938,49.965L40.022,49.79L40.107,49.614L40.192,49.44L40.277,49.265L40.363,49.092L40.45,48.919L40.538,48.746L40.626,48.574L40.715,48.402L40.805,48.231L40.896,48.06L40.987,47.89L41.08,47.72L41.173,47.551L41.268,47.382L41.363,47.214L41.46,47.046L41.558,46.879L41.656,46.713L41.756,46.547L41.857,46.381L41.96,46.216L42.063,46.052L42.116,45.97L42.168,45.888L42.221,45.807L42.275,45.725L42.328,45.644L42.383,45.562L42.437,45.481L42.492,45.4L42.547,45.319L42.602,45.239L42.658,45.158L42.714,45.078L42.771,44.997L42.828,44.917L42.885,44.837L42.943,44.758L43.001,44.678L43.06,44.598L43.119,44.519L43.178,44.44L43.238,44.361L43.298,44.282L43.359,44.203L43.42,44.124L43.481,44.046L43.543,43.968L43.606,43.889L43.669,43.811L43.732,43.734L43.796,43.656L43.86,43.578L43.924,43.501L43.99,43.424L44.055,43.347L44.121,43.27L44.188,43.193L44.255,43.116L44.322,43.04L44.39,42.964L44.459,42.887L44.528,42.812L44.597,42.736L44.667,42.66L44.738,42.585L44.825,42.493L44.912,42.402L45,42.311L45.087,42.221L45.176,42.132L45.264,42.044L45.353,41.957L45.442,41.87L45.531,41.784L45.621,41.699L45.711,41.614L45.801,41.53L45.892,41.447L45.982,41.365L46.073,41.283L46.164,41.202L46.255,41.121L46.346,41.042L46.438,40.963L46.53,40.885L46.621,40.807L46.713,40.73L46.805,40.654L46.897,40.578L46.99,40.504L47.082,40.429L47.174,40.356L47.267,40.283L47.359,40.211L47.452,40.139L47.544,40.069L47.637,39.998L47.73,39.929L47.822,39.86L47.915,39.792L48.007,39.724L48.1,39.657L48.192,39.591L48.285,39.525L48.377,39.46L48.469,39.396L48.561,39.332L48.653,39.269L48.745,39.206L48.837,39.144L48.929,39.083L49.02,39.022L49.111,38.962L49.202,38.903L49.293,38.844L49.384,38.786L49.475,38.728L49.565,38.671L49.655,38.614L49.745,38.559L49.835,38.503L49.924,38.449L50.014,38.394L50.191,38.288L50.367,38.184L50.541,38.082L50.715,37.982L50.887,37.884L51.057,37.789L51.226,37.696L51.392,37.605L51.557,37.516L51.721,37.429L51.882,37.344L52.041,37.262L52.197,37.181L52.352,37.103L52.504,37.026L52.653,36.951L52.8,36.879L52.945,36.808L53.086,36.739L53.225,36.672L53.361,36.607L53.623,36.483L53.872,36.366L54.108,36.255L54.329,36.152L54.534,36.056L54.724,35.967L54.812,35.925L54.897,35.883L54.946,35.86L54.994,35.838L55.04,35.817L55.085,35.797L55.128,35.779L55.17,35.763L55.212,35.747L55.254,35.733L55.298,35.721L55.342,35.71L55.372,35.705L55.401,35.701L55.434,35.698L55.472,35.696L55.496,35.697ZM39.669,78.189L39.672,78.21L39.667,78.128L39.669,78.189ZM39.667,78.111L39.667,78.125L39.672,78.088L39.667,78.111ZM55.133,36.445L55.143,36.455L55.104,36.396L55.133,36.445ZM55.08,36.356L55.097,36.384L55.066,36.309L55.08,36.356Z" style="fill:rgb(33,33,33);"/>
        </g>
        <g transform="matrix(0.79015,0,0,0.79015,1.71865,17.4276)">
            <path d="M63.981,45.592L64.051,45.593L64.121,45.595L64.191,45.597L64.262,45.6L64.333,45.604L64.403,45.608L64.474,45.614L64.545,45.62L64.616,45.628L64.687,45.637L64.758,45.646L64.828,45.657L64.899,45.669L64.969,45.683L65.039,45.698L65.108,45.714L65.144,45.723L65.179,45.732L65.213,45.741L65.248,45.751L65.282,45.761L65.317,45.772L65.351,45.783L65.385,45.795L65.419,45.807L65.453,45.82L65.487,45.833L65.52,45.847L65.554,45.861L65.587,45.875L65.62,45.891L65.653,45.906L65.686,45.923L65.718,45.939L65.751,45.957L65.783,45.975L65.815,45.993L65.846,46.013L65.878,46.032L65.909,46.053L65.939,46.074L65.97,46.096L66,46.118L66.03,46.141L66.059,46.165L66.088,46.189L66.116,46.214L66.145,46.24L66.172,46.266L66.2,46.293L66.226,46.321L66.253,46.349L66.278,46.378L66.303,46.408L66.328,46.438L66.352,46.469L66.376,46.501L66.396,46.529L66.433,46.591L66.459,46.657L66.475,46.728L66.48,46.799L66.474,46.871L66.456,46.941L66.428,47.007L66.389,47.068L66.342,47.122L66.287,47.168L66.225,47.205L66.158,47.231L66.088,47.247L66.016,47.252L65.945,47.246L65.875,47.228L65.809,47.2L65.748,47.161L65.694,47.114L65.648,47.059L65.634,47.039L65.622,47.023L65.61,47.008L65.598,46.993L65.586,46.979L65.573,46.965L65.56,46.951L65.547,46.937L65.534,46.924L65.52,46.91L65.506,46.898L65.491,46.885L65.477,46.872L65.461,46.86L65.446,46.848L65.43,46.837L65.414,46.825L65.397,46.814L65.38,46.803L65.363,46.792L65.346,46.781L65.328,46.77L65.309,46.76L65.29,46.75L65.271,46.74L65.252,46.73L65.232,46.721L65.212,46.712L65.191,46.703L65.17,46.694L65.149,46.685L65.127,46.677L65.105,46.668L65.083,46.66L65.06,46.653L65.037,46.645L65.013,46.638L64.99,46.631L64.966,46.624L64.941,46.617L64.916,46.61L64.893,46.605L64.84,46.592L64.788,46.581L64.735,46.571L64.681,46.562L64.626,46.553L64.57,46.546L64.513,46.539L64.455,46.533L64.397,46.527L64.338,46.523L64.278,46.519L64.218,46.516L64.157,46.513L64.096,46.511L64.034,46.51L63.972,46.509L63.91,46.508L63.848,46.509L63.786,46.509L63.723,46.51L63.661,46.512L63.598,46.514L63.536,46.516L63.411,46.521L63.287,46.527L63.164,46.533L63.043,46.54L62.924,46.546L62.807,46.553L62.692,46.558L62.581,46.562L62.525,46.564L62.471,46.565L62.417,46.566L62.366,46.566L62.238,46.567L62.113,46.568L61.987,46.57L61.861,46.573L61.734,46.577L61.608,46.581L61.482,46.587L61.355,46.593L61.229,46.6L61.102,46.608L60.975,46.616L60.848,46.625L60.721,46.636L60.594,46.647L60.467,46.658L60.34,46.671L60.213,46.684L60.086,46.698L59.959,46.712L59.832,46.728L59.705,46.744L59.578,46.761L59.451,46.779L59.324,46.797L59.197,46.816L59.07,46.836L58.943,46.856L58.816,46.878L58.689,46.9L58.562,46.922L58.436,46.945L58.309,46.969L58.183,46.994L58.057,47.019L57.931,47.045L57.805,47.072L57.679,47.099L57.553,47.127L57.427,47.156L57.302,47.185L57.177,47.215L57.052,47.245L56.927,47.276L56.802,47.308L56.678,47.34L56.554,47.373L56.43,47.407L56.306,47.441L56.183,47.476L56.06,47.511L55.937,47.547L55.814,47.583L55.692,47.62L55.57,47.658L55.448,47.696L55.326,47.734L55.205,47.774L55.084,47.813L54.964,47.854L54.844,47.894L54.724,47.936L54.604,47.978L54.485,48.02L54.367,48.063L54.182,48.13L53.999,48.199L53.817,48.268L53.636,48.338L53.547,48.373L53.457,48.408L53.368,48.444L53.28,48.48L53.191,48.516L53.103,48.552L53.016,48.589L52.928,48.626L52.841,48.663L52.754,48.701L52.668,48.739L52.582,48.777L52.496,48.816L52.411,48.855L52.326,48.894L52.241,48.934L52.157,48.974L52.072,49.015L51.989,49.056L51.905,49.097L51.822,49.139L51.739,49.181L51.657,49.223L51.575,49.267L51.493,49.31L51.411,49.354L51.33,49.399L51.249,49.444L51.168,49.489L51.088,49.535L51.008,49.582L50.928,49.629L50.849,49.676L50.77,49.725L50.691,49.773L50.612,49.823L50.534,49.873L50.456,49.923L50.378,49.974L50.301,50.026L50.224,50.079L50.147,50.132L50.071,50.186L49.994,50.24L49.919,50.295L49.843,50.351L49.767,50.407L49.692,50.464L49.617,50.522L49.543,50.581L49.469,50.64L49.395,50.701L49.321,50.762L49.247,50.823L49.174,50.886L49.101,50.949L49.045,50.999L48.989,51.049L48.934,51.1L48.879,51.152L48.825,51.204L48.771,51.257L48.718,51.311L48.665,51.365L48.613,51.419L48.561,51.474L48.51,51.53L48.459,51.586L48.409,51.643L48.359,51.7L48.31,51.757L48.261,51.816L48.213,51.874L48.165,51.933L48.117,51.993L48.07,52.053L48.023,52.114L47.977,52.175L47.931,52.236L47.886,52.298L47.84,52.36L47.796,52.423L47.751,52.486L47.707,52.549L47.664,52.613L47.62,52.677L47.578,52.742L47.535,52.807L47.493,52.872L47.451,52.937L47.409,53.003L47.368,53.069L47.327,53.136L47.286,53.202L47.246,53.269L47.206,53.337L47.166,53.404L47.127,53.472L47.087,53.54L47.049,53.607L46.971,53.745L46.895,53.882L46.82,54.021L46.745,54.16L46.672,54.299L46.599,54.439L46.527,54.579L46.455,54.719L46.384,54.86L46.314,55L46.262,55.105L46.21,55.211L46.159,55.318L46.108,55.427L46.057,55.537L46.007,55.648L45.957,55.76L45.908,55.873L45.859,55.988L45.81,56.103L45.762,56.219L45.715,56.337L45.668,56.455L45.622,56.574L45.576,56.694L45.531,56.815L45.486,56.936L45.442,57.059L45.399,57.182L45.356,57.305L45.314,57.43L45.273,57.554L45.232,57.68L45.192,57.806L45.154,57.932L45.115,58.059L45.078,58.186L45.041,58.313L45.006,58.441L44.971,58.569L44.937,58.698L44.904,58.826L44.872,58.955L44.841,59.084L44.811,59.213L44.782,59.342L44.754,59.47L44.727,59.599L44.701,59.728L44.676,59.857L44.652,59.986L44.629,60.114L44.608,60.242L44.588,60.37L44.568,60.498L44.55,60.625L44.533,60.752L44.518,60.878L44.504,61.004L44.49,61.13L44.479,61.255L44.468,61.379L44.459,61.503L44.451,61.626L44.445,61.749L44.442,61.809L44.439,61.87L44.437,61.93L44.436,61.991L44.434,62.051L44.433,62.111L44.433,62.17L44.432,62.23L44.433,62.289L44.433,62.348L44.434,62.407L44.435,62.465L44.436,62.524L44.438,62.582L44.441,62.64L44.443,62.697L44.446,62.754L44.45,62.811L44.456,62.903L44.462,62.994L44.469,63.084L44.477,63.175L44.485,63.265L44.494,63.354L44.503,63.444L44.513,63.533L44.523,63.622L44.534,63.71L44.546,63.798L44.557,63.886L44.57,63.974L44.583,64.061L44.596,64.148L44.61,64.234L44.625,64.32L44.64,64.406L44.655,64.492L44.671,64.577L44.687,64.662L44.704,64.747L44.721,64.831L44.739,64.915L44.758,64.999L44.776,65.082L44.795,65.165L44.815,65.248L44.835,65.33L44.856,65.412L44.876,65.494L44.898,65.575L44.92,65.656L44.942,65.737L44.964,65.817L44.987,65.897L45.011,65.977L45.035,66.056L45.059,66.135L45.084,66.213L45.109,66.292L45.134,66.37L45.16,66.447L45.186,66.524L45.213,66.601L45.24,66.678L45.267,66.754L45.295,66.83L45.323,66.905L45.351,66.981L45.38,67.055L45.409,67.13L45.439,67.204L45.468,67.278L45.498,67.351L45.529,67.424L45.56,67.497L45.591,67.569L45.622,67.641L45.654,67.712L45.686,67.784L45.718,67.855L45.751,67.925L45.784,67.995L45.817,68.065L45.851,68.134L45.884,68.203L45.918,68.272L45.953,68.34L45.987,68.408L46.022,68.476L46.057,68.543L46.093,68.61L46.128,68.676L46.164,68.742L46.2,68.808L46.237,68.873L46.273,68.938L46.31,69.002L46.347,69.067L46.385,69.13L46.422,69.194L46.46,69.257L46.498,69.319L46.536,69.381L46.574,69.443L46.613,69.505L46.651,69.566L46.69,69.626L46.729,69.687L46.769,69.746L46.808,69.806L46.848,69.865L46.888,69.924L46.927,69.982L46.968,70.04L47.008,70.097L47.048,70.154L47.089,70.211L47.129,70.267L47.17,70.323L47.211,70.378L47.252,70.433L47.293,70.488L47.335,70.542L47.376,70.596L47.418,70.65L47.459,70.702L47.501,70.755L47.542,70.807L47.627,70.91L47.711,71.012L47.795,71.111L47.88,71.209L47.965,71.305L48.05,71.4L48.135,71.493L48.221,71.584L48.306,71.673L48.347,71.715L48.389,71.757L48.433,71.8L48.477,71.842L48.522,71.885L48.568,71.928L48.615,71.971L48.664,72.014L48.713,72.057L48.763,72.1L48.814,72.143L48.865,72.186L48.918,72.229L48.971,72.272L49.026,72.316L49.081,72.359L49.137,72.402L49.194,72.445L49.251,72.488L49.309,72.532L49.368,72.575L49.428,72.618L49.488,72.661L49.549,72.703L49.611,72.746L49.673,72.789L49.736,72.832L49.8,72.874L49.864,72.916L49.928,72.959L49.994,73.001L50.059,73.043L50.126,73.085L50.193,73.126L50.26,73.168L50.328,73.209L50.396,73.251L50.464,73.292L50.533,73.332L50.603,73.373L50.673,73.414L50.743,73.454L50.813,73.494L50.884,73.534L50.956,73.573L51.027,73.612L51.099,73.651L51.171,73.69L51.243,73.729L51.316,73.767L51.388,73.805L51.461,73.843L51.535,73.88L51.607,73.917L51.755,73.991L51.902,74.063L52.05,74.134L52.198,74.203L52.346,74.271L52.494,74.338L52.642,74.403L52.789,74.466L52.936,74.528L53.082,74.588L53.228,74.647L53.373,74.703L53.444,74.731L53.516,74.758L53.587,74.785L53.658,74.811L53.729,74.837L53.799,74.862L53.869,74.887L53.939,74.911L54.008,74.935L54.077,74.958L54.146,74.981L54.213,75.003L54.281,75.025L54.348,75.046L54.414,75.066L54.48,75.086L54.546,75.106L54.61,75.125L54.675,75.143L54.738,75.161L54.801,75.178L54.864,75.194L54.925,75.21L54.986,75.226L55.047,75.24L55.106,75.254L55.165,75.268L55.223,75.281L55.28,75.293L55.337,75.305L55.392,75.316L55.447,75.326L55.501,75.336L55.554,75.345L55.606,75.353L55.657,75.361L55.707,75.368L55.756,75.374L55.804,75.38L55.85,75.385L55.896,75.389L55.941,75.393L55.984,75.396L56.026,75.399L56.067,75.4L56.107,75.401L56.145,75.402L56.182,75.402L56.218,75.401L56.256,75.399L56.328,75.402L56.399,75.416L56.466,75.441L56.529,75.476L56.585,75.52L56.634,75.573L56.674,75.633L56.704,75.698L56.724,75.767L56.733,75.839L56.73,75.911L56.716,75.981L56.691,76.049L56.656,76.112L56.611,76.168L56.559,76.217L56.499,76.257L56.434,76.287L56.364,76.307L56.293,76.315L56.246,76.317L56.194,76.318L56.142,76.319L56.089,76.318L56.035,76.316L55.981,76.314L55.926,76.311L55.87,76.307L55.814,76.302L55.757,76.297L55.7,76.291L55.642,76.284L55.583,76.276L55.524,76.268L55.464,76.259L55.404,76.249L55.342,76.239L55.281,76.227L55.218,76.216L55.155,76.203L55.092,76.19L55.028,76.176L54.963,76.162L54.898,76.147L54.832,76.131L54.766,76.115L54.699,76.098L54.631,76.081L54.563,76.063L54.495,76.044L54.426,76.025L54.357,76.005L54.287,75.985L54.217,75.964L54.146,75.943L54.075,75.921L54.003,75.898L53.931,75.875L53.859,75.851L53.786,75.827L53.713,75.803L53.64,75.777L53.566,75.752L53.492,75.726L53.418,75.699L53.343,75.672L53.268,75.644L53.193,75.616L53.117,75.587L53.041,75.558L52.89,75.499L52.737,75.437L52.584,75.374L52.43,75.31L52.276,75.243L52.121,75.175L51.967,75.106L51.812,75.034L51.657,74.962L51.503,74.888L51.349,74.813L51.196,74.736L51.118,74.697L51.042,74.658L50.966,74.618L50.89,74.579L50.814,74.539L50.738,74.498L50.662,74.458L50.587,74.417L50.512,74.375L50.438,74.334L50.363,74.292L50.289,74.25L50.215,74.208L50.142,74.165L50.069,74.123L49.996,74.08L49.924,74.036L49.852,73.993L49.78,73.949L49.709,73.905L49.638,73.861L49.568,73.817L49.498,73.772L49.429,73.727L49.36,73.682L49.292,73.637L49.224,73.592L49.157,73.546L49.09,73.501L49.024,73.455L48.959,73.409L48.894,73.363L48.83,73.316L48.766,73.27L48.703,73.223L48.641,73.176L48.579,73.129L48.518,73.082L48.458,73.035L48.398,72.988L48.339,72.94L48.281,72.892L48.224,72.844L48.167,72.797L48.111,72.748L48.056,72.7L48.002,72.652L47.949,72.603L47.896,72.555L47.845,72.506L47.794,72.457L47.744,72.408L47.695,72.359L47.647,72.31L47.555,72.214L47.463,72.116L47.372,72.017L47.281,71.915L47.19,71.812L47.099,71.707L47.009,71.601L46.919,71.492L46.829,71.383L46.784,71.327L46.74,71.271L46.695,71.214L46.651,71.157L46.607,71.1L46.563,71.042L46.519,70.984L46.475,70.925L46.431,70.866L46.388,70.806L46.345,70.746L46.301,70.686L46.258,70.625L46.215,70.564L46.173,70.502L46.13,70.44L46.088,70.377L46.046,70.315L46.004,70.251L45.962,70.188L45.92,70.123L45.879,70.059L45.837,69.994L45.796,69.928L45.756,69.863L45.715,69.796L45.675,69.73L45.634,69.663L45.595,69.595L45.555,69.527L45.515,69.459L45.476,69.39L45.437,69.321L45.399,69.252L45.36,69.182L45.322,69.112L45.284,69.041L45.246,68.97L45.209,68.898L45.172,68.827L45.135,68.754L45.098,68.682L45.062,68.609L45.026,68.535L44.991,68.461L44.955,68.387L44.92,68.312L44.885,68.237L44.851,68.162L44.817,68.086L44.783,68.01L44.75,67.933L44.717,67.856L44.684,67.779L44.651,67.701L44.619,67.623L44.588,67.545L44.556,67.466L44.525,67.387L44.495,67.307L44.465,67.227L44.435,67.147L44.405,67.066L44.376,66.985L44.347,66.903L44.319,66.821L44.291,66.739L44.264,66.657L44.237,66.574L44.21,66.49L44.184,66.407L44.158,66.323L44.132,66.238L44.107,66.153L44.083,66.068L44.059,65.983L44.035,65.897L44.012,65.81L43.989,65.724L43.967,65.637L43.945,65.55L43.924,65.462L43.903,65.374L43.882,65.286L43.863,65.197L43.843,65.108L43.824,65.018L43.806,64.929L43.788,64.839L43.77,64.748L43.753,64.657L43.737,64.566L43.721,64.475L43.706,64.383L43.691,64.291L43.677,64.198L43.663,64.105L43.65,64.012L43.637,63.919L43.625,63.825L43.613,63.731L43.602,63.636L43.592,63.541L43.582,63.446L43.572,63.351L43.564,63.255L43.556,63.159L43.548,63.062L43.541,62.966L43.535,62.868L43.531,62.805L43.528,62.742L43.525,62.678L43.522,62.614L43.52,62.55L43.518,62.486L43.517,62.422L43.516,62.358L43.516,62.293L43.516,62.228L43.516,62.163L43.517,62.098L43.518,62.033L43.519,61.967L43.521,61.902L43.523,61.836L43.526,61.77L43.529,61.704L43.536,61.572L43.545,61.44L43.554,61.307L43.566,61.173L43.578,61.039L43.592,60.905L43.608,60.77L43.624,60.635L43.642,60.5L43.661,60.365L43.682,60.23L43.703,60.094L43.726,59.958L43.75,59.822L43.775,59.687L43.802,59.551L43.829,59.415L43.857,59.279L43.887,59.143L43.918,59.008L43.949,58.872L43.982,58.737L44.015,58.602L44.05,58.467L44.086,58.332L44.122,58.198L44.159,58.064L44.198,57.931L44.237,57.797L44.277,57.665L44.317,57.532L44.359,57.401L44.401,57.27L44.445,57.139L44.488,57.009L44.533,56.88L44.578,56.751L44.624,56.623L44.671,56.496L44.718,56.37L44.766,56.244L44.815,56.119L44.864,55.996L44.914,55.873L44.964,55.751L45.015,55.63L45.066,55.51L45.118,55.391L45.171,55.273L45.223,55.156L45.277,55.041L45.33,54.926L45.384,54.813L45.439,54.701L45.493,54.591L45.565,54.448L45.638,54.304L45.711,54.161L45.785,54.017L45.86,53.873L45.936,53.729L46.013,53.585L46.092,53.441L46.171,53.298L46.252,53.155L46.293,53.083L46.334,53.012L46.375,52.94L46.417,52.869L46.46,52.798L46.502,52.727L46.546,52.656L46.589,52.586L46.633,52.516L46.677,52.445L46.722,52.376L46.767,52.306L46.813,52.236L46.859,52.167L46.905,52.098L46.952,52.029L47,51.961L47.048,51.893L47.096,51.825L47.145,51.757L47.195,51.69L47.245,51.623L47.296,51.556L47.347,51.49L47.398,51.424L47.451,51.359L47.503,51.294L47.557,51.229L47.611,51.165L47.665,51.101L47.721,51.038L47.776,50.975L47.833,50.912L47.89,50.85L47.948,50.789L48.006,50.728L48.065,50.667L48.125,50.607L48.185,50.548L48.246,50.489L48.308,50.431L48.37,50.373L48.434,50.316L48.497,50.259L48.576,50.191L48.655,50.124L48.734,50.057L48.814,49.992L48.893,49.927L48.973,49.863L49.054,49.8L49.134,49.737L49.215,49.676L49.296,49.615L49.377,49.555L49.459,49.496L49.541,49.437L49.623,49.38L49.706,49.323L49.788,49.266L49.871,49.211L49.954,49.156L50.038,49.102L50.122,49.048L50.206,48.996L50.29,48.943L50.374,48.892L50.459,48.841L50.544,48.791L50.63,48.741L50.715,48.692L50.801,48.644L50.887,48.596L50.973,48.549L51.06,48.502L51.147,48.456L51.234,48.41L51.321,48.365L51.408,48.321L51.496,48.277L51.584,48.233L51.673,48.19L51.761,48.147L51.85,48.105L51.939,48.063L52.028,48.022L52.118,47.981L52.207,47.941L52.297,47.901L52.388,47.861L52.478,47.822L52.569,47.783L52.66,47.744L52.751,47.706L52.842,47.668L52.934,47.631L53.026,47.594L53.118,47.557L53.211,47.52L53.304,47.483L53.489,47.412L53.676,47.341L53.864,47.271L54.053,47.201L54.176,47.157L54.299,47.113L54.423,47.07L54.547,47.027L54.671,46.985L54.796,46.943L54.921,46.902L55.046,46.862L55.172,46.822L55.298,46.782L55.424,46.743L55.551,46.705L55.678,46.667L55.805,46.63L55.933,46.594L56.06,46.558L56.189,46.523L56.317,46.488L56.445,46.454L56.574,46.42L56.703,46.387L56.833,46.355L56.962,46.324L57.092,46.293L57.222,46.262L57.352,46.233L57.482,46.204L57.613,46.176L57.743,46.148L57.874,46.121L58.005,46.095L58.136,46.069L58.268,46.044L58.399,46.02L58.531,45.997L58.662,45.974L58.794,45.952L58.926,45.931L59.058,45.91L59.19,45.89L59.322,45.871L59.454,45.853L59.586,45.835L59.719,45.818L59.851,45.802L59.983,45.787L60.116,45.772L60.248,45.759L60.381,45.746L60.513,45.733L60.646,45.722L60.778,45.712L60.911,45.702L61.043,45.693L61.175,45.685L61.308,45.677L61.44,45.671L61.572,45.665L61.704,45.661L61.836,45.657L61.968,45.654L62.1,45.651L62.232,45.65L62.362,45.65L62.408,45.649L62.453,45.649L62.501,45.648L62.549,45.646L62.653,45.642L62.761,45.637L62.875,45.631L62.993,45.625L63.115,45.618L63.241,45.611L63.37,45.605L63.502,45.6L63.569,45.597L63.637,45.596L63.705,45.594L63.773,45.593L63.842,45.592L63.911,45.592L63.981,45.592Z" style="fill:rgb(33,33,33);"/>
        </g>
        <g transform="matrix(0.79015,0,0,0.79015,1.71865,17.4276)">
            <path d="M25.52,46.885L25.601,46.907L25.678,46.943L25.746,46.993L25.804,47.055L25.864,47.132L25.923,47.206L25.983,47.28L26.043,47.353L26.104,47.426L26.166,47.498L26.228,47.569L26.291,47.64L26.355,47.711L26.419,47.781L26.484,47.85L26.549,47.919L26.615,47.988L26.682,48.056L26.749,48.123L26.817,48.19L26.885,48.256L26.954,48.322L27.024,48.388L27.094,48.453L27.164,48.517L27.235,48.581L27.307,48.645L27.379,48.708L27.452,48.77L27.525,48.832L27.599,48.894L27.673,48.955L27.748,49.016L27.823,49.076L27.899,49.136L27.975,49.196L28.052,49.255L28.129,49.313L28.206,49.372L28.284,49.429L28.363,49.487L28.442,49.544L28.521,49.6L28.601,49.656L28.681,49.712L28.761,49.768L28.842,49.823L28.924,49.877L29.005,49.931L29.087,49.985L29.17,50.039L29.253,50.092L29.336,50.144L29.419,50.197L29.503,50.249L29.588,50.301L29.672,50.352L29.757,50.403L29.842,50.453L29.928,50.504L30.013,50.554L30.099,50.603L30.186,50.653L30.272,50.702L30.359,50.75L30.446,50.799L30.534,50.847L30.621,50.895L30.709,50.942L30.797,50.989L30.886,51.036L30.974,51.083L31.152,51.175L31.33,51.267L31.51,51.357L31.69,51.447L31.87,51.535L32.051,51.622L32.233,51.709L32.415,51.795L32.597,51.879L32.78,51.963L32.962,52.047L33.146,52.129L33.329,52.211L33.512,52.293L33.695,52.373L33.879,52.453L34.062,52.533L34.245,52.612L34.61,52.769L34.974,52.924L35.696,53.232L36.053,53.384L36.407,53.536L36.778,53.696L37.15,53.855L37.522,54.012L37.895,54.169L38.268,54.324L38.642,54.478L39.017,54.631L39.393,54.783L39.769,54.934L40.145,55.083L40.522,55.232L40.9,55.38L41.279,55.526L41.658,55.671L42.037,55.816L42.417,55.959L42.798,56.101L43.179,56.242L43.561,56.381L43.943,56.52L44.325,56.657L44.708,56.794L45.092,56.929L45.476,57.063L45.861,57.197L46.245,57.329L46.631,57.459L47.017,57.589L47.403,57.718L47.789,57.845L48.176,57.972L48.564,58.097L48.951,58.221L49.339,58.344L49.728,58.466L50.116,58.587L50.505,58.707L50.895,58.825L51.285,58.943L51.674,59.059L52.065,59.174L52.455,59.288L52.846,59.401L53.237,59.513L53.628,59.623L54.02,59.733L54.411,59.841L54.803,59.949L55.195,60.055L55.588,60.16L55.98,60.264L56.373,60.367L56.765,60.468L57.158,60.569L57.551,60.668L57.944,60.766L58.338,60.864L58.731,60.96L59.125,61.054L59.518,61.148L59.912,61.241L60.305,61.332L60.699,61.422L61.093,61.512L61.302,61.559L61.508,61.606L61.713,61.654L61.915,61.701L62.315,61.796L62.708,61.889L63.097,61.981L63.29,62.026L63.482,62.071L63.673,62.116L63.864,62.159L64.055,62.202L64.245,62.244L64.435,62.285L64.625,62.325L64.816,62.365L65.006,62.403L65.198,62.44L65.39,62.477L65.486,62.494L65.583,62.512L65.679,62.529L65.776,62.545L65.874,62.562L65.971,62.578L66.069,62.593L66.168,62.609L66.266,62.624L66.365,62.638L66.465,62.653L66.565,62.667L66.665,62.68L66.766,62.693L66.867,62.706L66.969,62.718L67.071,62.73L67.174,62.742L67.277,62.753L67.382,62.764L67.465,62.78L67.544,62.811L67.615,62.856L67.677,62.914L67.728,62.982L67.765,63.058L67.787,63.14L67.794,63.224L67.785,63.308L67.761,63.389L67.723,63.465L67.671,63.532L67.608,63.588L67.536,63.632L67.457,63.662L67.373,63.676L67.289,63.675L67.182,63.664L67.074,63.653L66.967,63.641L66.861,63.629L66.755,63.616L66.649,63.602L66.545,63.589L66.44,63.575L66.336,63.56L66.233,63.545L66.13,63.53L66.028,63.515L65.926,63.499L65.825,63.483L65.723,63.466L65.623,63.449L65.522,63.432L65.422,63.414L65.323,63.396L65.223,63.378L65.025,63.341L64.828,63.302L64.632,63.263L64.437,63.223L64.243,63.181L64.049,63.139L63.855,63.097L63.662,63.053L63.468,63.009L63.275,62.964L63.081,62.919L62.887,62.873L62.497,62.781L62.103,62.687L61.705,62.593L61.505,62.546L61.302,62.499L61.098,62.453L60.891,62.406L60.495,62.316L60.099,62.225L59.703,62.133L59.307,62.04L58.911,61.946L58.515,61.85L58.119,61.754L57.723,61.656L57.328,61.557L56.932,61.457L56.537,61.356L56.142,61.254L55.747,61.15L55.352,61.046L54.957,60.94L54.562,60.833L54.168,60.725L53.774,60.616L53.38,60.506L52.986,60.394L52.593,60.282L52.199,60.168L51.806,60.054L51.414,59.938L51.021,59.821L50.629,59.702L50.237,59.583L49.846,59.463L49.454,59.341L49.064,59.218L48.673,59.094L48.283,58.969L47.893,58.843L47.503,58.716L47.114,58.588L46.726,58.458L46.337,58.328L45.949,58.196L45.562,58.063L45.175,57.929L44.788,57.794L44.402,57.658L44.017,57.521L43.631,57.382L43.247,57.242L42.862,57.102L42.479,56.96L42.096,56.817L41.713,56.673L41.331,56.528L40.949,56.381L40.568,56.234L40.188,56.085L39.808,55.936L39.429,55.785L39.05,55.633L38.672,55.48L38.294,55.326L37.918,55.171L37.541,55.014L37.166,54.857L36.791,54.698L36.417,54.539L36.044,54.378L35.692,54.227L35.337,54.075L34.615,53.767L34.249,53.612L33.882,53.454L33.697,53.374L33.512,53.294L33.327,53.213L33.142,53.131L32.956,53.049L32.77,52.966L32.584,52.882L32.398,52.797L32.212,52.711L32.026,52.625L31.84,52.537L31.655,52.449L31.469,52.359L31.284,52.269L31.1,52.177L30.915,52.084L30.732,51.99L30.549,51.895L30.457,51.847L30.366,51.798L30.275,51.749L30.184,51.7L30.093,51.651L30.003,51.601L29.913,51.551L29.822,51.5L29.733,51.45L29.643,51.398L29.553,51.347L29.464,51.295L29.375,51.242L29.287,51.19L29.198,51.136L29.11,51.083L29.022,51.029L28.934,50.975L28.847,50.92L28.76,50.865L28.673,50.809L28.587,50.753L28.501,50.697L28.415,50.64L28.329,50.582L28.244,50.524L28.159,50.466L28.075,50.407L27.991,50.348L27.907,50.289L27.824,50.228L27.741,50.168L27.658,50.107L27.576,50.045L27.495,49.983L27.413,49.92L27.332,49.857L27.252,49.793L27.172,49.729L27.092,49.665L27.013,49.599L26.935,49.533L26.856,49.467L26.779,49.4L26.702,49.333L26.625,49.265L26.549,49.196L26.473,49.127L26.398,49.057L26.323,48.987L26.249,48.916L26.175,48.845L26.102,48.773L26.03,48.7L25.958,48.627L25.887,48.553L25.816,48.479L25.746,48.403L25.677,48.328L25.608,48.251L25.54,48.174L25.472,48.097L25.405,48.018L25.339,47.939L25.273,47.86L25.208,47.78L25.144,47.699L25.081,47.619L25.036,47.548L25.004,47.469L24.987,47.386L24.986,47.302L25,47.218L25.029,47.139L25.073,47.066L25.129,47.003L25.195,46.951L25.27,46.912L25.351,46.888L25.435,46.879L25.52,46.885Z" style="fill:rgb(33,33,33);"/>
        </g>
        <g transform="matrix(0.79015,0,0,0.79015,1.71865,17.4276)">
            <path d="M33.149,36.972L33.191,36.977L33.194,36.977L33.259,36.991L33.262,36.992L33.326,37.017L33.385,37.05L33.439,37.092L33.487,37.142L33.526,37.198L33.556,37.26L33.577,37.325L33.588,37.393L33.589,37.446L33.601,37.475L33.612,37.5L33.623,37.523L33.632,37.542L33.661,37.578L33.707,37.639L33.754,37.701L33.799,37.762L33.844,37.824L33.889,37.887L33.932,37.949L33.975,38.012L34.018,38.075L34.06,38.138L34.101,38.202L34.141,38.266L34.181,38.33L34.221,38.395L34.259,38.459L34.298,38.524L34.335,38.59L34.372,38.655L34.408,38.721L34.444,38.787L34.479,38.853L34.514,38.919L34.548,38.986L34.581,39.052L34.614,39.12L34.646,39.187L34.678,39.254L34.709,39.322L34.739,39.39L34.769,39.458L34.799,39.526L34.828,39.594L34.856,39.663L34.884,39.732L34.911,39.801L34.938,39.87L34.964,39.939L34.989,40.009L35.014,40.079L35.039,40.148L35.063,40.218L35.086,40.288L35.109,40.359L35.132,40.429L35.154,40.5L35.175,40.571L35.196,40.641L35.217,40.712L35.237,40.784L35.256,40.855L35.275,40.926L35.293,40.998L35.311,41.069L35.329,41.141L35.346,41.213L35.363,41.285L35.379,41.357L35.394,41.429L35.409,41.501L35.424,41.574L35.438,41.646L35.452,41.718L35.466,41.791L35.479,41.864L35.491,41.937L35.503,42.009L35.515,42.082L35.526,42.155L35.537,42.228L35.547,42.301L35.557,42.375L35.566,42.448L35.575,42.521L35.584,42.595L35.592,42.668L35.6,42.741L35.608,42.815L35.615,42.888L35.622,42.962L35.628,43.036L35.634,43.109L35.639,43.183L35.644,43.257L35.649,43.33L35.654,43.404L35.658,43.478L35.661,43.551L35.665,43.625L35.668,43.699L35.67,43.773L35.674,43.92L35.677,44.068L35.679,44.215L35.679,44.363L35.678,44.51L35.675,44.657L35.672,44.804L35.667,44.951L35.661,45.098L35.653,45.244L35.645,45.391L35.635,45.537L35.625,45.683L35.613,45.828L35.601,45.973L35.587,46.118L35.572,46.263L35.556,46.407L35.54,46.551L35.522,46.694L35.504,46.837L35.485,46.979L35.465,47.121L35.444,47.262L35.422,47.403L35.4,47.543L35.377,47.682L35.353,47.821L35.329,47.96L35.303,48.097L35.278,48.234L35.251,48.371L35.224,48.506L35.197,48.641L35.169,48.775L35.14,48.908L35.111,49.04L35.082,49.172L35.052,49.302L35.021,49.432L34.991,49.561L34.959,49.689L34.928,49.816L34.896,49.941L34.864,50.066L34.832,50.19L34.8,50.313L34.767,50.434L34.734,50.555L34.701,50.674L34.668,50.793L34.635,50.91L34.601,51.026L34.568,51.14L34.534,51.254L34.501,51.366L34.467,51.477L34.401,51.694L34.334,51.906L34.269,52.112L34.204,52.313L34.139,52.507L34.076,52.695L34.015,52.876L33.955,53.051L33.897,53.219L33.84,53.379L33.786,53.533L33.685,53.817L33.649,53.917L33.609,54.026L33.566,54.143L33.519,54.268L33.468,54.401L33.414,54.542L33.356,54.69L33.294,54.844L33.229,55.005L33.161,55.172L33.089,55.345L33.014,55.524L32.935,55.708L32.853,55.897L32.768,56.09L32.68,56.288L32.588,56.489L32.541,56.591L32.493,56.695L32.444,56.798L32.395,56.903L32.344,57.009L32.293,57.115L32.242,57.222L32.189,57.329L32.136,57.437L32.081,57.546L32.026,57.655L31.971,57.765L31.914,57.875L31.857,57.985L31.799,58.096L31.74,58.207L31.681,58.319L31.621,58.43L31.56,58.542L31.498,58.654L31.436,58.766L31.373,58.878L31.309,58.991L31.244,59.103L31.179,59.215L31.113,59.327L31.046,59.439L30.979,59.551L30.911,59.663L30.842,59.774L30.772,59.886L30.702,59.996L30.631,60.107L30.559,60.217L30.487,60.327L30.414,60.436L30.34,60.545L30.266,60.653L30.191,60.761L30.115,60.868L30.038,60.974L29.961,61.079L29.883,61.184L29.805,61.288L29.726,61.392L29.646,61.494L29.565,61.596L29.484,61.696L29.402,61.796L29.32,61.894L29.236,61.992L29.152,62.088L29.068,62.184L28.982,62.278L28.896,62.371L28.81,62.462L28.723,62.552L28.678,62.597L28.634,62.642L28.59,62.686L28.545,62.729L28.501,62.773L28.456,62.816L28.411,62.858L28.366,62.9L28.321,62.942L28.275,62.984L28.229,63.025L28.183,63.065L28.137,63.106L28.091,63.145L28.045,63.185L27.998,63.224L27.952,63.263L27.905,63.301L27.857,63.339L27.81,63.376L27.763,63.413L27.715,63.449L27.667,63.485L27.619,63.521L27.571,63.556L27.523,63.591L27.474,63.625L27.425,63.658L27.376,63.691L27.327,63.724L27.278,63.756L27.228,63.788L27.179,63.819L27.129,63.85L27.079,63.88L27.028,63.91L26.978,63.939L26.927,63.967L26.876,63.995L26.825,64.023L26.774,64.049L26.723,64.076L26.671,64.101L26.619,64.126L26.567,64.151L26.515,64.175L26.463,64.198L26.41,64.221L26.357,64.243L26.304,64.264L26.251,64.285L26.198,64.305L26.144,64.325L26.09,64.344L26.036,64.362L25.982,64.38L25.928,64.396L25.874,64.413L25.819,64.428L25.764,64.443L25.709,64.457L25.654,64.47L25.599,64.483L25.543,64.495L25.487,64.506L25.431,64.516L25.375,64.526L25.319,64.535L25.263,64.543L25.206,64.55L25.15,64.557L25.093,64.562L25.036,64.567L24.982,64.571L24.914,64.571L24.846,64.561L24.781,64.54L24.719,64.51L24.662,64.472L24.612,64.425L24.57,64.371L24.536,64.312L24.511,64.248L24.496,64.181L24.491,64.113L24.496,64.045L24.512,63.978L24.537,63.914L24.571,63.855L24.614,63.801L24.664,63.755L24.721,63.717L24.783,63.687L24.848,63.667L24.916,63.657L24.963,63.654L25.007,63.65L25.051,63.645L25.095,63.64L25.139,63.635L25.183,63.628L25.226,63.621L25.27,63.614L25.314,63.606L25.357,63.597L25.401,63.588L25.444,63.578L25.488,63.567L25.532,63.556L25.575,63.545L25.618,63.532L25.662,63.519L25.705,63.506L25.749,63.492L25.792,63.477L25.835,63.462L25.878,63.446L25.922,63.43L25.965,63.413L26.008,63.395L26.051,63.377L26.094,63.359L26.138,63.339L26.181,63.32L26.224,63.299L26.267,63.279L26.31,63.257L26.353,63.235L26.396,63.213L26.439,63.19L26.481,63.166L26.524,63.142L26.567,63.117L26.61,63.092L26.653,63.067L26.695,63.04L26.738,63.014L26.78,62.986L26.823,62.959L26.865,62.93L26.908,62.902L26.95,62.872L26.992,62.843L27.035,62.813L27.077,62.782L27.119,62.751L27.161,62.719L27.203,62.687L27.245,62.654L27.287,62.621L27.329,62.588L27.37,62.554L27.412,62.519L27.453,62.485L27.495,62.449L27.536,62.414L27.578,62.377L27.619,62.341L27.66,62.304L27.701,62.266L27.742,62.229L27.783,62.19L27.824,62.152L27.865,62.113L27.905,62.073L27.946,62.033L27.986,61.993L28.027,61.953L28.067,61.912L28.147,61.829L28.227,61.744L28.306,61.659L28.385,61.571L28.464,61.483L28.542,61.393L28.62,61.302L28.697,61.21L28.774,61.117L28.85,61.023L28.925,60.927L29.001,60.831L29.075,60.734L29.15,60.635L29.223,60.536L29.296,60.436L29.369,60.335L29.441,60.233L29.512,60.131L29.583,60.028L29.654,59.924L29.723,59.82L29.793,59.715L29.861,59.609L29.929,59.504L29.997,59.397L30.063,59.29L30.129,59.183L30.195,59.076L30.26,58.968L30.324,58.86L30.388,58.752L30.451,58.644L30.513,58.536L30.575,58.427L30.636,58.319L30.696,58.21L30.756,58.102L30.815,57.993L30.873,57.885L30.931,57.777L30.988,57.67L31.044,57.562L31.099,57.455L31.154,57.348L31.208,57.241L31.262,57.135L31.314,57.03L31.366,56.925L31.418,56.82L31.468,56.716L31.518,56.613L31.567,56.51L31.615,56.408L31.662,56.307L31.709,56.207L31.755,56.107L31.844,55.91L31.93,55.718L32.014,55.529L32.093,55.345L32.17,55.166L32.243,54.992L32.313,54.823L32.38,54.66L32.443,54.503L32.503,54.353L32.559,54.209L32.612,54.073L32.661,53.944L32.707,53.823L32.749,53.709L32.787,53.604L32.822,53.508L32.922,53.227L32.976,53.075L33.031,52.917L33.088,52.752L33.147,52.58L33.208,52.402L33.27,52.218L33.332,52.027L33.396,51.831L33.46,51.63L33.525,51.422L33.591,51.21L33.623,51.102L33.656,50.993L33.688,50.882L33.721,50.77L33.753,50.658L33.786,50.544L33.818,50.428L33.85,50.312L33.882,50.195L33.914,50.077L33.946,49.957L33.977,49.837L34.008,49.716L34.039,49.593L34.069,49.47L34.099,49.346L34.129,49.221L34.159,49.096L34.188,48.969L34.216,48.842L34.244,48.714L34.272,48.585L34.299,48.455L34.326,48.325L34.352,48.194L34.377,48.062L34.402,47.93L34.426,47.797L34.45,47.664L34.473,47.53L34.495,47.396L34.517,47.261L34.538,47.125L34.558,46.99L34.577,46.853L34.595,46.717L34.613,46.58L34.63,46.443L34.646,46.305L34.66,46.167L34.675,46.029L34.688,45.89L34.7,45.752L34.711,45.613L34.721,45.474L34.73,45.335L34.738,45.196L34.745,45.056L34.751,44.917L34.755,44.778L34.759,44.638L34.761,44.499L34.762,44.359L34.762,44.22L34.761,44.081L34.758,43.942L34.754,43.802L34.752,43.734L34.749,43.664L34.746,43.595L34.742,43.526L34.738,43.456L34.734,43.387L34.73,43.318L34.725,43.249L34.72,43.18L34.714,43.111L34.708,43.043L34.702,42.974L34.696,42.905L34.689,42.837L34.681,42.768L34.674,42.7L34.665,42.631L34.657,42.563L34.648,42.495L34.639,42.427L34.629,42.359L34.619,42.292L34.609,42.224L34.598,42.156L34.587,42.089L34.576,42.022L34.564,41.954L34.551,41.887L34.538,41.82L34.525,41.753L34.512,41.687L34.498,41.62L34.483,41.554L34.469,41.488L34.453,41.421L34.438,41.355L34.422,41.29L34.405,41.224L34.388,41.158L34.371,41.093L34.353,41.028L34.335,40.963L34.316,40.898L34.297,40.833L34.278,40.769L34.258,40.705L34.237,40.64L34.216,40.576L34.195,40.513L34.173,40.449L34.151,40.386L34.128,40.322L34.105,40.259L34.081,40.197L34.057,40.134L34.032,40.071L34.007,40.009L33.982,39.947L33.956,39.885L33.929,39.824L33.902,39.762L33.875,39.701L33.847,39.64L33.818,39.58L33.789,39.519L33.76,39.459L33.73,39.399L33.699,39.339L33.668,39.279L33.636,39.22L33.604,39.161L33.572,39.102L33.539,39.043L33.505,38.985L33.471,38.927L33.436,38.869L33.401,38.811L33.365,38.754L33.329,38.697L33.292,38.64L33.255,38.583L33.217,38.527L33.179,38.471L33.14,38.415L33.1,38.359L33.06,38.304L33.019,38.249L32.978,38.194L32.936,38.14L32.887,38.077L32.87,38.054L32.853,38.027L32.834,37.993L32.816,37.958L32.798,37.922L32.78,37.884L32.762,37.844L32.744,37.802L32.726,37.759L32.709,37.714L32.694,37.669L32.685,37.642L32.678,37.615L32.67,37.586L32.664,37.553L32.658,37.513L32.656,37.487L32.655,37.436L32.655,37.429L32.66,37.374L32.661,37.37L32.671,37.321L32.672,37.318L32.693,37.257L32.694,37.255L32.712,37.218L32.733,37.182L32.735,37.18L32.765,37.14L32.799,37.103L32.801,37.101L32.844,37.064L32.892,37.033L32.894,37.032L32.946,37.007L33.001,36.988L33.003,36.988L33.053,36.977L33.104,36.972L33.107,36.972L33.149,36.972ZM33.101,37.89L33.122,37.889L33.074,37.886L33.101,37.89ZM33.168,37.887L33.192,37.886L33.198,37.885L33.168,37.887ZM33.029,37.879L33.061,37.884L33.001,37.871L33.029,37.879ZM33.295,37.859L33.296,37.858L33.297,37.858L33.295,37.859Z" style="fill:rgb(33,33,33);"/>
        </g>
    </g>
    <g id="Layer3" transform="matrix(1.35354,0,0,1.35354,-65.7359,-45.3023)">
        <g transform="matrix(0.781504,0.6239,-0.6239,0.781504,105.17,-60.8966)">
            <path d="M79.415,80.267L79.571,80.143L79.729,80.02L79.886,79.898L80.045,79.776L80.204,79.654L80.364,79.533L80.525,79.412L80.686,79.291L80.848,79.171L81.011,79.052L81.174,78.933L81.338,78.815L81.503,78.697L81.668,78.579L81.834,78.462L82,78.345L82.167,78.229L82.335,78.114L82.503,77.999L82.672,77.884L82.842,77.77L83.012,77.656L83.183,77.543L83.354,77.431L83.526,77.319L83.699,77.207L83.872,77.096L84.046,76.985L84.22,76.875L84.395,76.766L84.57,76.657L84.746,76.548L84.923,76.441L85.1,76.333L85.278,76.226L85.456,76.12L85.635,76.014L85.814,75.909L85.994,75.804L86.174,75.7L86.355,75.596L86.536,75.493L86.718,75.391L86.901,75.289L87.084,75.187L87.267,75.087L87.451,74.986L87.635,74.887L87.82,74.788L88.006,74.689L88.192,74.591L88.378,74.494L88.565,74.397L88.752,74.301L88.94,74.205L89.128,74.11L89.317,74.015L89.506,73.921L89.695,73.828L89.885,73.735L90.076,73.643L90.267,73.552L90.458,73.461L90.65,73.371L90.842,73.281L91.034,73.192L91.227,73.104L91.42,73.016L91.614,72.929L91.808,72.842L92.003,72.756L92.198,72.671L92.393,72.586L92.589,72.502L92.785,72.419L92.981,72.336L93.178,72.254L93.375,72.173L93.573,72.092L93.771,72.012L93.969,71.932L94.167,71.854L94.366,71.775L94.566,71.698L94.765,71.621L94.965,71.545L95.165,71.469L95.366,71.395L95.567,71.321L95.768,71.247L95.969,71.174L96.171,71.102L96.373,71.031L96.575,70.96L96.778,70.89L96.981,70.821L97.184,70.752L97.388,70.684L97.592,70.617L97.796,70.551L98,70.485L98.204,70.42L98.409,70.356L98.614,70.292L98.819,70.229L99.025,70.167L99.231,70.106L99.437,70.045L99.643,69.985L99.849,69.926L100.056,69.867L100.263,69.809L100.47,69.752L100.677,69.696L100.885,69.641L101.093,69.586L101.3,69.532L101.508,69.479L101.717,69.426L101.925,69.375L102.134,69.324L102.343,69.273L102.551,69.224L102.761,69.175L102.97,69.128L103.179,69.081L103.389,69.034L103.599,68.989L103.808,68.944L104.018,68.9L104.229,68.857L104.439,68.815L104.649,68.773L104.86,68.733L105.07,68.693L105.281,68.654L105.492,68.615L105.703,68.578L105.914,68.541L106.125,68.506L106.336,68.471L106.547,68.436L106.759,68.403L106.97,68.371L107.182,68.339L107.393,68.308L107.605,68.278L107.816,68.249L108.028,68.221L108.24,68.193L108.452,68.167L108.664,68.141L108.876,68.116L109.088,68.092L109.3,68.069L109.512,68.047L109.724,68.026L109.936,68.005L110.148,67.986L110.36,67.967L110.572,67.949L110.784,67.932L110.996,67.916L111.208,67.901L111.42,67.887L111.632,67.873L111.844,67.861L112.056,67.849L112.268,67.838L112.479,67.829L112.691,67.82L112.903,67.812L113.115,67.805L113.326,67.799L113.538,67.794L113.75,67.79L113.961,67.786L114.172,67.784L114.384,67.782L114.595,67.782L114.807,67.783L115.019,67.784L115.231,67.787L115.442,67.79L115.654,67.795L115.866,67.801L116.078,67.808L116.29,67.816L116.502,67.825L116.714,67.834L116.926,67.845L117.138,67.857L117.35,67.87L117.562,67.884L117.774,67.899L117.985,67.915L118.197,67.932L118.409,67.95L118.621,67.969L118.832,67.989L119.044,68.01L119.256,68.032L119.467,68.055L119.679,68.078L119.89,68.103L120.102,68.129L120.313,68.155L120.524,68.183L120.735,68.212L120.946,68.241L121.157,68.271L121.368,68.303L121.579,68.335L121.79,68.368L122,68.402L122.211,68.437L122.421,68.473L122.632,68.51L122.842,68.548L123.052,68.586L123.262,68.626L123.472,68.666L123.681,68.707L123.891,68.75L124.1,68.792L124.31,68.836L124.519,68.881L124.728,68.927L124.937,68.973L125.145,69.02L125.354,69.068L125.562,69.117L125.77,69.167L125.978,69.218L126.186,69.269L126.394,69.322L126.601,69.375L126.809,69.429L127.016,69.483L127.223,69.539L127.429,69.595L127.636,69.652L127.842,69.71L128.048,69.769L128.254,69.828L128.46,69.889L128.665,69.95L128.871,70.011L129.076,70.074L129.28,70.137L129.485,70.201L129.689,70.266L129.893,70.332L130.097,70.398L130.301,70.465L130.504,70.533L130.707,70.602L130.91,70.671L131.112,70.741L131.315,70.812L131.517,70.883L131.718,70.955L131.92,71.028L132.121,71.102L132.322,71.176L132.522,71.251L132.723,71.327L132.923,71.403L133.122,71.48L133.322,71.558L133.521,71.636L133.719,71.715L133.918,71.795L134.116,71.875L134.314,71.956L134.511,72.038L134.708,72.12L134.905,72.203L135.101,72.287L135.297,72.371L135.493,72.456L135.689,72.542L135.884,72.628L136.078,72.715L136.273,72.802L136.467,72.89L136.66,72.979L136.853,73.068L137.046,73.158L137.239,73.248L137.431,73.339L137.622,73.431L137.814,73.523L138.005,73.616L138.195,73.709L138.385,73.803L138.575,73.897L138.764,73.992L138.953,74.088L139.141,74.184L139.329,74.281L139.517,74.378L139.704,74.476L139.891,74.574L140.077,74.673L140.263,74.772L140.448,74.872L140.633,74.973L140.818,75.074L141.002,75.175L141.185,75.277L141.368,75.38L141.551,75.483L141.733,75.586L141.915,75.69L142.096,75.795L142.277,75.899L142.457,76.005L142.637,76.111L142.816,76.217L142.995,76.324L143.173,76.431L143.351,76.539L143.528,76.647L143.705,76.756L143.881,76.865L144.057,76.975L144.232,77.085L144.407,77.195L144.581,77.306L144.754,77.417L144.927,77.529L145.1,77.641L145.272,77.754L145.443,77.867L145.614,77.98L145.784,78.094L145.954,78.208L146.123,78.323L146.292,78.438L146.46,78.553L146.627,78.669L146.794,78.785L146.96,78.902L147.126,79.018L147.291,79.136L147.456,79.253L147.619,79.371L147.783,79.49L147.945,79.608L148.107,79.727L148.269,79.847L148.43,79.966L148.59,80.087L148.75,80.207L148.909,80.328L149.067,80.449L149.225,80.57L149.382,80.692L149.538,80.814L149.694,80.936L149.849,81.059L150.003,81.182L150.157,81.305L150.31,81.428L150.463,81.552L150.614,81.676L150.765,81.801L150.916,81.925L151.066,82.05L151.215,82.175L151.363,82.301L151.511,82.427L151.658,82.553L151.804,82.679L151.95,82.805L152.094,82.932L152.239,83.059L152.382,83.186L152.525,83.314L152.667,83.441L152.808,83.569L152.948,83.697L153.088,83.826L153.227,83.954L153.366,84.083L153.503,84.212L153.64,84.341L153.776,84.471L153.911,84.6L154.046,84.73L154.179,84.86L154.312,84.99L154.445,85.121L154.576,85.251L154.707,85.382L154.837,85.513L154.966,85.644L155.094,85.775L155.221,85.907L155.348,86.038L155.474,86.17L155.599,86.302L155.723,86.434L155.847,86.566L155.969,86.698L156.091,86.83L156.212,86.963L156.332,87.096L156.452,87.228L156.57,87.361L156.688,87.494L156.804,87.628L156.92,87.761L157.035,87.894L157.15,88.028L157.263,88.161L157.376,88.295L157.487,88.429L157.598,88.562L157.708,88.696L157.817,88.83L157.925,88.964L158.032,89.099L158.138,89.233L158.244,89.367L158.348,89.501L158.452,89.636L158.554,89.77L158.656,89.905L158.757,90.04L158.857,90.174L158.956,90.309L159.054,90.444L159.151,90.578L159.246,90.711L159.336,90.86L159.401,91.021L159.44,91.191L159.452,91.364L159.437,91.537L159.395,91.706L159.327,91.866L159.235,92.014L159.097,92.2L158.956,92.389L158.812,92.579L158.666,92.769L158.519,92.96L158.369,93.151L158.217,93.342L158.064,93.534L157.908,93.726L157.751,93.918L157.591,94.111L157.43,94.304L157.267,94.497L157.102,94.69L156.935,94.884L156.766,95.078L156.595,95.272L156.423,95.466L156.248,95.661L156.072,95.855L155.894,96.05L155.715,96.245L155.533,96.439L155.35,96.634L155.165,96.829L154.978,97.025L154.79,97.22L154.599,97.415L154.408,97.61L154.214,97.805L154.019,98L153.822,98.195L153.623,98.39L153.423,98.585L153.221,98.78L153.018,98.974L152.813,99.169L152.606,99.363L152.398,99.557L152.188,99.751L151.977,99.945L151.764,100.138L151.549,100.332L151.333,100.525L151.116,100.717L150.897,100.91L150.676,101.102L150.454,101.294L150.231,101.485L150.006,101.676L149.78,101.867L149.552,102.057L149.323,102.247L149.092,102.436L148.86,102.625L148.627,102.814L148.392,103.002L148.156,103.189L147.919,103.376L147.68,103.562L147.44,103.748L147.199,103.933L146.956,104.118L146.712,104.302L146.467,104.485L146.221,104.668L145.973,104.85L145.724,105.031L145.474,105.212L145.223,105.392L144.97,105.571L144.716,105.75L144.461,105.927L144.205,106.104L143.948,106.28L143.69,106.455L143.43,106.63L143.17,106.803L142.908,106.976L142.645,107.147L142.381,107.318L142.116,107.488L141.85,107.657L141.583,107.824L141.315,107.991L141.046,108.157L140.776,108.322L140.505,108.486L140.233,108.648L139.96,108.81L139.686,108.97L139.411,109.13L139.135,109.288L138.858,109.445L138.58,109.601L138.302,109.755L138.022,109.909L137.742,110.061L137.46,110.212L137.178,110.362L136.895,110.51L136.612,110.657L136.327,110.803L136.042,110.947L135.755,111.09L135.468,111.232L135.181,111.372L134.892,111.511L134.603,111.648L134.313,111.784L134.022,111.919L133.731,112.052L133.439,112.183L133.146,112.313L132.852,112.441L132.558,112.568L132.263,112.693L131.968,112.817L131.672,112.939L131.375,113.059L131.078,113.178L130.78,113.295L130.481,113.41L130.182,113.524L129.883,113.636L129.583,113.746L129.282,113.854L128.984,113.959L128.816,114.004L128.643,114.022L128.469,114.013L128.299,113.977L128.137,113.915L127.986,113.827L127.851,113.718L127.735,113.589L127.64,113.443L127.57,113.284L127.525,113.116L127.507,112.943L127.516,112.769L127.552,112.599L127.614,112.437L127.701,112.286L127.811,112.151L127.94,112.035L128.086,111.94L128.245,111.87L128.537,111.766L128.826,111.663L129.114,111.557L129.401,111.45L129.689,111.34L129.975,111.23L130.262,111.117L130.548,111.003L130.833,110.887L131.118,110.77L131.402,110.651L131.686,110.53L131.969,110.408L132.252,110.285L132.534,110.16L132.816,110.033L133.097,109.905L133.377,109.775L133.657,109.644L133.936,109.511L134.215,109.377L134.492,109.242L134.769,109.105L135.046,108.967L135.322,108.828L135.597,108.687L135.871,108.545L136.144,108.401L136.417,108.257L136.689,108.111L136.96,107.963L137.231,107.815L137.5,107.665L137.769,107.515L138.037,107.363L138.304,107.209L138.57,107.055L138.835,106.9L139.1,106.743L139.363,106.586L139.626,106.427L139.888,106.268L140.148,106.107L140.408,105.945L140.667,105.783L140.925,105.619L141.181,105.454L141.437,105.289L141.692,105.123L141.946,104.955L142.198,104.787L142.45,104.618L142.7,104.448L142.95,104.277L143.198,104.106L143.445,103.934L143.692,103.761L143.936,103.587L144.18,103.412L144.423,103.237L144.664,103.061L144.905,102.885L145.144,102.708L145.381,102.53L145.618,102.351L145.853,102.172L146.087,101.993L146.32,101.812L146.551,101.632L146.782,101.451L147.011,101.269L147.238,101.087L147.464,100.904L147.689,100.721L147.913,100.537L148.135,100.353L148.355,100.169L148.575,99.984L148.792,99.799L149.009,99.613L149.224,99.428L149.437,99.242L149.649,99.055L149.86,98.869L150.069,98.682L150.277,98.495L150.483,98.308L150.687,98.12L150.89,97.933L151.091,97.745L151.291,97.557L151.489,97.369L151.686,97.181L151.881,96.993L152.074,96.805L152.266,96.617L152.456,96.429L152.644,96.241L152.831,96.052L153.016,95.864L153.199,95.676L153.38,95.488L153.56,95.301L153.738,95.113L153.915,94.925L154.089,94.738L154.262,94.551L154.433,94.364L154.602,94.177L154.769,93.99L154.934,93.804L155.098,93.618L155.26,93.433L155.419,93.247L155.577,93.062L155.733,92.878L155.887,92.694L156.039,92.51L156.189,92.326L156.338,92.143L156.484,91.961L156.628,91.779L156.77,91.598L156.911,91.417L156.966,91.345L156.886,91.238L156.79,91.112L156.693,90.985L156.596,90.858L156.497,90.732L156.398,90.605L156.297,90.478L156.196,90.352L156.094,90.225L155.991,90.098L155.887,89.972L155.782,89.845L155.677,89.718L155.57,89.592L155.463,89.465L155.354,89.339L155.245,89.212L155.135,89.086L155.024,88.959L154.913,88.833L154.8,88.706L154.686,88.58L154.572,88.454L154.457,88.328L154.341,88.202L154.224,88.076L154.107,87.95L153.988,87.824L153.869,87.698L153.749,87.573L153.628,87.447L153.506,87.322L153.384,87.196L153.26,87.071L153.136,86.946L153.011,86.821L152.886,86.696L152.759,86.571L152.632,86.447L152.504,86.322L152.375,86.198L152.245,86.074L152.115,85.95L151.984,85.826L151.852,85.703L151.72,85.579L151.586,85.456L151.452,85.333L151.317,85.21L151.182,85.087L151.045,84.964L150.908,84.842L150.771,84.72L150.632,84.598L150.493,84.476L150.353,84.354L150.212,84.233L150.071,84.112L149.929,83.991L149.786,83.87L149.643,83.75L149.499,83.63L149.354,83.51L149.209,83.39L149.063,83.27L148.916,83.151L148.768,83.032L148.62,82.914L148.471,82.795L148.322,82.677L148.172,82.559L148.021,82.442L147.87,82.324L147.718,82.207L147.565,82.091L147.412,81.974L147.258,81.858L147.103,81.742L146.948,81.627L146.793,81.512L146.636,81.397L146.479,81.282L146.322,81.168L146.163,81.054L146.005,80.941L145.845,80.827L145.685,80.715L145.525,80.602L145.364,80.49L145.202,80.378L145.04,80.267L144.877,80.156L144.714,80.045L144.55,79.935L144.385,79.825L144.22,79.715L144.055,79.606L143.889,79.497L143.722,79.389L143.555,79.281L143.387,79.174L143.219,79.066L143.05,78.96L142.881,78.853L142.711,78.748L142.541,78.642L142.37,78.537L142.199,78.433L142.027,78.328L141.855,78.225L141.682,78.121L141.509,78.019L141.335,77.916L141.161,77.814L140.986,77.713L140.811,77.612L140.635,77.512L140.459,77.412L140.283,77.312L140.106,77.213L139.929,77.114L139.751,77.016L139.572,76.919L139.394,76.822L139.214,76.725L139.035,76.629L138.855,76.534L138.674,76.439L138.494,76.344L138.312,76.25L138.131,76.157L137.949,76.064L137.766,75.972L137.583,75.88L137.4,75.788L137.217,75.698L137.033,75.608L136.848,75.518L136.663,75.429L136.478,75.341L136.293,75.253L136.107,75.165L135.921,75.079L135.734,74.992L135.547,74.907L135.36,74.822L135.173,74.738L134.985,74.654L134.796,74.571L134.608,74.488L134.419,74.406L134.23,74.325L134.04,74.244L133.85,74.164L133.66,74.085L133.47,74.006L133.279,73.928L133.088,73.85L132.897,73.773L132.705,73.697L132.513,73.621L132.321,73.547L132.128,73.472L131.936,73.399L131.743,73.326L131.549,73.254L131.356,73.182L131.162,73.111L130.968,73.041L130.774,72.971L130.579,72.903L130.384,72.834L130.189,72.767L129.994,72.7L129.799,72.634L129.603,72.569L129.407,72.504L129.211,72.441L129.015,72.378L128.818,72.315L128.622,72.254L128.425,72.193L128.228,72.132L128.03,72.073L127.833,72.014L127.635,71.956L127.437,71.899L127.239,71.843L127.041,71.787L126.843,71.732L126.644,71.678L126.446,71.625L126.247,71.572L126.048,71.521L125.849,71.47L125.65,71.42L125.45,71.37L125.251,71.322L125.051,71.274L124.851,71.227L124.651,71.181L124.451,71.136L124.251,71.091L124.051,71.048L123.851,71.005L123.65,70.963L123.45,70.922L123.249,70.881L123.049,70.842L122.848,70.803L122.647,70.765L122.446,70.729L122.245,70.692L122.044,70.657L121.843,70.623L121.642,70.59L121.44,70.557L121.239,70.525L121.038,70.494L120.837,70.465L120.635,70.436L120.434,70.407L120.232,70.38L120.031,70.354L119.829,70.328L119.628,70.304L119.426,70.28L119.225,70.258L119.023,70.236L118.821,70.215L118.62,70.195L118.418,70.176L118.217,70.158L118.015,70.141L117.814,70.125L117.612,70.11L117.411,70.096L117.209,70.082L117.008,70.07L116.806,70.059L116.605,70.048L116.404,70.039L116.203,70.03L116.001,70.023L115.8,70.016L115.599,70.011L115.398,70.006L115.197,70.003L114.996,70L114.796,69.999L114.595,69.998L114.394,69.999L114.192,70L113.991,70.002L113.789,70.006L113.587,70.01L113.385,70.015L113.183,70.02L112.981,70.027L112.779,70.035L112.577,70.043L112.374,70.052L112.172,70.063L111.969,70.074L111.767,70.085L111.564,70.098L111.361,70.112L111.159,70.126L110.956,70.142L110.753,70.158L110.55,70.175L110.347,70.193L110.144,70.212L109.941,70.231L109.738,70.252L109.535,70.273L109.332,70.295L109.129,70.318L108.926,70.342L108.723,70.367L108.52,70.392L108.317,70.418L108.114,70.446L107.911,70.473L107.708,70.502L107.505,70.532L107.302,70.562L107.099,70.593L106.897,70.625L106.694,70.658L106.491,70.692L106.288,70.726L106.086,70.761L105.883,70.797L105.681,70.834L105.478,70.871L105.276,70.91L105.074,70.949L104.872,70.989L104.67,71.029L104.468,71.071L104.266,71.113L104.064,71.156L103.863,71.199L103.661,71.244L103.46,71.289L103.258,71.335L103.057,71.382L102.856,71.429L102.656,71.478L102.455,71.527L102.254,71.576L102.054,71.627L101.854,71.678L101.654,71.73L101.454,71.783L101.254,71.836L101.054,71.89L100.855,71.945L100.656,72.001L100.457,72.057L100.258,72.114L100.059,72.172L99.861,72.231L99.663,72.29L99.465,72.35L99.267,72.41L99.07,72.471L98.872,72.533L98.675,72.596L98.478,72.659L98.282,72.723L98.086,72.788L97.889,72.854L97.694,72.92L97.498,72.987L97.303,73.054L97.108,73.122L96.913,73.191L96.718,73.26L96.524,73.33L96.33,73.401L96.137,73.473L95.943,73.545L95.75,73.618L95.558,73.691L95.365,73.765L95.173,73.84L94.982,73.915L94.79,73.991L94.599,74.068L94.408,74.145L94.218,74.223L94.028,74.301L93.838,74.38L93.649,74.46L93.46,74.541L93.271,74.622L93.083,74.703L92.895,74.785L92.707,74.868L92.52,74.952L92.333,75.036L92.147,75.12L91.961,75.205L91.775,75.291L91.59,75.378L91.405,75.465L91.221,75.552L91.037,75.64L90.854,75.729L90.671,75.818L90.488,75.908L90.306,75.999L90.124,76.09L89.943,76.181L89.762,76.274L89.581,76.366L89.401,76.46L89.222,76.553L89.043,76.648L88.864,76.743L88.686,76.838L88.509,76.934L88.331,77.031L88.155,77.128L87.979,77.225L87.803,77.324L87.628,77.422L87.453,77.522L87.279,77.621L87.106,77.721L86.933,77.822L86.76,77.923L86.588,78.025L86.417,78.128L86.246,78.23L86.076,78.334L85.906,78.437L85.737,78.542L85.568,78.647L85.4,78.752L85.232,78.858L85.065,78.964L84.899,79.071L84.733,79.178L84.568,79.285L84.403,79.394L84.239,79.502L84.076,79.611L83.913,79.721L83.751,79.831L83.589,79.941L83.428,80.052L83.268,80.163L83.108,80.275L82.949,80.388L82.791,80.5L82.633,80.613L82.476,80.727L82.319,80.841L82.163,80.955L82.008,81.07L81.854,81.186L81.7,81.301L81.547,81.417L81.394,81.534L81.243,81.651L81.092,81.768L80.941,81.886L80.791,82.004L80.642,82.123L80.494,82.242L80.347,82.361L80.2,82.481L80.054,82.601L79.908,82.721L79.763,82.842L79.62,82.963L79.476,83.085L79.334,83.207L79.192,83.33L79.051,83.452L78.911,83.575L78.771,83.699L78.633,83.823L78.495,83.947L78.358,84.071L78.221,84.196L78.086,84.322L77.951,84.447L77.817,84.573L77.684,84.699L77.552,84.826L77.42,84.953L77.289,85.08L77.159,85.207L77.03,85.335L76.902,85.463L76.774,85.592L76.648,85.721L76.522,85.85L76.397,85.979L76.273,86.109L76.15,86.239L76.027,86.369L75.906,86.5L75.785,86.631L75.665,86.762L75.546,86.893L75.428,87.025L75.311,87.157L75.195,87.289L75.079,87.421L74.965,87.554L74.851,87.687L74.738,87.821L74.627,87.954L74.516,88.088L74.406,88.222L74.297,88.356L74.188,88.491L74.081,88.625L73.975,88.76L73.87,88.896L73.765,89.031L73.662,89.167L73.559,89.303L73.458,89.439L73.357,89.575L73.258,89.712L73.159,89.848L73.061,89.985L72.965,90.122L72.869,90.26L72.774,90.397L72.68,90.535L72.588,90.673L72.496,90.811L72.405,90.949L72.315,91.088L72.227,91.226L72.139,91.365L72.132,91.376L72.177,91.451L72.251,91.577L72.326,91.703L72.401,91.828L72.478,91.954L72.554,92.078L72.632,92.203L72.71,92.327L72.789,92.452L72.869,92.576L72.949,92.699L73.03,92.823L73.112,92.946L73.194,93.069L73.277,93.191L73.36,93.313L73.444,93.436L73.529,93.557L73.615,93.679L73.701,93.8L73.788,93.921L73.875,94.042L73.963,94.163L74.052,94.283L74.141,94.403L74.231,94.523L74.321,94.643L74.413,94.762L74.504,94.881L74.597,95L74.69,95.118L74.783,95.237L74.878,95.355L74.972,95.472L75.068,95.59L75.164,95.707L75.261,95.824L75.358,95.941L75.456,96.057L75.554,96.173L75.653,96.289L75.753,96.405L75.853,96.52L75.954,96.636L76.055,96.75L76.157,96.865L76.26,96.98L76.363,97.094L76.467,97.207L76.571,97.321L76.676,97.434L76.781,97.547L76.887,97.66L76.994,97.773L77.101,97.885L77.209,97.997L77.317,98.109L77.426,98.22L77.535,98.332L77.645,98.443L77.756,98.553L77.867,98.664L77.978,98.774L78.09,98.884L78.203,98.993L78.316,99.103L78.43,99.212L78.544,99.321L78.659,99.429L78.774,99.538L78.89,99.646L79.006,99.753L79.123,99.861L79.24,99.968L79.358,100.075L79.476,100.181L79.715,100.394L79.955,100.606L80.197,100.816L80.441,101.026L80.688,101.234L80.936,101.441L81.186,101.647L81.438,101.852L81.692,102.056L81.947,102.259L82.205,102.461L82.464,102.661L82.725,102.861L82.988,103.059L83.253,103.257L83.519,103.453L83.788,103.648L84.057,103.842L84.329,104.035L84.602,104.227L84.877,104.418L85.153,104.607L85.431,104.796L85.714,104.985L85.85,105.092L85.968,105.22L86.064,105.365L86.137,105.523L86.184,105.69L86.204,105.863L86.197,106.037L86.163,106.207L86.103,106.371L86.017,106.522L85.91,106.659L85.782,106.776L85.637,106.873L85.479,106.945L85.312,106.992L85.139,107.013L84.965,107.006L84.795,106.972L84.632,106.911L84.48,106.826L84.193,106.634L83.905,106.438L83.618,106.242L83.334,106.044L83.05,105.846L82.769,105.645L82.489,105.444L82.21,105.241L81.933,105.038L81.658,104.832L81.385,104.626L81.113,104.419L80.843,104.21L80.575,104L80.309,103.788L80.044,103.576L79.782,103.362L79.521,103.147L79.262,102.931L79.004,102.713L78.749,102.494L78.496,102.274L78.245,102.053L77.996,101.831L77.871,101.719L77.748,101.607L77.625,101.494L77.502,101.382L77.38,101.269L77.259,101.155L77.138,101.042L77.018,100.928L76.898,100.814L76.778,100.699L76.659,100.584L76.541,100.469L76.423,100.354L76.306,100.238L76.189,100.122L76.073,100.005L75.958,99.888L75.842,99.771L75.728,99.654L75.614,99.536L75.5,99.418L75.388,99.3L75.275,99.181L75.163,99.062L75.052,98.943L74.941,98.823L74.831,98.703L74.722,98.583L74.613,98.463L74.504,98.342L74.397,98.22L74.289,98.099L74.183,97.977L74.077,97.855L73.971,97.732L73.866,97.61L73.762,97.487L73.658,97.363L73.555,97.239L73.452,97.115L73.351,96.991L73.249,96.866L73.149,96.741L73.048,96.616L72.949,96.49L72.85,96.364L72.752,96.238L72.654,96.111L72.557,95.985L72.461,95.857L72.365,95.73L72.27,95.602L72.176,95.474L72.082,95.345L71.989,95.216L71.896,95.087L71.804,94.958L71.713,94.828L71.622,94.698L71.533,94.567L71.443,94.437L71.355,94.305L71.267,94.174L71.18,94.042L71.093,93.91L71.007,93.778L70.922,93.645L70.837,93.512L70.753,93.379L70.67,93.245L70.588,93.111L70.506,92.977L70.425,92.843L70.344,92.708L70.264,92.572L70.185,92.437L70.107,92.301L70.03,92.165L69.953,92.028L69.878,91.894L69.808,91.743L69.762,91.584L69.74,91.42L69.742,91.254L69.77,91.09L69.821,90.933L69.896,90.785L69.984,90.637L70.076,90.486L70.168,90.336L70.262,90.186L70.357,90.037L70.452,89.887L70.549,89.738L70.646,89.59L70.745,89.441L70.845,89.293L70.945,89.145L71.047,88.997L71.15,88.85L71.253,88.703L71.358,88.556L71.464,88.41L71.57,88.264L71.678,88.118L71.786,87.973L71.896,87.828L72.006,87.683L72.118,87.538L72.23,87.394L72.343,87.25L72.457,87.106L72.573,86.963L72.689,86.82L72.806,86.678L72.924,86.535L73.042,86.394L73.162,86.252L73.283,86.111L73.404,85.97L73.527,85.829L73.65,85.689L73.774,85.549L73.899,85.41L74.025,85.271L74.152,85.132L74.28,84.993L74.408,84.855L74.538,84.717L74.668,84.58L74.799,84.443L74.931,84.306L75.064,84.17L75.197,84.034L75.332,83.899L75.467,83.764L75.603,83.629L75.74,83.495L75.878,83.361L76.016,83.227L76.156,83.094L76.296,82.961L76.437,82.829L76.579,82.697L76.721,82.565L76.864,82.434L77.008,82.303L77.153,82.173L77.299,82.043L77.445,81.913L77.592,81.784L77.74,81.655L77.889,81.527L78.038,81.399L78.188,81.271L78.339,81.144L78.49,81.018L78.643,80.891L78.796,80.766L78.949,80.64L79.104,80.515L79.259,80.391L79.415,80.267Z" style="fill:black;"/>
        </g>
        <path d="M105.051,74.754C107.985,64.138 113.568,57.088 122.967,52.487" style="fill:none;stroke-width:1.48px;stroke:black;"/>
        <g transform="matrix(1,0,0,1,2.58042,3.06419)">
            <path d="M106.347,73.901C109.513,65.042 116.111,56.133 125.008,51.116" style="fill:none;stroke-width:1.48px;stroke:black;"/>
        </g>
        <path d="M145.824,111.073C157.159,101.298 162.153,93.581 167.329,85.222" style="fill:none;stroke-width:1.48px;stroke:black;"/>
        <g transform="matrix(1,0,0,1,-4.47373,-3.44133)">
            <path d="M145.139,111.986C155.949,102.534 162.973,92.534 168.698,83.93" style="fill:none;stroke-width:1.48px;stroke:black;"/>
        </g>
        <g transform="matrix(1,0,0,1,3.38109,-3.2272)">
            <path d="M124.208,68.584C132.168,73.331 140.154,78.895 146.539,86.256" style="fill:none;stroke-width:2.22px;stroke-linecap:round;stroke:black;"/>
        </g>
        <path d="M128.484,70.76L133.436,64.308" style="fill:none;stroke-width:1.48px;stroke-linecap:round;stroke:black;"/>
        <path d="M132.915,74.193L138.107,67.534" style="fill:none;stroke-width:1.48px;stroke-linecap:round;stroke:black;"/>
        <path d="M136.938,77.241L142.833,70.351" style="fill:none;stroke-width:1.48px;stroke-linecap:round;stroke:black;"/>
        <path d="M140.777,80.488L146.81,73.768" style="fill:none;stroke-width:1.48px;stroke-linecap:round;stroke:black;"/>
        <g transform="matrix(1,0,0,1,-0.937257,-0.855225)">
            <path d="M151.514,78.096L145.342,84.591" style="fill:none;stroke-width:1.48px;stroke-linecap:round;stroke:black;"/>
        </g>
    </g>
</svg>
