<?xml version="1.0" standalone="no"?>
<!DOCTYPE svg PUBLIC "-//W3C//DTD SVG 1.1//EN" "http://www.w3.org/Graphics/SVG/1.1/DTD/svg11.dtd">
<svg width="100%" height="100%" viewBox="0 0 180 180" version="1.1" xmlns="http://www.w3.org/2000/svg" xmlns:xlink="http://www.w3.org/1999/xlink" xml:space="preserve" style="fill-rule:evenodd;clip-rule:evenodd;stroke-linejoin:round;stroke-miterlimit:1.41421;">
    <g transform="matrix(2.14446,0,0,2.14446,24.7532,29.2179)">
        <path d="M31.211,2.729L31.322,2.768L31.425,2.825L31.517,2.898L31.595,2.986L31.658,3.085L39.572,18.396L56.58,21.192L56.694,21.221L56.801,21.268L56.899,21.333L56.985,21.413L57.057,21.507L57.111,21.611L57.147,21.723L57.164,21.839L57.162,21.957L57.14,22.072L57.098,22.182L57.039,22.284L56.964,22.374L44.848,34.633L47.444,51.672L47.452,51.789L47.44,51.906L47.409,52.019L47.359,52.126L47.292,52.222L47.21,52.306L47.115,52.376L47.01,52.428L46.897,52.462L46.78,52.476L46.663,52.471L46.548,52.446L46.439,52.402L31.036,44.667L15.634,52.402L15.524,52.446L15.41,52.471L15.292,52.476L15.175,52.462L15.063,52.428L14.958,52.376L14.862,52.306L14.78,52.222L14.713,52.126L14.663,52.019L14.632,51.906L14.62,51.789L14.628,51.672L17.225,34.633L5.109,22.374L5.033,22.284L4.974,22.182L4.933,22.072L4.911,21.957L4.908,21.839L4.925,21.723L4.962,21.611L5.016,21.507L5.087,21.413L5.173,21.333L5.271,21.268L5.379,21.221L5.493,21.192L22.5,18.396L30.415,3.085L30.478,2.986L30.556,2.898L30.648,2.825L30.751,2.768L30.862,2.729L30.978,2.709L31.095,2.709L31.211,2.729ZM23.582,19.351L23.525,19.443L23.454,19.525L23.371,19.595L23.279,19.652L23.179,19.694L23.074,19.72L7.055,22.353L18.467,33.899L18.537,33.982L18.593,34.074L18.634,34.175L18.66,34.28L18.669,34.388L18.661,34.496L16.215,50.545L30.722,43.26L30.823,43.219L30.928,43.194L31.036,43.185L31.144,43.194L31.25,43.219L31.35,43.26L45.858,50.545L43.412,34.496L43.404,34.388L43.413,34.28L43.438,34.175L43.48,34.074L43.536,33.982L43.606,33.899L55.018,22.353L38.999,19.72L38.894,19.694L38.794,19.652L38.701,19.595L38.619,19.525L38.548,19.443L38.491,19.351L31.036,4.93L23.582,19.351Z" style="fill:rgb(33,33,33);"/>
    </g>
</svg>
