<?xml version="1.0" standalone="no"?>
<!DOCTYPE svg PUBLIC "-//W3C//DTD SVG 1.1//EN" "http://www.w3.org/Graphics/SVG/1.1/DTD/svg11.dtd">
<svg width="100%" height="100%" viewBox="0 0 100 50" version="1.1" xmlns="http://www.w3.org/2000/svg" xmlns:xlink="http://www.w3.org/1999/xlink" xml:space="preserve" style="fill-rule:evenodd;clip-rule:evenodd;stroke-linejoin:round;stroke-miterlimit:1.41421;">
    <g id="mountains" transform="matrix(0.0523133,0,0,0.0523133,0,29.6185)">
        <g transform="matrix(1.36152,0,0,1.36152,-18.1024,-257.32)">
            <path d="M-87.575,400L69.189,175.152L208.71,400L0,400L-87.575,400Z" style="fill:rgb(96,141,141);"/>
            <clipPath id="_clip1">
                <path d="M-87.575,400L69.189,175.152L208.71,400L0,400L-87.575,400Z"/>
            </clipPath>
            <g clip-path="url(#_clip1)">
                <g transform="matrix(1.56053,0,0,1.56053,-38.781,-98.1773)">
                    <path d="M25.731,237.243L69.189,175.152L105.647,233.971L84.683,216.222L62.083,237.243L60.316,222.597L53.733,225.754L44.651,220.391L25.731,237.243Z" style="fill:rgb(212,253,255);"/>
                </g>
            </g>
        </g>
        <g id="simple mountain">
            <g transform="matrix(1.16152,0,0,1.16152,-33.7111,-64.6083)">
                <path d="M0,274.801L69.189,175.152L208.71,400L0,400L0,274.801Z" style="fill:rgb(77,170,154);"/>
            </g>
            <g transform="matrix(1,0,0,1,402.282,16.0242)">
                <path d="M0,274.801L69.189,175.152L208.71,400L0,400L0,274.801Z" style="fill:rgb(115,180,180);"/>
            </g>
            <g transform="matrix(1.19785,0,0,1.19785,225.349,-75.5861)">
                <path d="M0,274.801L69.189,175.152L208.71,400L0,400L0,274.801Z" style="fill:rgb(77,170,154);"/>
            </g>
            <g transform="matrix(1.16713,0,0,1.16713,390.806,-13.2487)">
                <path d="M25.731,237.243L69.189,175.152L105.647,233.971L81.691,216.772L72.462,243.663C72.462,243.663 60.051,225.678 60.051,225.678C60.051,225.678 45.103,233.975 45.103,233.975L37.664,225.042L25.731,237.243Z" style="fill:rgb(212,253,255);"/>
            </g>
            <g transform="matrix(1.5591,0,0,1.5591,200.302,-138.86)">
                <path d="M25.731,237.243L69.189,175.152L105.647,233.971L84.683,216.222L62.083,237.243L60.316,222.597L53.733,225.754L44.651,220.391L25.731,237.243Z" style="fill:rgb(212,253,255);"/>
            </g>
            <g transform="matrix(1.81093,0,0,1.81093,-78.5611,-178.353)">
                <path d="M25.731,237.243L69.189,175.152L105.647,233.971L84.683,216.222L62.083,237.243L60.316,222.597L53.733,225.754L44.651,220.391L25.731,237.243Z" style="fill:rgb(212,253,255);"/>
            </g>
        </g>
        <g id="simple mountain1" transform="matrix(1,0,0,1,117.775,-16.314)">
            <g transform="matrix(1,0,0,1,14.5851,5.91893)">
                <path d="M-87.575,400L69.189,175.152L208.71,400L0,400L-87.575,400Z" style="fill:rgb(49,156,120);"/>
            </g>
            <g transform="matrix(1.5591,0,0,1.5591,-24.028,-92.0084)">
                <path d="M25.731,237.243L69.189,175.152L105.647,233.971L81.691,216.772L72.462,243.663C72.462,243.663 60.051,225.678 60.051,225.678C60.051,225.678 45.103,233.975 45.103,233.975L37.664,225.042L25.731,237.243Z" style="fill:rgb(212,253,255);"/>
            </g>
        </g>
    </g>
    <g id="mountains1" transform="matrix(0.0459116,0,0,0.0459116,81.964,34.4688)">
        <g id="simple mountain2" transform="matrix(1,0,0,1,131.358,-23.7744)">
            <path d="M0,274.801L69.189,175.152L208.71,400L0,400L0,274.801Z" style="fill:rgb(115,180,180);"/>
            <g transform="matrix(1.5591,0,0,1.5591,-38.6132,-97.9273)">
                <path d="M47.661,205.99L69.189,175.152L100.074,224.867L95.109,227.561L76.508,213.657L69.603,220.996L61.908,210.011L52.233,223.93L47.661,205.99Z" style="fill:rgb(212,253,255);"/>
            </g>
        </g>
        <g transform="matrix(1,0,0,1,249.772,-62.9643)">
            <path d="M-14.487,296.114L69.189,175.152L208.71,400L0,400L-14.487,296.114Z" style="fill:rgb(115,180,180);"/>
            <clipPath id="_clip2">
                <path d="M-14.487,296.114L69.189,175.152L208.71,400L0,400L-14.487,296.114Z"/>
            </clipPath>
            <g clip-path="url(#_clip2)">
                <g transform="matrix(1.5591,0,0,1.5591,-38.6132,-97.9273)">
                    <path d="M47.661,205.99L69.189,175.152L100.074,224.867L95.109,227.561L76.508,213.657L69.603,220.996L61.908,210.011L52.233,223.93L47.661,205.99Z" style="fill:rgb(212,253,255);"/>
                </g>
            </g>
        </g>
        <g id="simple mountain3" transform="matrix(1,0,0,1,70.2271,1.05657)">
            <path d="M-84.648,400L69.189,175.152L208.71,400L0,400L-84.648,400Z" style="fill:rgb(77,170,154);"/>
            <g transform="matrix(1.5591,0,0,1.5591,-38.6132,-97.9273)">
                <path d="M25.731,237.243L69.189,175.152L105.647,233.971L84.683,216.222L62.083,237.243L60.316,222.597L53.733,225.754L44.651,220.391L25.731,237.243Z" style="fill:rgb(212,253,255);"/>
            </g>
        </g>
    </g>
    <g id="simple mountain4" transform="matrix(0.0523133,0,0,0.0523133,83.6526,28.2364)">
        <g transform="matrix(0.698627,0,0,0.698627,-1031.25,136.573)">
            <path d="M-87.575,400L69.189,175.152L208.71,400L0,400L-87.575,400Z" style="fill:rgb(49,156,120);"/>
        </g>
        <g transform="matrix(1.08923,0,0,1.08923,-1058.23,68.1586)">
            <path d="M25.731,237.243L69.189,175.152L105.647,233.971L81.691,216.772L72.462,243.663C72.462,243.663 60.051,225.678 60.051,225.678C60.051,225.678 45.103,233.975 45.103,233.975L37.664,225.042L25.731,237.243Z" style="fill:rgb(212,253,255);"/>
        </g>
    </g>
</svg>
