<?xml version="1.0" standalone="no"?>
<!DOCTYPE svg PUBLIC "-//W3C//DTD SVG 1.1//EN" "http://www.w3.org/Graphics/SVG/1.1/DTD/svg11.dtd">
<svg width="100%" height="100%" viewBox="0 0 600 600" version="1.1" xmlns="http://www.w3.org/2000/svg" xmlns:xlink="http://www.w3.org/1999/xlink" xml:space="preserve" style="fill-rule:evenodd;clip-rule:evenodd;stroke-linejoin:round;stroke-miterlimit:1.41421;">
    <g id="column" transform="matrix(0.946616,0,0,0.946616,10.0837,32.0305)">
        <g transform="matrix(12.3041,0,0,12.7317,-409.193,-36.5841)">
            <rect x="34.437" y="47.533" width="19.276" height="2.467" style="fill:rgb(109,154,152);"/>
        </g>
        <g transform="matrix(14.1767,0,0,11.906,-641.414,-0.33081)">
            <rect x="47.715" y="33.338" width="13.986" height="14.446" style="fill:rgb(89,137,137);"/>
        </g>
        <g transform="matrix(14.1767,0,0,11.0579,-715.934,31.5825)">
            <path d="M54.708,35.369C54.708,35.057 54.51,34.803 54.267,34.803C54.023,34.803 53.826,35.057 53.826,35.369L53.826,46.773C53.826,47.085 54.023,47.339 54.267,47.339C54.51,47.339 54.708,47.085 54.708,46.773L54.708,35.369Z" style="fill:rgb(74,111,111);"/>
        </g>
        <g transform="matrix(14.1767,0,0,11.0579,-673.911,31.3766)">
            <path d="M54.708,35.369C54.708,35.057 54.51,34.803 54.267,34.803C54.023,34.803 53.826,35.057 53.826,35.369L53.826,46.773C53.826,47.085 54.023,47.339 54.267,47.339C54.51,47.339 54.708,47.085 54.708,46.773L54.708,35.369Z" style="fill:rgb(74,111,111);"/>
        </g>
        <g transform="matrix(14.1767,0,0,11.0579,-633.425,31.5825)">
            <path d="M54.708,35.369C54.708,35.057 54.51,34.803 54.267,34.803C54.023,34.803 53.826,35.057 53.826,35.369L53.826,46.773C53.826,47.085 54.023,47.339 54.267,47.339C54.51,47.339 54.708,47.085 54.708,46.773L54.708,35.369Z" style="fill:rgb(74,111,111);"/>
        </g>
        <g transform="matrix(14.1767,0,0,11.0579,-587.647,31.5825)">
            <path d="M54.708,35.369C54.708,35.057 54.51,34.803 54.267,34.803C54.023,34.803 53.826,35.057 53.826,35.369L53.826,46.773C53.826,47.085 54.023,47.339 54.267,47.339C54.51,47.339 54.708,47.085 54.708,46.773L54.708,35.369Z" style="fill:rgb(74,111,111);"/>
        </g>
        <g transform="matrix(14.1767,0,0,11.0579,-554.382,31.5825)">
            <path d="M54.708,35.369C54.708,35.057 54.51,34.803 54.267,34.803C54.023,34.803 53.826,35.057 53.826,35.369L53.826,46.773C53.826,47.085 54.023,47.339 54.267,47.339C54.51,47.339 54.708,47.085 54.708,46.773L54.708,35.369Z" style="fill:rgb(78,118,118);"/>
        </g>
        <g transform="matrix(14.4868,0,0,14.4868,-674.994,-66.561)">
            <path d="M48.598,30.156L48.618,30.157L48.636,30.157L48.654,30.158L48.681,30.159L48.703,30.16L48.672,30.158L62.83,30.158L62.778,30.164L62.801,30.162L62.818,30.16L62.835,30.159L62.855,30.157L62.876,30.156L62.898,30.155L62.923,30.153L62.949,30.152L62.976,30.152L63.005,30.151L63.036,30.151L63.066,30.151L63.101,30.151L63.136,30.152L63.154,30.153L63.173,30.153L63.191,30.154L63.21,30.155L63.229,30.156L63.249,30.157L63.269,30.159L63.289,30.16L63.31,30.162L63.331,30.164L63.352,30.166L63.374,30.168L63.396,30.171L63.418,30.174L63.44,30.177L63.463,30.18L63.486,30.183L63.51,30.187L63.534,30.191L63.558,30.195L63.582,30.2L63.607,30.204L63.632,30.21L63.657,30.215L63.682,30.221L63.708,30.227L63.734,30.233L63.76,30.24L63.787,30.248L63.814,30.255L63.841,30.263L63.869,30.272L63.896,30.281L63.924,30.29L63.952,30.3L63.981,30.311L64.009,30.322L64.037,30.333L64.067,30.345L64.097,30.358L64.111,30.365L64.126,30.372L64.141,30.378L64.156,30.386L64.171,30.393L64.186,30.4L64.201,30.408L64.216,30.415L64.231,30.423L64.246,30.431L64.261,30.44L64.276,30.448L64.291,30.457L64.306,30.466L64.321,30.475L64.337,30.484L64.352,30.493L64.367,30.503L64.383,30.513L64.398,30.523L64.413,30.533L64.428,30.543L64.443,30.554L64.459,30.565L64.474,30.576L64.489,30.587L64.504,30.599L64.52,30.611L64.535,30.623L64.55,30.635L64.565,30.647L64.58,30.66L64.595,30.673L64.61,30.686L64.624,30.699L64.639,30.713L64.654,30.726L64.668,30.74L64.683,30.755L64.697,30.769L64.712,30.784L64.726,30.799L64.74,30.814L64.754,30.829L64.768,30.845L64.782,30.861L64.796,30.877L64.809,30.893L64.823,30.91L64.836,30.926L64.849,30.943L64.862,30.96L64.875,30.978L64.887,30.995L64.9,31.013L64.912,31.031L64.924,31.049L64.936,31.068L64.948,31.086L64.959,31.105L64.971,31.124L64.982,31.143L64.993,31.162L65.003,31.182L65.014,31.202L65.024,31.221L65.034,31.241L65.044,31.261L65.054,31.282L65.063,31.302L65.072,31.323L65.081,31.343L65.09,31.364L65.098,31.385L65.106,31.406L65.114,31.427L65.122,31.448L65.129,31.47L65.136,31.491L65.143,31.512L65.15,31.534L65.156,31.556L65.162,31.577L65.168,31.599L65.174,31.621L65.179,31.643L65.185,31.665L65.189,31.687L65.194,31.709L65.198,31.731L65.203,31.753L65.207,31.776L65.21,31.798L65.214,31.82L65.217,31.842L65.22,31.865L65.222,31.887L65.225,31.909L65.227,31.932L65.229,31.954L65.231,31.976L65.233,31.999L65.234,32.021L65.235,32.044L65.236,32.066L65.237,32.088L65.237,32.111L65.237,32.134L65.237,32.153L65.237,32.173L65.237,32.193L65.236,32.213L65.235,32.233L65.234,32.253L65.233,32.273L65.231,32.293L65.229,32.313L65.227,32.333L65.225,32.354L65.222,32.374L65.22,32.394L65.216,32.415L65.213,32.435L65.21,32.456L65.206,32.476L65.202,32.497L65.197,32.517L65.193,32.538L65.188,32.558L65.182,32.578L65.177,32.599L65.171,32.619L65.165,32.64L65.159,32.66L65.152,32.68L65.145,32.7L65.138,32.72L65.13,32.741L65.123,32.76L65.115,32.78L65.106,32.8L65.098,32.82L65.089,32.839L65.08,32.859L65.07,32.878L65.061,32.897L65.051,32.916L65.041,32.935L65.03,32.954L65.02,32.972L65.009,32.99L64.998,33.008L64.986,33.026L64.975,33.044L64.963,33.061L64.951,33.079L64.939,33.096L64.927,33.113L64.914,33.129L64.902,33.146L64.889,33.162L64.876,33.178L64.862,33.193L64.849,33.209L64.836,33.224L64.822,33.239L64.808,33.254L64.794,33.268L64.78,33.282L64.766,33.296L64.752,33.31L64.738,33.323L64.724,33.336L64.71,33.349L64.695,33.361L64.681,33.374L64.666,33.386L64.652,33.397L64.637,33.409L64.622,33.42L64.608,33.431L64.593,33.442L64.579,33.452L64.564,33.463L64.549,33.473L64.535,33.483L64.52,33.492L64.505,33.502L64.491,33.511L64.474,33.521L64.447,33.537L64.418,33.553L64.39,33.568L64.361,33.583L64.333,33.597L64.305,33.61L64.277,33.622L64.249,33.634L64.222,33.645L64.195,33.655L64.168,33.665L64.142,33.674L64.116,33.683L64.09,33.691L64.065,33.699L64.039,33.706L64.015,33.713L63.99,33.719L63.966,33.725L63.942,33.731L63.918,33.736L63.895,33.74L63.872,33.745L63.849,33.749L63.827,33.753L63.805,33.756L63.783,33.76L63.762,33.763L63.741,33.766L63.72,33.768L63.699,33.77L63.679,33.772L63.659,33.774L63.639,33.776L63.62,33.777L63.601,33.779L63.582,33.78L63.564,33.781L63.545,33.782L63.527,33.782L63.51,33.783L63.492,33.783L63.475,33.783L63.458,33.784L63.442,33.784L63.425,33.784L63.408,33.784L63.378,33.783L63.348,33.782L63.32,33.781L63.292,33.779L63.265,33.778L63.24,33.776L63.215,33.774L63.192,33.772L63.171,33.77L63.15,33.768L63.13,33.765L63.112,33.763L63.096,33.761L63.078,33.759L63.054,33.755L63.033,33.752L63.024,33.75L62.942,33.733L62.86,33.709L62.781,33.68L62.704,33.644L62.631,33.603L62.56,33.557L62.493,33.505L62.43,33.449L62.372,33.388L62.318,33.322L62.269,33.253L62.226,33.181L62.188,33.105L62.155,33.027L62.129,32.947L62.109,32.865L62.095,32.781L62.087,32.697L62.086,32.613L62.091,32.528L62.102,32.444L62.108,32.419L49.741,32.419L49.754,32.494L49.761,32.578L49.762,32.663L49.757,32.747L49.746,32.831L49.728,32.914L49.704,32.995L49.675,33.074L49.639,33.151L49.598,33.224L49.551,33.295L49.499,33.362L49.443,33.424L49.382,33.483L49.316,33.536L49.247,33.585L49.174,33.628L49.099,33.666L49.02,33.698L48.94,33.724L48.858,33.744L48.848,33.746L48.827,33.75L48.811,33.753L48.794,33.756L48.776,33.759L48.757,33.762L48.736,33.765L48.713,33.768L48.689,33.771L48.664,33.774L48.637,33.777L48.609,33.78L48.579,33.782L48.55,33.785L48.532,33.786L48.515,33.787L48.499,33.788L48.482,33.789L48.464,33.789L48.447,33.79L48.429,33.79L48.41,33.791L48.391,33.791L48.372,33.791L48.353,33.791L48.333,33.791L48.313,33.791L48.293,33.79L48.272,33.79L48.251,33.789L48.23,33.788L48.208,33.787L48.186,33.785L48.164,33.784L48.141,33.782L48.118,33.78L48.095,33.777L48.071,33.774L48.047,33.771L48.023,33.768L47.998,33.764L47.973,33.76L47.947,33.756L47.922,33.751L47.896,33.746L47.869,33.741L47.843,33.735L47.816,33.728L47.788,33.721L47.761,33.714L47.733,33.706L47.704,33.698L47.676,33.689L47.647,33.679L47.618,33.669L47.588,33.658L47.56,33.647L47.543,33.64L47.528,33.634L47.513,33.628L47.498,33.621L47.483,33.615L47.467,33.608L47.452,33.6L47.437,33.593L47.421,33.586L47.406,33.578L47.39,33.57L47.375,33.562L47.359,33.553L47.344,33.544L47.328,33.536L47.312,33.527L47.297,33.517L47.281,33.508L47.265,33.498L47.249,33.488L47.234,33.478L47.218,33.467L47.203,33.457L47.187,33.445L47.171,33.434L47.155,33.423L47.14,33.411L47.124,33.399L47.109,33.387L47.094,33.374L47.078,33.361L47.063,33.348L47.048,33.335L47.032,33.322L47.017,33.308L47.002,33.294L46.987,33.279L46.973,33.265L46.958,33.25L46.944,33.235L46.929,33.22L46.915,33.204L46.901,33.188L46.887,33.172L46.873,33.156L46.859,33.139L46.846,33.123L46.833,33.106L46.819,33.088L46.807,33.071L46.794,33.053L46.781,33.035L46.769,33.017L46.757,32.999L46.745,32.981L46.734,32.962L46.722,32.943L46.711,32.924L46.7,32.905L46.689,32.886L46.679,32.866L46.669,32.847L46.659,32.827L46.649,32.807L46.64,32.787L46.631,32.767L46.622,32.747L46.613,32.727L46.605,32.706L46.597,32.686L46.589,32.665L46.581,32.644L46.574,32.624L46.567,32.603L46.56,32.582L46.554,32.561L46.548,32.54L46.542,32.519L46.536,32.498L46.53,32.477L46.525,32.456L46.52,32.435L46.516,32.413L46.511,32.392L46.507,32.371L46.503,32.35L46.5,32.329L46.496,32.308L46.493,32.286L46.49,32.265L46.488,32.244L46.485,32.223L46.483,32.202L46.481,32.181L46.479,32.16L46.478,32.138L46.476,32.117L46.475,32.096L46.474,32.075L46.474,32.054L46.473,32.033L46.473,32.012L46.473,31.992L46.473,31.971L46.473,31.95L46.474,31.929L46.474,31.908L46.475,31.888L46.476,31.867L46.478,31.846L46.479,31.825L46.481,31.805L46.483,31.784L46.486,31.763L46.488,31.742L46.491,31.722L46.494,31.701L46.497,31.68L46.501,31.659L46.504,31.639L46.508,31.618L46.513,31.597L46.517,31.577L46.522,31.556L46.527,31.536L46.532,31.515L46.537,31.495L46.543,31.474L46.549,31.454L46.555,31.434L46.562,31.414L46.568,31.394L46.575,31.374L46.582,31.354L46.59,31.334L46.597,31.314L46.605,31.295L46.613,31.275L46.622,31.256L46.63,31.237L46.639,31.218L46.648,31.199L46.657,31.18L46.667,31.161L46.676,31.143L46.686,31.125L46.696,31.106L46.706,31.089L46.717,31.071L46.727,31.053L46.738,31.036L46.749,31.018L46.76,31.001L46.772,30.985L46.783,30.968L46.795,30.951L46.807,30.935L46.818,30.919L46.831,30.903L46.843,30.888L46.855,30.872L46.867,30.857L46.88,30.842L46.893,30.827L46.905,30.813L46.918,30.798L46.931,30.784L46.944,30.77L46.957,30.757L46.971,30.743L46.984,30.73L46.997,30.717L47.011,30.704L47.024,30.692L47.037,30.679L47.051,30.667L47.065,30.655L47.078,30.643L47.092,30.632L47.106,30.621L47.119,30.61L47.133,30.599L47.147,30.588L47.16,30.577L47.174,30.567L47.188,30.557L47.202,30.547L47.215,30.538L47.229,30.528L47.243,30.519L47.257,30.51L47.27,30.501L47.284,30.492L47.3,30.482L47.325,30.467L47.352,30.451L47.379,30.436L47.406,30.421L47.433,30.407L47.459,30.393L47.486,30.381L47.512,30.368L47.538,30.357L47.564,30.345L47.59,30.335L47.615,30.324L47.64,30.315L47.665,30.305L47.69,30.296L47.714,30.288L47.739,30.28L47.763,30.272L47.786,30.265L47.81,30.258L47.833,30.251L47.856,30.245L47.879,30.239L47.901,30.233L47.923,30.228L47.945,30.222L47.967,30.218L47.989,30.213L48.01,30.209L48.031,30.204L48.052,30.201L48.072,30.197L48.092,30.193L48.112,30.19L48.132,30.187L48.151,30.184L48.17,30.182L48.189,30.179L48.208,30.177L48.226,30.175L48.244,30.172L48.262,30.171L48.279,30.169L48.296,30.167L48.313,30.166L48.33,30.164L48.346,30.163L48.364,30.162L48.393,30.16L48.423,30.159L48.452,30.157L48.48,30.157L48.506,30.156L48.531,30.156L48.555,30.156L48.577,30.156L48.598,30.156Z" style="fill:rgb(109,154,152);"/>
        </g>
    </g>
    <g id="column1" transform="matrix(0.946616,0,0,0.946616,33.0738,32.0305)">
        <g transform="matrix(12.3041,0,0,12.7317,-89.1746,-36.5841)">
            <rect x="34.437" y="47.533" width="19.276" height="2.467" style="fill:rgb(97,137,137);"/>
        </g>
        <g transform="matrix(14.1767,0,0,10.0796,-321.396,86.944)">
            <rect x="47.715" y="33.338" width="13.986" height="14.446" style="fill:rgb(63,108,108);"/>
        </g>
        <g transform="matrix(14.1767,0,0,8.92084,-395.916,132.747)">
            <path d="M54.708,35.505C54.708,35.118 54.51,34.803 54.267,34.803C54.023,34.803 53.826,35.118 53.826,35.505L53.826,46.637C53.826,47.024 54.023,47.339 54.267,47.339C54.51,47.339 54.708,47.024 54.708,46.637L54.708,35.505Z" style="fill:rgb(55,81,81);"/>
        </g>
        <g transform="matrix(14.1767,0,0,8.92084,-354.522,132.581)">
            <path d="M54.708,35.505C54.708,35.118 54.51,34.803 54.267,34.803C54.023,34.803 53.826,35.118 53.826,35.505L53.826,46.637C53.826,47.024 54.023,47.339 54.267,47.339C54.51,47.339 54.708,47.024 54.708,46.637L54.708,35.505Z" style="fill:rgb(55,81,81);"/>
        </g>
        <g transform="matrix(14.1767,0,0,8.92084,-313.406,132.747)">
            <path d="M54.708,35.505C54.708,35.118 54.51,34.803 54.267,34.803C54.023,34.803 53.826,35.118 53.826,35.505L53.826,46.637C53.826,47.024 54.023,47.339 54.267,47.339C54.51,47.339 54.708,47.024 54.708,46.637L54.708,35.505Z" style="fill:rgb(55,81,81);"/>
        </g>
        <g transform="matrix(14.1767,0,0,8.92084,-272.797,132.747)">
            <path d="M54.708,35.505C54.708,35.118 54.51,34.803 54.267,34.803C54.023,34.803 53.826,35.118 53.826,35.505L53.826,46.637C53.826,47.024 54.023,47.339 54.267,47.339C54.51,47.339 54.708,47.024 54.708,46.637L54.708,35.505Z" style="fill:rgb(55,81,81);"/>
        </g>
        <g transform="matrix(14.1767,0,0,8.92084,-234.364,132.747)">
            <path d="M54.708,35.505C54.708,35.118 54.51,34.803 54.267,34.803C54.023,34.803 53.826,35.118 53.826,35.505L53.826,46.637C53.826,47.024 54.023,47.339 54.267,47.339C54.51,47.339 54.708,47.024 54.708,46.637L54.708,35.505Z" style="fill:rgb(55,81,81);"/>
        </g>
        <g transform="matrix(14.4868,0,0,14.4868,-354.976,-40.1763)">
            <path d="M48.598,30.156L48.618,30.157L48.636,30.157L48.654,30.158L48.681,30.159L48.704,30.16L48.673,30.158L62.83,30.158L62.778,30.164L62.801,30.162L62.818,30.16L62.836,30.159L62.855,30.157L62.876,30.156L62.898,30.155L62.923,30.153L62.949,30.152L62.976,30.152L63.005,30.151L63.036,30.151L63.066,30.151L63.101,30.151L63.136,30.152L63.172,30.153L63.191,30.154L63.21,30.155L63.229,30.156L63.249,30.157L63.269,30.159L63.289,30.16L63.31,30.162L63.331,30.164L63.352,30.166L63.374,30.168L63.396,30.171L63.418,30.174L63.44,30.177L63.463,30.18L63.486,30.183L63.51,30.187L63.534,30.191L63.558,30.195L63.582,30.2L63.607,30.204L63.632,30.21L63.657,30.215L63.682,30.221L63.708,30.227L63.734,30.233L63.76,30.24L63.787,30.248L63.814,30.255L63.841,30.263L63.869,30.272L63.896,30.281L63.924,30.29L63.952,30.3L63.981,30.311L64.01,30.322L64.036,30.332L64.053,30.339L64.082,30.352L64.097,30.358L64.111,30.365L64.126,30.372L64.141,30.378L64.156,30.386L64.171,30.393L64.186,30.4L64.201,30.408L64.216,30.415L64.231,30.423L64.246,30.431L64.261,30.44L64.276,30.448L64.291,30.457L64.306,30.466L64.322,30.475L64.337,30.484L64.352,30.493L64.367,30.503L64.383,30.513L64.398,30.523L64.413,30.533L64.428,30.543L64.444,30.554L64.459,30.565L64.474,30.576L64.489,30.587L64.504,30.599L64.52,30.611L64.535,30.623L64.55,30.635L64.565,30.647L64.58,30.66L64.595,30.673L64.61,30.686L64.624,30.699L64.639,30.713L64.654,30.726L64.668,30.74L64.683,30.755L64.697,30.769L64.712,30.784L64.726,30.799L64.74,30.814L64.754,30.829L64.768,30.845L64.782,30.861L64.796,30.877L64.809,30.893L64.823,30.91L64.836,30.926L64.849,30.943L64.862,30.96L64.875,30.978L64.887,30.995L64.9,31.013L64.912,31.031L64.924,31.049L64.936,31.068L64.948,31.086L64.959,31.105L64.971,31.124L64.982,31.143L64.993,31.162L65.003,31.182L65.014,31.202L65.024,31.221L65.034,31.241L65.044,31.262L65.054,31.282L65.063,31.302L65.072,31.323L65.081,31.343L65.09,31.364L65.098,31.385L65.106,31.406L65.114,31.427L65.122,31.448L65.129,31.47L65.136,31.491L65.143,31.513L65.15,31.534L65.156,31.556L65.162,31.577L65.168,31.599L65.174,31.621L65.179,31.643L65.185,31.665L65.189,31.687L65.194,31.709L65.198,31.731L65.203,31.753L65.207,31.776L65.21,31.798L65.214,31.82L65.217,31.842L65.22,31.865L65.222,31.887L65.225,31.909L65.227,31.932L65.229,31.954L65.231,31.976L65.233,31.999L65.234,32.021L65.235,32.044L65.236,32.066L65.237,32.088L65.237,32.111L65.237,32.134L65.237,32.153L65.237,32.173L65.237,32.193L65.236,32.213L65.235,32.233L65.234,32.253L65.233,32.273L65.231,32.293L65.229,32.313L65.227,32.333L65.225,32.354L65.222,32.374L65.22,32.394L65.217,32.415L65.213,32.435L65.21,32.456L65.206,32.476L65.202,32.497L65.197,32.517L65.193,32.538L65.188,32.558L65.182,32.578L65.177,32.599L65.171,32.62L65.165,32.639L65.159,32.66L65.152,32.68L65.145,32.7L65.138,32.721L65.13,32.741L65.123,32.76L65.115,32.78L65.106,32.8L65.098,32.82L65.089,32.839L65.08,32.859L65.07,32.878L65.061,32.897L65.051,32.916L65.041,32.935L65.03,32.954L65.02,32.972L65.009,32.99L64.998,33.008L64.986,33.026L64.975,33.044L64.963,33.061L64.951,33.079L64.939,33.096L64.927,33.113L64.914,33.129L64.901,33.146L64.888,33.162L64.876,33.178L64.862,33.193L64.849,33.209L64.836,33.224L64.822,33.239L64.808,33.254L64.794,33.268L64.781,33.282L64.766,33.296L64.752,33.31L64.738,33.323L64.724,33.336L64.709,33.349L64.695,33.361L64.681,33.374L64.666,33.386L64.652,33.397L64.637,33.409L64.623,33.42L64.608,33.431L64.593,33.442L64.579,33.452L64.564,33.463L64.549,33.473L64.535,33.483L64.52,33.492L64.505,33.501L64.49,33.511L64.474,33.521L64.447,33.537L64.418,33.553L64.39,33.568L64.361,33.583L64.333,33.597L64.305,33.61L64.277,33.622L64.249,33.634L64.222,33.645L64.195,33.655L64.168,33.665L64.142,33.674L64.116,33.683L64.09,33.691L64.065,33.699L64.039,33.706L64.015,33.713L63.99,33.719L63.966,33.725L63.942,33.731L63.918,33.736L63.895,33.74L63.872,33.745L63.849,33.749L63.827,33.753L63.805,33.756L63.783,33.76L63.762,33.763L63.741,33.765L63.72,33.768L63.699,33.77L63.679,33.772L63.659,33.774L63.639,33.776L63.62,33.777L63.601,33.779L63.582,33.78L63.564,33.781L63.545,33.782L63.527,33.782L63.51,33.783L63.492,33.783L63.475,33.783L63.458,33.784L63.442,33.784L63.426,33.784L63.408,33.784L63.378,33.783L63.348,33.782L63.32,33.781L63.292,33.779L63.265,33.778L63.24,33.776L63.215,33.774L63.192,33.772L63.171,33.77L63.15,33.768L63.13,33.765L63.112,33.763L63.096,33.761L63.079,33.759L63.054,33.755L63.034,33.752L63.026,33.75L62.943,33.733L62.862,33.71L62.782,33.68L62.706,33.645L62.632,33.604L62.561,33.557L62.494,33.506L62.431,33.45L62.372,33.389L62.319,33.323L62.27,33.254L62.226,33.182L62.188,33.107L62.156,33.028L62.13,32.948L62.109,32.866L62.095,32.783L62.087,32.699L62.086,32.614L62.091,32.53L62.102,32.446L62.108,32.419L49.741,32.419L49.754,32.494L49.761,32.578L49.762,32.663L49.757,32.747L49.746,32.831L49.728,32.914L49.704,32.995L49.675,33.074L49.639,33.151L49.598,33.224L49.551,33.295L49.499,33.362L49.443,33.424L49.382,33.483L49.316,33.536L49.247,33.585L49.174,33.628L49.099,33.666L49.02,33.698L48.94,33.724L48.858,33.744L48.848,33.746L48.827,33.75L48.811,33.753L48.795,33.756L48.776,33.759L48.757,33.762L48.736,33.765L48.713,33.768L48.689,33.771L48.664,33.774L48.637,33.777L48.609,33.78L48.579,33.782L48.55,33.785L48.532,33.786L48.516,33.787L48.499,33.788L48.482,33.789L48.464,33.789L48.447,33.79L48.428,33.79L48.41,33.791L48.391,33.791L48.372,33.791L48.353,33.791L48.333,33.791L48.313,33.791L48.293,33.79L48.272,33.79L48.251,33.789L48.23,33.788L48.208,33.787L48.186,33.785L48.164,33.784L48.141,33.782L48.118,33.78L48.095,33.777L48.071,33.774L48.047,33.771L48.022,33.768L47.998,33.764L47.973,33.76L47.948,33.756L47.922,33.751L47.896,33.746L47.869,33.741L47.843,33.735L47.816,33.728L47.788,33.721L47.761,33.714L47.733,33.706L47.704,33.698L47.676,33.689L47.647,33.679L47.618,33.669L47.588,33.658L47.56,33.647L47.543,33.64L47.528,33.634L47.513,33.628L47.498,33.621L47.483,33.614L47.467,33.608L47.452,33.6L47.437,33.593L47.421,33.586L47.406,33.578L47.39,33.57L47.375,33.562L47.359,33.553L47.343,33.544L47.328,33.536L47.312,33.527L47.297,33.517L47.281,33.508L47.265,33.498L47.249,33.488L47.234,33.478L47.218,33.467L47.202,33.456L47.187,33.445L47.171,33.434L47.155,33.423L47.14,33.411L47.124,33.399L47.109,33.387L47.093,33.374L47.078,33.361L47.063,33.348L47.047,33.335L47.032,33.321L47.017,33.308L47.002,33.294L46.987,33.279L46.973,33.265L46.958,33.25L46.943,33.235L46.929,33.22L46.915,33.204L46.901,33.188L46.887,33.172L46.873,33.156L46.859,33.139L46.846,33.123L46.833,33.106L46.819,33.088L46.807,33.071L46.794,33.053L46.781,33.035L46.769,33.017L46.757,32.999L46.745,32.981L46.734,32.962L46.722,32.943L46.711,32.924L46.7,32.905L46.689,32.886L46.679,32.866L46.669,32.847L46.659,32.827L46.649,32.807L46.64,32.787L46.631,32.767L46.622,32.747L46.613,32.727L46.605,32.706L46.597,32.686L46.589,32.665L46.581,32.644L46.574,32.624L46.567,32.603L46.56,32.582L46.554,32.561L46.548,32.54L46.542,32.519L46.536,32.498L46.531,32.477L46.525,32.456L46.52,32.435L46.516,32.413L46.511,32.392L46.507,32.371L46.503,32.35L46.5,32.329L46.496,32.308L46.493,32.286L46.49,32.265L46.488,32.244L46.485,32.223L46.483,32.202L46.481,32.181L46.479,32.16L46.478,32.139L46.476,32.117L46.475,32.096L46.474,32.075L46.474,32.054L46.473,32.033L46.473,32.013L46.473,31.992L46.473,31.971L46.473,31.95L46.474,31.929L46.474,31.908L46.475,31.888L46.476,31.867L46.478,31.846L46.479,31.825L46.481,31.805L46.483,31.784L46.486,31.763L46.488,31.742L46.491,31.722L46.494,31.701L46.497,31.68L46.501,31.659L46.504,31.639L46.508,31.618L46.513,31.597L46.517,31.577L46.522,31.556L46.527,31.536L46.532,31.515L46.537,31.495L46.543,31.474L46.549,31.454L46.555,31.434L46.562,31.414L46.568,31.394L46.575,31.374L46.582,31.354L46.59,31.334L46.597,31.314L46.605,31.295L46.613,31.275L46.622,31.256L46.63,31.237L46.639,31.218L46.648,31.199L46.657,31.18L46.667,31.161L46.676,31.143L46.686,31.125L46.696,31.107L46.706,31.088L46.717,31.071L46.727,31.053L46.738,31.036L46.749,31.019L46.76,31.001L46.772,30.984L46.783,30.968L46.795,30.952L46.806,30.935L46.819,30.919L46.831,30.903L46.843,30.888L46.855,30.872L46.867,30.857L46.88,30.842L46.893,30.827L46.905,30.813L46.918,30.798L46.931,30.784L46.944,30.77L46.957,30.757L46.971,30.743L46.984,30.73L46.997,30.717L47.011,30.704L47.024,30.692L47.037,30.679L47.051,30.667L47.065,30.655L47.078,30.643L47.092,30.632L47.105,30.621L47.119,30.61L47.133,30.599L47.147,30.588L47.16,30.578L47.174,30.567L47.188,30.557L47.202,30.547L47.215,30.538L47.229,30.528L47.243,30.519L47.257,30.51L47.27,30.501L47.284,30.492L47.3,30.482L47.325,30.467L47.352,30.451L47.379,30.436L47.406,30.421L47.433,30.407L47.459,30.393L47.486,30.381L47.512,30.368L47.538,30.357L47.564,30.345L47.589,30.335L47.615,30.324L47.64,30.314L47.665,30.305L47.69,30.296L47.714,30.288L47.738,30.28L47.762,30.272L47.786,30.265L47.81,30.258L47.833,30.251L47.856,30.245L47.879,30.239L47.901,30.233L47.924,30.228L47.946,30.222L47.967,30.218L47.989,30.213L48.01,30.209L48.031,30.204L48.051,30.201L48.072,30.197L48.092,30.193L48.112,30.19L48.132,30.187L48.151,30.184L48.17,30.182L48.189,30.179L48.208,30.177L48.226,30.175L48.244,30.172L48.262,30.171L48.279,30.169L48.296,30.167L48.313,30.166L48.33,30.164L48.346,30.163L48.364,30.162L48.393,30.16L48.423,30.159L48.452,30.157L48.48,30.157L48.506,30.156L48.531,30.156L48.555,30.156L48.577,30.156L48.598,30.156Z" style="fill:rgb(97,137,137);"/>
        </g>
    </g>
    <g id="column2" transform="matrix(0.946616,0,0,0.946616,21.6048,32.0305)">
        <g transform="matrix(12.3041,0,0,12.7317,-248.82,-36.5841)">
            <rect x="34.437" y="47.533" width="19.276" height="2.467" style="fill:rgb(136,185,185);"/>
        </g>
        <g transform="matrix(14.1767,0,0,14.2132,-481.042,-110.58)">
            <rect x="47.715" y="33.338" width="13.986" height="14.446" style="fill:rgb(115,163,163);"/>
        </g>
        <g transform="matrix(13.0112,0,0,14.1767,-484.791,-116.057)">
            <path d="M54.708,35.208C54.708,34.985 54.51,34.803 54.267,34.803C54.023,34.803 53.826,34.985 53.826,35.208L53.826,46.934C53.826,47.157 54.023,47.339 54.267,47.339C54.51,47.339 54.708,47.157 54.708,46.934L54.708,35.208Z" style="fill:rgb(98,140,140);"/>
        </g>
        <g transform="matrix(13.0112,0,0,14.1767,-446.8,-116.321)">
            <path d="M54.708,35.208C54.708,34.985 54.51,34.803 54.267,34.803C54.023,34.803 53.826,34.985 53.826,35.208L53.826,46.934C53.826,47.157 54.023,47.339 54.267,47.339C54.51,47.339 54.708,47.157 54.708,46.934L54.708,35.208Z" style="fill:rgb(98,140,140);"/>
        </g>
        <g transform="matrix(13.0112,0,0,14.1767,-409.065,-116.057)">
            <path d="M54.708,35.208C54.708,34.985 54.51,34.803 54.267,34.803C54.023,34.803 53.826,34.985 53.826,35.208L53.826,46.934C53.826,47.157 54.023,47.339 54.267,47.339C54.51,47.339 54.708,47.157 54.708,46.934L54.708,35.208Z" style="fill:rgb(98,140,140);"/>
        </g>
        <g transform="matrix(13.0112,0,0,14.1767,-371.794,-116.057)">
            <path d="M54.708,35.208C54.708,34.985 54.51,34.803 54.267,34.803C54.023,34.803 53.826,34.985 53.826,35.208L53.826,46.934C53.826,47.157 54.023,47.339 54.267,47.339C54.51,47.339 54.708,47.157 54.708,46.934L54.708,35.208Z" style="fill:rgb(98,140,140);"/>
        </g>
        <g transform="matrix(13.0112,0,0,14.1767,-336.521,-116.057)">
            <path d="M54.708,35.208C54.708,34.985 54.51,34.803 54.267,34.803C54.023,34.803 53.826,34.985 53.826,35.208L53.826,46.934C53.826,47.157 54.023,47.339 54.267,47.339C54.51,47.339 54.708,47.157 54.708,46.934L54.708,35.208Z" style="fill:rgb(98,140,140);"/>
        </g>
        <g transform="matrix(14.4868,0,0,14.4868,-514.622,-102.62)">
            <path d="M48.598,30.156L48.618,30.157L48.636,30.157L48.655,30.158L48.681,30.159L48.703,30.16L48.672,30.158L62.83,30.158L62.778,30.164L62.801,30.162L62.818,30.16L62.835,30.159L62.855,30.157L62.876,30.156L62.898,30.155L62.923,30.153L62.949,30.152L62.976,30.152L63.005,30.151L63.036,30.151L63.066,30.151L63.101,30.151L63.136,30.152L63.154,30.153L63.172,30.153L63.191,30.154L63.21,30.155L63.229,30.156L63.249,30.157L63.269,30.159L63.289,30.16L63.31,30.162L63.331,30.164L63.352,30.166L63.374,30.168L63.396,30.171L63.418,30.174L63.44,30.177L63.463,30.18L63.486,30.183L63.51,30.187L63.534,30.191L63.558,30.195L63.582,30.2L63.607,30.204L63.632,30.21L63.657,30.215L63.682,30.221L63.708,30.227L63.734,30.233L63.76,30.24L63.787,30.248L63.814,30.255L63.841,30.263L63.869,30.272L63.896,30.281L63.924,30.29L63.952,30.3L63.981,30.311L64.009,30.322L64.036,30.333L64.053,30.339L64.082,30.352L64.111,30.365L64.126,30.372L64.141,30.378L64.156,30.386L64.171,30.393L64.186,30.4L64.201,30.408L64.216,30.415L64.231,30.423L64.246,30.431L64.261,30.44L64.276,30.448L64.291,30.457L64.306,30.466L64.322,30.475L64.337,30.484L64.352,30.493L64.367,30.503L64.382,30.513L64.398,30.523L64.413,30.533L64.428,30.544L64.444,30.554L64.459,30.565L64.474,30.576L64.489,30.587L64.504,30.599L64.519,30.611L64.535,30.623L64.55,30.635L64.565,30.647L64.58,30.66L64.595,30.673L64.61,30.686L64.624,30.699L64.639,30.713L64.654,30.726L64.668,30.74L64.683,30.755L64.697,30.769L64.712,30.784L64.726,30.799L64.74,30.814L64.754,30.829L64.768,30.845L64.782,30.861L64.796,30.877L64.809,30.893L64.823,30.91L64.836,30.926L64.849,30.943L64.862,30.96L64.875,30.978L64.887,30.995L64.9,31.013L64.912,31.031L64.924,31.049L64.936,31.068L64.948,31.086L64.959,31.105L64.971,31.124L64.982,31.143L64.993,31.162L65.003,31.182L65.014,31.201L65.024,31.221L65.034,31.241L65.044,31.261L65.054,31.282L65.063,31.302L65.072,31.323L65.081,31.343L65.09,31.364L65.098,31.385L65.106,31.406L65.114,31.427L65.122,31.448L65.129,31.47L65.136,31.491L65.143,31.512L65.15,31.534L65.156,31.556L65.162,31.577L65.168,31.599L65.174,31.621L65.179,31.643L65.185,31.665L65.189,31.687L65.194,31.709L65.198,31.731L65.203,31.753L65.207,31.776L65.21,31.798L65.214,31.82L65.217,31.842L65.22,31.865L65.222,31.887L65.225,31.909L65.227,31.932L65.229,31.954L65.231,31.976L65.233,31.999L65.234,32.021L65.235,32.044L65.236,32.066L65.237,32.088L65.237,32.111L65.237,32.134L65.237,32.153L65.237,32.173L65.237,32.193L65.236,32.213L65.235,32.233L65.234,32.253L65.233,32.273L65.231,32.293L65.229,32.313L65.227,32.333L65.225,32.354L65.222,32.374L65.22,32.394L65.216,32.415L65.213,32.435L65.21,32.456L65.206,32.476L65.202,32.497L65.197,32.517L65.193,32.538L65.188,32.558L65.182,32.579L65.177,32.599L65.171,32.619L65.165,32.64L65.159,32.66L65.152,32.68L65.145,32.7L65.138,32.72L65.13,32.741L65.123,32.761L65.115,32.78L65.106,32.8L65.098,32.82L65.089,32.839L65.08,32.859L65.071,32.878L65.061,32.897L65.051,32.916L65.041,32.935L65.03,32.954L65.02,32.972L65.009,32.99L64.998,33.008L64.987,33.026L64.975,33.044L64.963,33.061L64.951,33.079L64.939,33.096L64.927,33.113L64.914,33.129L64.901,33.146L64.889,33.162L64.875,33.178L64.862,33.193L64.849,33.209L64.836,33.224L64.822,33.239L64.808,33.253L64.794,33.268L64.78,33.282L64.767,33.296L64.752,33.309L64.738,33.323L64.724,33.336L64.71,33.349L64.695,33.361L64.681,33.374L64.666,33.386L64.652,33.397L64.637,33.409L64.622,33.42L64.608,33.431L64.593,33.442L64.578,33.453L64.564,33.463L64.549,33.473L64.535,33.483L64.52,33.492L64.505,33.502L64.491,33.511L64.474,33.521L64.447,33.537L64.418,33.553L64.39,33.568L64.361,33.583L64.333,33.597L64.305,33.61L64.277,33.622L64.249,33.634L64.222,33.645L64.195,33.655L64.168,33.665L64.142,33.674L64.116,33.683L64.09,33.691L64.065,33.699L64.039,33.706L64.015,33.713L63.99,33.719L63.966,33.725L63.942,33.731L63.918,33.736L63.895,33.74L63.872,33.745L63.849,33.749L63.827,33.753L63.805,33.756L63.783,33.76L63.762,33.763L63.741,33.766L63.72,33.768L63.699,33.77L63.679,33.772L63.659,33.774L63.639,33.776L63.62,33.777L63.601,33.779L63.582,33.78L63.564,33.781L63.546,33.782L63.527,33.782L63.51,33.783L63.492,33.783L63.475,33.783L63.458,33.784L63.442,33.784L63.425,33.784L63.408,33.784L63.379,33.783L63.348,33.782L63.32,33.781L63.292,33.779L63.265,33.778L63.24,33.776L63.215,33.774L63.192,33.772L63.17,33.77L63.15,33.768L63.131,33.765L63.112,33.763L63.095,33.761L63.078,33.759L63.054,33.755L63.033,33.752L63.024,33.75L62.942,33.733L62.861,33.709L62.781,33.68L62.705,33.644L62.631,33.603L62.56,33.557L62.493,33.505L62.43,33.449L62.372,33.388L62.318,33.323L62.269,33.254L62.226,33.181L62.188,33.105L62.156,33.027L62.129,32.947L62.109,32.865L62.095,32.782L62.087,32.697L62.086,32.613L62.091,32.528L62.102,32.445L62.108,32.419L49.741,32.419L49.754,32.494L49.761,32.578L49.762,32.663L49.757,32.747L49.746,32.831L49.728,32.914L49.704,32.995L49.675,33.074L49.639,33.151L49.598,33.224L49.551,33.295L49.499,33.362L49.443,33.424L49.382,33.483L49.316,33.536L49.247,33.585L49.174,33.628L49.099,33.666L49.02,33.698L48.94,33.724L48.858,33.744L48.848,33.746L48.827,33.75L48.811,33.753L48.794,33.756L48.776,33.759L48.757,33.762L48.736,33.765L48.713,33.768L48.689,33.771L48.664,33.774L48.637,33.777L48.609,33.78L48.579,33.782L48.55,33.785L48.532,33.786L48.515,33.787L48.499,33.788L48.482,33.789L48.464,33.789L48.447,33.79L48.429,33.79L48.41,33.791L48.391,33.791L48.372,33.791L48.353,33.791L48.333,33.791L48.313,33.791L48.293,33.79L48.272,33.79L48.251,33.789L48.23,33.788L48.208,33.787L48.186,33.785L48.164,33.784L48.141,33.782L48.118,33.78L48.095,33.777L48.071,33.774L48.047,33.771L48.023,33.768L47.998,33.764L47.973,33.76L47.947,33.756L47.922,33.751L47.896,33.746L47.869,33.741L47.843,33.735L47.816,33.728L47.788,33.721L47.761,33.714L47.733,33.706L47.704,33.698L47.676,33.689L47.647,33.679L47.618,33.669L47.588,33.658L47.561,33.647L47.543,33.641L47.528,33.634L47.513,33.628L47.498,33.621L47.483,33.615L47.467,33.608L47.452,33.6L47.437,33.593L47.421,33.585L47.406,33.578L47.39,33.57L47.375,33.562L47.359,33.553L47.343,33.544L47.328,33.536L47.312,33.527L47.297,33.517L47.281,33.508L47.265,33.498L47.249,33.488L47.234,33.478L47.218,33.467L47.203,33.457L47.187,33.445L47.171,33.434L47.155,33.423L47.14,33.411L47.124,33.399L47.109,33.387L47.093,33.374L47.078,33.361L47.063,33.348L47.048,33.335L47.032,33.321L47.017,33.308L47.002,33.294L46.987,33.279L46.973,33.265L46.958,33.25L46.944,33.235L46.929,33.22L46.915,33.204L46.901,33.188L46.887,33.172L46.873,33.156L46.859,33.139L46.846,33.123L46.833,33.106L46.819,33.088L46.806,33.071L46.794,33.053L46.781,33.035L46.769,33.017L46.757,32.999L46.745,32.981L46.734,32.962L46.722,32.943L46.711,32.924L46.7,32.905L46.689,32.886L46.679,32.866L46.669,32.847L46.659,32.827L46.649,32.807L46.64,32.787L46.631,32.767L46.622,32.747L46.613,32.727L46.605,32.706L46.597,32.686L46.589,32.665L46.581,32.644L46.574,32.624L46.567,32.603L46.56,32.582L46.554,32.561L46.548,32.54L46.542,32.519L46.536,32.498L46.531,32.477L46.525,32.456L46.52,32.435L46.516,32.413L46.511,32.392L46.507,32.371L46.503,32.35L46.5,32.329L46.496,32.308L46.493,32.286L46.49,32.265L46.488,32.244L46.485,32.223L46.483,32.202L46.481,32.181L46.479,32.16L46.478,32.138L46.476,32.117L46.475,32.096L46.474,32.075L46.474,32.054L46.473,32.033L46.473,32.012L46.473,31.992L46.473,31.971L46.473,31.95L46.474,31.929L46.474,31.908L46.475,31.888L46.476,31.867L46.478,31.846L46.479,31.825L46.481,31.805L46.483,31.784L46.486,31.763L46.488,31.742L46.491,31.722L46.494,31.701L46.497,31.68L46.501,31.659L46.504,31.639L46.508,31.618L46.513,31.597L46.517,31.577L46.522,31.556L46.527,31.536L46.532,31.515L46.537,31.495L46.543,31.474L46.549,31.454L46.555,31.434L46.562,31.414L46.568,31.394L46.575,31.374L46.582,31.354L46.59,31.334L46.597,31.314L46.605,31.295L46.613,31.275L46.622,31.256L46.63,31.237L46.639,31.218L46.648,31.199L46.657,31.18L46.667,31.161L46.676,31.143L46.686,31.125L46.696,31.106L46.706,31.088L46.717,31.071L46.727,31.053L46.738,31.036L46.749,31.018L46.76,31.001L46.772,30.985L46.783,30.968L46.795,30.951L46.807,30.935L46.819,30.919L46.831,30.903L46.843,30.888L46.855,30.872L46.868,30.857L46.88,30.842L46.893,30.827L46.905,30.813L46.918,30.798L46.931,30.784L46.944,30.77L46.957,30.757L46.971,30.743L46.984,30.73L46.997,30.717L47.011,30.704L47.024,30.692L47.037,30.679L47.051,30.667L47.065,30.655L47.078,30.643L47.092,30.632L47.105,30.621L47.119,30.61L47.133,30.599L47.147,30.588L47.16,30.577L47.174,30.567L47.188,30.557L47.202,30.547L47.215,30.538L47.229,30.528L47.243,30.519L47.257,30.51L47.27,30.501L47.284,30.492L47.3,30.482L47.325,30.467L47.352,30.451L47.379,30.436L47.406,30.421L47.433,30.407L47.459,30.393L47.486,30.381L47.512,30.368L47.538,30.356L47.564,30.345L47.589,30.335L47.615,30.324L47.64,30.315L47.665,30.305L47.69,30.296L47.714,30.288L47.738,30.28L47.762,30.272L47.786,30.265L47.81,30.258L47.833,30.251L47.856,30.245L47.879,30.239L47.901,30.233L47.923,30.228L47.945,30.222L47.967,30.218L47.989,30.213L48.01,30.209L48.031,30.204L48.052,30.201L48.072,30.197L48.092,30.193L48.112,30.19L48.132,30.187L48.151,30.184L48.17,30.182L48.189,30.179L48.208,30.177L48.226,30.175L48.244,30.172L48.262,30.171L48.279,30.169L48.296,30.167L48.313,30.166L48.33,30.164L48.346,30.163L48.364,30.162L48.393,30.16L48.423,30.159L48.452,30.157L48.48,30.157L48.506,30.156L48.531,30.156L48.555,30.156L48.577,30.156L48.598,30.156Z" style="fill:rgb(136,185,185);"/>
        </g>
    </g>
    <g transform="matrix(16.2694,0,0,16.2694,-589.62,-229.641)">
        <circle cx="54.681" cy="21.591" r="5.15" style="fill:rgb(205,149,82);"/>
        <clipPath id="_clip1">
            <circle cx="54.681" cy="21.591" r="5.15"/>
        </clipPath>
        <g clip-path="url(#_clip1)">
            <g transform="matrix(0.824853,0,0,0.824853,9.57716,3.78154)">
                <circle cx="54.681" cy="21.591" r="5.15" style="fill:rgb(240,199,70);"/>
            </g>
            <g transform="matrix(0.061465,0,0,0.061465,50.4002,17.5932)">
                <text x="38.844px" y="102.959px" style="font-family:'Ayuthaya';font-size:105px;fill:rgb(205,149,82);">1</text>
            </g>
        </g>
    </g>
    <g transform="matrix(14.4764,0,0,14.4764,-678.877,-129.48)">
        <circle cx="54.681" cy="21.591" r="5.15" style="fill:rgb(110,132,159);"/>
        <clipPath id="_clip2">
            <circle cx="54.681" cy="21.591" r="5.15"/>
        </clipPath>
        <g clip-path="url(#_clip2)">
            <g transform="matrix(0.824853,0,0,0.824853,9.57716,3.78154)">
                <circle cx="54.681" cy="21.591" r="5.15" style="fill:rgb(217,217,217);"/>
            </g>
            <g transform="matrix(0.0690781,0,0,0.0690781,50.1045,17.4393)">
                <text x="38.844px" y="95.866px" style="font-family:'Ayuthaya';font-size:96px;fill:rgb(110,132,159);">2</text>
            </g>
        </g>
    </g>
    <g transform="matrix(14.4764,0,0,14.4764,-315.265,-97.4653)">
        <circle cx="54.681" cy="21.591" r="5.15" style="fill:rgb(165,99,54);"/>
        <clipPath id="_clip3">
            <circle cx="54.681" cy="21.591" r="5.15"/>
        </clipPath>
        <g clip-path="url(#_clip3)">
            <g transform="matrix(0.824853,0,0,0.824853,9.57716,3.78154)">
                <circle cx="54.681" cy="21.591" r="5.15" style="fill:rgb(216,162,85);"/>
            </g>
            <g transform="matrix(0.0690781,0,0,0.0690781,50.1045,17.4393)">
                <text x="38.844px" y="95.866px" style="font-family:'Ayuthaya';font-size:96px;fill:rgb(165,99,54);">3</text>
            </g>
        </g>
    </g>
</svg>
