<?xml version="1.0" standalone="no"?>
<!DOCTYPE svg PUBLIC "-//W3C//DTD SVG 1.1//EN" "http://www.w3.org/Graphics/SVG/1.1/DTD/svg11.dtd">
<svg width="100%" height="100%" viewBox="0 0 50 50" version="1.1" xmlns="http://www.w3.org/2000/svg" xmlns:xlink="http://www.w3.org/1999/xlink" xml:space="preserve" style="fill-rule:evenodd;clip-rule:evenodd;stroke-linejoin:round;stroke-miterlimit:1.41421;">
    <g transform="matrix(4.31882,0,0,4.31882,3.40589,3.40589)">
        <path d="M10,0L0,10" style="fill:rgb(235,235,235);"/>
        <path d="M10.03,-0.23L10.06,-0.224L10.089,-0.214L10.116,-0.201L10.141,-0.184L10.164,-0.164L10.184,-0.141L10.201,-0.116L10.214,-0.089L10.224,-0.06L10.23,-0.03L10.232,0L10.23,0.03L10.224,0.06L10.214,0.089L10.201,0.116L10.184,0.141L10.164,0.164L0.164,10.164L0.141,10.184L0.116,10.201L0.089,10.214L0.06,10.224L0.03,10.23L0,10.232L-0.03,10.23L-0.06,10.224L-0.089,10.214L-0.116,10.201L-0.141,10.184L-0.164,10.164L-0.184,10.141L-0.201,10.116L-0.214,10.089L-0.224,10.06L-0.23,10.03L-0.232,10L-0.23,9.97L-0.224,9.94L-0.214,9.911L-0.201,9.884L-0.184,9.859L-0.164,9.836L9.836,-0.164L9.859,-0.184L9.884,-0.201L9.911,-0.214L9.94,-0.224L9.97,-0.23L10,-0.232L10.03,-0.23Z" style="fill:rgb(67,67,67);"/>
    </g>
    <g transform="matrix(4.31882,0,0,4.31882,3.40589,3.40589)">
        <path d="M0,0L10,10" style="fill:rgb(235,235,235);"/>
        <path d="M0.03,-0.23L0.06,-0.224L0.089,-0.214L0.116,-0.201L0.141,-0.184L0.164,-0.164L10.164,9.836L10.184,9.859L10.201,9.884L10.214,9.911L10.224,9.94L10.23,9.97L10.232,10L10.23,10.03L10.224,10.06L10.214,10.089L10.201,10.116L10.184,10.141L10.164,10.164L10.141,10.184L10.116,10.201L10.089,10.214L10.06,10.224L10.03,10.23L10,10.232L9.97,10.23L9.94,10.224L9.911,10.214L9.884,10.201L9.859,10.184L9.836,10.164L-0.164,0.164L-0.184,0.141L-0.201,0.116L-0.214,0.089L-0.224,0.06L-0.23,0.03L-0.232,0L-0.23,-0.03L-0.224,-0.06L-0.214,-0.089L-0.201,-0.116L-0.184,-0.141L-0.164,-0.164L-0.141,-0.184L-0.116,-0.201L-0.089,-0.214L-0.06,-0.224L-0.03,-0.23L0,-0.232L0.03,-0.23Z" style="fill:rgb(67,67,67);"/>
    </g>
</svg>
